%FSLAX45Y45*%
G04 Gerber Fmt 4.5, Leading zero omitted, Abs format (unit mm)*
G04 Created by KiCad (PCBNEW 5.1.10-88a1d61d58~90~ubuntu21.04.1) date 2021-08-17 12:13:28*
%MOMM*%
%LPD*%
G01*
G04 APERTURE LIST*
%TA.AperFunction,Profile*%
%ADD10C,0.050000*%
%TD*%
%ADD11C,0.200000*%
%ADD12C,0.300000*%
G04 APERTURE END LIST*
D10*
X39449375Y-20081875D02*
G75*
G02*
X39131875Y-20399375I-317500J0D01*
G01*
X2619375Y-20399375D02*
X11544300Y-20399375D01*
X39131875Y-7302500D02*
G75*
G02*
X39449375Y-7620000I0J-317500D01*
G01*
X39131875Y-20399375D02*
X27860625Y-20399375D01*
X27860625Y-20399375D02*
X21113750Y-21828125D01*
X18256250Y-21828125D02*
X21113750Y-21828125D01*
X11544300Y-20399375D02*
X18256250Y-21828125D01*
X2301875Y-7620000D02*
G75*
G02*
X2619375Y-7302500I317500J0D01*
G01*
X2619375Y-7302500D02*
X39131875Y-7302500D01*
X2301875Y-7620000D02*
X2301875Y-20081875D01*
X39449375Y-7620000D02*
X39449375Y-20081875D01*
X2619375Y-20399375D02*
G75*
G02*
X2301875Y-20081875I0J317500D01*
G01*
D11*
X2592125Y-7592375D02*
X2812125Y-7812375D01*
X2812125Y-7592375D02*
X2592125Y-7812375D01*
X2592125Y-9332000D02*
X2812125Y-9552000D01*
X2812125Y-9332000D02*
X2592125Y-9552000D01*
X3779375Y-18066875D02*
X3999375Y-18286875D01*
X3999375Y-18066875D02*
X3779375Y-18286875D01*
X12590000Y-17987500D02*
X12810000Y-18207500D01*
X12810000Y-17987500D02*
X12590000Y-18207500D01*
X16074500Y-9332000D02*
X16294500Y-9552000D01*
X16294500Y-9332000D02*
X16074500Y-9552000D01*
X19575000Y-20368750D02*
X19795000Y-20588750D01*
X19795000Y-20368750D02*
X19575000Y-20588750D01*
X23075500Y-9332000D02*
X23295500Y-9552000D01*
X23295500Y-9332000D02*
X23075500Y-9552000D01*
X26560000Y-17987500D02*
X26780000Y-18207500D01*
X26780000Y-17987500D02*
X26560000Y-18207500D01*
X37751875Y-17987500D02*
X37971875Y-18207500D01*
X37971875Y-17987500D02*
X37751875Y-18207500D01*
X38939125Y-7592375D02*
X39159125Y-7812375D01*
X39159125Y-7592375D02*
X38939125Y-7812375D01*
X38939125Y-9332000D02*
X39159125Y-9552000D01*
X39159125Y-9332000D02*
X38939125Y-9552000D01*
X7755625Y-10318750D02*
G75*
G03*
X7755625Y-10318750I-215000J0D01*
G01*
X34425625Y-10318750D02*
G75*
G03*
X34425625Y-10318750I-215000J0D01*
G01*
D12*
X2585803Y-22296339D02*
X2585803Y-21996339D01*
X2657232Y-21996339D01*
X2700089Y-22010625D01*
X2728661Y-22039197D01*
X2742946Y-22067768D01*
X2757232Y-22124911D01*
X2757232Y-22167768D01*
X2742946Y-22224911D01*
X2728661Y-22253482D01*
X2700089Y-22282054D01*
X2657232Y-22296339D01*
X2585803Y-22296339D01*
X2885803Y-22296339D02*
X2885803Y-22096339D01*
X2885803Y-22153482D02*
X2900089Y-22124911D01*
X2914375Y-22110625D01*
X2942946Y-22096339D01*
X2971518Y-22096339D01*
X3071518Y-22296339D02*
X3071518Y-22096339D01*
X3071518Y-21996339D02*
X3057232Y-22010625D01*
X3071518Y-22024911D01*
X3085803Y-22010625D01*
X3071518Y-21996339D01*
X3071518Y-22024911D01*
X3257232Y-22296339D02*
X3228661Y-22282054D01*
X3214375Y-22253482D01*
X3214375Y-21996339D01*
X3414375Y-22296339D02*
X3385803Y-22282054D01*
X3371518Y-22253482D01*
X3371518Y-21996339D01*
X3757232Y-22296339D02*
X3757232Y-21996339D01*
X3857232Y-22210625D01*
X3957232Y-21996339D01*
X3957232Y-22296339D01*
X4228661Y-22296339D02*
X4228661Y-22139197D01*
X4214375Y-22110625D01*
X4185803Y-22096339D01*
X4128661Y-22096339D01*
X4100089Y-22110625D01*
X4228661Y-22282054D02*
X4200089Y-22296339D01*
X4128661Y-22296339D01*
X4100089Y-22282054D01*
X4085803Y-22253482D01*
X4085803Y-22224911D01*
X4100089Y-22196339D01*
X4128661Y-22182054D01*
X4200089Y-22182054D01*
X4228661Y-22167768D01*
X4371518Y-22096339D02*
X4371518Y-22396339D01*
X4371518Y-22110625D02*
X4400089Y-22096339D01*
X4457232Y-22096339D01*
X4485803Y-22110625D01*
X4500089Y-22124911D01*
X4514375Y-22153482D01*
X4514375Y-22239197D01*
X4500089Y-22267768D01*
X4485803Y-22282054D01*
X4457232Y-22296339D01*
X4400089Y-22296339D01*
X4371518Y-22282054D01*
X4642946Y-22267768D02*
X4657232Y-22282054D01*
X4642946Y-22296339D01*
X4628661Y-22282054D01*
X4642946Y-22267768D01*
X4642946Y-22296339D01*
X4642946Y-22110625D02*
X4657232Y-22124911D01*
X4642946Y-22139197D01*
X4628661Y-22124911D01*
X4642946Y-22110625D01*
X4642946Y-22139197D01*
X2079375Y-22680625D02*
X2299375Y-22900625D01*
X2299375Y-22680625D02*
X2079375Y-22900625D01*
X2571518Y-22654911D02*
X2585803Y-22640625D01*
X2614375Y-22626339D01*
X2685803Y-22626339D01*
X2714375Y-22640625D01*
X2728661Y-22654911D01*
X2742946Y-22683482D01*
X2742946Y-22712054D01*
X2728661Y-22754911D01*
X2557232Y-22926339D01*
X2742946Y-22926339D01*
X2871518Y-22897768D02*
X2885803Y-22912054D01*
X2871518Y-22926339D01*
X2857232Y-22912054D01*
X2871518Y-22897768D01*
X2871518Y-22926339D01*
X3000089Y-22654911D02*
X3014375Y-22640625D01*
X3042946Y-22626339D01*
X3114375Y-22626339D01*
X3142946Y-22640625D01*
X3157232Y-22654911D01*
X3171518Y-22683482D01*
X3171518Y-22712054D01*
X3157232Y-22754911D01*
X2985803Y-22926339D01*
X3171518Y-22926339D01*
X3357232Y-22626339D02*
X3385803Y-22626339D01*
X3414375Y-22640625D01*
X3428661Y-22654911D01*
X3442946Y-22683482D01*
X3457232Y-22740625D01*
X3457232Y-22812054D01*
X3442946Y-22869196D01*
X3428661Y-22897768D01*
X3414375Y-22912054D01*
X3385803Y-22926339D01*
X3357232Y-22926339D01*
X3328661Y-22912054D01*
X3314375Y-22897768D01*
X3300089Y-22869196D01*
X3285803Y-22812054D01*
X3285803Y-22740625D01*
X3300089Y-22683482D01*
X3314375Y-22654911D01*
X3328661Y-22640625D01*
X3357232Y-22626339D01*
X3642946Y-22626339D02*
X3671518Y-22626339D01*
X3700089Y-22640625D01*
X3714375Y-22654911D01*
X3728661Y-22683482D01*
X3742946Y-22740625D01*
X3742946Y-22812054D01*
X3728661Y-22869196D01*
X3714375Y-22897768D01*
X3700089Y-22912054D01*
X3671518Y-22926339D01*
X3642946Y-22926339D01*
X3614375Y-22912054D01*
X3600089Y-22897768D01*
X3585803Y-22869196D01*
X3571518Y-22812054D01*
X3571518Y-22740625D01*
X3585803Y-22683482D01*
X3600089Y-22654911D01*
X3614375Y-22640625D01*
X3642946Y-22626339D01*
X3871518Y-22926339D02*
X3871518Y-22726339D01*
X3871518Y-22754911D02*
X3885803Y-22740625D01*
X3914375Y-22726339D01*
X3957232Y-22726339D01*
X3985803Y-22740625D01*
X4000089Y-22769196D01*
X4000089Y-22926339D01*
X4000089Y-22769196D02*
X4014375Y-22740625D01*
X4042946Y-22726339D01*
X4085803Y-22726339D01*
X4114375Y-22740625D01*
X4128661Y-22769196D01*
X4128661Y-22926339D01*
X4271518Y-22926339D02*
X4271518Y-22726339D01*
X4271518Y-22754911D02*
X4285803Y-22740625D01*
X4314375Y-22726339D01*
X4357232Y-22726339D01*
X4385803Y-22740625D01*
X4400089Y-22769196D01*
X4400089Y-22926339D01*
X4400089Y-22769196D02*
X4414375Y-22740625D01*
X4442946Y-22726339D01*
X4485803Y-22726339D01*
X4514375Y-22740625D01*
X4528661Y-22769196D01*
X4528661Y-22926339D01*
X5114375Y-22612054D02*
X4857232Y-22997768D01*
X5500089Y-22626339D02*
X5528661Y-22626339D01*
X5557232Y-22640625D01*
X5571518Y-22654911D01*
X5585803Y-22683482D01*
X5600089Y-22740625D01*
X5600089Y-22812054D01*
X5585803Y-22869196D01*
X5571518Y-22897768D01*
X5557232Y-22912054D01*
X5528661Y-22926339D01*
X5500089Y-22926339D01*
X5471518Y-22912054D01*
X5457232Y-22897768D01*
X5442946Y-22869196D01*
X5428661Y-22812054D01*
X5428661Y-22740625D01*
X5442946Y-22683482D01*
X5457232Y-22654911D01*
X5471518Y-22640625D01*
X5500089Y-22626339D01*
X5728661Y-22897768D02*
X5742946Y-22912054D01*
X5728661Y-22926339D01*
X5714375Y-22912054D01*
X5728661Y-22897768D01*
X5728661Y-22926339D01*
X5928661Y-22626339D02*
X5957232Y-22626339D01*
X5985803Y-22640625D01*
X6000089Y-22654911D01*
X6014375Y-22683482D01*
X6028661Y-22740625D01*
X6028661Y-22812054D01*
X6014375Y-22869196D01*
X6000089Y-22897768D01*
X5985803Y-22912054D01*
X5957232Y-22926339D01*
X5928661Y-22926339D01*
X5900089Y-22912054D01*
X5885803Y-22897768D01*
X5871518Y-22869196D01*
X5857232Y-22812054D01*
X5857232Y-22740625D01*
X5871518Y-22683482D01*
X5885803Y-22654911D01*
X5900089Y-22640625D01*
X5928661Y-22626339D01*
X6200089Y-22754911D02*
X6171518Y-22740625D01*
X6157232Y-22726339D01*
X6142946Y-22697768D01*
X6142946Y-22683482D01*
X6157232Y-22654911D01*
X6171518Y-22640625D01*
X6200089Y-22626339D01*
X6257232Y-22626339D01*
X6285803Y-22640625D01*
X6300089Y-22654911D01*
X6314375Y-22683482D01*
X6314375Y-22697768D01*
X6300089Y-22726339D01*
X6285803Y-22740625D01*
X6257232Y-22754911D01*
X6200089Y-22754911D01*
X6171518Y-22769196D01*
X6157232Y-22783482D01*
X6142946Y-22812054D01*
X6142946Y-22869196D01*
X6157232Y-22897768D01*
X6171518Y-22912054D01*
X6200089Y-22926339D01*
X6257232Y-22926339D01*
X6285803Y-22912054D01*
X6300089Y-22897768D01*
X6314375Y-22869196D01*
X6314375Y-22812054D01*
X6300089Y-22783482D01*
X6285803Y-22769196D01*
X6257232Y-22754911D01*
X6571518Y-22626339D02*
X6514375Y-22626339D01*
X6485803Y-22640625D01*
X6471518Y-22654911D01*
X6442946Y-22697768D01*
X6428661Y-22754911D01*
X6428661Y-22869196D01*
X6442946Y-22897768D01*
X6457232Y-22912054D01*
X6485803Y-22926339D01*
X6542946Y-22926339D01*
X6571518Y-22912054D01*
X6585803Y-22897768D01*
X6600089Y-22869196D01*
X6600089Y-22797768D01*
X6585803Y-22769196D01*
X6571518Y-22754911D01*
X6542946Y-22740625D01*
X6485803Y-22740625D01*
X6457232Y-22754911D01*
X6442946Y-22769196D01*
X6428661Y-22797768D01*
X6857232Y-22626339D02*
X6800089Y-22626339D01*
X6771518Y-22640625D01*
X6757232Y-22654911D01*
X6728661Y-22697768D01*
X6714375Y-22754911D01*
X6714375Y-22869196D01*
X6728661Y-22897768D01*
X6742946Y-22912054D01*
X6771518Y-22926339D01*
X6828661Y-22926339D01*
X6857232Y-22912054D01*
X6871518Y-22897768D01*
X6885803Y-22869196D01*
X6885803Y-22797768D01*
X6871518Y-22769196D01*
X6857232Y-22754911D01*
X6828661Y-22740625D01*
X6771518Y-22740625D01*
X6742946Y-22754911D01*
X6728661Y-22769196D01*
X6714375Y-22797768D01*
X7000089Y-22626339D02*
X7000089Y-22683482D01*
X7114375Y-22626339D02*
X7114375Y-22683482D01*
X7557232Y-23040625D02*
X7542946Y-23026339D01*
X7514375Y-22983482D01*
X7500089Y-22954911D01*
X7485803Y-22912054D01*
X7471518Y-22840625D01*
X7471518Y-22783482D01*
X7485803Y-22712054D01*
X7500089Y-22669196D01*
X7514375Y-22640625D01*
X7542946Y-22597768D01*
X7557232Y-22583482D01*
X7828661Y-22926339D02*
X7657232Y-22926339D01*
X7742946Y-22926339D02*
X7742946Y-22626339D01*
X7714375Y-22669196D01*
X7685803Y-22697768D01*
X7657232Y-22712054D01*
X8114375Y-22926339D02*
X7942946Y-22926339D01*
X8028661Y-22926339D02*
X8028661Y-22626339D01*
X8000089Y-22669196D01*
X7971518Y-22697768D01*
X7942946Y-22712054D01*
X8471518Y-22926339D02*
X8471518Y-22626339D01*
X8600089Y-22926339D02*
X8600089Y-22769196D01*
X8585803Y-22740625D01*
X8557232Y-22726339D01*
X8514375Y-22726339D01*
X8485803Y-22740625D01*
X8471518Y-22754911D01*
X8785803Y-22926339D02*
X8757232Y-22912054D01*
X8742946Y-22897768D01*
X8728661Y-22869196D01*
X8728661Y-22783482D01*
X8742946Y-22754911D01*
X8757232Y-22740625D01*
X8785803Y-22726339D01*
X8828661Y-22726339D01*
X8857232Y-22740625D01*
X8871518Y-22754911D01*
X8885803Y-22783482D01*
X8885803Y-22869196D01*
X8871518Y-22897768D01*
X8857232Y-22912054D01*
X8828661Y-22926339D01*
X8785803Y-22926339D01*
X9057232Y-22926339D02*
X9028661Y-22912054D01*
X9014375Y-22883482D01*
X9014375Y-22626339D01*
X9285803Y-22912054D02*
X9257232Y-22926339D01*
X9200089Y-22926339D01*
X9171518Y-22912054D01*
X9157232Y-22883482D01*
X9157232Y-22769196D01*
X9171518Y-22740625D01*
X9200089Y-22726339D01*
X9257232Y-22726339D01*
X9285803Y-22740625D01*
X9300089Y-22769196D01*
X9300089Y-22797768D01*
X9157232Y-22826339D01*
X9414375Y-22912054D02*
X9442946Y-22926339D01*
X9500089Y-22926339D01*
X9528661Y-22912054D01*
X9542946Y-22883482D01*
X9542946Y-22869196D01*
X9528661Y-22840625D01*
X9500089Y-22826339D01*
X9457232Y-22826339D01*
X9428661Y-22812054D01*
X9414375Y-22783482D01*
X9414375Y-22769196D01*
X9428661Y-22740625D01*
X9457232Y-22726339D01*
X9500089Y-22726339D01*
X9528661Y-22740625D01*
X9642946Y-23040625D02*
X9657232Y-23026339D01*
X9685803Y-22983482D01*
X9700089Y-22954911D01*
X9714375Y-22912054D01*
X9728661Y-22840625D01*
X9728661Y-22783482D01*
X9714375Y-22712054D01*
X9700089Y-22669196D01*
X9685803Y-22640625D01*
X9657232Y-22597768D01*
X9642946Y-22583482D01*
X2299375Y-23186625D02*
G75*
G03*
X2299375Y-23186625I-215000J0D01*
G01*
X2714375Y-23122339D02*
X2714375Y-23322339D01*
X2642946Y-23008054D02*
X2571518Y-23222339D01*
X2757232Y-23222339D01*
X2871518Y-23293768D02*
X2885803Y-23308054D01*
X2871518Y-23322339D01*
X2857232Y-23308054D01*
X2871518Y-23293768D01*
X2871518Y-23322339D01*
X2985803Y-23022339D02*
X3171518Y-23022339D01*
X3071518Y-23136625D01*
X3114375Y-23136625D01*
X3142946Y-23150911D01*
X3157232Y-23165196D01*
X3171518Y-23193768D01*
X3171518Y-23265196D01*
X3157232Y-23293768D01*
X3142946Y-23308054D01*
X3114375Y-23322339D01*
X3028661Y-23322339D01*
X3000089Y-23308054D01*
X2985803Y-23293768D01*
X3357232Y-23022339D02*
X3385803Y-23022339D01*
X3414375Y-23036625D01*
X3428661Y-23050911D01*
X3442946Y-23079482D01*
X3457232Y-23136625D01*
X3457232Y-23208054D01*
X3442946Y-23265196D01*
X3428661Y-23293768D01*
X3414375Y-23308054D01*
X3385803Y-23322339D01*
X3357232Y-23322339D01*
X3328661Y-23308054D01*
X3314375Y-23293768D01*
X3300089Y-23265196D01*
X3285803Y-23208054D01*
X3285803Y-23136625D01*
X3300089Y-23079482D01*
X3314375Y-23050911D01*
X3328661Y-23036625D01*
X3357232Y-23022339D01*
X3642946Y-23022339D02*
X3671518Y-23022339D01*
X3700089Y-23036625D01*
X3714375Y-23050911D01*
X3728661Y-23079482D01*
X3742946Y-23136625D01*
X3742946Y-23208054D01*
X3728661Y-23265196D01*
X3714375Y-23293768D01*
X3700089Y-23308054D01*
X3671518Y-23322339D01*
X3642946Y-23322339D01*
X3614375Y-23308054D01*
X3600089Y-23293768D01*
X3585803Y-23265196D01*
X3571518Y-23208054D01*
X3571518Y-23136625D01*
X3585803Y-23079482D01*
X3600089Y-23050911D01*
X3614375Y-23036625D01*
X3642946Y-23022339D01*
X3871518Y-23322339D02*
X3871518Y-23122339D01*
X3871518Y-23150911D02*
X3885803Y-23136625D01*
X3914375Y-23122339D01*
X3957232Y-23122339D01*
X3985803Y-23136625D01*
X4000089Y-23165196D01*
X4000089Y-23322339D01*
X4000089Y-23165196D02*
X4014375Y-23136625D01*
X4042946Y-23122339D01*
X4085803Y-23122339D01*
X4114375Y-23136625D01*
X4128661Y-23165196D01*
X4128661Y-23322339D01*
X4271518Y-23322339D02*
X4271518Y-23122339D01*
X4271518Y-23150911D02*
X4285803Y-23136625D01*
X4314375Y-23122339D01*
X4357232Y-23122339D01*
X4385803Y-23136625D01*
X4400089Y-23165196D01*
X4400089Y-23322339D01*
X4400089Y-23165196D02*
X4414375Y-23136625D01*
X4442946Y-23122339D01*
X4485803Y-23122339D01*
X4514375Y-23136625D01*
X4528661Y-23165196D01*
X4528661Y-23322339D01*
X5114375Y-23008054D02*
X4857232Y-23393768D01*
X5500089Y-23022339D02*
X5528661Y-23022339D01*
X5557232Y-23036625D01*
X5571518Y-23050911D01*
X5585803Y-23079482D01*
X5600089Y-23136625D01*
X5600089Y-23208054D01*
X5585803Y-23265196D01*
X5571518Y-23293768D01*
X5557232Y-23308054D01*
X5528661Y-23322339D01*
X5500089Y-23322339D01*
X5471518Y-23308054D01*
X5457232Y-23293768D01*
X5442946Y-23265196D01*
X5428661Y-23208054D01*
X5428661Y-23136625D01*
X5442946Y-23079482D01*
X5457232Y-23050911D01*
X5471518Y-23036625D01*
X5500089Y-23022339D01*
X5728661Y-23293768D02*
X5742946Y-23308054D01*
X5728661Y-23322339D01*
X5714375Y-23308054D01*
X5728661Y-23293768D01*
X5728661Y-23322339D01*
X6028661Y-23322339D02*
X5857232Y-23322339D01*
X5942946Y-23322339D02*
X5942946Y-23022339D01*
X5914375Y-23065196D01*
X5885803Y-23093768D01*
X5857232Y-23108054D01*
X6285803Y-23022339D02*
X6228661Y-23022339D01*
X6200089Y-23036625D01*
X6185803Y-23050911D01*
X6157232Y-23093768D01*
X6142946Y-23150911D01*
X6142946Y-23265196D01*
X6157232Y-23293768D01*
X6171518Y-23308054D01*
X6200089Y-23322339D01*
X6257232Y-23322339D01*
X6285803Y-23308054D01*
X6300089Y-23293768D01*
X6314375Y-23265196D01*
X6314375Y-23193768D01*
X6300089Y-23165196D01*
X6285803Y-23150911D01*
X6257232Y-23136625D01*
X6200089Y-23136625D01*
X6171518Y-23150911D01*
X6157232Y-23165196D01*
X6142946Y-23193768D01*
X6457232Y-23322339D02*
X6514375Y-23322339D01*
X6542946Y-23308054D01*
X6557232Y-23293768D01*
X6585803Y-23250911D01*
X6600089Y-23193768D01*
X6600089Y-23079482D01*
X6585803Y-23050911D01*
X6571518Y-23036625D01*
X6542946Y-23022339D01*
X6485803Y-23022339D01*
X6457232Y-23036625D01*
X6442946Y-23050911D01*
X6428661Y-23079482D01*
X6428661Y-23150911D01*
X6442946Y-23179482D01*
X6457232Y-23193768D01*
X6485803Y-23208054D01*
X6542946Y-23208054D01*
X6571518Y-23193768D01*
X6585803Y-23179482D01*
X6600089Y-23150911D01*
X6700089Y-23022339D02*
X6885803Y-23022339D01*
X6785803Y-23136625D01*
X6828661Y-23136625D01*
X6857232Y-23150911D01*
X6871518Y-23165196D01*
X6885803Y-23193768D01*
X6885803Y-23265196D01*
X6871518Y-23293768D01*
X6857232Y-23308054D01*
X6828661Y-23322339D01*
X6742946Y-23322339D01*
X6714375Y-23308054D01*
X6700089Y-23293768D01*
X7000089Y-23022339D02*
X7000089Y-23079482D01*
X7114375Y-23022339D02*
X7114375Y-23079482D01*
X7557232Y-23436625D02*
X7542946Y-23422339D01*
X7514375Y-23379482D01*
X7500089Y-23350911D01*
X7485803Y-23308054D01*
X7471518Y-23236625D01*
X7471518Y-23179482D01*
X7485803Y-23108054D01*
X7500089Y-23065196D01*
X7514375Y-23036625D01*
X7542946Y-22993768D01*
X7557232Y-22979482D01*
X7657232Y-23050911D02*
X7671518Y-23036625D01*
X7700089Y-23022339D01*
X7771518Y-23022339D01*
X7800089Y-23036625D01*
X7814375Y-23050911D01*
X7828661Y-23079482D01*
X7828661Y-23108054D01*
X7814375Y-23150911D01*
X7642946Y-23322339D01*
X7828661Y-23322339D01*
X8185803Y-23322339D02*
X8185803Y-23022339D01*
X8314375Y-23322339D02*
X8314375Y-23165196D01*
X8300089Y-23136625D01*
X8271518Y-23122339D01*
X8228661Y-23122339D01*
X8200089Y-23136625D01*
X8185803Y-23150911D01*
X8500089Y-23322339D02*
X8471518Y-23308054D01*
X8457232Y-23293768D01*
X8442946Y-23265196D01*
X8442946Y-23179482D01*
X8457232Y-23150911D01*
X8471518Y-23136625D01*
X8500089Y-23122339D01*
X8542946Y-23122339D01*
X8571518Y-23136625D01*
X8585803Y-23150911D01*
X8600089Y-23179482D01*
X8600089Y-23265196D01*
X8585803Y-23293768D01*
X8571518Y-23308054D01*
X8542946Y-23322339D01*
X8500089Y-23322339D01*
X8771518Y-23322339D02*
X8742946Y-23308054D01*
X8728661Y-23279482D01*
X8728661Y-23022339D01*
X9000089Y-23308054D02*
X8971518Y-23322339D01*
X8914375Y-23322339D01*
X8885803Y-23308054D01*
X8871518Y-23279482D01*
X8871518Y-23165196D01*
X8885803Y-23136625D01*
X8914375Y-23122339D01*
X8971518Y-23122339D01*
X9000089Y-23136625D01*
X9014375Y-23165196D01*
X9014375Y-23193768D01*
X8871518Y-23222339D01*
X9128661Y-23308054D02*
X9157232Y-23322339D01*
X9214375Y-23322339D01*
X9242946Y-23308054D01*
X9257232Y-23279482D01*
X9257232Y-23265196D01*
X9242946Y-23236625D01*
X9214375Y-23222339D01*
X9171518Y-23222339D01*
X9142946Y-23208054D01*
X9128661Y-23179482D01*
X9128661Y-23165196D01*
X9142946Y-23136625D01*
X9171518Y-23122339D01*
X9214375Y-23122339D01*
X9242946Y-23136625D01*
X9357232Y-23436625D02*
X9371518Y-23422339D01*
X9400089Y-23379482D01*
X9414375Y-23350911D01*
X9428661Y-23308054D01*
X9442946Y-23236625D01*
X9442946Y-23179482D01*
X9428661Y-23108054D01*
X9414375Y-23065196D01*
X9400089Y-23036625D01*
X9371518Y-22993768D01*
X9357232Y-22979482D01*
M02*
