%TF.GenerationSoftware,KiCad,Pcbnew,5.1.7-a382d34a8~88~ubuntu20.04.1*%
%TF.CreationDate,2021-02-22T02:14:22+01:00*%
%TF.ProjectId,basketweave_bottom,6261736b-6574-4776-9561-76655f626f74,rev?*%
%TF.SameCoordinates,Original*%
%TF.FileFunction,Soldermask,Top*%
%TF.FilePolarity,Negative*%
%FSLAX46Y46*%
G04 Gerber Fmt 4.6, Leading zero omitted, Abs format (unit mm)*
G04 Created by KiCad (PCBNEW 5.1.7-a382d34a8~88~ubuntu20.04.1) date 2021-02-22 02:14:22*
%MOMM*%
%LPD*%
G01*
G04 APERTURE LIST*
%TA.AperFunction,Profile*%
%ADD10C,0.050000*%
%TD*%
%ADD11C,4.502000*%
%ADD12C,8.702000*%
G04 APERTURE END LIST*
D10*
X394493750Y-200818750D02*
G75*
G02*
X391318750Y-203993750I-3175000J0D01*
G01*
X26193750Y-203993750D02*
X115443000Y-203993750D01*
X391318750Y-73025000D02*
G75*
G02*
X394493750Y-76200000I0J-3175000D01*
G01*
X391318750Y-203993750D02*
X278606250Y-203993750D01*
X278606250Y-203993750D02*
X211137500Y-218281250D01*
X182562500Y-218281250D02*
X211137500Y-218281250D01*
X115443000Y-203993750D02*
X182562500Y-218281250D01*
X23018750Y-76200000D02*
G75*
G02*
X26193750Y-73025000I3175000J0D01*
G01*
X26193750Y-73025000D02*
X391318750Y-73025000D01*
X23018750Y-76200000D02*
X23018750Y-200818750D01*
X394493750Y-76200000D02*
X394493750Y-200818750D01*
X26193750Y-203993750D02*
G75*
G02*
X23018750Y-200818750I0J3175000D01*
G01*
X394493750Y-200818750D02*
G75*
G02*
X391318750Y-203993750I-3175000J0D01*
G01*
X26193750Y-203993750D02*
X115443000Y-203993750D01*
X391318750Y-73025000D02*
G75*
G02*
X394493750Y-76200000I0J-3175000D01*
G01*
X391318750Y-203993750D02*
X278606250Y-203993750D01*
X278606250Y-203993750D02*
X211137500Y-218281250D01*
X182562500Y-218281250D02*
X211137500Y-218281250D01*
X115443000Y-203993750D02*
X182562500Y-218281250D01*
X23018750Y-76200000D02*
G75*
G02*
X26193750Y-73025000I3175000J0D01*
G01*
X26193750Y-73025000D02*
X391318750Y-73025000D01*
X23018750Y-76200000D02*
X23018750Y-200818750D01*
X394493750Y-76200000D02*
X394493750Y-200818750D01*
X26193750Y-203993750D02*
G75*
G02*
X23018750Y-200818750I0J3175000D01*
G01*
D11*
X378618750Y-180975000D03*
X27781250Y-76993750D03*
D12*
X75406250Y-103187500D03*
D11*
X266700000Y-180975000D03*
X127000000Y-180975000D03*
X27781250Y-95250000D03*
X389731250Y-76993750D03*
X196850000Y-204787500D03*
X161925000Y-95250000D03*
X38893750Y-181768750D03*
X231775000Y-95250000D03*
X389731250Y-95250000D03*
D12*
X342106250Y-103187500D03*
M02*
