G04 #@! TF.GenerationSoftware,KiCad,Pcbnew,5.1.10-88a1d61d58~90~ubuntu21.04.1*
G04 #@! TF.CreationDate,2021-08-17T12:13:25+02:00*
G04 #@! TF.ProjectId,basketweave_bottom,6261736b-6574-4776-9561-76655f626f74,rev?*
G04 #@! TF.SameCoordinates,Original*
G04 #@! TF.FileFunction,Legend,Top*
G04 #@! TF.FilePolarity,Positive*
%FSLAX46Y46*%
G04 Gerber Fmt 4.6, Leading zero omitted, Abs format (unit mm)*
G04 Created by KiCad (PCBNEW 5.1.10-88a1d61d58~90~ubuntu21.04.1) date 2021-08-17 12:13:25*
%MOMM*%
%LPD*%
G01*
G04 APERTURE LIST*
%ADD10C,0.150000*%
%ADD11C,4.502000*%
%ADD12C,8.702000*%
G04 APERTURE END LIST*
D10*
X25713347Y-201237904D02*
X25713347Y-201809333D01*
X25675252Y-201923619D01*
X25599061Y-201999809D01*
X25484776Y-202037904D01*
X25408585Y-202037904D01*
X26475252Y-202037904D02*
X26094300Y-202037904D01*
X26094300Y-201237904D01*
X27199061Y-201961714D02*
X27160966Y-201999809D01*
X27046680Y-202037904D01*
X26970490Y-202037904D01*
X26856204Y-201999809D01*
X26780014Y-201923619D01*
X26741919Y-201847428D01*
X26703823Y-201695047D01*
X26703823Y-201580761D01*
X26741919Y-201428380D01*
X26780014Y-201352190D01*
X26856204Y-201276000D01*
X26970490Y-201237904D01*
X27046680Y-201237904D01*
X27160966Y-201276000D01*
X27199061Y-201314095D01*
X27770490Y-201237904D02*
X27770490Y-201809333D01*
X27732395Y-201923619D01*
X27656204Y-201999809D01*
X27541919Y-202037904D01*
X27465728Y-202037904D01*
X28532395Y-202037904D02*
X28151442Y-202037904D01*
X28151442Y-201237904D01*
X29256204Y-201961714D02*
X29218109Y-201999809D01*
X29103823Y-202037904D01*
X29027633Y-202037904D01*
X28913347Y-201999809D01*
X28837157Y-201923619D01*
X28799061Y-201847428D01*
X28760966Y-201695047D01*
X28760966Y-201580761D01*
X28799061Y-201428380D01*
X28837157Y-201352190D01*
X28913347Y-201276000D01*
X29027633Y-201237904D01*
X29103823Y-201237904D01*
X29218109Y-201276000D01*
X29256204Y-201314095D01*
X29827633Y-201237904D02*
X29827633Y-201809333D01*
X29789538Y-201923619D01*
X29713347Y-201999809D01*
X29599061Y-202037904D01*
X29522871Y-202037904D01*
X30589538Y-202037904D02*
X30208585Y-202037904D01*
X30208585Y-201237904D01*
X31313347Y-201961714D02*
X31275252Y-201999809D01*
X31160966Y-202037904D01*
X31084776Y-202037904D01*
X30970490Y-201999809D01*
X30894300Y-201923619D01*
X30856204Y-201847428D01*
X30818109Y-201695047D01*
X30818109Y-201580761D01*
X30856204Y-201428380D01*
X30894300Y-201352190D01*
X30970490Y-201276000D01*
X31084776Y-201237904D01*
X31160966Y-201237904D01*
X31275252Y-201276000D01*
X31313347Y-201314095D01*
X31884776Y-201237904D02*
X31884776Y-201809333D01*
X31846680Y-201923619D01*
X31770490Y-201999809D01*
X31656204Y-202037904D01*
X31580014Y-202037904D01*
X32646680Y-202037904D02*
X32265728Y-202037904D01*
X32265728Y-201237904D01*
X33370490Y-201961714D02*
X33332395Y-201999809D01*
X33218109Y-202037904D01*
X33141919Y-202037904D01*
X33027633Y-201999809D01*
X32951442Y-201923619D01*
X32913347Y-201847428D01*
X32875252Y-201695047D01*
X32875252Y-201580761D01*
X32913347Y-201428380D01*
X32951442Y-201352190D01*
X33027633Y-201276000D01*
X33141919Y-201237904D01*
X33218109Y-201237904D01*
X33332395Y-201276000D01*
X33370490Y-201314095D01*
%LPC*%
D11*
X378618750Y-180975000D03*
X27021250Y-77023750D03*
D12*
X75406250Y-103187500D03*
D11*
X266700000Y-180975000D03*
X127000000Y-180975000D03*
X27021250Y-94420000D03*
X390491250Y-77023750D03*
X196850000Y-204787500D03*
X161845000Y-94420000D03*
X38893750Y-181768750D03*
X231855000Y-94420000D03*
X390491250Y-94420000D03*
D12*
X342106250Y-103187500D03*
M02*
