%TF.GenerationSoftware,KiCad,Pcbnew,5.1.7-a382d34a8~88~ubuntu20.04.1*%
%TF.CreationDate,2021-03-29T21:26:23+02:00*%
%TF.ProjectId,basketweave_bottom,6261736b-6574-4776-9561-76655f626f74,rev?*%
%TF.SameCoordinates,Original*%
%TF.FileFunction,Copper,L1,Top*%
%TF.FilePolarity,Positive*%
%FSLAX46Y46*%
G04 Gerber Fmt 4.6, Leading zero omitted, Abs format (unit mm)*
G04 Created by KiCad (PCBNEW 5.1.7-a382d34a8~88~ubuntu20.04.1) date 2021-03-29 21:26:23*
%MOMM*%
%LPD*%
G01*
G04 APERTURE LIST*
%TA.AperFunction,ComponentPad*%
%ADD10C,4.400000*%
%TD*%
%TA.AperFunction,ComponentPad*%
%ADD11C,8.600000*%
%TD*%
%TA.AperFunction,NonConductor*%
%ADD12C,0.254000*%
%TD*%
%TA.AperFunction,NonConductor*%
%ADD13C,0.100000*%
%TD*%
G04 APERTURE END LIST*
D10*
X378618750Y-180975000D03*
X27021250Y-77023750D03*
D11*
X75406250Y-103187500D03*
D10*
X266700000Y-180975000D03*
X127000000Y-180975000D03*
X27021250Y-94420000D03*
X390491250Y-77023750D03*
X196850000Y-204787500D03*
X161845000Y-94420000D03*
X38893750Y-181768750D03*
X231855000Y-94420000D03*
X390491250Y-94420000D03*
D11*
X342106250Y-103187500D03*
D12*
X391806634Y-73736002D02*
X392275938Y-73877694D01*
X392708775Y-74107837D01*
X393088677Y-74417678D01*
X393401153Y-74795397D01*
X393634319Y-75226627D01*
X393779282Y-75694928D01*
X393833750Y-76213153D01*
X393833751Y-200786462D01*
X393782748Y-201306633D01*
X393641057Y-201775936D01*
X393410911Y-202208778D01*
X393101073Y-202588677D01*
X392723350Y-202901156D01*
X392292123Y-203134319D01*
X391823823Y-203279282D01*
X391305597Y-203333750D01*
X278634582Y-203333750D01*
X278598071Y-203330608D01*
X278537550Y-203337323D01*
X278476867Y-203343300D01*
X278441787Y-203353942D01*
X211068389Y-217621250D01*
X182631972Y-217621250D01*
X121030133Y-204508277D01*
X194015000Y-204508277D01*
X194015000Y-205066723D01*
X194123948Y-205614439D01*
X194337656Y-206130376D01*
X194647912Y-206594707D01*
X195042793Y-206989588D01*
X195507124Y-207299844D01*
X196023061Y-207513552D01*
X196570777Y-207622500D01*
X197129223Y-207622500D01*
X197676939Y-207513552D01*
X198192876Y-207299844D01*
X198657207Y-206989588D01*
X199052088Y-206594707D01*
X199362344Y-206130376D01*
X199576052Y-205614439D01*
X199685000Y-205066723D01*
X199685000Y-204508277D01*
X199576052Y-203960561D01*
X199362344Y-203444624D01*
X199052088Y-202980293D01*
X198657207Y-202585412D01*
X198192876Y-202275156D01*
X197676939Y-202061448D01*
X197129223Y-201952500D01*
X196570777Y-201952500D01*
X196023061Y-202061448D01*
X195507124Y-202275156D01*
X195042793Y-202585412D01*
X194647912Y-202980293D01*
X194337656Y-203444624D01*
X194123948Y-203960561D01*
X194015000Y-204508277D01*
X121030133Y-204508277D01*
X115607797Y-203354043D01*
X115572383Y-203343300D01*
X115512046Y-203337357D01*
X115451877Y-203330617D01*
X115415015Y-203333750D01*
X26226028Y-203333750D01*
X25705867Y-203282748D01*
X25236564Y-203141057D01*
X24803722Y-202910911D01*
X24423823Y-202601073D01*
X24111344Y-202223350D01*
X23878181Y-201792123D01*
X23733218Y-201323823D01*
X23678750Y-200805597D01*
X23678750Y-181489527D01*
X36058750Y-181489527D01*
X36058750Y-182047973D01*
X36167698Y-182595689D01*
X36381406Y-183111626D01*
X36691662Y-183575957D01*
X37086543Y-183970838D01*
X37550874Y-184281094D01*
X38066811Y-184494802D01*
X38614527Y-184603750D01*
X39172973Y-184603750D01*
X39720689Y-184494802D01*
X40236626Y-184281094D01*
X40700957Y-183970838D01*
X41095838Y-183575957D01*
X41406094Y-183111626D01*
X41619802Y-182595689D01*
X41728750Y-182047973D01*
X41728750Y-181489527D01*
X41619802Y-180941811D01*
X41517892Y-180695777D01*
X124165000Y-180695777D01*
X124165000Y-181254223D01*
X124273948Y-181801939D01*
X124487656Y-182317876D01*
X124797912Y-182782207D01*
X125192793Y-183177088D01*
X125657124Y-183487344D01*
X126173061Y-183701052D01*
X126720777Y-183810000D01*
X127279223Y-183810000D01*
X127826939Y-183701052D01*
X128342876Y-183487344D01*
X128807207Y-183177088D01*
X129202088Y-182782207D01*
X129512344Y-182317876D01*
X129726052Y-181801939D01*
X129835000Y-181254223D01*
X129835000Y-180695777D01*
X263865000Y-180695777D01*
X263865000Y-181254223D01*
X263973948Y-181801939D01*
X264187656Y-182317876D01*
X264497912Y-182782207D01*
X264892793Y-183177088D01*
X265357124Y-183487344D01*
X265873061Y-183701052D01*
X266420777Y-183810000D01*
X266979223Y-183810000D01*
X267526939Y-183701052D01*
X268042876Y-183487344D01*
X268507207Y-183177088D01*
X268902088Y-182782207D01*
X269212344Y-182317876D01*
X269426052Y-181801939D01*
X269535000Y-181254223D01*
X269535000Y-180695777D01*
X375783750Y-180695777D01*
X375783750Y-181254223D01*
X375892698Y-181801939D01*
X376106406Y-182317876D01*
X376416662Y-182782207D01*
X376811543Y-183177088D01*
X377275874Y-183487344D01*
X377791811Y-183701052D01*
X378339527Y-183810000D01*
X378897973Y-183810000D01*
X379445689Y-183701052D01*
X379961626Y-183487344D01*
X380425957Y-183177088D01*
X380820838Y-182782207D01*
X381131094Y-182317876D01*
X381344802Y-181801939D01*
X381453750Y-181254223D01*
X381453750Y-180695777D01*
X381344802Y-180148061D01*
X381131094Y-179632124D01*
X380820838Y-179167793D01*
X380425957Y-178772912D01*
X379961626Y-178462656D01*
X379445689Y-178248948D01*
X378897973Y-178140000D01*
X378339527Y-178140000D01*
X377791811Y-178248948D01*
X377275874Y-178462656D01*
X376811543Y-178772912D01*
X376416662Y-179167793D01*
X376106406Y-179632124D01*
X375892698Y-180148061D01*
X375783750Y-180695777D01*
X269535000Y-180695777D01*
X269426052Y-180148061D01*
X269212344Y-179632124D01*
X268902088Y-179167793D01*
X268507207Y-178772912D01*
X268042876Y-178462656D01*
X267526939Y-178248948D01*
X266979223Y-178140000D01*
X266420777Y-178140000D01*
X265873061Y-178248948D01*
X265357124Y-178462656D01*
X264892793Y-178772912D01*
X264497912Y-179167793D01*
X264187656Y-179632124D01*
X263973948Y-180148061D01*
X263865000Y-180695777D01*
X129835000Y-180695777D01*
X129726052Y-180148061D01*
X129512344Y-179632124D01*
X129202088Y-179167793D01*
X128807207Y-178772912D01*
X128342876Y-178462656D01*
X127826939Y-178248948D01*
X127279223Y-178140000D01*
X126720777Y-178140000D01*
X126173061Y-178248948D01*
X125657124Y-178462656D01*
X125192793Y-178772912D01*
X124797912Y-179167793D01*
X124487656Y-179632124D01*
X124273948Y-180148061D01*
X124165000Y-180695777D01*
X41517892Y-180695777D01*
X41406094Y-180425874D01*
X41095838Y-179961543D01*
X40700957Y-179566662D01*
X40236626Y-179256406D01*
X39720689Y-179042698D01*
X39172973Y-178933750D01*
X38614527Y-178933750D01*
X38066811Y-179042698D01*
X37550874Y-179256406D01*
X37086543Y-179566662D01*
X36691662Y-179961543D01*
X36381406Y-180425874D01*
X36167698Y-180941811D01*
X36058750Y-181489527D01*
X23678750Y-181489527D01*
X23678750Y-102701445D01*
X70471250Y-102701445D01*
X70471250Y-103673555D01*
X70660900Y-104626986D01*
X71032910Y-105525099D01*
X71572985Y-106333379D01*
X72260371Y-107020765D01*
X73068651Y-107560840D01*
X73966764Y-107932850D01*
X74920195Y-108122500D01*
X75892305Y-108122500D01*
X76845736Y-107932850D01*
X77743849Y-107560840D01*
X78552129Y-107020765D01*
X79239515Y-106333379D01*
X79779590Y-105525099D01*
X80151600Y-104626986D01*
X80341250Y-103673555D01*
X80341250Y-102701445D01*
X337171250Y-102701445D01*
X337171250Y-103673555D01*
X337360900Y-104626986D01*
X337732910Y-105525099D01*
X338272985Y-106333379D01*
X338960371Y-107020765D01*
X339768651Y-107560840D01*
X340666764Y-107932850D01*
X341620195Y-108122500D01*
X342592305Y-108122500D01*
X343545736Y-107932850D01*
X344443849Y-107560840D01*
X345252129Y-107020765D01*
X345939515Y-106333379D01*
X346479590Y-105525099D01*
X346851600Y-104626986D01*
X347041250Y-103673555D01*
X347041250Y-102701445D01*
X346851600Y-101748014D01*
X346479590Y-100849901D01*
X345939515Y-100041621D01*
X345252129Y-99354235D01*
X344443849Y-98814160D01*
X343545736Y-98442150D01*
X342592305Y-98252500D01*
X341620195Y-98252500D01*
X340666764Y-98442150D01*
X339768651Y-98814160D01*
X338960371Y-99354235D01*
X338272985Y-100041621D01*
X337732910Y-100849901D01*
X337360900Y-101748014D01*
X337171250Y-102701445D01*
X80341250Y-102701445D01*
X80151600Y-101748014D01*
X79779590Y-100849901D01*
X79239515Y-100041621D01*
X78552129Y-99354235D01*
X77743849Y-98814160D01*
X76845736Y-98442150D01*
X75892305Y-98252500D01*
X74920195Y-98252500D01*
X73966764Y-98442150D01*
X73068651Y-98814160D01*
X72260371Y-99354235D01*
X71572985Y-100041621D01*
X71032910Y-100849901D01*
X70660900Y-101748014D01*
X70471250Y-102701445D01*
X23678750Y-102701445D01*
X23678750Y-94140777D01*
X24186250Y-94140777D01*
X24186250Y-94699223D01*
X24295198Y-95246939D01*
X24508906Y-95762876D01*
X24819162Y-96227207D01*
X25214043Y-96622088D01*
X25678374Y-96932344D01*
X26194311Y-97146052D01*
X26742027Y-97255000D01*
X27300473Y-97255000D01*
X27848189Y-97146052D01*
X28364126Y-96932344D01*
X28828457Y-96622088D01*
X29223338Y-96227207D01*
X29533594Y-95762876D01*
X29747302Y-95246939D01*
X29856250Y-94699223D01*
X29856250Y-94140777D01*
X159010000Y-94140777D01*
X159010000Y-94699223D01*
X159118948Y-95246939D01*
X159332656Y-95762876D01*
X159642912Y-96227207D01*
X160037793Y-96622088D01*
X160502124Y-96932344D01*
X161018061Y-97146052D01*
X161565777Y-97255000D01*
X162124223Y-97255000D01*
X162671939Y-97146052D01*
X163187876Y-96932344D01*
X163652207Y-96622088D01*
X164047088Y-96227207D01*
X164357344Y-95762876D01*
X164571052Y-95246939D01*
X164680000Y-94699223D01*
X164680000Y-94140777D01*
X229020000Y-94140777D01*
X229020000Y-94699223D01*
X229128948Y-95246939D01*
X229342656Y-95762876D01*
X229652912Y-96227207D01*
X230047793Y-96622088D01*
X230512124Y-96932344D01*
X231028061Y-97146052D01*
X231575777Y-97255000D01*
X232134223Y-97255000D01*
X232681939Y-97146052D01*
X233197876Y-96932344D01*
X233662207Y-96622088D01*
X234057088Y-96227207D01*
X234367344Y-95762876D01*
X234581052Y-95246939D01*
X234690000Y-94699223D01*
X234690000Y-94140777D01*
X387656250Y-94140777D01*
X387656250Y-94699223D01*
X387765198Y-95246939D01*
X387978906Y-95762876D01*
X388289162Y-96227207D01*
X388684043Y-96622088D01*
X389148374Y-96932344D01*
X389664311Y-97146052D01*
X390212027Y-97255000D01*
X390770473Y-97255000D01*
X391318189Y-97146052D01*
X391834126Y-96932344D01*
X392298457Y-96622088D01*
X392693338Y-96227207D01*
X393003594Y-95762876D01*
X393217302Y-95246939D01*
X393326250Y-94699223D01*
X393326250Y-94140777D01*
X393217302Y-93593061D01*
X393003594Y-93077124D01*
X392693338Y-92612793D01*
X392298457Y-92217912D01*
X391834126Y-91907656D01*
X391318189Y-91693948D01*
X390770473Y-91585000D01*
X390212027Y-91585000D01*
X389664311Y-91693948D01*
X389148374Y-91907656D01*
X388684043Y-92217912D01*
X388289162Y-92612793D01*
X387978906Y-93077124D01*
X387765198Y-93593061D01*
X387656250Y-94140777D01*
X234690000Y-94140777D01*
X234581052Y-93593061D01*
X234367344Y-93077124D01*
X234057088Y-92612793D01*
X233662207Y-92217912D01*
X233197876Y-91907656D01*
X232681939Y-91693948D01*
X232134223Y-91585000D01*
X231575777Y-91585000D01*
X231028061Y-91693948D01*
X230512124Y-91907656D01*
X230047793Y-92217912D01*
X229652912Y-92612793D01*
X229342656Y-93077124D01*
X229128948Y-93593061D01*
X229020000Y-94140777D01*
X164680000Y-94140777D01*
X164571052Y-93593061D01*
X164357344Y-93077124D01*
X164047088Y-92612793D01*
X163652207Y-92217912D01*
X163187876Y-91907656D01*
X162671939Y-91693948D01*
X162124223Y-91585000D01*
X161565777Y-91585000D01*
X161018061Y-91693948D01*
X160502124Y-91907656D01*
X160037793Y-92217912D01*
X159642912Y-92612793D01*
X159332656Y-93077124D01*
X159118948Y-93593061D01*
X159010000Y-94140777D01*
X29856250Y-94140777D01*
X29747302Y-93593061D01*
X29533594Y-93077124D01*
X29223338Y-92612793D01*
X28828457Y-92217912D01*
X28364126Y-91907656D01*
X27848189Y-91693948D01*
X27300473Y-91585000D01*
X26742027Y-91585000D01*
X26194311Y-91693948D01*
X25678374Y-91907656D01*
X25214043Y-92217912D01*
X24819162Y-92612793D01*
X24508906Y-93077124D01*
X24295198Y-93593061D01*
X24186250Y-94140777D01*
X23678750Y-94140777D01*
X23678750Y-76744527D01*
X24186250Y-76744527D01*
X24186250Y-77302973D01*
X24295198Y-77850689D01*
X24508906Y-78366626D01*
X24819162Y-78830957D01*
X25214043Y-79225838D01*
X25678374Y-79536094D01*
X26194311Y-79749802D01*
X26742027Y-79858750D01*
X27300473Y-79858750D01*
X27848189Y-79749802D01*
X28364126Y-79536094D01*
X28828457Y-79225838D01*
X29223338Y-78830957D01*
X29533594Y-78366626D01*
X29747302Y-77850689D01*
X29856250Y-77302973D01*
X29856250Y-76744527D01*
X387656250Y-76744527D01*
X387656250Y-77302973D01*
X387765198Y-77850689D01*
X387978906Y-78366626D01*
X388289162Y-78830957D01*
X388684043Y-79225838D01*
X389148374Y-79536094D01*
X389664311Y-79749802D01*
X390212027Y-79858750D01*
X390770473Y-79858750D01*
X391318189Y-79749802D01*
X391834126Y-79536094D01*
X392298457Y-79225838D01*
X392693338Y-78830957D01*
X393003594Y-78366626D01*
X393217302Y-77850689D01*
X393326250Y-77302973D01*
X393326250Y-76744527D01*
X393217302Y-76196811D01*
X393003594Y-75680874D01*
X392693338Y-75216543D01*
X392298457Y-74821662D01*
X391834126Y-74511406D01*
X391318189Y-74297698D01*
X390770473Y-74188750D01*
X390212027Y-74188750D01*
X389664311Y-74297698D01*
X389148374Y-74511406D01*
X388684043Y-74821662D01*
X388289162Y-75216543D01*
X387978906Y-75680874D01*
X387765198Y-76196811D01*
X387656250Y-76744527D01*
X29856250Y-76744527D01*
X29747302Y-76196811D01*
X29533594Y-75680874D01*
X29223338Y-75216543D01*
X28828457Y-74821662D01*
X28364126Y-74511406D01*
X27848189Y-74297698D01*
X27300473Y-74188750D01*
X26742027Y-74188750D01*
X26194311Y-74297698D01*
X25678374Y-74511406D01*
X25214043Y-74821662D01*
X24819162Y-75216543D01*
X24508906Y-75680874D01*
X24295198Y-76196811D01*
X24186250Y-76744527D01*
X23678750Y-76744527D01*
X23678750Y-76232278D01*
X23729752Y-75712116D01*
X23871444Y-75242812D01*
X24101587Y-74809975D01*
X24411428Y-74430073D01*
X24789147Y-74117597D01*
X25220377Y-73884431D01*
X25688678Y-73739468D01*
X26206903Y-73685000D01*
X391286472Y-73685000D01*
X391806634Y-73736002D01*
%TA.AperFunction,NonConductor*%
D13*
G36*
X391806634Y-73736002D02*
G01*
X392275938Y-73877694D01*
X392708775Y-74107837D01*
X393088677Y-74417678D01*
X393401153Y-74795397D01*
X393634319Y-75226627D01*
X393779282Y-75694928D01*
X393833750Y-76213153D01*
X393833751Y-200786462D01*
X393782748Y-201306633D01*
X393641057Y-201775936D01*
X393410911Y-202208778D01*
X393101073Y-202588677D01*
X392723350Y-202901156D01*
X392292123Y-203134319D01*
X391823823Y-203279282D01*
X391305597Y-203333750D01*
X278634582Y-203333750D01*
X278598071Y-203330608D01*
X278537550Y-203337323D01*
X278476867Y-203343300D01*
X278441787Y-203353942D01*
X211068389Y-217621250D01*
X182631972Y-217621250D01*
X121030133Y-204508277D01*
X194015000Y-204508277D01*
X194015000Y-205066723D01*
X194123948Y-205614439D01*
X194337656Y-206130376D01*
X194647912Y-206594707D01*
X195042793Y-206989588D01*
X195507124Y-207299844D01*
X196023061Y-207513552D01*
X196570777Y-207622500D01*
X197129223Y-207622500D01*
X197676939Y-207513552D01*
X198192876Y-207299844D01*
X198657207Y-206989588D01*
X199052088Y-206594707D01*
X199362344Y-206130376D01*
X199576052Y-205614439D01*
X199685000Y-205066723D01*
X199685000Y-204508277D01*
X199576052Y-203960561D01*
X199362344Y-203444624D01*
X199052088Y-202980293D01*
X198657207Y-202585412D01*
X198192876Y-202275156D01*
X197676939Y-202061448D01*
X197129223Y-201952500D01*
X196570777Y-201952500D01*
X196023061Y-202061448D01*
X195507124Y-202275156D01*
X195042793Y-202585412D01*
X194647912Y-202980293D01*
X194337656Y-203444624D01*
X194123948Y-203960561D01*
X194015000Y-204508277D01*
X121030133Y-204508277D01*
X115607797Y-203354043D01*
X115572383Y-203343300D01*
X115512046Y-203337357D01*
X115451877Y-203330617D01*
X115415015Y-203333750D01*
X26226028Y-203333750D01*
X25705867Y-203282748D01*
X25236564Y-203141057D01*
X24803722Y-202910911D01*
X24423823Y-202601073D01*
X24111344Y-202223350D01*
X23878181Y-201792123D01*
X23733218Y-201323823D01*
X23678750Y-200805597D01*
X23678750Y-181489527D01*
X36058750Y-181489527D01*
X36058750Y-182047973D01*
X36167698Y-182595689D01*
X36381406Y-183111626D01*
X36691662Y-183575957D01*
X37086543Y-183970838D01*
X37550874Y-184281094D01*
X38066811Y-184494802D01*
X38614527Y-184603750D01*
X39172973Y-184603750D01*
X39720689Y-184494802D01*
X40236626Y-184281094D01*
X40700957Y-183970838D01*
X41095838Y-183575957D01*
X41406094Y-183111626D01*
X41619802Y-182595689D01*
X41728750Y-182047973D01*
X41728750Y-181489527D01*
X41619802Y-180941811D01*
X41517892Y-180695777D01*
X124165000Y-180695777D01*
X124165000Y-181254223D01*
X124273948Y-181801939D01*
X124487656Y-182317876D01*
X124797912Y-182782207D01*
X125192793Y-183177088D01*
X125657124Y-183487344D01*
X126173061Y-183701052D01*
X126720777Y-183810000D01*
X127279223Y-183810000D01*
X127826939Y-183701052D01*
X128342876Y-183487344D01*
X128807207Y-183177088D01*
X129202088Y-182782207D01*
X129512344Y-182317876D01*
X129726052Y-181801939D01*
X129835000Y-181254223D01*
X129835000Y-180695777D01*
X263865000Y-180695777D01*
X263865000Y-181254223D01*
X263973948Y-181801939D01*
X264187656Y-182317876D01*
X264497912Y-182782207D01*
X264892793Y-183177088D01*
X265357124Y-183487344D01*
X265873061Y-183701052D01*
X266420777Y-183810000D01*
X266979223Y-183810000D01*
X267526939Y-183701052D01*
X268042876Y-183487344D01*
X268507207Y-183177088D01*
X268902088Y-182782207D01*
X269212344Y-182317876D01*
X269426052Y-181801939D01*
X269535000Y-181254223D01*
X269535000Y-180695777D01*
X375783750Y-180695777D01*
X375783750Y-181254223D01*
X375892698Y-181801939D01*
X376106406Y-182317876D01*
X376416662Y-182782207D01*
X376811543Y-183177088D01*
X377275874Y-183487344D01*
X377791811Y-183701052D01*
X378339527Y-183810000D01*
X378897973Y-183810000D01*
X379445689Y-183701052D01*
X379961626Y-183487344D01*
X380425957Y-183177088D01*
X380820838Y-182782207D01*
X381131094Y-182317876D01*
X381344802Y-181801939D01*
X381453750Y-181254223D01*
X381453750Y-180695777D01*
X381344802Y-180148061D01*
X381131094Y-179632124D01*
X380820838Y-179167793D01*
X380425957Y-178772912D01*
X379961626Y-178462656D01*
X379445689Y-178248948D01*
X378897973Y-178140000D01*
X378339527Y-178140000D01*
X377791811Y-178248948D01*
X377275874Y-178462656D01*
X376811543Y-178772912D01*
X376416662Y-179167793D01*
X376106406Y-179632124D01*
X375892698Y-180148061D01*
X375783750Y-180695777D01*
X269535000Y-180695777D01*
X269426052Y-180148061D01*
X269212344Y-179632124D01*
X268902088Y-179167793D01*
X268507207Y-178772912D01*
X268042876Y-178462656D01*
X267526939Y-178248948D01*
X266979223Y-178140000D01*
X266420777Y-178140000D01*
X265873061Y-178248948D01*
X265357124Y-178462656D01*
X264892793Y-178772912D01*
X264497912Y-179167793D01*
X264187656Y-179632124D01*
X263973948Y-180148061D01*
X263865000Y-180695777D01*
X129835000Y-180695777D01*
X129726052Y-180148061D01*
X129512344Y-179632124D01*
X129202088Y-179167793D01*
X128807207Y-178772912D01*
X128342876Y-178462656D01*
X127826939Y-178248948D01*
X127279223Y-178140000D01*
X126720777Y-178140000D01*
X126173061Y-178248948D01*
X125657124Y-178462656D01*
X125192793Y-178772912D01*
X124797912Y-179167793D01*
X124487656Y-179632124D01*
X124273948Y-180148061D01*
X124165000Y-180695777D01*
X41517892Y-180695777D01*
X41406094Y-180425874D01*
X41095838Y-179961543D01*
X40700957Y-179566662D01*
X40236626Y-179256406D01*
X39720689Y-179042698D01*
X39172973Y-178933750D01*
X38614527Y-178933750D01*
X38066811Y-179042698D01*
X37550874Y-179256406D01*
X37086543Y-179566662D01*
X36691662Y-179961543D01*
X36381406Y-180425874D01*
X36167698Y-180941811D01*
X36058750Y-181489527D01*
X23678750Y-181489527D01*
X23678750Y-102701445D01*
X70471250Y-102701445D01*
X70471250Y-103673555D01*
X70660900Y-104626986D01*
X71032910Y-105525099D01*
X71572985Y-106333379D01*
X72260371Y-107020765D01*
X73068651Y-107560840D01*
X73966764Y-107932850D01*
X74920195Y-108122500D01*
X75892305Y-108122500D01*
X76845736Y-107932850D01*
X77743849Y-107560840D01*
X78552129Y-107020765D01*
X79239515Y-106333379D01*
X79779590Y-105525099D01*
X80151600Y-104626986D01*
X80341250Y-103673555D01*
X80341250Y-102701445D01*
X337171250Y-102701445D01*
X337171250Y-103673555D01*
X337360900Y-104626986D01*
X337732910Y-105525099D01*
X338272985Y-106333379D01*
X338960371Y-107020765D01*
X339768651Y-107560840D01*
X340666764Y-107932850D01*
X341620195Y-108122500D01*
X342592305Y-108122500D01*
X343545736Y-107932850D01*
X344443849Y-107560840D01*
X345252129Y-107020765D01*
X345939515Y-106333379D01*
X346479590Y-105525099D01*
X346851600Y-104626986D01*
X347041250Y-103673555D01*
X347041250Y-102701445D01*
X346851600Y-101748014D01*
X346479590Y-100849901D01*
X345939515Y-100041621D01*
X345252129Y-99354235D01*
X344443849Y-98814160D01*
X343545736Y-98442150D01*
X342592305Y-98252500D01*
X341620195Y-98252500D01*
X340666764Y-98442150D01*
X339768651Y-98814160D01*
X338960371Y-99354235D01*
X338272985Y-100041621D01*
X337732910Y-100849901D01*
X337360900Y-101748014D01*
X337171250Y-102701445D01*
X80341250Y-102701445D01*
X80151600Y-101748014D01*
X79779590Y-100849901D01*
X79239515Y-100041621D01*
X78552129Y-99354235D01*
X77743849Y-98814160D01*
X76845736Y-98442150D01*
X75892305Y-98252500D01*
X74920195Y-98252500D01*
X73966764Y-98442150D01*
X73068651Y-98814160D01*
X72260371Y-99354235D01*
X71572985Y-100041621D01*
X71032910Y-100849901D01*
X70660900Y-101748014D01*
X70471250Y-102701445D01*
X23678750Y-102701445D01*
X23678750Y-94140777D01*
X24186250Y-94140777D01*
X24186250Y-94699223D01*
X24295198Y-95246939D01*
X24508906Y-95762876D01*
X24819162Y-96227207D01*
X25214043Y-96622088D01*
X25678374Y-96932344D01*
X26194311Y-97146052D01*
X26742027Y-97255000D01*
X27300473Y-97255000D01*
X27848189Y-97146052D01*
X28364126Y-96932344D01*
X28828457Y-96622088D01*
X29223338Y-96227207D01*
X29533594Y-95762876D01*
X29747302Y-95246939D01*
X29856250Y-94699223D01*
X29856250Y-94140777D01*
X159010000Y-94140777D01*
X159010000Y-94699223D01*
X159118948Y-95246939D01*
X159332656Y-95762876D01*
X159642912Y-96227207D01*
X160037793Y-96622088D01*
X160502124Y-96932344D01*
X161018061Y-97146052D01*
X161565777Y-97255000D01*
X162124223Y-97255000D01*
X162671939Y-97146052D01*
X163187876Y-96932344D01*
X163652207Y-96622088D01*
X164047088Y-96227207D01*
X164357344Y-95762876D01*
X164571052Y-95246939D01*
X164680000Y-94699223D01*
X164680000Y-94140777D01*
X229020000Y-94140777D01*
X229020000Y-94699223D01*
X229128948Y-95246939D01*
X229342656Y-95762876D01*
X229652912Y-96227207D01*
X230047793Y-96622088D01*
X230512124Y-96932344D01*
X231028061Y-97146052D01*
X231575777Y-97255000D01*
X232134223Y-97255000D01*
X232681939Y-97146052D01*
X233197876Y-96932344D01*
X233662207Y-96622088D01*
X234057088Y-96227207D01*
X234367344Y-95762876D01*
X234581052Y-95246939D01*
X234690000Y-94699223D01*
X234690000Y-94140777D01*
X387656250Y-94140777D01*
X387656250Y-94699223D01*
X387765198Y-95246939D01*
X387978906Y-95762876D01*
X388289162Y-96227207D01*
X388684043Y-96622088D01*
X389148374Y-96932344D01*
X389664311Y-97146052D01*
X390212027Y-97255000D01*
X390770473Y-97255000D01*
X391318189Y-97146052D01*
X391834126Y-96932344D01*
X392298457Y-96622088D01*
X392693338Y-96227207D01*
X393003594Y-95762876D01*
X393217302Y-95246939D01*
X393326250Y-94699223D01*
X393326250Y-94140777D01*
X393217302Y-93593061D01*
X393003594Y-93077124D01*
X392693338Y-92612793D01*
X392298457Y-92217912D01*
X391834126Y-91907656D01*
X391318189Y-91693948D01*
X390770473Y-91585000D01*
X390212027Y-91585000D01*
X389664311Y-91693948D01*
X389148374Y-91907656D01*
X388684043Y-92217912D01*
X388289162Y-92612793D01*
X387978906Y-93077124D01*
X387765198Y-93593061D01*
X387656250Y-94140777D01*
X234690000Y-94140777D01*
X234581052Y-93593061D01*
X234367344Y-93077124D01*
X234057088Y-92612793D01*
X233662207Y-92217912D01*
X233197876Y-91907656D01*
X232681939Y-91693948D01*
X232134223Y-91585000D01*
X231575777Y-91585000D01*
X231028061Y-91693948D01*
X230512124Y-91907656D01*
X230047793Y-92217912D01*
X229652912Y-92612793D01*
X229342656Y-93077124D01*
X229128948Y-93593061D01*
X229020000Y-94140777D01*
X164680000Y-94140777D01*
X164571052Y-93593061D01*
X164357344Y-93077124D01*
X164047088Y-92612793D01*
X163652207Y-92217912D01*
X163187876Y-91907656D01*
X162671939Y-91693948D01*
X162124223Y-91585000D01*
X161565777Y-91585000D01*
X161018061Y-91693948D01*
X160502124Y-91907656D01*
X160037793Y-92217912D01*
X159642912Y-92612793D01*
X159332656Y-93077124D01*
X159118948Y-93593061D01*
X159010000Y-94140777D01*
X29856250Y-94140777D01*
X29747302Y-93593061D01*
X29533594Y-93077124D01*
X29223338Y-92612793D01*
X28828457Y-92217912D01*
X28364126Y-91907656D01*
X27848189Y-91693948D01*
X27300473Y-91585000D01*
X26742027Y-91585000D01*
X26194311Y-91693948D01*
X25678374Y-91907656D01*
X25214043Y-92217912D01*
X24819162Y-92612793D01*
X24508906Y-93077124D01*
X24295198Y-93593061D01*
X24186250Y-94140777D01*
X23678750Y-94140777D01*
X23678750Y-76744527D01*
X24186250Y-76744527D01*
X24186250Y-77302973D01*
X24295198Y-77850689D01*
X24508906Y-78366626D01*
X24819162Y-78830957D01*
X25214043Y-79225838D01*
X25678374Y-79536094D01*
X26194311Y-79749802D01*
X26742027Y-79858750D01*
X27300473Y-79858750D01*
X27848189Y-79749802D01*
X28364126Y-79536094D01*
X28828457Y-79225838D01*
X29223338Y-78830957D01*
X29533594Y-78366626D01*
X29747302Y-77850689D01*
X29856250Y-77302973D01*
X29856250Y-76744527D01*
X387656250Y-76744527D01*
X387656250Y-77302973D01*
X387765198Y-77850689D01*
X387978906Y-78366626D01*
X388289162Y-78830957D01*
X388684043Y-79225838D01*
X389148374Y-79536094D01*
X389664311Y-79749802D01*
X390212027Y-79858750D01*
X390770473Y-79858750D01*
X391318189Y-79749802D01*
X391834126Y-79536094D01*
X392298457Y-79225838D01*
X392693338Y-78830957D01*
X393003594Y-78366626D01*
X393217302Y-77850689D01*
X393326250Y-77302973D01*
X393326250Y-76744527D01*
X393217302Y-76196811D01*
X393003594Y-75680874D01*
X392693338Y-75216543D01*
X392298457Y-74821662D01*
X391834126Y-74511406D01*
X391318189Y-74297698D01*
X390770473Y-74188750D01*
X390212027Y-74188750D01*
X389664311Y-74297698D01*
X389148374Y-74511406D01*
X388684043Y-74821662D01*
X388289162Y-75216543D01*
X387978906Y-75680874D01*
X387765198Y-76196811D01*
X387656250Y-76744527D01*
X29856250Y-76744527D01*
X29747302Y-76196811D01*
X29533594Y-75680874D01*
X29223338Y-75216543D01*
X28828457Y-74821662D01*
X28364126Y-74511406D01*
X27848189Y-74297698D01*
X27300473Y-74188750D01*
X26742027Y-74188750D01*
X26194311Y-74297698D01*
X25678374Y-74511406D01*
X25214043Y-74821662D01*
X24819162Y-75216543D01*
X24508906Y-75680874D01*
X24295198Y-76196811D01*
X24186250Y-76744527D01*
X23678750Y-76744527D01*
X23678750Y-76232278D01*
X23729752Y-75712116D01*
X23871444Y-75242812D01*
X24101587Y-74809975D01*
X24411428Y-74430073D01*
X24789147Y-74117597D01*
X25220377Y-73884431D01*
X25688678Y-73739468D01*
X26206903Y-73685000D01*
X391286472Y-73685000D01*
X391806634Y-73736002D01*
G37*
%TD.AperFunction*%
M02*
