G04 #@! TF.GenerationSoftware,KiCad,Pcbnew,5.1.10-88a1d61d58~90~ubuntu21.04.1*
G04 #@! TF.CreationDate,2021-08-17T12:13:25+02:00*
G04 #@! TF.ProjectId,basketweave_bottom,6261736b-6574-4776-9561-76655f626f74,rev?*
G04 #@! TF.SameCoordinates,Original*
G04 #@! TF.FileFunction,Legend,Bot*
G04 #@! TF.FilePolarity,Positive*
%FSLAX46Y46*%
G04 Gerber Fmt 4.6, Leading zero omitted, Abs format (unit mm)*
G04 Created by KiCad (PCBNEW 5.1.10-88a1d61d58~90~ubuntu21.04.1) date 2021-08-17 12:13:25*
%MOMM*%
%LPD*%
G01*
G04 APERTURE LIST*
%ADD10C,0.010000*%
%ADD11C,0.100000*%
%ADD12C,4.502000*%
%ADD13C,8.702000*%
G04 APERTURE END LIST*
%LPC*%
D10*
G36*
X106641900Y-128208561D02*
G01*
X100101400Y-128276350D01*
X100026889Y-130112077D01*
X99952378Y-131947805D01*
X104598889Y-132017077D01*
X109245400Y-132086350D01*
X109319481Y-134049079D01*
X109393561Y-136011808D01*
X104747481Y-136081079D01*
X100101400Y-136150350D01*
X100026889Y-137986077D01*
X99952378Y-139821805D01*
X104598889Y-139891077D01*
X109245400Y-139960350D01*
X109315042Y-144214850D01*
X109384683Y-148469350D01*
X96672400Y-148469350D01*
X96672400Y-152533350D01*
X104758067Y-152533350D01*
X106736246Y-152528217D01*
X108549732Y-152513668D01*
X110136563Y-152490972D01*
X111434772Y-152461401D01*
X112382395Y-152426226D01*
X112917468Y-152386717D01*
X113013067Y-152364016D01*
X113047154Y-152083408D01*
X113078948Y-151345153D01*
X113107749Y-150199601D01*
X113132858Y-148697102D01*
X113153577Y-146888007D01*
X113169207Y-144822665D01*
X113179047Y-142551427D01*
X113182400Y-140167728D01*
X113182400Y-128140773D01*
X106641900Y-128208561D01*
G37*
X106641900Y-128208561D02*
X100101400Y-128276350D01*
X100026889Y-130112077D01*
X99952378Y-131947805D01*
X104598889Y-132017077D01*
X109245400Y-132086350D01*
X109319481Y-134049079D01*
X109393561Y-136011808D01*
X104747481Y-136081079D01*
X100101400Y-136150350D01*
X100026889Y-137986077D01*
X99952378Y-139821805D01*
X104598889Y-139891077D01*
X109245400Y-139960350D01*
X109315042Y-144214850D01*
X109384683Y-148469350D01*
X96672400Y-148469350D01*
X96672400Y-152533350D01*
X104758067Y-152533350D01*
X106736246Y-152528217D01*
X108549732Y-152513668D01*
X110136563Y-152490972D01*
X111434772Y-152461401D01*
X112382395Y-152426226D01*
X112917468Y-152386717D01*
X113013067Y-152364016D01*
X113047154Y-152083408D01*
X113078948Y-151345153D01*
X113107749Y-150199601D01*
X113132858Y-148697102D01*
X113153577Y-146888007D01*
X113169207Y-144822665D01*
X113179047Y-142551427D01*
X113182400Y-140167728D01*
X113182400Y-128140773D01*
X106641900Y-128208561D01*
G36*
X153314717Y-126662183D02*
G01*
X152973357Y-127310227D01*
X152452067Y-128310815D01*
X151775976Y-129615017D01*
X150970210Y-131173901D01*
X150059896Y-132938537D01*
X149070162Y-134859994D01*
X148026135Y-136889342D01*
X146952941Y-138977649D01*
X145875709Y-141075985D01*
X144819565Y-143135418D01*
X143809637Y-145107019D01*
X142871051Y-146941856D01*
X142028935Y-148590998D01*
X141308417Y-150005515D01*
X140734623Y-151136476D01*
X140332680Y-151934950D01*
X140127716Y-152352006D01*
X140106400Y-152401912D01*
X140340950Y-152461285D01*
X140966885Y-152506704D01*
X141867642Y-152531079D01*
X142267480Y-152533350D01*
X144428559Y-152533350D01*
X146313797Y-148723350D01*
X160315004Y-148723350D01*
X162200242Y-152533350D01*
X164234321Y-152533350D01*
X165178478Y-152508531D01*
X165889659Y-152442573D01*
X166247750Y-152348219D01*
X166268400Y-152317530D01*
X166160016Y-152053972D01*
X165851075Y-151390232D01*
X165365898Y-150375456D01*
X164728805Y-149058792D01*
X163964115Y-147489385D01*
X163096148Y-145716383D01*
X162576847Y-144659350D01*
X158377762Y-144659350D01*
X148257771Y-144659350D01*
X150430839Y-140150850D01*
X151119168Y-138714127D01*
X151744338Y-137393035D01*
X152267307Y-136271365D01*
X152649033Y-135432909D01*
X152850473Y-134961458D01*
X152857001Y-134943850D01*
X153087632Y-134445880D01*
X153275748Y-134247667D01*
X153375375Y-134344862D01*
X153567138Y-134659183D01*
X153869172Y-135227233D01*
X154299613Y-136085614D01*
X154876596Y-137270931D01*
X155618255Y-138819785D01*
X156542727Y-140768781D01*
X157270202Y-142309850D01*
X158377762Y-144659350D01*
X162576847Y-144659350D01*
X162149225Y-143788932D01*
X161147664Y-141756178D01*
X160115787Y-139667268D01*
X159077912Y-137571350D01*
X158058360Y-135517569D01*
X157081450Y-133555072D01*
X156171502Y-131733005D01*
X155352837Y-130100516D01*
X154649774Y-128706751D01*
X154086633Y-127600857D01*
X153687733Y-126831979D01*
X153477395Y-126449266D01*
X153451020Y-126415614D01*
X153314717Y-126662183D01*
G37*
X153314717Y-126662183D02*
X152973357Y-127310227D01*
X152452067Y-128310815D01*
X151775976Y-129615017D01*
X150970210Y-131173901D01*
X150059896Y-132938537D01*
X149070162Y-134859994D01*
X148026135Y-136889342D01*
X146952941Y-138977649D01*
X145875709Y-141075985D01*
X144819565Y-143135418D01*
X143809637Y-145107019D01*
X142871051Y-146941856D01*
X142028935Y-148590998D01*
X141308417Y-150005515D01*
X140734623Y-151136476D01*
X140332680Y-151934950D01*
X140127716Y-152352006D01*
X140106400Y-152401912D01*
X140340950Y-152461285D01*
X140966885Y-152506704D01*
X141867642Y-152531079D01*
X142267480Y-152533350D01*
X144428559Y-152533350D01*
X146313797Y-148723350D01*
X160315004Y-148723350D01*
X162200242Y-152533350D01*
X164234321Y-152533350D01*
X165178478Y-152508531D01*
X165889659Y-152442573D01*
X166247750Y-152348219D01*
X166268400Y-152317530D01*
X166160016Y-152053972D01*
X165851075Y-151390232D01*
X165365898Y-150375456D01*
X164728805Y-149058792D01*
X163964115Y-147489385D01*
X163096148Y-145716383D01*
X162576847Y-144659350D01*
X158377762Y-144659350D01*
X148257771Y-144659350D01*
X150430839Y-140150850D01*
X151119168Y-138714127D01*
X151744338Y-137393035D01*
X152267307Y-136271365D01*
X152649033Y-135432909D01*
X152850473Y-134961458D01*
X152857001Y-134943850D01*
X153087632Y-134445880D01*
X153275748Y-134247667D01*
X153375375Y-134344862D01*
X153567138Y-134659183D01*
X153869172Y-135227233D01*
X154299613Y-136085614D01*
X154876596Y-137270931D01*
X155618255Y-138819785D01*
X156542727Y-140768781D01*
X157270202Y-142309850D01*
X158377762Y-144659350D01*
X162576847Y-144659350D01*
X162149225Y-143788932D01*
X161147664Y-141756178D01*
X160115787Y-139667268D01*
X159077912Y-137571350D01*
X158058360Y-135517569D01*
X157081450Y-133555072D01*
X156171502Y-131733005D01*
X155352837Y-130100516D01*
X154649774Y-128706751D01*
X154086633Y-127600857D01*
X153687733Y-126831979D01*
X153477395Y-126449266D01*
X153451020Y-126415614D01*
X153314717Y-126662183D01*
G36*
X176999900Y-128208561D02*
G01*
X170459400Y-128276350D01*
X170384773Y-130117849D01*
X170310145Y-131959349D01*
X175020273Y-131959349D01*
X179730400Y-131959350D01*
X179730400Y-136011890D01*
X170459400Y-136150350D01*
X170384773Y-137991850D01*
X170310145Y-139833350D01*
X179730400Y-139833350D01*
X179730400Y-148469350D01*
X167030400Y-148469350D01*
X167030400Y-152533350D01*
X175116067Y-152533350D01*
X177094246Y-152528217D01*
X178907732Y-152513668D01*
X180494563Y-152490972D01*
X181792772Y-152461401D01*
X182740395Y-152426226D01*
X183275468Y-152386717D01*
X183371067Y-152364016D01*
X183405154Y-152083408D01*
X183436948Y-151345153D01*
X183465749Y-150199601D01*
X183490858Y-148697102D01*
X183511577Y-146888007D01*
X183527207Y-144822665D01*
X183537047Y-142551427D01*
X183540400Y-140167728D01*
X183540400Y-128140773D01*
X176999900Y-128208561D01*
G37*
X176999900Y-128208561D02*
X170459400Y-128276350D01*
X170384773Y-130117849D01*
X170310145Y-131959349D01*
X175020273Y-131959349D01*
X179730400Y-131959350D01*
X179730400Y-136011890D01*
X170459400Y-136150350D01*
X170384773Y-137991850D01*
X170310145Y-139833350D01*
X179730400Y-139833350D01*
X179730400Y-148469350D01*
X167030400Y-148469350D01*
X167030400Y-152533350D01*
X175116067Y-152533350D01*
X177094246Y-152528217D01*
X178907732Y-152513668D01*
X180494563Y-152490972D01*
X181792772Y-152461401D01*
X182740395Y-152426226D01*
X183275468Y-152386717D01*
X183371067Y-152364016D01*
X183405154Y-152083408D01*
X183436948Y-151345153D01*
X183465749Y-150199601D01*
X183490858Y-148697102D01*
X183511577Y-146888007D01*
X183527207Y-144822665D01*
X183537047Y-142551427D01*
X183540400Y-140167728D01*
X183540400Y-128140773D01*
X176999900Y-128208561D01*
G36*
X219862400Y-131944605D02*
G01*
X223227900Y-132015477D01*
X226593400Y-132086350D01*
X226659782Y-142309850D01*
X226726163Y-152533350D01*
X228458949Y-152533350D01*
X229354426Y-152510174D01*
X230037620Y-152449409D01*
X230360882Y-152364201D01*
X230361067Y-152364016D01*
X230398140Y-152081027D01*
X230432409Y-151345131D01*
X230462968Y-150211414D01*
X230488911Y-148734967D01*
X230509330Y-146970876D01*
X230523319Y-144974231D01*
X230529970Y-142800120D01*
X230530400Y-142077016D01*
X230530400Y-131959350D01*
X236880400Y-131959350D01*
X236880400Y-128149350D01*
X219862400Y-128149350D01*
X219862400Y-131944605D01*
G37*
X219862400Y-131944605D02*
X223227900Y-132015477D01*
X226593400Y-132086350D01*
X226659782Y-142309850D01*
X226726163Y-152533350D01*
X228458949Y-152533350D01*
X229354426Y-152510174D01*
X230037620Y-152449409D01*
X230360882Y-152364201D01*
X230361067Y-152364016D01*
X230398140Y-152081027D01*
X230432409Y-151345131D01*
X230462968Y-150211414D01*
X230488911Y-148734967D01*
X230509330Y-146970876D01*
X230523319Y-144974231D01*
X230529970Y-142800120D01*
X230530400Y-142077016D01*
X230530400Y-131959350D01*
X236880400Y-131959350D01*
X236880400Y-128149350D01*
X219862400Y-128149350D01*
X219862400Y-131944605D01*
G36*
X241960400Y-131959350D02*
G01*
X251104400Y-131959350D01*
X251104400Y-136023350D01*
X241960400Y-136023350D01*
X241960400Y-139833350D01*
X251104400Y-139833350D01*
X251104400Y-148460475D01*
X244817900Y-148528412D01*
X238531400Y-148596350D01*
X238531400Y-152406350D01*
X246550062Y-152473355D01*
X248519935Y-152484490D01*
X250325121Y-152484480D01*
X251903354Y-152474130D01*
X253192369Y-152454243D01*
X254129898Y-152425626D01*
X254653677Y-152389081D01*
X254741562Y-152367522D01*
X254776361Y-152086187D01*
X254808819Y-151347233D01*
X254838221Y-150201040D01*
X254863853Y-148697986D01*
X254885000Y-146888451D01*
X254900950Y-144822813D01*
X254910988Y-142551451D01*
X254914400Y-140172016D01*
X254914400Y-128149350D01*
X241960400Y-128149350D01*
X241960400Y-131959350D01*
G37*
X241960400Y-131959350D02*
X251104400Y-131959350D01*
X251104400Y-136023350D01*
X241960400Y-136023350D01*
X241960400Y-139833350D01*
X251104400Y-139833350D01*
X251104400Y-148460475D01*
X244817900Y-148528412D01*
X238531400Y-148596350D01*
X238531400Y-152406350D01*
X246550062Y-152473355D01*
X248519935Y-152484490D01*
X250325121Y-152484480D01*
X251903354Y-152474130D01*
X253192369Y-152454243D01*
X254129898Y-152425626D01*
X254653677Y-152389081D01*
X254741562Y-152367522D01*
X254776361Y-152086187D01*
X254808819Y-151347233D01*
X254838221Y-150201040D01*
X254863853Y-148697986D01*
X254885000Y-146888451D01*
X254900950Y-144822813D01*
X254910988Y-142551451D01*
X254914400Y-140172016D01*
X254914400Y-128149350D01*
X241960400Y-128149350D01*
X241960400Y-131959350D01*
G36*
X271551400Y-128276350D02*
G01*
X271297400Y-136792532D01*
X266982203Y-132470941D01*
X262667005Y-128149349D01*
X259997203Y-128162650D01*
X257327400Y-128175950D01*
X269773400Y-140353414D01*
X263550400Y-146431245D01*
X257327400Y-152509075D01*
X259997203Y-152521212D01*
X262667005Y-152533350D01*
X266982203Y-148211758D01*
X271297400Y-143890167D01*
X271424400Y-148148258D01*
X271551400Y-152406350D01*
X273392900Y-152480977D01*
X275234400Y-152555605D01*
X275234400Y-128127094D01*
X271551400Y-128276350D01*
G37*
X271551400Y-128276350D02*
X271297400Y-136792532D01*
X266982203Y-132470941D01*
X262667005Y-128149349D01*
X259997203Y-128162650D01*
X257327400Y-128175950D01*
X269773400Y-140353414D01*
X263550400Y-146431245D01*
X257327400Y-152509075D01*
X259997203Y-152521212D01*
X262667005Y-152533350D01*
X266982203Y-148211758D01*
X271297400Y-143890167D01*
X271424400Y-148148258D01*
X271551400Y-152406350D01*
X273392900Y-152480977D01*
X275234400Y-152555605D01*
X275234400Y-128127094D01*
X271551400Y-128276350D01*
G36*
X281076400Y-131910006D02*
G01*
X285630141Y-131998178D01*
X287279575Y-132034791D01*
X288501585Y-132077694D01*
X289376740Y-132136263D01*
X289985605Y-132219878D01*
X290408750Y-132337915D01*
X290726740Y-132499755D01*
X290884626Y-132609804D01*
X291602491Y-133435456D01*
X291926442Y-134467047D01*
X291849666Y-135581558D01*
X291365354Y-136655969D01*
X291125918Y-136968051D01*
X290869156Y-137244334D01*
X290592812Y-137439924D01*
X290204352Y-137573872D01*
X289611244Y-137665227D01*
X288720955Y-137733038D01*
X287440950Y-137796357D01*
X287009739Y-137815453D01*
X285008947Y-137940044D01*
X283425860Y-138134324D01*
X282172070Y-138424238D01*
X281159169Y-138835730D01*
X280298748Y-139394745D01*
X279651570Y-139974812D01*
X278646521Y-141286446D01*
X278038385Y-142836066D01*
X277812714Y-144670717D01*
X277848397Y-145845259D01*
X278174659Y-147753770D01*
X278854087Y-149309151D01*
X279913456Y-150547545D01*
X281379542Y-151505096D01*
X282346400Y-151916889D01*
X282989335Y-152068785D01*
X283989334Y-152202745D01*
X285263444Y-152316829D01*
X286728714Y-152409095D01*
X288302192Y-152477603D01*
X289900924Y-152520412D01*
X291441958Y-152535582D01*
X292842343Y-152521170D01*
X294019126Y-152475238D01*
X294889354Y-152395844D01*
X295370076Y-152281046D01*
X295435389Y-152223123D01*
X295500074Y-151781687D01*
X295522824Y-151012397D01*
X295503975Y-150220596D01*
X295427400Y-148596350D01*
X289458400Y-148469350D01*
X287256963Y-148411492D01*
X285534364Y-148340858D01*
X284261556Y-148255439D01*
X283409490Y-148153228D01*
X282949119Y-148032216D01*
X282920530Y-148017320D01*
X282202213Y-147325938D01*
X281744254Y-146265158D01*
X281584400Y-144929970D01*
X281649128Y-144024472D01*
X281898737Y-143371709D01*
X282282900Y-142871872D01*
X282846077Y-142371737D01*
X283555077Y-142017175D01*
X284498026Y-141787280D01*
X285763048Y-141661147D01*
X287438268Y-141617870D01*
X287570799Y-141617409D01*
X289488613Y-141545496D01*
X291010355Y-141320827D01*
X292232565Y-140914741D01*
X293251783Y-140298573D01*
X293878459Y-139744659D01*
X294783536Y-138581986D01*
X295350393Y-137204037D01*
X295607711Y-135524680D01*
X295628483Y-134488789D01*
X295427856Y-132660756D01*
X294871518Y-131178096D01*
X293934674Y-130000751D01*
X292592531Y-129088662D01*
X292159039Y-128883379D01*
X291652074Y-128679980D01*
X291128339Y-128527073D01*
X290500642Y-128415035D01*
X289681794Y-128334242D01*
X288584602Y-128275072D01*
X287121878Y-128227900D01*
X285965900Y-128199841D01*
X281076400Y-128089138D01*
X281076400Y-131910006D01*
G37*
X281076400Y-131910006D02*
X285630141Y-131998178D01*
X287279575Y-132034791D01*
X288501585Y-132077694D01*
X289376740Y-132136263D01*
X289985605Y-132219878D01*
X290408750Y-132337915D01*
X290726740Y-132499755D01*
X290884626Y-132609804D01*
X291602491Y-133435456D01*
X291926442Y-134467047D01*
X291849666Y-135581558D01*
X291365354Y-136655969D01*
X291125918Y-136968051D01*
X290869156Y-137244334D01*
X290592812Y-137439924D01*
X290204352Y-137573872D01*
X289611244Y-137665227D01*
X288720955Y-137733038D01*
X287440950Y-137796357D01*
X287009739Y-137815453D01*
X285008947Y-137940044D01*
X283425860Y-138134324D01*
X282172070Y-138424238D01*
X281159169Y-138835730D01*
X280298748Y-139394745D01*
X279651570Y-139974812D01*
X278646521Y-141286446D01*
X278038385Y-142836066D01*
X277812714Y-144670717D01*
X277848397Y-145845259D01*
X278174659Y-147753770D01*
X278854087Y-149309151D01*
X279913456Y-150547545D01*
X281379542Y-151505096D01*
X282346400Y-151916889D01*
X282989335Y-152068785D01*
X283989334Y-152202745D01*
X285263444Y-152316829D01*
X286728714Y-152409095D01*
X288302192Y-152477603D01*
X289900924Y-152520412D01*
X291441958Y-152535582D01*
X292842343Y-152521170D01*
X294019126Y-152475238D01*
X294889354Y-152395844D01*
X295370076Y-152281046D01*
X295435389Y-152223123D01*
X295500074Y-151781687D01*
X295522824Y-151012397D01*
X295503975Y-150220596D01*
X295427400Y-148596350D01*
X289458400Y-148469350D01*
X287256963Y-148411492D01*
X285534364Y-148340858D01*
X284261556Y-148255439D01*
X283409490Y-148153228D01*
X282949119Y-148032216D01*
X282920530Y-148017320D01*
X282202213Y-147325938D01*
X281744254Y-146265158D01*
X281584400Y-144929970D01*
X281649128Y-144024472D01*
X281898737Y-143371709D01*
X282282900Y-142871872D01*
X282846077Y-142371737D01*
X283555077Y-142017175D01*
X284498026Y-141787280D01*
X285763048Y-141661147D01*
X287438268Y-141617870D01*
X287570799Y-141617409D01*
X289488613Y-141545496D01*
X291010355Y-141320827D01*
X292232565Y-140914741D01*
X293251783Y-140298573D01*
X293878459Y-139744659D01*
X294783536Y-138581986D01*
X295350393Y-137204037D01*
X295607711Y-135524680D01*
X295628483Y-134488789D01*
X295427856Y-132660756D01*
X294871518Y-131178096D01*
X293934674Y-130000751D01*
X292592531Y-129088662D01*
X292159039Y-128883379D01*
X291652074Y-128679980D01*
X291128339Y-128527073D01*
X290500642Y-128415035D01*
X289681794Y-128334242D01*
X288584602Y-128275072D01*
X287121878Y-128227900D01*
X285965900Y-128199841D01*
X281076400Y-128089138D01*
X281076400Y-131910006D01*
G36*
X305108528Y-135784973D02*
G01*
X303979348Y-137979790D01*
X302851105Y-140173196D01*
X301760987Y-142292865D01*
X300746181Y-144266475D01*
X299843874Y-146021703D01*
X299091251Y-147486224D01*
X298525502Y-148587715D01*
X298427388Y-148778858D01*
X297820367Y-149986062D01*
X297319361Y-151029645D01*
X296961106Y-151829184D01*
X296782338Y-152304257D01*
X296774076Y-152398358D01*
X297074916Y-152462047D01*
X297751067Y-152509550D01*
X298669899Y-152532448D01*
X298900813Y-152533350D01*
X300892559Y-152533350D01*
X302777797Y-148723350D01*
X316779004Y-148723350D01*
X318664242Y-152533350D01*
X320698321Y-152533350D01*
X321769564Y-152511100D01*
X322410618Y-152435758D01*
X322697701Y-152294430D01*
X322732400Y-152189301D01*
X322622039Y-151903882D01*
X322304529Y-151206247D01*
X321800227Y-150138385D01*
X321129494Y-148742286D01*
X320312687Y-147059940D01*
X319370167Y-145133339D01*
X319093847Y-144571966D01*
X314858400Y-144571966D01*
X314617215Y-144598802D01*
X313944907Y-144622300D01*
X312918352Y-144641111D01*
X311614424Y-144653883D01*
X310109996Y-144659263D01*
X309888284Y-144659350D01*
X308185772Y-144657895D01*
X306927239Y-144648832D01*
X306048664Y-144625111D01*
X305486027Y-144579681D01*
X305175307Y-144505492D01*
X305052483Y-144395495D01*
X305053536Y-144242640D01*
X305086009Y-144130526D01*
X305244072Y-143748118D01*
X305588264Y-142986349D01*
X306082512Y-141922682D01*
X306690742Y-140634582D01*
X307376880Y-139199515D01*
X307540366Y-138860026D01*
X309826881Y-134118350D01*
X312342641Y-139301466D01*
X313063973Y-140791280D01*
X313704541Y-142121339D01*
X314233025Y-143226029D01*
X314618105Y-144039734D01*
X314828461Y-144496838D01*
X314858400Y-144571966D01*
X319093847Y-144571966D01*
X318322291Y-143004471D01*
X317189418Y-140715326D01*
X316366882Y-139060424D01*
X310001364Y-126275597D01*
X305108528Y-135784973D01*
G37*
X305108528Y-135784973D02*
X303979348Y-137979790D01*
X302851105Y-140173196D01*
X301760987Y-142292865D01*
X300746181Y-144266475D01*
X299843874Y-146021703D01*
X299091251Y-147486224D01*
X298525502Y-148587715D01*
X298427388Y-148778858D01*
X297820367Y-149986062D01*
X297319361Y-151029645D01*
X296961106Y-151829184D01*
X296782338Y-152304257D01*
X296774076Y-152398358D01*
X297074916Y-152462047D01*
X297751067Y-152509550D01*
X298669899Y-152532448D01*
X298900813Y-152533350D01*
X300892559Y-152533350D01*
X302777797Y-148723350D01*
X316779004Y-148723350D01*
X318664242Y-152533350D01*
X320698321Y-152533350D01*
X321769564Y-152511100D01*
X322410618Y-152435758D01*
X322697701Y-152294430D01*
X322732400Y-152189301D01*
X322622039Y-151903882D01*
X322304529Y-151206247D01*
X321800227Y-150138385D01*
X321129494Y-148742286D01*
X320312687Y-147059940D01*
X319370167Y-145133339D01*
X319093847Y-144571966D01*
X314858400Y-144571966D01*
X314617215Y-144598802D01*
X313944907Y-144622300D01*
X312918352Y-144641111D01*
X311614424Y-144653883D01*
X310109996Y-144659263D01*
X309888284Y-144659350D01*
X308185772Y-144657895D01*
X306927239Y-144648832D01*
X306048664Y-144625111D01*
X305486027Y-144579681D01*
X305175307Y-144505492D01*
X305052483Y-144395495D01*
X305053536Y-144242640D01*
X305086009Y-144130526D01*
X305244072Y-143748118D01*
X305588264Y-142986349D01*
X306082512Y-141922682D01*
X306690742Y-140634582D01*
X307376880Y-139199515D01*
X307540366Y-138860026D01*
X309826881Y-134118350D01*
X312342641Y-139301466D01*
X313063973Y-140791280D01*
X313704541Y-142121339D01*
X314233025Y-143226029D01*
X314618105Y-144039734D01*
X314828461Y-144496838D01*
X314858400Y-144571966D01*
X319093847Y-144571966D01*
X318322291Y-143004471D01*
X317189418Y-140715326D01*
X316366882Y-139060424D01*
X310001364Y-126275597D01*
X305108528Y-135784973D01*
G36*
X336765900Y-128214832D02*
G01*
X334502782Y-128256597D01*
X332684152Y-128308582D01*
X331246498Y-128380886D01*
X330126308Y-128483608D01*
X329260071Y-128626848D01*
X328584275Y-128820707D01*
X328035407Y-129075283D01*
X327549957Y-129400677D01*
X327132623Y-129746737D01*
X326237948Y-130745247D01*
X325722195Y-131892899D01*
X325530665Y-133321558D01*
X325526400Y-133618890D01*
X325602290Y-134792969D01*
X325882914Y-135687279D01*
X326447701Y-136514354D01*
X326724301Y-136824158D01*
X327352132Y-137497967D01*
X326803577Y-137672072D01*
X326028356Y-138093516D01*
X325177350Y-138824698D01*
X324400619Y-139720321D01*
X323940419Y-140444301D01*
X323623739Y-141238707D01*
X323419803Y-142243104D01*
X323301759Y-143596281D01*
X323291691Y-143797151D01*
X323295979Y-145761957D01*
X323533305Y-147358992D01*
X324032892Y-148685806D01*
X324823961Y-149839948D01*
X325233776Y-150280336D01*
X325803965Y-150820818D01*
X326362369Y-151258382D01*
X326970001Y-151605007D01*
X327687871Y-151872668D01*
X328576991Y-152073343D01*
X329698372Y-152219011D01*
X331113026Y-152321647D01*
X332881964Y-152393231D01*
X335066198Y-152445738D01*
X336384900Y-152469454D01*
X343560400Y-152590190D01*
X343560400Y-148469350D01*
X339750400Y-148469350D01*
X334772287Y-148469350D01*
X332975466Y-148462534D01*
X331609866Y-148438390D01*
X330598843Y-148391369D01*
X329865756Y-148315922D01*
X329333962Y-148206502D01*
X328926817Y-148057560D01*
X328898066Y-148044118D01*
X328034399Y-147373827D01*
X327440228Y-146386208D01*
X327117242Y-145195611D01*
X327067133Y-143916384D01*
X327291592Y-142662878D01*
X327792311Y-141549442D01*
X328570979Y-140690424D01*
X328787126Y-140542368D01*
X329137563Y-140345088D01*
X329514497Y-140196699D01*
X329997069Y-140088285D01*
X330664417Y-140010931D01*
X331595681Y-139955722D01*
X332870000Y-139913743D01*
X334566514Y-139876078D01*
X334730499Y-139872834D01*
X339750400Y-139774036D01*
X339750400Y-148469350D01*
X343560400Y-148469350D01*
X343560400Y-131959350D01*
X339750400Y-131959350D01*
X339750400Y-136023350D01*
X335051400Y-136023350D01*
X333386102Y-136019783D01*
X332152955Y-136004152D01*
X331276133Y-135969058D01*
X330679807Y-135907104D01*
X330288151Y-135810891D01*
X330025338Y-135673023D01*
X329844400Y-135515350D01*
X329448990Y-134805205D01*
X329346422Y-133899161D01*
X329560806Y-133032417D01*
X329585039Y-132985368D01*
X329881666Y-132628291D01*
X330379132Y-132359568D01*
X331138633Y-132168757D01*
X332221368Y-132045412D01*
X333688533Y-131979091D01*
X335597303Y-131959350D01*
X339750400Y-131959350D01*
X343560400Y-131959350D01*
X343560400Y-128106341D01*
X336765900Y-128214832D01*
G37*
X336765900Y-128214832D02*
X334502782Y-128256597D01*
X332684152Y-128308582D01*
X331246498Y-128380886D01*
X330126308Y-128483608D01*
X329260071Y-128626848D01*
X328584275Y-128820707D01*
X328035407Y-129075283D01*
X327549957Y-129400677D01*
X327132623Y-129746737D01*
X326237948Y-130745247D01*
X325722195Y-131892899D01*
X325530665Y-133321558D01*
X325526400Y-133618890D01*
X325602290Y-134792969D01*
X325882914Y-135687279D01*
X326447701Y-136514354D01*
X326724301Y-136824158D01*
X327352132Y-137497967D01*
X326803577Y-137672072D01*
X326028356Y-138093516D01*
X325177350Y-138824698D01*
X324400619Y-139720321D01*
X323940419Y-140444301D01*
X323623739Y-141238707D01*
X323419803Y-142243104D01*
X323301759Y-143596281D01*
X323291691Y-143797151D01*
X323295979Y-145761957D01*
X323533305Y-147358992D01*
X324032892Y-148685806D01*
X324823961Y-149839948D01*
X325233776Y-150280336D01*
X325803965Y-150820818D01*
X326362369Y-151258382D01*
X326970001Y-151605007D01*
X327687871Y-151872668D01*
X328576991Y-152073343D01*
X329698372Y-152219011D01*
X331113026Y-152321647D01*
X332881964Y-152393231D01*
X335066198Y-152445738D01*
X336384900Y-152469454D01*
X343560400Y-152590190D01*
X343560400Y-148469350D01*
X339750400Y-148469350D01*
X334772287Y-148469350D01*
X332975466Y-148462534D01*
X331609866Y-148438390D01*
X330598843Y-148391369D01*
X329865756Y-148315922D01*
X329333962Y-148206502D01*
X328926817Y-148057560D01*
X328898066Y-148044118D01*
X328034399Y-147373827D01*
X327440228Y-146386208D01*
X327117242Y-145195611D01*
X327067133Y-143916384D01*
X327291592Y-142662878D01*
X327792311Y-141549442D01*
X328570979Y-140690424D01*
X328787126Y-140542368D01*
X329137563Y-140345088D01*
X329514497Y-140196699D01*
X329997069Y-140088285D01*
X330664417Y-140010931D01*
X331595681Y-139955722D01*
X332870000Y-139913743D01*
X334566514Y-139876078D01*
X334730499Y-139872834D01*
X339750400Y-139774036D01*
X339750400Y-148469350D01*
X343560400Y-148469350D01*
X343560400Y-131959350D01*
X339750400Y-131959350D01*
X339750400Y-136023350D01*
X335051400Y-136023350D01*
X333386102Y-136019783D01*
X332152955Y-136004152D01*
X331276133Y-135969058D01*
X330679807Y-135907104D01*
X330288151Y-135810891D01*
X330025338Y-135673023D01*
X329844400Y-135515350D01*
X329448990Y-134805205D01*
X329346422Y-133899161D01*
X329560806Y-133032417D01*
X329585039Y-132985368D01*
X329881666Y-132628291D01*
X330379132Y-132359568D01*
X331138633Y-132168757D01*
X332221368Y-132045412D01*
X333688533Y-131979091D01*
X335597303Y-131959350D01*
X339750400Y-131959350D01*
X343560400Y-131959350D01*
X343560400Y-128106341D01*
X336765900Y-128214832D01*
G36*
X138090816Y-128170608D02*
G01*
X137262423Y-128242956D01*
X136638772Y-128348751D01*
X136370950Y-128466849D01*
X136209913Y-128761223D01*
X135856206Y-129461773D01*
X135335475Y-130515977D01*
X134673366Y-131871316D01*
X133895527Y-133475268D01*
X133027603Y-135275314D01*
X132095240Y-137218933D01*
X131998882Y-137420350D01*
X131064800Y-139368751D01*
X130195548Y-141173089D01*
X129416241Y-142781897D01*
X128751994Y-144143710D01*
X128227923Y-145207062D01*
X127869141Y-145920488D01*
X127700764Y-146232521D01*
X127694822Y-146240261D01*
X127547798Y-146061399D01*
X127200962Y-145473768D01*
X126679112Y-144524247D01*
X126007049Y-143259713D01*
X125209573Y-141727044D01*
X124311483Y-139973117D01*
X123337580Y-138044810D01*
X122958110Y-137286761D01*
X118395044Y-128149350D01*
X116405098Y-128149349D01*
X115347809Y-128172865D01*
X114734044Y-128250366D01*
X114501195Y-128392287D01*
X114499978Y-128466849D01*
X114625857Y-128745506D01*
X114953369Y-129422697D01*
X115457804Y-130449189D01*
X116114456Y-131775753D01*
X116898613Y-133353156D01*
X117785569Y-135132168D01*
X118750615Y-137063557D01*
X119769041Y-139098091D01*
X120816139Y-141186540D01*
X121867201Y-143279673D01*
X122897517Y-145328258D01*
X123882380Y-147283063D01*
X124797080Y-149094858D01*
X125616908Y-150714411D01*
X126317157Y-152092491D01*
X126873117Y-153179867D01*
X127260080Y-153927307D01*
X127453336Y-154285580D01*
X127470399Y-154310017D01*
X127593404Y-154089780D01*
X127925002Y-153456384D01*
X128444627Y-152450045D01*
X129131715Y-151110981D01*
X129965699Y-149479410D01*
X130926017Y-147595550D01*
X131992102Y-145499616D01*
X133143389Y-143231828D01*
X134073900Y-141396000D01*
X135276726Y-139018452D01*
X136408000Y-136776814D01*
X137447298Y-134711931D01*
X138374195Y-132864648D01*
X139168265Y-131275812D01*
X139809084Y-129986268D01*
X140276227Y-129036860D01*
X140549270Y-128468436D01*
X140614400Y-128316332D01*
X140385742Y-128204569D01*
X139794345Y-128146382D01*
X138982079Y-128136739D01*
X138090816Y-128170608D01*
G37*
X138090816Y-128170608D02*
X137262423Y-128242956D01*
X136638772Y-128348751D01*
X136370950Y-128466849D01*
X136209913Y-128761223D01*
X135856206Y-129461773D01*
X135335475Y-130515977D01*
X134673366Y-131871316D01*
X133895527Y-133475268D01*
X133027603Y-135275314D01*
X132095240Y-137218933D01*
X131998882Y-137420350D01*
X131064800Y-139368751D01*
X130195548Y-141173089D01*
X129416241Y-142781897D01*
X128751994Y-144143710D01*
X128227923Y-145207062D01*
X127869141Y-145920488D01*
X127700764Y-146232521D01*
X127694822Y-146240261D01*
X127547798Y-146061399D01*
X127200962Y-145473768D01*
X126679112Y-144524247D01*
X126007049Y-143259713D01*
X125209573Y-141727044D01*
X124311483Y-139973117D01*
X123337580Y-138044810D01*
X122958110Y-137286761D01*
X118395044Y-128149350D01*
X116405098Y-128149349D01*
X115347809Y-128172865D01*
X114734044Y-128250366D01*
X114501195Y-128392287D01*
X114499978Y-128466849D01*
X114625857Y-128745506D01*
X114953369Y-129422697D01*
X115457804Y-130449189D01*
X116114456Y-131775753D01*
X116898613Y-133353156D01*
X117785569Y-135132168D01*
X118750615Y-137063557D01*
X119769041Y-139098091D01*
X120816139Y-141186540D01*
X121867201Y-143279673D01*
X122897517Y-145328258D01*
X123882380Y-147283063D01*
X124797080Y-149094858D01*
X125616908Y-150714411D01*
X126317157Y-152092491D01*
X126873117Y-153179867D01*
X127260080Y-153927307D01*
X127453336Y-154285580D01*
X127470399Y-154310017D01*
X127593404Y-154089780D01*
X127925002Y-153456384D01*
X128444627Y-152450045D01*
X129131715Y-151110981D01*
X129965699Y-149479410D01*
X130926017Y-147595550D01*
X131992102Y-145499616D01*
X133143389Y-143231828D01*
X134073900Y-141396000D01*
X135276726Y-139018452D01*
X136408000Y-136776814D01*
X137447298Y-134711931D01*
X138374195Y-132864648D01*
X139168265Y-131275812D01*
X139809084Y-129986268D01*
X140276227Y-129036860D01*
X140549270Y-128468436D01*
X140614400Y-128316332D01*
X140385742Y-128204569D01*
X139794345Y-128146382D01*
X138982079Y-128136739D01*
X138090816Y-128170608D01*
G36*
X216354516Y-128192279D02*
G01*
X215705863Y-128301153D01*
X215374873Y-128464623D01*
X215373430Y-128466850D01*
X215221290Y-128760930D01*
X214875181Y-129460746D01*
X214360562Y-130513868D01*
X213702895Y-131867867D01*
X212927638Y-133470313D01*
X212060251Y-135268778D01*
X211126195Y-137210831D01*
X211025573Y-137420350D01*
X210087679Y-139368393D01*
X209214251Y-141172691D01*
X208430557Y-142781789D01*
X207761864Y-144144232D01*
X207233440Y-145208566D01*
X206870550Y-145923336D01*
X206698464Y-146237088D01*
X206692055Y-146245128D01*
X206513174Y-146109993D01*
X206171010Y-145599121D01*
X205717401Y-144796979D01*
X205282530Y-143948424D01*
X204059617Y-141462942D01*
X207262009Y-135062099D01*
X208091516Y-133395344D01*
X208841180Y-131872194D01*
X209482030Y-130552873D01*
X209985095Y-129497603D01*
X210321403Y-128766606D01*
X210461984Y-128420106D01*
X210464400Y-128405303D01*
X210226483Y-128276629D01*
X209575583Y-128187432D01*
X208605982Y-128149821D01*
X208471844Y-128149350D01*
X206479287Y-128149350D01*
X204360013Y-132724318D01*
X203705681Y-134107771D01*
X203114014Y-135303902D01*
X202619795Y-136246803D01*
X202257807Y-136870566D01*
X202062832Y-137109282D01*
X202047686Y-137105818D01*
X201884451Y-136823613D01*
X201546762Y-136155297D01*
X201071465Y-135176728D01*
X200495406Y-133963767D01*
X199856393Y-132594350D01*
X197858152Y-128276350D01*
X195779276Y-128202577D01*
X194824153Y-128184458D01*
X194100414Y-128200765D01*
X193726698Y-128247707D01*
X193700400Y-128269006D01*
X193807412Y-128524485D01*
X194109903Y-129177933D01*
X194580054Y-130171029D01*
X195190049Y-131445450D01*
X195912069Y-132942874D01*
X196718297Y-134604977D01*
X196924061Y-135027718D01*
X200147722Y-141646229D01*
X198917085Y-144105289D01*
X197686448Y-146564350D01*
X193166596Y-137356850D01*
X188646743Y-128149350D01*
X186601572Y-128149350D01*
X185654504Y-128163805D01*
X184940138Y-128202236D01*
X184578298Y-128257242D01*
X184556400Y-128275687D01*
X184666571Y-128534618D01*
X184980555Y-129194456D01*
X185473562Y-130205882D01*
X186120802Y-131519574D01*
X186897485Y-133086212D01*
X187778821Y-134856476D01*
X188740019Y-136781046D01*
X189756290Y-138810601D01*
X190802842Y-140895820D01*
X191854886Y-142987383D01*
X192887631Y-145035970D01*
X193876287Y-146992260D01*
X194796065Y-148806933D01*
X195622173Y-150430668D01*
X196329821Y-151814144D01*
X196894219Y-152908042D01*
X197290578Y-153663041D01*
X197494106Y-154029821D01*
X197515200Y-154057350D01*
X197664625Y-153840985D01*
X198000629Y-153238670D01*
X198486141Y-152320576D01*
X199084090Y-151156872D01*
X199757406Y-149817728D01*
X199796400Y-149739350D01*
X200472722Y-148392725D01*
X201075650Y-147217856D01*
X201568143Y-146284851D01*
X201913156Y-145663817D01*
X202073645Y-145424864D01*
X202076430Y-145424201D01*
X202221257Y-145643585D01*
X202543773Y-146251931D01*
X203007921Y-147177359D01*
X203577641Y-148347987D01*
X204210648Y-149678701D01*
X204853137Y-151035506D01*
X205427345Y-152232724D01*
X205896354Y-153194614D01*
X206223244Y-153845435D01*
X206369648Y-154107913D01*
X206510244Y-153921271D01*
X206858373Y-153320689D01*
X207393054Y-152345929D01*
X208093304Y-151036752D01*
X208938142Y-149432918D01*
X209906585Y-147574190D01*
X210977652Y-145500329D01*
X212130361Y-143251095D01*
X213004400Y-141534913D01*
X214205546Y-139167651D01*
X215337299Y-136931928D01*
X216378719Y-134869465D01*
X217308865Y-133021985D01*
X218106797Y-131431210D01*
X218751572Y-130138861D01*
X219222250Y-129186660D01*
X219497889Y-128616330D01*
X219563525Y-128466849D01*
X219383358Y-128302743D01*
X218835253Y-128193233D01*
X218056331Y-128138319D01*
X217183712Y-128138001D01*
X216354516Y-128192279D01*
G37*
X216354516Y-128192279D02*
X215705863Y-128301153D01*
X215374873Y-128464623D01*
X215373430Y-128466850D01*
X215221290Y-128760930D01*
X214875181Y-129460746D01*
X214360562Y-130513868D01*
X213702895Y-131867867D01*
X212927638Y-133470313D01*
X212060251Y-135268778D01*
X211126195Y-137210831D01*
X211025573Y-137420350D01*
X210087679Y-139368393D01*
X209214251Y-141172691D01*
X208430557Y-142781789D01*
X207761864Y-144144232D01*
X207233440Y-145208566D01*
X206870550Y-145923336D01*
X206698464Y-146237088D01*
X206692055Y-146245128D01*
X206513174Y-146109993D01*
X206171010Y-145599121D01*
X205717401Y-144796979D01*
X205282530Y-143948424D01*
X204059617Y-141462942D01*
X207262009Y-135062099D01*
X208091516Y-133395344D01*
X208841180Y-131872194D01*
X209482030Y-130552873D01*
X209985095Y-129497603D01*
X210321403Y-128766606D01*
X210461984Y-128420106D01*
X210464400Y-128405303D01*
X210226483Y-128276629D01*
X209575583Y-128187432D01*
X208605982Y-128149821D01*
X208471844Y-128149350D01*
X206479287Y-128149350D01*
X204360013Y-132724318D01*
X203705681Y-134107771D01*
X203114014Y-135303902D01*
X202619795Y-136246803D01*
X202257807Y-136870566D01*
X202062832Y-137109282D01*
X202047686Y-137105818D01*
X201884451Y-136823613D01*
X201546762Y-136155297D01*
X201071465Y-135176728D01*
X200495406Y-133963767D01*
X199856393Y-132594350D01*
X197858152Y-128276350D01*
X195779276Y-128202577D01*
X194824153Y-128184458D01*
X194100414Y-128200765D01*
X193726698Y-128247707D01*
X193700400Y-128269006D01*
X193807412Y-128524485D01*
X194109903Y-129177933D01*
X194580054Y-130171029D01*
X195190049Y-131445450D01*
X195912069Y-132942874D01*
X196718297Y-134604977D01*
X196924061Y-135027718D01*
X200147722Y-141646229D01*
X198917085Y-144105289D01*
X197686448Y-146564350D01*
X193166596Y-137356850D01*
X188646743Y-128149350D01*
X186601572Y-128149350D01*
X185654504Y-128163805D01*
X184940138Y-128202236D01*
X184578298Y-128257242D01*
X184556400Y-128275687D01*
X184666571Y-128534618D01*
X184980555Y-129194456D01*
X185473562Y-130205882D01*
X186120802Y-131519574D01*
X186897485Y-133086212D01*
X187778821Y-134856476D01*
X188740019Y-136781046D01*
X189756290Y-138810601D01*
X190802842Y-140895820D01*
X191854886Y-142987383D01*
X192887631Y-145035970D01*
X193876287Y-146992260D01*
X194796065Y-148806933D01*
X195622173Y-150430668D01*
X196329821Y-151814144D01*
X196894219Y-152908042D01*
X197290578Y-153663041D01*
X197494106Y-154029821D01*
X197515200Y-154057350D01*
X197664625Y-153840985D01*
X198000629Y-153238670D01*
X198486141Y-152320576D01*
X199084090Y-151156872D01*
X199757406Y-149817728D01*
X199796400Y-149739350D01*
X200472722Y-148392725D01*
X201075650Y-147217856D01*
X201568143Y-146284851D01*
X201913156Y-145663817D01*
X202073645Y-145424864D01*
X202076430Y-145424201D01*
X202221257Y-145643585D01*
X202543773Y-146251931D01*
X203007921Y-147177359D01*
X203577641Y-148347987D01*
X204210648Y-149678701D01*
X204853137Y-151035506D01*
X205427345Y-152232724D01*
X205896354Y-153194614D01*
X206223244Y-153845435D01*
X206369648Y-154107913D01*
X206510244Y-153921271D01*
X206858373Y-153320689D01*
X207393054Y-152345929D01*
X208093304Y-151036752D01*
X208938142Y-149432918D01*
X209906585Y-147574190D01*
X210977652Y-145500329D01*
X212130361Y-143251095D01*
X213004400Y-141534913D01*
X214205546Y-139167651D01*
X215337299Y-136931928D01*
X216378719Y-134869465D01*
X217308865Y-133021985D01*
X218106797Y-131431210D01*
X218751572Y-130138861D01*
X219222250Y-129186660D01*
X219497889Y-128616330D01*
X219563525Y-128466849D01*
X219383358Y-128302743D01*
X218835253Y-128193233D01*
X218056331Y-128138319D01*
X217183712Y-128138001D01*
X216354516Y-128192279D01*
G36*
X71008415Y-131783006D02*
G01*
X75562156Y-131871178D01*
X77211590Y-131907791D01*
X78433600Y-131950694D01*
X79308755Y-132009263D01*
X79917620Y-132092878D01*
X80340765Y-132210915D01*
X80658755Y-132372755D01*
X80816641Y-132482804D01*
X81534506Y-133308456D01*
X81858457Y-134340047D01*
X81781681Y-135454558D01*
X81297369Y-136528969D01*
X81057933Y-136841051D01*
X80801171Y-137117334D01*
X80524827Y-137312924D01*
X80136367Y-137446872D01*
X79543259Y-137538227D01*
X78652970Y-137606038D01*
X77372965Y-137669357D01*
X76941754Y-137688453D01*
X74940962Y-137813044D01*
X73357875Y-138007324D01*
X72104085Y-138297238D01*
X71091184Y-138708730D01*
X70230763Y-139267745D01*
X69583585Y-139847812D01*
X68578536Y-141159446D01*
X67970400Y-142709066D01*
X67744729Y-144543717D01*
X67780412Y-145718259D01*
X68106674Y-147626770D01*
X68786102Y-149182151D01*
X69845471Y-150420545D01*
X71311557Y-151378096D01*
X72278415Y-151789889D01*
X72921350Y-151941785D01*
X73921349Y-152075745D01*
X75195459Y-152189829D01*
X76660729Y-152282095D01*
X78234207Y-152350603D01*
X79832939Y-152393412D01*
X81373973Y-152408582D01*
X82774358Y-152394170D01*
X83951141Y-152348238D01*
X84821369Y-152268844D01*
X85302091Y-152154046D01*
X85367404Y-152096123D01*
X85432089Y-151654687D01*
X85454839Y-150885397D01*
X85435990Y-150093596D01*
X85359415Y-148469350D01*
X79390415Y-148342350D01*
X77188978Y-148284492D01*
X75466379Y-148213858D01*
X74193571Y-148128439D01*
X73341505Y-148026228D01*
X72881134Y-147905216D01*
X72852545Y-147890320D01*
X72134228Y-147198938D01*
X71676269Y-146138158D01*
X71516415Y-144802970D01*
X71581143Y-143897472D01*
X71830752Y-143244709D01*
X72214915Y-142744872D01*
X72778092Y-142244737D01*
X73487092Y-141890175D01*
X74430041Y-141660280D01*
X75695063Y-141534147D01*
X77370283Y-141490870D01*
X77502814Y-141490409D01*
X79420628Y-141418496D01*
X80942370Y-141193827D01*
X82164580Y-140787741D01*
X83183798Y-140171573D01*
X83810474Y-139617659D01*
X84715551Y-138454986D01*
X85282408Y-137077037D01*
X85539726Y-135397680D01*
X85560498Y-134361789D01*
X85359871Y-132533756D01*
X84803533Y-131051096D01*
X83866689Y-129873751D01*
X82524546Y-128961662D01*
X82091054Y-128756379D01*
X81584089Y-128552980D01*
X81060354Y-128400073D01*
X80432657Y-128288035D01*
X79613809Y-128207242D01*
X78516617Y-128148072D01*
X77053893Y-128100900D01*
X75897915Y-128072841D01*
X71008415Y-127962138D01*
X71008415Y-131783006D01*
G37*
X71008415Y-131783006D02*
X75562156Y-131871178D01*
X77211590Y-131907791D01*
X78433600Y-131950694D01*
X79308755Y-132009263D01*
X79917620Y-132092878D01*
X80340765Y-132210915D01*
X80658755Y-132372755D01*
X80816641Y-132482804D01*
X81534506Y-133308456D01*
X81858457Y-134340047D01*
X81781681Y-135454558D01*
X81297369Y-136528969D01*
X81057933Y-136841051D01*
X80801171Y-137117334D01*
X80524827Y-137312924D01*
X80136367Y-137446872D01*
X79543259Y-137538227D01*
X78652970Y-137606038D01*
X77372965Y-137669357D01*
X76941754Y-137688453D01*
X74940962Y-137813044D01*
X73357875Y-138007324D01*
X72104085Y-138297238D01*
X71091184Y-138708730D01*
X70230763Y-139267745D01*
X69583585Y-139847812D01*
X68578536Y-141159446D01*
X67970400Y-142709066D01*
X67744729Y-144543717D01*
X67780412Y-145718259D01*
X68106674Y-147626770D01*
X68786102Y-149182151D01*
X69845471Y-150420545D01*
X71311557Y-151378096D01*
X72278415Y-151789889D01*
X72921350Y-151941785D01*
X73921349Y-152075745D01*
X75195459Y-152189829D01*
X76660729Y-152282095D01*
X78234207Y-152350603D01*
X79832939Y-152393412D01*
X81373973Y-152408582D01*
X82774358Y-152394170D01*
X83951141Y-152348238D01*
X84821369Y-152268844D01*
X85302091Y-152154046D01*
X85367404Y-152096123D01*
X85432089Y-151654687D01*
X85454839Y-150885397D01*
X85435990Y-150093596D01*
X85359415Y-148469350D01*
X79390415Y-148342350D01*
X77188978Y-148284492D01*
X75466379Y-148213858D01*
X74193571Y-148128439D01*
X73341505Y-148026228D01*
X72881134Y-147905216D01*
X72852545Y-147890320D01*
X72134228Y-147198938D01*
X71676269Y-146138158D01*
X71516415Y-144802970D01*
X71581143Y-143897472D01*
X71830752Y-143244709D01*
X72214915Y-142744872D01*
X72778092Y-142244737D01*
X73487092Y-141890175D01*
X74430041Y-141660280D01*
X75695063Y-141534147D01*
X77370283Y-141490870D01*
X77502814Y-141490409D01*
X79420628Y-141418496D01*
X80942370Y-141193827D01*
X82164580Y-140787741D01*
X83183798Y-140171573D01*
X83810474Y-139617659D01*
X84715551Y-138454986D01*
X85282408Y-137077037D01*
X85539726Y-135397680D01*
X85560498Y-134361789D01*
X85359871Y-132533756D01*
X84803533Y-131051096D01*
X83866689Y-129873751D01*
X82524546Y-128961662D01*
X82091054Y-128756379D01*
X81584089Y-128552980D01*
X81060354Y-128400073D01*
X80432657Y-128288035D01*
X79613809Y-128207242D01*
X78516617Y-128148072D01*
X77053893Y-128100900D01*
X75897915Y-128072841D01*
X71008415Y-127962138D01*
X71008415Y-131783006D01*
D11*
G36*
X88671400Y-141992350D02*
G01*
X95402400Y-141992350D01*
X95402400Y-138690350D01*
X88671400Y-138690350D01*
X88671400Y-141992350D01*
G37*
X88671400Y-141992350D02*
X95402400Y-141992350D01*
X95402400Y-138690350D01*
X88671400Y-138690350D01*
X88671400Y-141992350D01*
D12*
X378618750Y-180975000D03*
X27021250Y-77023750D03*
D13*
X75406250Y-103187500D03*
D12*
X266700000Y-180975000D03*
X127000000Y-180975000D03*
X27021250Y-94420000D03*
X390491250Y-77023750D03*
X196850000Y-204787500D03*
X161845000Y-94420000D03*
X38893750Y-181768750D03*
X231855000Y-94420000D03*
X390491250Y-94420000D03*
D13*
X342106250Y-103187500D03*
M02*
