G04 #@! TF.GenerationSoftware,KiCad,Pcbnew,5.1.10-88a1d61d58~90~ubuntu21.04.1*
G04 #@! TF.CreationDate,2021-09-18T02:25:30+02:00*
G04 #@! TF.ProjectId,basketweave_plate,6261736b-6574-4776-9561-76655f706c61,rev?*
G04 #@! TF.SameCoordinates,Original*
G04 #@! TF.FileFunction,Soldermask,Bot*
G04 #@! TF.FilePolarity,Negative*
%FSLAX46Y46*%
G04 Gerber Fmt 4.6, Leading zero omitted, Abs format (unit mm)*
G04 Created by KiCad (PCBNEW 5.1.10-88a1d61d58~90~ubuntu21.04.1) date 2021-09-18 02:25:30*
%MOMM*%
%LPD*%
G01*
G04 APERTURE LIST*
G04 #@! TA.AperFunction,Profile*
%ADD10C,0.200000*%
G04 #@! TD*
%ADD11C,0.100000*%
%ADD12C,0.010000*%
G04 APERTURE END LIST*
D10*
X320524504Y-61387507D02*
G75*
G02*
X319524504Y-60387507I0J1000000D01*
G01*
X351487500Y-58387506D02*
X351487500Y-46387500D01*
X318981000Y-59277223D02*
G75*
G02*
X318437500Y-58387500I456500J889723D01*
G01*
X344400517Y-61387507D02*
G75*
G02*
X343400517Y-60387507I0J1000000D01*
G01*
X350944000Y-59277229D02*
G75*
G03*
X350400500Y-60166952I456500J-889723D01*
G01*
X350944000Y-59277229D02*
G75*
G03*
X351487500Y-58387506I-456500J889723D01*
G01*
X350482515Y-45387499D02*
X319432509Y-45387499D01*
X350400521Y-60387507D02*
G75*
G02*
X349400520Y-61387508I-1000001J0D01*
G01*
X344400517Y-61387508D02*
X349400520Y-61387508D01*
X318437500Y-46387500D02*
G75*
G02*
X319437500Y-45387500I1000000J0D01*
G01*
X326524508Y-60387507D02*
G75*
G02*
X325524507Y-61387508I-1000001J0D01*
G01*
X350487499Y-45387499D02*
G75*
G02*
X351487500Y-46387500I0J-1000001D01*
G01*
X320524504Y-61387508D02*
X325524507Y-61387508D01*
X350400500Y-60166952D02*
X350400521Y-60387507D01*
X342400516Y-59387506D02*
G75*
G02*
X343400517Y-60387507I0J-1000001D01*
G01*
X318981000Y-59277223D02*
G75*
G02*
X319524500Y-60166946I-456500J-889723D01*
G01*
X327524508Y-59387507D02*
X342400516Y-59387507D01*
X326524508Y-60387507D02*
G75*
G02*
X327524508Y-59387507I1000000J0D01*
G01*
X312387500Y-45387500D02*
G75*
G02*
X313387500Y-46387500I0J-1000000D01*
G01*
X318437500Y-46387500D02*
X318437500Y-58387500D01*
X319524500Y-60166946D02*
X319524504Y-60387507D01*
X27927500Y-82106250D02*
G75*
G02*
X28927500Y-81106250I1000000J0D01*
G01*
X28927500Y-95106250D02*
G75*
G02*
X27927500Y-94106250I0J1000000D01*
G01*
X28927500Y-81106250D02*
X40927500Y-81106250D01*
X40927500Y-95106250D02*
X28927500Y-95106250D01*
X41927500Y-94106250D02*
G75*
G02*
X40927500Y-95106250I-1000000J0D01*
G01*
X41927500Y-82106250D02*
X41927500Y-94106250D01*
X40927500Y-81106250D02*
G75*
G02*
X41927500Y-82106250I0J-1000000D01*
G01*
X27927500Y-94106250D02*
X27927500Y-82106250D01*
X45687500Y-62056250D02*
G75*
G02*
X46687500Y-63056250I0J-1000000D01*
G01*
X33687500Y-76056250D02*
G75*
G02*
X32687500Y-75056250I0J1000000D01*
G01*
X45687500Y-76056250D02*
X33687500Y-76056250D01*
X32687500Y-75056250D02*
X32687500Y-63056250D01*
X46687500Y-63056250D02*
X46687500Y-75056250D01*
X32687500Y-63056250D02*
G75*
G02*
X33687500Y-62056250I1000000J0D01*
G01*
X46687500Y-75056250D02*
G75*
G02*
X45687500Y-76056250I-1000000J0D01*
G01*
X33687500Y-62056250D02*
X45687500Y-62056250D01*
X380062500Y-63056250D02*
X380062500Y-75056250D01*
X380062500Y-75056250D02*
G75*
G02*
X379062500Y-76056250I-1000000J0D01*
G01*
X379062500Y-76056250D02*
X367062500Y-76056250D01*
X379062500Y-62056250D02*
G75*
G02*
X380062500Y-63056250I0J-1000000D01*
G01*
X366062500Y-63056250D02*
G75*
G02*
X367062500Y-62056250I1000000J0D01*
G01*
X367062500Y-62056250D02*
X379062500Y-62056250D01*
X367062500Y-76056250D02*
G75*
G02*
X366062500Y-75056250I0J1000000D01*
G01*
X366062500Y-75056250D02*
X366062500Y-63056250D01*
X174042718Y-135612290D02*
X188110514Y-138588750D01*
X262550733Y-126213914D02*
X274308691Y-123729750D01*
X222919320Y-146203910D02*
G75*
G02*
X223870377Y-146512927I207912J-978148D01*
G01*
X216582162Y-147756903D02*
G75*
G02*
X215396102Y-146986669I-207913J978147D01*
G01*
X264275437Y-139137745D02*
X261780497Y-127399974D01*
X185199748Y-152366756D02*
X171131956Y-149306356D01*
X139360791Y-141511067D02*
G75*
G02*
X140103936Y-142180198I-207912J-978148D01*
G01*
X234682251Y-129274901D02*
G75*
G02*
X235452488Y-128088840I978149J207912D01*
G01*
X172856659Y-136382527D02*
G75*
G02*
X174042718Y-135612290I978148J-207911D01*
G01*
X188880750Y-139774810D02*
X186385808Y-151596520D01*
X277219454Y-137423814D02*
X265461496Y-139907981D01*
X170361720Y-148120298D02*
X172856660Y-136382527D01*
X171131956Y-149306356D02*
G75*
G02*
X170361720Y-148120298I207911J978147D01*
G01*
X277989690Y-136237756D02*
G75*
G02*
X277219454Y-137423814I-978147J-207911D01*
G01*
X245093662Y-140263905D02*
X242390810Y-127547986D01*
X275494750Y-124499985D02*
X277989690Y-136237756D01*
X261780496Y-127399973D02*
G75*
G02*
X262550733Y-126213914I978148J207911D01*
G01*
X222155094Y-133045853D02*
G75*
G02*
X220969033Y-132275618I-207913J978148D01*
G01*
X186385808Y-151596520D02*
G75*
G02*
X185199748Y-152366756I-978148J207912D01*
G01*
X265461497Y-139907981D02*
G75*
G02*
X264275437Y-139137745I-207912J978148D01*
G01*
X219782974Y-131505383D02*
G75*
G02*
X220969033Y-132275618I207912J-978147D01*
G01*
X274308691Y-123729750D02*
G75*
G02*
X275494750Y-124499985I207912J-978147D01*
G01*
X188110514Y-138588750D02*
G75*
G02*
X188880750Y-139774810I-207912J-978148D01*
G01*
X237572355Y-143607629D02*
G75*
G02*
X236829210Y-144276759I-951056J309018D01*
G01*
X140847080Y-142849328D02*
G75*
G02*
X140103936Y-142180198I207911J978147D01*
G01*
X224821433Y-146821944D02*
G75*
G02*
X223870377Y-146512927I-207912J978147D01*
G01*
X164115750Y-145861430D02*
G75*
G02*
X162929690Y-146631666I-978148J207912D01*
G01*
X212693251Y-134270750D02*
G75*
G02*
X213463486Y-133084691I978147J207912D01*
G01*
X140810796Y-126484166D02*
G75*
G02*
X141581031Y-127670225I-207912J-978147D01*
G01*
X215396102Y-146986669D02*
X212693250Y-134270750D01*
X216582162Y-147756903D02*
X222919320Y-146203910D01*
X132801383Y-140116821D02*
G75*
G02*
X132031146Y-138930762I207911J978148D01*
G01*
X235452488Y-128088840D02*
X241204750Y-126777750D01*
X162929690Y-146631666D02*
X156899964Y-145234235D01*
X159612251Y-131432943D02*
G75*
G02*
X158426191Y-132203179I-978148J207912D01*
G01*
X237572356Y-143607629D02*
G75*
G02*
X238315500Y-142938500I951055J-309017D01*
G01*
X140810795Y-126484165D02*
X135920057Y-125444607D01*
X238315500Y-142938500D02*
X244323425Y-141449966D01*
X155948909Y-145543252D02*
G75*
G02*
X156899964Y-145234235I743144J-669129D01*
G01*
X132801382Y-140116821D02*
X139360791Y-141511067D01*
X155948908Y-145543252D02*
G75*
G02*
X154997851Y-145852269I-743145J669131D01*
G01*
X241204750Y-126777750D02*
G75*
G02*
X242390810Y-127547986I207912J-978148D01*
G01*
X165960728Y-131959452D02*
G75*
G02*
X166730965Y-133145511I-207911J-978148D01*
G01*
X154997851Y-145852269D02*
X140847080Y-142849328D01*
X132031146Y-138930762D02*
X134733998Y-126214843D01*
X222155094Y-133045853D02*
X233912016Y-130460961D01*
X234682254Y-129274901D02*
G75*
G02*
X233912016Y-130460961I-978149J-207911D01*
G01*
X236829210Y-144276759D02*
X224821433Y-146821944D01*
X165960728Y-131959452D02*
X160798310Y-130662706D01*
X134733998Y-126214844D02*
G75*
G02*
X135920057Y-125444607I978148J-207911D01*
G01*
X142351267Y-128856284D02*
X158426191Y-132203179D01*
X164115750Y-145861430D02*
X166730965Y-133145511D01*
X245093662Y-140263905D02*
G75*
G02*
X244323425Y-141449966I-978149J-207912D01*
G01*
X219782974Y-131505383D02*
X213463486Y-133084691D01*
X142351268Y-128856284D02*
G75*
G02*
X141581031Y-127670225I207911J978148D01*
G01*
X159612250Y-131432942D02*
G75*
G02*
X160798310Y-130662706I978148J-207912D01*
G01*
X168105032Y-129187375D02*
G75*
G02*
X167334796Y-128001317I207911J978147D01*
G01*
X334680250Y-83487500D02*
G75*
G02*
X333680250Y-82487500I0J1000000D01*
G01*
X80331250Y-115537500D02*
X73625301Y-115537501D01*
X56455250Y-100537500D02*
G75*
G02*
X57455250Y-101537500I0J-1000000D01*
G01*
X58455250Y-102537500D02*
G75*
G02*
X57455250Y-101537500I0J1000000D01*
G01*
X56455250Y-100537500D02*
X51455250Y-100537500D01*
X332680250Y-81487500D02*
X327680250Y-81487500D01*
X50455250Y-101537500D02*
G75*
G02*
X51455250Y-100537500I1000000J0D01*
G01*
X327680250Y-96487500D02*
G75*
G02*
X326680250Y-95487500I0J1000000D01*
G01*
X50455250Y-114537500D02*
X50455250Y-101537500D01*
X80331250Y-100537500D02*
X75331250Y-100537500D01*
X350556250Y-82487500D02*
G75*
G02*
X351556250Y-81487500I1000000J0D01*
G01*
X80331250Y-100537500D02*
G75*
G02*
X81331250Y-101537500I0J-1000000D01*
G01*
X81331250Y-114537500D02*
X81331250Y-101537500D01*
X72759276Y-116037501D02*
G75*
G02*
X73625301Y-115537501I866025J-500000D01*
G01*
X332680250Y-81487500D02*
G75*
G02*
X333680250Y-82487500I0J-1000000D01*
G01*
X59893250Y-116537501D02*
G75*
G02*
X59027225Y-116037501I0J1000000D01*
G01*
X74331251Y-101537500D02*
G75*
G02*
X73331250Y-102537501I-1000001J0D01*
G01*
X327680250Y-96487500D02*
X334386200Y-96487501D01*
X72759275Y-116037501D02*
G75*
G02*
X71893250Y-116537501I-866025J500000D01*
G01*
X357556250Y-95487500D02*
X357556250Y-82487500D01*
X58161200Y-115537501D02*
G75*
G02*
X59027225Y-116037501I0J-1000000D01*
G01*
X81331250Y-114537500D02*
G75*
G02*
X80331250Y-115537500I-1000000J0D01*
G01*
X74331250Y-101537500D02*
G75*
G02*
X75331250Y-100537500I1000000J0D01*
G01*
X51455250Y-115537500D02*
G75*
G02*
X50455250Y-114537500I0J1000000D01*
G01*
X51455250Y-115537500D02*
X58161200Y-115537501D01*
X169618875Y-70060049D02*
G75*
G02*
X168432815Y-70830285I-978148J207912D01*
G01*
X175328757Y-72296060D02*
G75*
G02*
X174558521Y-71110002I207911J978147D01*
G01*
X172113816Y-58322278D02*
X169618874Y-70060048D01*
X171343580Y-57136218D02*
G75*
G02*
X172113816Y-58322278I-207912J-978148D01*
G01*
X174558521Y-71110002D02*
X177053461Y-59372231D01*
X168432815Y-70830285D02*
X156695045Y-68335343D01*
X155924809Y-67149285D02*
X158419749Y-55411514D01*
X177053460Y-59372231D02*
G75*
G02*
X178239519Y-58601994I978148J-207911D01*
G01*
X178239519Y-58601994D02*
X189977291Y-61096935D01*
X190747528Y-62282995D02*
X188252586Y-74020765D01*
X161280947Y-87763355D02*
X163775887Y-76025584D01*
X156695045Y-68335343D02*
G75*
G02*
X155924809Y-67149285I207911J978147D01*
G01*
X188252587Y-74020766D02*
G75*
G02*
X187066527Y-74791002I-978148J207912D01*
G01*
X189977292Y-61096935D02*
G75*
G02*
X190747528Y-62282995I-207912J-978148D01*
G01*
X173788953Y-91444355D02*
X162051183Y-88949413D01*
X164961945Y-75255347D02*
X176699717Y-77750288D01*
X163775886Y-76025584D02*
G75*
G02*
X164961945Y-75255347I978148J-207911D01*
G01*
X174975013Y-90674119D02*
G75*
G02*
X173788953Y-91444355I-978148J207912D01*
G01*
X159605807Y-54641277D02*
X171343579Y-57136218D01*
X158419748Y-55411514D02*
G75*
G02*
X159605807Y-54641277I978148J-207911D01*
G01*
X187066527Y-74791002D02*
X175328757Y-72296060D01*
X138061333Y-64374625D02*
G75*
G02*
X137291097Y-63188567I207911J978147D01*
G01*
X153480104Y-54361560D02*
X150985162Y-66099330D01*
X131165392Y-62908849D02*
X119427622Y-60413907D01*
X119427622Y-60413907D02*
G75*
G02*
X118657386Y-59227849I207911J978147D01*
G01*
X140972095Y-50680559D02*
X152709867Y-53175500D01*
X149799103Y-66869567D02*
X138061333Y-64374625D01*
X150985163Y-66099331D02*
G75*
G02*
X149799103Y-66869567I-978148J207912D01*
G01*
X134076157Y-49214782D02*
G75*
G02*
X134846393Y-50400842I-207912J-978148D01*
G01*
X137291097Y-63188567D02*
X139786037Y-51450796D01*
X122338384Y-46719841D02*
X134076156Y-49214782D01*
X139786036Y-51450796D02*
G75*
G02*
X140972095Y-50680559I978148J-207911D01*
G01*
X152709868Y-53175500D02*
G75*
G02*
X153480104Y-54361560I-207912J-978148D01*
G01*
X121152325Y-47490078D02*
G75*
G02*
X122338384Y-46719841I978148J-207911D01*
G01*
X132351452Y-62138613D02*
G75*
G02*
X131165392Y-62908849I-978148J207912D01*
G01*
X118657386Y-59227849D02*
X121152326Y-47490078D01*
X134846393Y-50400842D02*
X132351451Y-62138612D01*
X238697769Y-85424575D02*
G75*
G02*
X237511709Y-84654339I-207912J978148D01*
G01*
X259006618Y-48341779D02*
G75*
G02*
X259776855Y-47155720I978148J207911D01*
G01*
X242867848Y-64040268D02*
X240372908Y-52302497D01*
X217153294Y-75691226D02*
X228891065Y-73196286D01*
X235016768Y-72916567D02*
G75*
G02*
X235787005Y-71730508I978148J207911D01*
G01*
X222509432Y-55077155D02*
X234247203Y-52582215D01*
X221739195Y-56263214D02*
G75*
G02*
X222509432Y-55077155I978148J207911D01*
G01*
X259776855Y-47155720D02*
X271514626Y-44660780D01*
X218524254Y-70236999D02*
X206786483Y-72731940D01*
X206786484Y-72731940D02*
G75*
G02*
X205600424Y-71961704I-207912J978148D01*
G01*
X255791678Y-62315563D02*
X244053907Y-64810504D01*
X256145421Y-80693621D02*
X253650481Y-68955850D01*
X225420196Y-68771222D02*
G75*
G02*
X224234136Y-68000986I-207912J978148D01*
G01*
X216799550Y-57313169D02*
X219294490Y-69050940D01*
X275195625Y-57168788D02*
G75*
G02*
X274425389Y-58354846I-978147J-207911D01*
G01*
X216383057Y-76877285D02*
G75*
G02*
X217153294Y-75691226I978148J207911D01*
G01*
X261501559Y-60079551D02*
X259006619Y-48341780D01*
X257331481Y-81463857D02*
G75*
G02*
X256145421Y-80693621I-207912J978148D01*
G01*
X254066974Y-49391733D02*
X256561914Y-61129504D01*
X219294490Y-69050941D02*
G75*
G02*
X218524254Y-70236999I-978147J-207911D01*
G01*
X262687619Y-60849787D02*
G75*
G02*
X261501559Y-60079551I-207912J978148D01*
G01*
X391318750Y-40481250D02*
G75*
G02*
X394493750Y-43656250I0J-3175000D01*
G01*
X23018750Y-43656250D02*
G75*
G02*
X26193750Y-40481250I3175000J0D01*
G01*
X182562500Y-159543750D02*
X211137500Y-159543750D01*
X248710835Y-70005804D02*
X251205775Y-81743575D01*
X201430346Y-93346010D02*
G75*
G02*
X200244286Y-92575774I-207912J978148D01*
G01*
X213168116Y-90851069D02*
X201430345Y-93346010D01*
X244053908Y-64810504D02*
G75*
G02*
X242867848Y-64040268I-207912J978148D01*
G01*
X231801828Y-86890352D02*
X220064057Y-89385293D01*
X215613491Y-56542934D02*
G75*
G02*
X216799550Y-57313169I207912J-978147D01*
G01*
X234247203Y-52582216D02*
G75*
G02*
X235433262Y-53352451I207912J-978147D01*
G01*
X218877998Y-88615057D02*
X216383058Y-76877286D01*
X197749345Y-80838002D02*
G75*
G02*
X198519582Y-79651943I978148J207911D01*
G01*
X266158488Y-65274851D02*
G75*
G02*
X267344547Y-66045086I207912J-978147D01*
G01*
X198519582Y-79651943D02*
X210257353Y-77157003D01*
X211443412Y-77927239D02*
X213938352Y-89665010D01*
X232572064Y-85704294D02*
G75*
G02*
X231801828Y-86890352I-978147J-207911D01*
G01*
X210257353Y-77157004D02*
G75*
G02*
X211443412Y-77927239I207912J-978147D01*
G01*
X200244286Y-92575774D02*
X197749346Y-80838003D01*
X272700685Y-45431016D02*
X275195625Y-57168787D01*
X271514626Y-44660781D02*
G75*
G02*
X272700685Y-45431016I207912J-978147D01*
G01*
X230077124Y-73966522D02*
X232572064Y-85704293D01*
X213938352Y-89665011D02*
G75*
G02*
X213168116Y-90851069I-978147J-207911D01*
G01*
X241143144Y-51116437D02*
X252880915Y-48621497D01*
X256561914Y-61129505D02*
G75*
G02*
X255791678Y-62315563I-978147J-207911D01*
G01*
X240372907Y-52302496D02*
G75*
G02*
X241143144Y-51116437I978148J207911D01*
G01*
X251205775Y-81743576D02*
G75*
G02*
X250435539Y-82929634I-978147J-207911D01*
G01*
X237928202Y-65090223D02*
G75*
G02*
X237157966Y-66276281I-978147J-207911D01*
G01*
X224234136Y-68000986D02*
X221739196Y-56263215D01*
X203875720Y-59037873D02*
X215613491Y-56542933D01*
X220064058Y-89385293D02*
G75*
G02*
X218877998Y-88615057I-207912J978148D01*
G01*
X250435539Y-82929634D02*
X238697768Y-85424575D01*
X235433262Y-53352451D02*
X237928202Y-65090222D01*
X203105483Y-60223932D02*
G75*
G02*
X203875720Y-59037873I978148J207911D01*
G01*
X237157966Y-66276281D02*
X225420195Y-68771222D01*
X205600424Y-71961704D02*
X203105484Y-60223933D01*
X391318750Y-145256250D02*
X278606250Y-145256250D01*
X394493750Y-142081250D02*
G75*
G02*
X391318750Y-145256250I-3175000J0D01*
G01*
X274425389Y-58354846D02*
X262687618Y-60849787D01*
X228891065Y-73196287D02*
G75*
G02*
X230077124Y-73966522I207912J-978147D01*
G01*
X237511709Y-84654339D02*
X235016769Y-72916568D01*
X235787005Y-71730508D02*
X247524776Y-69235568D01*
X252880915Y-48621498D02*
G75*
G02*
X254066974Y-49391733I207912J-978147D01*
G01*
X247524776Y-69235569D02*
G75*
G02*
X248710835Y-70005804I207912J-978147D01*
G01*
X357537500Y-126350000D02*
X369537500Y-126350000D01*
X388537500Y-126350000D02*
G75*
G02*
X389537500Y-127350000I0J-1000000D01*
G01*
X370537500Y-139350000D02*
G75*
G02*
X369537500Y-140350000I-1000000J0D01*
G01*
X26193750Y-145256250D02*
X115443000Y-145256250D01*
X391318750Y-40481250D02*
X277812500Y-40481250D01*
X357537500Y-140350000D02*
G75*
G02*
X356537500Y-139350000I0J1000000D01*
G01*
X369537500Y-126350000D02*
G75*
G02*
X370537500Y-127350000I0J-1000000D01*
G01*
X370537500Y-127350000D02*
X370537500Y-139350000D01*
X199231250Y-57150000D02*
X194468750Y-57150000D01*
X356537500Y-127350000D02*
G75*
G02*
X357537500Y-126350000I1000000J0D01*
G01*
X23018750Y-43656250D02*
X23018750Y-142081250D01*
X388537500Y-140350000D02*
X376537500Y-140350000D01*
X369537500Y-140350000D02*
X357537500Y-140350000D01*
X389537500Y-139350000D02*
G75*
G02*
X388537500Y-140350000I-1000000J0D01*
G01*
X350487500Y-126350000D02*
G75*
G02*
X351487500Y-127350000I0J-1000000D01*
G01*
X278606250Y-145256250D02*
X211137500Y-159543750D01*
X115443000Y-145256250D02*
X182562500Y-159543750D01*
X277812500Y-40481250D02*
X199231250Y-57150000D01*
X26193750Y-145256250D02*
G75*
G02*
X23018750Y-142081250I0J3175000D01*
G01*
X115887500Y-40481250D02*
X194468750Y-57150000D01*
X376537500Y-126350000D02*
X388537500Y-126350000D01*
X26193750Y-40481250D02*
X115887500Y-40481250D01*
X375537500Y-139350000D02*
X375537500Y-127350000D01*
X376537500Y-140350000D02*
G75*
G02*
X375537500Y-139350000I0J1000000D01*
G01*
X394493750Y-43656250D02*
X394493750Y-142081250D01*
X389537500Y-127350000D02*
X389537500Y-139350000D01*
X375537500Y-127350000D02*
G75*
G02*
X376537500Y-126350000I1000000J0D01*
G01*
X356537500Y-139350000D02*
X356537500Y-127350000D01*
X177397429Y-97374179D02*
G75*
G02*
X178167665Y-98560239I-207912J-978148D01*
G01*
X162748894Y-108573304D02*
G75*
G02*
X161978658Y-107387246I207911J978147D01*
G01*
X149471320Y-125226657D02*
G75*
G02*
X148701084Y-124040599I207911J978147D01*
G01*
X175672724Y-110298010D02*
G75*
G02*
X174486664Y-111068246I-978148J207912D01*
G01*
X161209090Y-127721599D02*
X149471320Y-125226657D01*
X115114658Y-103611156D02*
X126852430Y-106106097D01*
X125127726Y-119029928D02*
G75*
G02*
X123941666Y-119800164I-978148J207912D01*
G01*
X159533953Y-94599522D02*
X157039011Y-106337292D01*
X108954436Y-124567914D02*
G75*
G02*
X110140495Y-123797677I978148J-207911D01*
G01*
X120153563Y-139216449D02*
G75*
G02*
X118967503Y-139986685I-978148J207912D01*
G01*
X121878268Y-126292618D02*
G75*
G02*
X122648504Y-127478678I-207912J-978148D01*
G01*
X123941666Y-119800164D02*
X112203896Y-117305222D01*
X162395150Y-126951363D02*
G75*
G02*
X161209090Y-127721599I-978148J207912D01*
G01*
X122648504Y-127478678D02*
X120153562Y-139216448D01*
X107229733Y-137491743D02*
G75*
G02*
X106459497Y-136305685I207911J978147D01*
G01*
X110140495Y-123797677D02*
X121878267Y-126292618D01*
X113928599Y-104381393D02*
G75*
G02*
X115114658Y-103611156I978148J-207911D01*
G01*
X158763717Y-93413462D02*
G75*
G02*
X159533953Y-94599522I-207912J-978148D01*
G01*
X161978658Y-107387246D02*
X164473598Y-95649475D01*
X127622667Y-107292157D02*
X125127725Y-119029927D01*
X106459497Y-136305685D02*
X108954437Y-124567914D01*
X171015794Y-115493309D02*
X182753566Y-117988250D01*
X152382082Y-111532591D02*
X164119854Y-114027532D01*
X144115182Y-104612587D02*
G75*
G02*
X143344946Y-103426529I207911J978147D01*
G01*
X145839885Y-91688758D02*
G75*
G02*
X147025944Y-90918521I978148J-207911D01*
G01*
X133748370Y-107571874D02*
X145486142Y-110066815D01*
X145486143Y-110066815D02*
G75*
G02*
X146256379Y-111252875I-207912J-978148D01*
G01*
X151196023Y-112302828D02*
G75*
G02*
X152382082Y-111532591I978148J-207911D01*
G01*
X164890091Y-115213592D02*
X162395149Y-126951362D01*
X142575378Y-123760882D02*
X130837608Y-121265940D01*
X130067372Y-120079882D02*
X132562312Y-108342111D01*
X148701084Y-124040599D02*
X151196024Y-112302828D01*
X143761438Y-122990646D02*
G75*
G02*
X142575378Y-123760882I-978148J207912D01*
G01*
X164473597Y-95649475D02*
G75*
G02*
X165659656Y-94879238I978148J-207911D01*
G01*
X132562311Y-108342111D02*
G75*
G02*
X133748370Y-107571874I978148J-207911D01*
G01*
X130837608Y-121265940D02*
G75*
G02*
X130067372Y-120079882I207911J978147D01*
G01*
X146256379Y-111252875D02*
X143761437Y-122990645D01*
X165659656Y-94879238D02*
X177397428Y-97374179D01*
X164119855Y-114027532D02*
G75*
G02*
X164890091Y-115213592I-207912J-978148D01*
G01*
X111433660Y-116119164D02*
X113928600Y-104381393D01*
X126852431Y-106106097D02*
G75*
G02*
X127622667Y-107292157I-207912J-978148D01*
G01*
X112203896Y-117305222D02*
G75*
G02*
X111433660Y-116119164I207911J978147D01*
G01*
X118967503Y-139986685D02*
X107229733Y-137491743D01*
X157039012Y-106337293D02*
G75*
G02*
X155852952Y-107107529I-978148J207912D01*
G01*
X174486664Y-111068246D02*
X162748894Y-108573304D01*
X178167665Y-98560239D02*
X175672723Y-110298009D01*
X120798583Y-65868135D02*
G75*
G02*
X121568819Y-67054195I-207912J-978148D01*
G01*
X139432295Y-69828853D02*
G75*
G02*
X140202531Y-71014913I-207912J-978148D01*
G01*
X140202531Y-71014913D02*
X137707589Y-82752683D01*
X127206173Y-87728040D02*
G75*
G02*
X128392232Y-86957803I978148J-207911D01*
G01*
X140130005Y-89452744D02*
G75*
G02*
X140900241Y-90638804I-207912J-978148D01*
G01*
X125481470Y-100651869D02*
G75*
G02*
X124711234Y-99465811I207911J978147D01*
G01*
X140900241Y-90638804D02*
X138405299Y-102376574D01*
X147025944Y-90918521D02*
X158763716Y-93413462D01*
X119073878Y-78791966D02*
G75*
G02*
X117887818Y-79562202I-978148J207912D01*
G01*
X126508463Y-68104149D02*
G75*
G02*
X127694522Y-67333912I978148J-207911D01*
G01*
X124013524Y-79841920D02*
X126508464Y-68104149D01*
X118585528Y-99186093D02*
X106847758Y-96691151D01*
X124711234Y-99465811D02*
X127206174Y-87728040D01*
X155852952Y-107107529D02*
X144115182Y-104612587D01*
X143344946Y-103426529D02*
X145839886Y-91688758D01*
X143417472Y-84988695D02*
G75*
G02*
X142647236Y-83802637I207911J978147D01*
G01*
X109758520Y-82997085D02*
X121496292Y-85492026D01*
X136521530Y-83522920D02*
X124783760Y-81027978D01*
X176699718Y-77750288D02*
G75*
G02*
X177469954Y-78936348I-207912J-978148D01*
G01*
X177469954Y-78936348D02*
X174975012Y-90674118D01*
X155155242Y-87483637D02*
X143417472Y-84988695D01*
X145142175Y-72064866D02*
G75*
G02*
X146328234Y-71294629I978148J-207911D01*
G01*
X106150048Y-77067260D02*
G75*
G02*
X105379812Y-75881202I207911J978147D01*
G01*
X106077522Y-95505093D02*
X108572462Y-83767322D01*
X127694522Y-67333912D02*
X139432294Y-69828853D01*
X108572461Y-83767322D02*
G75*
G02*
X109758520Y-82997085I978148J-207911D01*
G01*
X106847758Y-96691151D02*
G75*
G02*
X106077522Y-95505093I207911J978147D01*
G01*
X156341302Y-86713401D02*
G75*
G02*
X155155242Y-87483637I-978148J207912D01*
G01*
X105379812Y-75881202D02*
X107874752Y-64143431D01*
X142647236Y-83802637D02*
X145142176Y-72064866D01*
X117887818Y-79562202D02*
X106150048Y-77067260D01*
X121568819Y-67054195D02*
X119073877Y-78791965D01*
X121496293Y-85492026D02*
G75*
G02*
X122266529Y-86678086I-207912J-978148D01*
G01*
X158836243Y-74975630D02*
X156341301Y-86713400D01*
X137707590Y-82752684D02*
G75*
G02*
X136521530Y-83522920I-978148J207912D01*
G01*
X109060810Y-63373194D02*
X120798582Y-65868135D01*
X122266529Y-86678086D02*
X119771587Y-98415856D01*
X128392232Y-86957803D02*
X140130004Y-89452744D01*
X137219240Y-103146811D02*
X125481470Y-100651869D01*
X138405300Y-102376575D02*
G75*
G02*
X137219240Y-103146811I-978148J207912D01*
G01*
X158066007Y-73789570D02*
G75*
G02*
X158836243Y-74975630I-207912J-978148D01*
G01*
X146328234Y-71294629D02*
X158066006Y-73789570D01*
X119771588Y-98415857D02*
G75*
G02*
X118585528Y-99186093I-978148J207912D01*
G01*
X124783760Y-81027978D02*
G75*
G02*
X124013524Y-79841920I207911J978147D01*
G01*
X162051183Y-88949413D02*
G75*
G02*
X161280947Y-87763355I207911J978147D01*
G01*
X107874751Y-64143431D02*
G75*
G02*
X109060810Y-63373194I978148J-207911D01*
G01*
X216431123Y-129108672D02*
X204693352Y-131603613D01*
X259824921Y-99387108D02*
G75*
G02*
X259054685Y-100573166I-978147J-207911D01*
G01*
X265950627Y-99107390D02*
G75*
G02*
X264764567Y-98337154I-207912J978148D01*
G01*
X264764567Y-98337154D02*
X262269627Y-86599383D01*
X247316915Y-103068107D02*
G75*
G02*
X246130855Y-102297871I-207912J978148D01*
G01*
X222141005Y-126872660D02*
X219646065Y-115134889D01*
X225002202Y-94520817D02*
G75*
G02*
X225772439Y-93334758I978148J207911D01*
G01*
X222557498Y-107308544D02*
G75*
G02*
X221787262Y-108494602I-978147J-207911D01*
G01*
X210049492Y-110989543D02*
G75*
G02*
X208863432Y-110219307I-207912J978148D01*
G01*
X218876499Y-94800537D02*
G75*
G02*
X220062558Y-95570772I207912J-978147D01*
G01*
X278458633Y-95426391D02*
G75*
G02*
X277688397Y-96612449I-978147J-207911D01*
G01*
X275963693Y-83688619D02*
X278458633Y-95426390D01*
X243635914Y-90560099D02*
G75*
G02*
X244406151Y-89374040I978148J207911D01*
G01*
X225772439Y-93334758D02*
X237510210Y-90839818D01*
X220062558Y-95570772D02*
X222557498Y-107308543D01*
X208863432Y-110219307D02*
X206368492Y-98481536D01*
X254420717Y-67769790D02*
X266158488Y-65274850D01*
X267344547Y-66045086D02*
X269839487Y-77782857D01*
X263039863Y-85413323D02*
X274777634Y-82918383D01*
X240420973Y-104533884D02*
X228683202Y-107028825D01*
X237510210Y-90839819D02*
G75*
G02*
X238696269Y-91610054I207912J-978147D01*
G01*
X256143922Y-86879101D02*
G75*
G02*
X257329981Y-87649336I207912J-978147D01*
G01*
X238696269Y-91610054D02*
X241191209Y-103347825D01*
X241191209Y-103347826D02*
G75*
G02*
X240420973Y-104533884I-978147J-207911D01*
G01*
X207138728Y-97295476D02*
X218876499Y-94800536D01*
X277688397Y-96612449D02*
X265950626Y-99107390D01*
X269069251Y-78968916D02*
X257331480Y-81463857D01*
X269839487Y-77782858D02*
G75*
G02*
X269069251Y-78968916I-978147J-207911D01*
G01*
X257329981Y-87649336D02*
X259824921Y-99387107D01*
X253650480Y-68955849D02*
G75*
G02*
X254420717Y-67769790I978148J207911D01*
G01*
X244406151Y-89374040D02*
X256143922Y-86879100D01*
X204693353Y-131603613D02*
G75*
G02*
X203507293Y-130833377I-207912J978148D01*
G01*
X213520360Y-115414607D02*
G75*
G02*
X214706419Y-116184842I207912J-978147D01*
G01*
X246130855Y-102297871D02*
X243635915Y-90560100D01*
X203507293Y-130833377D02*
X201012353Y-119095606D01*
X262269626Y-86599382D02*
G75*
G02*
X263039863Y-85413323I978148J207911D01*
G01*
X217201359Y-127922614D02*
G75*
G02*
X216431123Y-129108672I-978147J-207911D01*
G01*
X259054685Y-100573166D02*
X247316914Y-103068107D01*
X228683203Y-107028825D02*
G75*
G02*
X227497143Y-106258589I-207912J978148D01*
G01*
X201782589Y-117909546D02*
X213520360Y-115414606D01*
X227497143Y-106258589D02*
X225002203Y-94520818D01*
X214706419Y-116184842D02*
X217201359Y-127922613D01*
X221787262Y-108494602D02*
X210049491Y-110989543D01*
X206368491Y-98481535D02*
G75*
G02*
X207138728Y-97295476I978148J207911D01*
G01*
X274777634Y-82918384D02*
G75*
G02*
X275963693Y-83688619I207912J-978147D01*
G01*
X201012352Y-119095605D02*
G75*
G02*
X201782589Y-117909546I978148J207911D01*
G01*
X383825000Y-95106250D02*
X371825000Y-95106250D01*
X374300000Y-57006250D02*
X362300000Y-57006250D01*
X38450000Y-43006250D02*
X50450000Y-43006250D01*
X51450000Y-56006250D02*
G75*
G02*
X50450000Y-57006250I-1000000J0D01*
G01*
X75262500Y-58387500D02*
G75*
G02*
X74262500Y-59387500I-1000000J0D01*
G01*
X37450000Y-44006250D02*
G75*
G02*
X38450000Y-43006250I1000000J0D01*
G01*
X375300000Y-56006250D02*
G75*
G02*
X374300000Y-57006250I-1000000J0D01*
G01*
X362300000Y-57006250D02*
G75*
G02*
X361300000Y-56006250I0J1000000D01*
G01*
X361300000Y-44006250D02*
G75*
G02*
X362300000Y-43006250I1000000J0D01*
G01*
X375300000Y-44006250D02*
X375300000Y-56006250D01*
X362300000Y-43006250D02*
X374300000Y-43006250D01*
X361300000Y-56006250D02*
X361300000Y-44006250D01*
X74262500Y-59387500D02*
X62262500Y-59387500D01*
X62262500Y-59387500D02*
G75*
G02*
X61262500Y-58387500I0J1000000D01*
G01*
X371825000Y-81106250D02*
X383825000Y-81106250D01*
X370825000Y-82106250D02*
G75*
G02*
X371825000Y-81106250I1000000J0D01*
G01*
X383825000Y-81106250D02*
G75*
G02*
X384825000Y-82106250I0J-1000000D01*
G01*
X51450000Y-44006250D02*
X51450000Y-56006250D01*
X37450000Y-56006250D02*
X37450000Y-44006250D01*
X50450000Y-57006250D02*
X38450000Y-57006250D01*
X38450000Y-57006250D02*
G75*
G02*
X37450000Y-56006250I0J1000000D01*
G01*
X374300000Y-43006250D02*
G75*
G02*
X375300000Y-44006250I0J-1000000D01*
G01*
X50450000Y-43006250D02*
G75*
G02*
X51450000Y-44006250I0J-1000000D01*
G01*
X384825000Y-94106250D02*
G75*
G02*
X383825000Y-95106250I-1000000J0D01*
G01*
X384825000Y-82106250D02*
X384825000Y-94106250D01*
X370825000Y-94106250D02*
X370825000Y-82106250D01*
X371825000Y-95106250D02*
G75*
G02*
X370825000Y-94106250I0J1000000D01*
G01*
X232154072Y-111453890D02*
G75*
G02*
X233340131Y-112224125I207912J-978147D01*
G01*
X250787784Y-107493172D02*
G75*
G02*
X251973843Y-108263407I207912J-978147D01*
G01*
X169829735Y-116263546D02*
G75*
G02*
X171015794Y-115493309I978148J-207911D01*
G01*
X259408429Y-118951224D02*
X256913489Y-107213453D01*
X183523803Y-119174310D02*
X181028861Y-130912080D01*
X181028862Y-130912081D02*
G75*
G02*
X179842802Y-131682317I-978148J207912D01*
G01*
X257683725Y-106027393D02*
X269421496Y-103532453D01*
X270607555Y-104302689D02*
X273102495Y-116040460D01*
X256913488Y-107213452D02*
G75*
G02*
X257683725Y-106027393I978148J207911D01*
G01*
X253698547Y-121187237D02*
X241960776Y-123682178D01*
X251973843Y-108263407D02*
X254468783Y-120001178D01*
X272332259Y-117226519D02*
X260594488Y-119721460D01*
X254468783Y-120001179D02*
G75*
G02*
X253698547Y-121187237I-978147J-207911D01*
G01*
X241960777Y-123682178D02*
G75*
G02*
X240774717Y-122911942I-207912J978148D01*
G01*
X182753567Y-117988250D02*
G75*
G02*
X183523803Y-119174310I-207912J-978148D01*
G01*
X269421496Y-103532454D02*
G75*
G02*
X270607555Y-104302689I207912J-978147D01*
G01*
X167334796Y-128001317D02*
X169829736Y-116263546D01*
X273102495Y-116040461D02*
G75*
G02*
X272332259Y-117226519I-978147J-207911D01*
G01*
X260594489Y-119721460D02*
G75*
G02*
X259408429Y-118951224I-207912J978148D01*
G01*
X238279776Y-111174170D02*
G75*
G02*
X239050013Y-109988111I978148J207911D01*
G01*
X240774717Y-122911942D02*
X238279777Y-111174171D01*
X179842802Y-131682317D02*
X168105032Y-129187375D01*
X239050013Y-109988111D02*
X250787784Y-107493171D01*
X235064835Y-125147955D02*
X223327064Y-127642896D01*
X220416301Y-113948829D02*
X232154072Y-111453889D01*
X233340131Y-112224125D02*
X235835071Y-123961896D01*
X235835071Y-123961897D02*
G75*
G02*
X235064835Y-125147955I-978147J-207911D01*
G01*
X219646064Y-115134888D02*
G75*
G02*
X220416301Y-113948829I978148J207911D01*
G01*
X223327065Y-127642896D02*
G75*
G02*
X222141005Y-126872660I-207912J978148D01*
G01*
X293337500Y-43006250D02*
G75*
G02*
X294337500Y-44006250I0J-1000000D01*
G01*
X102837500Y-116537500D02*
X90837500Y-116537500D01*
X103837500Y-115537500D02*
G75*
G02*
X102837500Y-116537500I-1000000J0D01*
G01*
X85075000Y-84487500D02*
G75*
G02*
X86075000Y-83487500I1000000J0D01*
G01*
X90837500Y-116537500D02*
G75*
G02*
X89837500Y-115537500I0J1000000D01*
G01*
X98075000Y-97487500D02*
X86075000Y-97487500D01*
X99362500Y-44006250D02*
G75*
G02*
X100362500Y-43006250I1000000J0D01*
G01*
X338487500Y-78437500D02*
G75*
G02*
X337487500Y-77437500I0J1000000D01*
G01*
X300387500Y-59387500D02*
G75*
G02*
X299387500Y-58387500I0J1000000D01*
G01*
X99075000Y-65437500D02*
X99075000Y-77437500D01*
X85075000Y-96487500D02*
X85075000Y-84487500D01*
X100362500Y-43006250D02*
X112362500Y-43006250D01*
X89837500Y-103537500D02*
G75*
G02*
X90837500Y-102537500I1000000J0D01*
G01*
X90837500Y-102537500D02*
X102837500Y-102537500D01*
X94312500Y-46387500D02*
X94312500Y-58387500D01*
X80312500Y-46387500D02*
G75*
G02*
X81312500Y-45387500I1000000J0D01*
G01*
X350487500Y-78437500D02*
X338487500Y-78437500D01*
X99075000Y-77437500D02*
G75*
G02*
X98075000Y-78437500I-1000000J0D01*
G01*
X98075000Y-64437500D02*
G75*
G02*
X99075000Y-65437500I0J-1000000D01*
G01*
X113362500Y-44006250D02*
X113362500Y-56006250D01*
X99075000Y-96487500D02*
G75*
G02*
X98075000Y-97487500I-1000000J0D01*
G01*
X86075000Y-64437500D02*
X98075000Y-64437500D01*
X93312500Y-45387500D02*
G75*
G02*
X94312500Y-46387500I0J-1000000D01*
G01*
X103837500Y-103537500D02*
X103837500Y-115537500D01*
X85075000Y-65437500D02*
G75*
G02*
X86075000Y-64437500I1000000J0D01*
G01*
X312387500Y-59387500D02*
X300387500Y-59387500D01*
X80312500Y-58387500D02*
X80312500Y-46387500D01*
X299387500Y-46387500D02*
G75*
G02*
X300387500Y-45387500I1000000J0D01*
G01*
X93312500Y-59387500D02*
X81312500Y-59387500D01*
X94312500Y-58387500D02*
G75*
G02*
X93312500Y-59387500I-1000000J0D01*
G01*
X64737500Y-121587500D02*
G75*
G02*
X65737500Y-122587500I0J-1000000D01*
G01*
X112362500Y-57006250D02*
X100362500Y-57006250D01*
X300387500Y-45387500D02*
X312387500Y-45387500D01*
X102837500Y-102537500D02*
G75*
G02*
X103837500Y-103537500I0J-1000000D01*
G01*
X81312500Y-59387500D02*
G75*
G02*
X80312500Y-58387500I0J1000000D01*
G01*
X52737500Y-121587500D02*
X64737500Y-121587500D01*
X299387500Y-58387500D02*
X299387500Y-46387500D01*
X86075000Y-83487500D02*
X98075000Y-83487500D01*
X86075000Y-97487500D02*
G75*
G02*
X85075000Y-96487500I0J1000000D01*
G01*
X351487500Y-77437500D02*
G75*
G02*
X350487500Y-78437500I-1000000J0D01*
G01*
X99075000Y-84487500D02*
X99075000Y-96487500D01*
X293337500Y-57006250D02*
X281337500Y-57006250D01*
X337487500Y-65437500D02*
G75*
G02*
X338487500Y-64437500I1000000J0D01*
G01*
X294337500Y-56006250D02*
G75*
G02*
X293337500Y-57006250I-1000000J0D01*
G01*
X98075000Y-78437500D02*
X86075000Y-78437500D01*
X281337500Y-57006250D02*
G75*
G02*
X280337500Y-56006250I0J1000000D01*
G01*
X89837500Y-115537500D02*
X89837500Y-103537500D01*
X86075000Y-78437500D02*
G75*
G02*
X85075000Y-77437500I0J1000000D01*
G01*
X98075000Y-83487500D02*
G75*
G02*
X99075000Y-84487500I0J-1000000D01*
G01*
X313387500Y-46387500D02*
X313387500Y-58387500D01*
X280337500Y-44006250D02*
G75*
G02*
X281337500Y-43006250I1000000J0D01*
G01*
X112362500Y-43006250D02*
G75*
G02*
X113362500Y-44006250I0J-1000000D01*
G01*
X294337500Y-44006250D02*
X294337500Y-56006250D01*
X85075000Y-77437500D02*
X85075000Y-65437500D01*
X99362500Y-56006250D02*
X99362500Y-44006250D01*
X281337500Y-43006250D02*
X293337500Y-43006250D01*
X113362500Y-56006250D02*
G75*
G02*
X112362500Y-57006250I-1000000J0D01*
G01*
X100362500Y-57006250D02*
G75*
G02*
X99362500Y-56006250I0J1000000D01*
G01*
X81312500Y-45387500D02*
X93312500Y-45387500D01*
X65737500Y-122587500D02*
X65737500Y-134587500D01*
X337487500Y-77437500D02*
X337487500Y-65437500D01*
X313387500Y-58387500D02*
G75*
G02*
X312387500Y-59387500I-1000000J0D01*
G01*
X280337500Y-56006250D02*
X280337500Y-44006250D01*
X65737500Y-134587500D02*
G75*
G02*
X64737500Y-135587500I-1000000J0D01*
G01*
X64737500Y-135587500D02*
X52737500Y-135587500D01*
X52737500Y-135587500D02*
G75*
G02*
X51737500Y-134587500I0J1000000D01*
G01*
X58455250Y-102537500D02*
X73331250Y-102537501D01*
X54118750Y-96487500D02*
X54118750Y-84487500D01*
X71881250Y-83487500D02*
G75*
G02*
X72881250Y-84487500I0J-1000000D01*
G01*
X74262500Y-78437500D02*
X62262500Y-78437500D01*
X75262500Y-77437500D02*
G75*
G02*
X74262500Y-78437500I-1000000J0D01*
G01*
X62262500Y-78437500D02*
G75*
G02*
X61262500Y-77437500I0J1000000D01*
G01*
X75262500Y-46387500D02*
X75262500Y-58387500D01*
X51737500Y-122587500D02*
G75*
G02*
X52737500Y-121587500I1000000J0D01*
G01*
X55118750Y-83487500D02*
X71881250Y-83487500D01*
X74262500Y-45387500D02*
G75*
G02*
X75262500Y-46387500I0J-1000000D01*
G01*
X62262500Y-45387500D02*
X74262500Y-45387500D01*
X61262500Y-46387500D02*
G75*
G02*
X62262500Y-45387500I1000000J0D01*
G01*
X61262500Y-58387500D02*
X61262500Y-46387500D01*
X71893250Y-116537501D02*
X59893250Y-116537501D01*
X55118750Y-97487500D02*
G75*
G02*
X54118750Y-96487500I0J1000000D01*
G01*
X61262500Y-77437500D02*
X61262500Y-65437500D01*
X72881250Y-96487500D02*
G75*
G02*
X71881250Y-97487500I-1000000J0D01*
G01*
X51737500Y-134587500D02*
X51737500Y-122587500D01*
X72881250Y-84487500D02*
X72881250Y-96487500D01*
X71881250Y-97487500D02*
X55118750Y-97487500D01*
X74262500Y-64437500D02*
G75*
G02*
X75262500Y-65437500I0J-1000000D01*
G01*
X75262500Y-65437500D02*
X75262500Y-77437500D01*
X54118750Y-84487500D02*
G75*
G02*
X55118750Y-83487500I1000000J0D01*
G01*
X62262500Y-64437500D02*
X74262500Y-64437500D01*
X61262500Y-65437500D02*
G75*
G02*
X62262500Y-64437500I1000000J0D01*
G01*
X350487500Y-140350000D02*
X338487500Y-140350000D01*
X322912500Y-122587500D02*
X322912500Y-134587500D01*
X294337500Y-115537500D02*
G75*
G02*
X293337500Y-116537500I-1000000J0D01*
G01*
X356537500Y-108300000D02*
G75*
G02*
X357537500Y-107300000I1000000J0D01*
G01*
X325581250Y-115537500D02*
X325581250Y-103537500D01*
X338581250Y-116537500D02*
X326581250Y-116537500D01*
X308912500Y-134587500D02*
X308912500Y-122587500D01*
X338487500Y-126350000D02*
X350487500Y-126350000D01*
X348118250Y-97487501D02*
X336118250Y-97487501D01*
X321912500Y-135587500D02*
X309912500Y-135587500D01*
X281337500Y-102537500D02*
X293337500Y-102537500D01*
X326581250Y-116537500D02*
G75*
G02*
X325581250Y-115537500I0J1000000D01*
G01*
X299387500Y-115537500D02*
X299387500Y-103537500D01*
X356537500Y-120300000D02*
X356537500Y-108300000D01*
X339581250Y-103537500D02*
X339581250Y-115537500D01*
X351487500Y-139350000D02*
G75*
G02*
X350487500Y-140350000I-1000000J0D01*
G01*
X280337500Y-115537500D02*
X280337500Y-103537500D01*
X370537500Y-108300000D02*
X370537500Y-120300000D01*
X321912500Y-121587500D02*
G75*
G02*
X322912500Y-122587500I0J-1000000D01*
G01*
X313387500Y-103537500D02*
X313387500Y-115537500D01*
X357537500Y-107300000D02*
X369537500Y-107300000D01*
X338487500Y-140350000D02*
G75*
G02*
X337487500Y-139350000I0J1000000D01*
G01*
X357537500Y-121300000D02*
G75*
G02*
X356537500Y-120300000I0J1000000D01*
G01*
X326581250Y-102537500D02*
X338581250Y-102537500D01*
X294337500Y-103537500D02*
X294337500Y-115537500D01*
X339581250Y-115537500D02*
G75*
G02*
X338581250Y-116537500I-1000000J0D01*
G01*
X334680250Y-83487500D02*
X349556250Y-83487501D01*
X337487500Y-127350000D02*
G75*
G02*
X338487500Y-126350000I1000000J0D01*
G01*
X337487500Y-139350000D02*
X337487500Y-127350000D01*
X351487500Y-127350000D02*
X351487500Y-139350000D01*
X322912500Y-134587500D02*
G75*
G02*
X321912500Y-135587500I-1000000J0D01*
G01*
X293337500Y-116537500D02*
X281337500Y-116537500D01*
X317150000Y-83487500D02*
G75*
G02*
X318150000Y-84487500I0J-1000000D01*
G01*
X318150000Y-84487500D02*
X318150000Y-96487500D01*
X313387500Y-115537500D02*
G75*
G02*
X312387500Y-116537500I-1000000J0D01*
G01*
X369537500Y-107300000D02*
G75*
G02*
X370537500Y-108300000I0J-1000000D01*
G01*
X304150000Y-84487500D02*
G75*
G02*
X305150000Y-83487500I1000000J0D01*
G01*
X308912500Y-122587500D02*
G75*
G02*
X309912500Y-121587500I1000000J0D01*
G01*
X309912500Y-135587500D02*
G75*
G02*
X308912500Y-134587500I0J1000000D01*
G01*
X338581250Y-102537500D02*
G75*
G02*
X339581250Y-103537500I0J-1000000D01*
G01*
X304150000Y-96487500D02*
X304150000Y-84487500D01*
X280337500Y-103537500D02*
G75*
G02*
X281337500Y-102537500I1000000J0D01*
G01*
X300387500Y-116537500D02*
G75*
G02*
X299387500Y-115537500I0J1000000D01*
G01*
X369537500Y-121300000D02*
X357537500Y-121300000D01*
X370537500Y-120300000D02*
G75*
G02*
X369537500Y-121300000I-1000000J0D01*
G01*
X312387500Y-102537500D02*
G75*
G02*
X313387500Y-103537500I0J-1000000D01*
G01*
X309912500Y-121587500D02*
X321912500Y-121587500D01*
X299387500Y-103537500D02*
G75*
G02*
X300387500Y-102537500I1000000J0D01*
G01*
X312387500Y-116537500D02*
X300387500Y-116537500D01*
X325581250Y-103537500D02*
G75*
G02*
X326581250Y-102537500I1000000J0D01*
G01*
X281337500Y-116537500D02*
G75*
G02*
X280337500Y-115537500I0J1000000D01*
G01*
X293337500Y-102537500D02*
G75*
G02*
X294337500Y-103537500I0J-1000000D01*
G01*
X300387500Y-102537500D02*
X312387500Y-102537500D01*
X305150000Y-83487500D02*
X317150000Y-83487500D01*
X317150000Y-97487500D02*
X305150000Y-97487500D01*
X318150000Y-96487500D02*
G75*
G02*
X317150000Y-97487500I-1000000J0D01*
G01*
X305150000Y-97487500D02*
G75*
G02*
X304150000Y-96487500I0J1000000D01*
G01*
X298100000Y-83487500D02*
G75*
G02*
X299100000Y-84487500I0J-1000000D01*
G01*
X299100000Y-84487500D02*
X299100000Y-96487500D01*
X286100000Y-83487500D02*
X298100000Y-83487500D01*
X285100000Y-84487500D02*
G75*
G02*
X286100000Y-83487500I1000000J0D01*
G01*
X285100000Y-96487500D02*
X285100000Y-84487500D01*
X298100000Y-97487500D02*
X286100000Y-97487500D01*
X299100000Y-96487500D02*
G75*
G02*
X298100000Y-97487500I-1000000J0D01*
G01*
X276575000Y-63643750D02*
X288575000Y-63643750D01*
X286100000Y-97487500D02*
G75*
G02*
X285100000Y-96487500I0J1000000D01*
G01*
X289575000Y-76643750D02*
G75*
G02*
X288575000Y-77643750I-1000000J0D01*
G01*
X288575000Y-77643750D02*
X276575000Y-77643750D01*
X307625000Y-64437500D02*
G75*
G02*
X308625000Y-65437500I0J-1000000D01*
G01*
X308625000Y-65437500D02*
X308625000Y-77437500D01*
X288575000Y-63643750D02*
G75*
G02*
X289575000Y-64643750I0J-1000000D01*
G01*
X294625000Y-65437500D02*
G75*
G02*
X295625000Y-64437500I1000000J0D01*
G01*
X326675000Y-64437500D02*
G75*
G02*
X327675000Y-65437500I0J-1000000D01*
G01*
X314675000Y-64437500D02*
X326675000Y-64437500D01*
X313675000Y-77437500D02*
X313675000Y-65437500D01*
X326675000Y-78437500D02*
X314675000Y-78437500D01*
X314675000Y-78437500D02*
G75*
G02*
X313675000Y-77437500I0J1000000D01*
G01*
X275575000Y-64643750D02*
G75*
G02*
X276575000Y-63643750I1000000J0D01*
G01*
X295625000Y-78437500D02*
G75*
G02*
X294625000Y-77437500I0J1000000D01*
G01*
X350487500Y-64437500D02*
G75*
G02*
X351487500Y-65437500I0J-1000000D01*
G01*
X313675000Y-65437500D02*
G75*
G02*
X314675000Y-64437500I1000000J0D01*
G01*
X276575000Y-77643750D02*
G75*
G02*
X275575000Y-76643750I0J1000000D01*
G01*
X295625000Y-64437500D02*
X307625000Y-64437500D01*
X351487500Y-65437500D02*
X351487500Y-77437500D01*
X338487500Y-64437500D02*
X350487500Y-64437500D01*
X289575000Y-64643750D02*
X289575000Y-76643750D01*
X275575000Y-76643750D02*
X275575000Y-64643750D01*
X327675000Y-77437500D02*
G75*
G02*
X326675000Y-78437500I-1000000J0D01*
G01*
X307625000Y-78437500D02*
X295625000Y-78437500D01*
X308625000Y-77437500D02*
G75*
G02*
X307625000Y-78437500I-1000000J0D01*
G01*
X327675000Y-65437500D02*
X327675000Y-77437500D01*
X294625000Y-77437500D02*
X294625000Y-65437500D01*
X326680250Y-82487500D02*
G75*
G02*
X327680250Y-81487500I1000000J0D01*
G01*
X336118250Y-97487501D02*
G75*
G02*
X335252225Y-96987501I0J1000000D01*
G01*
X350556251Y-82487500D02*
G75*
G02*
X349556250Y-83487501I-1000001J0D01*
G01*
X334386200Y-96487501D02*
G75*
G02*
X335252225Y-96987501I0J-1000000D01*
G01*
X348984275Y-96987501D02*
G75*
G02*
X348118250Y-97487501I-866025J500000D01*
G01*
X326680250Y-95487500D02*
X326680250Y-82487500D01*
X356556250Y-81487500D02*
X351556250Y-81487500D01*
X348984276Y-96987501D02*
G75*
G02*
X349850301Y-96487501I866025J-500000D01*
G01*
X357556250Y-95487500D02*
G75*
G02*
X356556250Y-96487500I-1000000J0D01*
G01*
X356556250Y-96487500D02*
X349850301Y-96487501D01*
X356556250Y-81487500D02*
G75*
G02*
X357556250Y-82487500I0J-1000000D01*
G01*
D11*
G36*
X72339200Y-130276600D02*
G01*
X73228200Y-130276600D01*
X73228200Y-130022600D01*
X72339200Y-130022600D01*
X72339200Y-130276600D01*
G37*
X72339200Y-130276600D02*
X73228200Y-130276600D01*
X73228200Y-130022600D01*
X72339200Y-130022600D01*
X72339200Y-130276600D01*
D12*
G36*
X70053200Y-129095682D02*
G01*
X70622418Y-129106703D01*
X70828597Y-129111280D01*
X70981349Y-129116643D01*
X71090743Y-129123964D01*
X71166851Y-129134416D01*
X71219744Y-129149170D01*
X71259493Y-129169400D01*
X71279229Y-129183156D01*
X71368962Y-129286363D01*
X71409456Y-129415312D01*
X71399859Y-129554626D01*
X71339320Y-129688927D01*
X71309390Y-129727937D01*
X71277295Y-129762473D01*
X71242752Y-129786921D01*
X71194194Y-129803665D01*
X71120056Y-129815084D01*
X71008770Y-129823561D01*
X70848769Y-129831475D01*
X70794868Y-129833862D01*
X70544769Y-129849436D01*
X70346883Y-129873721D01*
X70190159Y-129909961D01*
X70063547Y-129961397D01*
X69955994Y-130031274D01*
X69875097Y-130103782D01*
X69749466Y-130267737D01*
X69673449Y-130461439D01*
X69645240Y-130690770D01*
X69649700Y-130837588D01*
X69690483Y-131076152D01*
X69775411Y-131270575D01*
X69907832Y-131425374D01*
X70091093Y-131545068D01*
X70211950Y-131596542D01*
X70292317Y-131615529D01*
X70417317Y-131632274D01*
X70576581Y-131646534D01*
X70759740Y-131658068D01*
X70956424Y-131666631D01*
X71156266Y-131671982D01*
X71348895Y-131673879D01*
X71523943Y-131672077D01*
X71671041Y-131666336D01*
X71779820Y-131656411D01*
X71839910Y-131642062D01*
X71848074Y-131634821D01*
X71856160Y-131579642D01*
X71859003Y-131483480D01*
X71856647Y-131384505D01*
X71847075Y-131181475D01*
X71100950Y-131165600D01*
X70825771Y-131158367D01*
X70610446Y-131149538D01*
X70451345Y-131138861D01*
X70344837Y-131126084D01*
X70287290Y-131110958D01*
X70283717Y-131109096D01*
X70193927Y-131022673D01*
X70136682Y-130890076D01*
X70116700Y-130723177D01*
X70124791Y-130609990D01*
X70155993Y-130528394D01*
X70204013Y-130465915D01*
X70274410Y-130403398D01*
X70363035Y-130359078D01*
X70480904Y-130330341D01*
X70639031Y-130314574D01*
X70848434Y-130309165D01*
X70865000Y-130309107D01*
X71104727Y-130300118D01*
X71294945Y-130272034D01*
X71447721Y-130221273D01*
X71575123Y-130144252D01*
X71653458Y-130075013D01*
X71766592Y-129929679D01*
X71837450Y-129757435D01*
X71869614Y-129547516D01*
X71872211Y-129418029D01*
X71847132Y-129189525D01*
X71777590Y-129004193D01*
X71660485Y-128857025D01*
X71492717Y-128743014D01*
X71438530Y-128717353D01*
X71375160Y-128691928D01*
X71309693Y-128672815D01*
X71231231Y-128658810D01*
X71128875Y-128648711D01*
X70991726Y-128641315D01*
X70808885Y-128635418D01*
X70664388Y-128631911D01*
X70053200Y-128618073D01*
X70053200Y-129095682D01*
G37*
X70053200Y-129095682D02*
X70622418Y-129106703D01*
X70828597Y-129111280D01*
X70981349Y-129116643D01*
X71090743Y-129123964D01*
X71166851Y-129134416D01*
X71219744Y-129149170D01*
X71259493Y-129169400D01*
X71279229Y-129183156D01*
X71368962Y-129286363D01*
X71409456Y-129415312D01*
X71399859Y-129554626D01*
X71339320Y-129688927D01*
X71309390Y-129727937D01*
X71277295Y-129762473D01*
X71242752Y-129786921D01*
X71194194Y-129803665D01*
X71120056Y-129815084D01*
X71008770Y-129823561D01*
X70848769Y-129831475D01*
X70794868Y-129833862D01*
X70544769Y-129849436D01*
X70346883Y-129873721D01*
X70190159Y-129909961D01*
X70063547Y-129961397D01*
X69955994Y-130031274D01*
X69875097Y-130103782D01*
X69749466Y-130267737D01*
X69673449Y-130461439D01*
X69645240Y-130690770D01*
X69649700Y-130837588D01*
X69690483Y-131076152D01*
X69775411Y-131270575D01*
X69907832Y-131425374D01*
X70091093Y-131545068D01*
X70211950Y-131596542D01*
X70292317Y-131615529D01*
X70417317Y-131632274D01*
X70576581Y-131646534D01*
X70759740Y-131658068D01*
X70956424Y-131666631D01*
X71156266Y-131671982D01*
X71348895Y-131673879D01*
X71523943Y-131672077D01*
X71671041Y-131666336D01*
X71779820Y-131656411D01*
X71839910Y-131642062D01*
X71848074Y-131634821D01*
X71856160Y-131579642D01*
X71859003Y-131483480D01*
X71856647Y-131384505D01*
X71847075Y-131181475D01*
X71100950Y-131165600D01*
X70825771Y-131158367D01*
X70610446Y-131149538D01*
X70451345Y-131138861D01*
X70344837Y-131126084D01*
X70287290Y-131110958D01*
X70283717Y-131109096D01*
X70193927Y-131022673D01*
X70136682Y-130890076D01*
X70116700Y-130723177D01*
X70124791Y-130609990D01*
X70155993Y-130528394D01*
X70204013Y-130465915D01*
X70274410Y-130403398D01*
X70363035Y-130359078D01*
X70480904Y-130330341D01*
X70639031Y-130314574D01*
X70848434Y-130309165D01*
X70865000Y-130309107D01*
X71104727Y-130300118D01*
X71294945Y-130272034D01*
X71447721Y-130221273D01*
X71575123Y-130144252D01*
X71653458Y-130075013D01*
X71766592Y-129929679D01*
X71837450Y-129757435D01*
X71869614Y-129547516D01*
X71872211Y-129418029D01*
X71847132Y-129189525D01*
X71777590Y-129004193D01*
X71660485Y-128857025D01*
X71492717Y-128743014D01*
X71438530Y-128717353D01*
X71375160Y-128691928D01*
X71309693Y-128672815D01*
X71231231Y-128658810D01*
X71128875Y-128648711D01*
X70991726Y-128641315D01*
X70808885Y-128635418D01*
X70664388Y-128631911D01*
X70053200Y-128618073D01*
X70053200Y-129095682D01*
G36*
X88378965Y-128630966D02*
G01*
X88297883Y-128644575D01*
X88256510Y-128665009D01*
X88256329Y-128665287D01*
X88237312Y-128702047D01*
X88194048Y-128789524D01*
X88129721Y-128921164D01*
X88047512Y-129090414D01*
X87950605Y-129290720D01*
X87842182Y-129515528D01*
X87725425Y-129758285D01*
X87712847Y-129784475D01*
X87595610Y-130027980D01*
X87486432Y-130253517D01*
X87388470Y-130454654D01*
X87304883Y-130624960D01*
X87238830Y-130758002D01*
X87193469Y-130847348D01*
X87171958Y-130886567D01*
X87171157Y-130887572D01*
X87148797Y-130870680D01*
X87106027Y-130806821D01*
X87049326Y-130706553D01*
X86994967Y-130600484D01*
X86842103Y-130289799D01*
X87242402Y-129489693D01*
X87346090Y-129281349D01*
X87439798Y-129090955D01*
X87519904Y-128926040D01*
X87582787Y-128794131D01*
X87624826Y-128702757D01*
X87642398Y-128659444D01*
X87642700Y-128657594D01*
X87612961Y-128641509D01*
X87531598Y-128630360D01*
X87410398Y-128625658D01*
X87393631Y-128625600D01*
X87144561Y-128625600D01*
X86879652Y-129197471D01*
X86797861Y-129370402D01*
X86723902Y-129519919D01*
X86662125Y-129637781D01*
X86616876Y-129715752D01*
X86592504Y-129745591D01*
X86590611Y-129745158D01*
X86570207Y-129709882D01*
X86527996Y-129626343D01*
X86468584Y-129504022D01*
X86396576Y-129352402D01*
X86316700Y-129181225D01*
X86066919Y-128641475D01*
X85807060Y-128632253D01*
X85687670Y-128629988D01*
X85597202Y-128632026D01*
X85550488Y-128637894D01*
X85547200Y-128640557D01*
X85560577Y-128672491D01*
X85598388Y-128754172D01*
X85657157Y-128878309D01*
X85733407Y-129037612D01*
X85823659Y-129224790D01*
X85924438Y-129432553D01*
X85950158Y-129485396D01*
X86353116Y-130312709D01*
X86045456Y-130927475D01*
X85480475Y-129776537D01*
X84915493Y-128625600D01*
X84659847Y-128625600D01*
X84541463Y-128627406D01*
X84452168Y-128632210D01*
X84406938Y-128639086D01*
X84404200Y-128641392D01*
X84417972Y-128673758D01*
X84457220Y-128756238D01*
X84518846Y-128882666D01*
X84599751Y-129046878D01*
X84696836Y-129242707D01*
X84807003Y-129463990D01*
X84927153Y-129704562D01*
X85054187Y-129958256D01*
X85185006Y-130218908D01*
X85316511Y-130480354D01*
X85445604Y-130736427D01*
X85569186Y-130980963D01*
X85684159Y-131207797D01*
X85787422Y-131410764D01*
X85875878Y-131583699D01*
X85946428Y-131720436D01*
X85995973Y-131814811D01*
X86021414Y-131860658D01*
X86024050Y-131864100D01*
X86042729Y-131837054D01*
X86084729Y-131761765D01*
X86145418Y-131647003D01*
X86220162Y-131501540D01*
X86304326Y-131334147D01*
X86309200Y-131324350D01*
X86393741Y-131156021D01*
X86469107Y-131009163D01*
X86530668Y-130892537D01*
X86573795Y-130814908D01*
X86593856Y-130785039D01*
X86594204Y-130784956D01*
X86612308Y-130812379D01*
X86652622Y-130888422D01*
X86710641Y-131004101D01*
X86781856Y-131150429D01*
X86860981Y-131316768D01*
X86941293Y-131486369D01*
X87013069Y-131636021D01*
X87071695Y-131756258D01*
X87112556Y-131837610D01*
X87130856Y-131870420D01*
X87148431Y-131847090D01*
X87191947Y-131772017D01*
X87258782Y-131650172D01*
X87346313Y-131486525D01*
X87451918Y-131286046D01*
X87572974Y-131053705D01*
X87706857Y-130794472D01*
X87850946Y-130513318D01*
X87960200Y-130298795D01*
X88110344Y-130002887D01*
X88251813Y-129723422D01*
X88381990Y-129465614D01*
X88498259Y-129234679D01*
X88598000Y-129035832D01*
X88678597Y-128874288D01*
X88737432Y-128755263D01*
X88771887Y-128683972D01*
X88780091Y-128665287D01*
X88757570Y-128644774D01*
X88689057Y-128631085D01*
X88591692Y-128624221D01*
X88482614Y-128624181D01*
X88378965Y-128630966D01*
G37*
X88378965Y-128630966D02*
X88297883Y-128644575D01*
X88256510Y-128665009D01*
X88256329Y-128665287D01*
X88237312Y-128702047D01*
X88194048Y-128789524D01*
X88129721Y-128921164D01*
X88047512Y-129090414D01*
X87950605Y-129290720D01*
X87842182Y-129515528D01*
X87725425Y-129758285D01*
X87712847Y-129784475D01*
X87595610Y-130027980D01*
X87486432Y-130253517D01*
X87388470Y-130454654D01*
X87304883Y-130624960D01*
X87238830Y-130758002D01*
X87193469Y-130847348D01*
X87171958Y-130886567D01*
X87171157Y-130887572D01*
X87148797Y-130870680D01*
X87106027Y-130806821D01*
X87049326Y-130706553D01*
X86994967Y-130600484D01*
X86842103Y-130289799D01*
X87242402Y-129489693D01*
X87346090Y-129281349D01*
X87439798Y-129090955D01*
X87519904Y-128926040D01*
X87582787Y-128794131D01*
X87624826Y-128702757D01*
X87642398Y-128659444D01*
X87642700Y-128657594D01*
X87612961Y-128641509D01*
X87531598Y-128630360D01*
X87410398Y-128625658D01*
X87393631Y-128625600D01*
X87144561Y-128625600D01*
X86879652Y-129197471D01*
X86797861Y-129370402D01*
X86723902Y-129519919D01*
X86662125Y-129637781D01*
X86616876Y-129715752D01*
X86592504Y-129745591D01*
X86590611Y-129745158D01*
X86570207Y-129709882D01*
X86527996Y-129626343D01*
X86468584Y-129504022D01*
X86396576Y-129352402D01*
X86316700Y-129181225D01*
X86066919Y-128641475D01*
X85807060Y-128632253D01*
X85687670Y-128629988D01*
X85597202Y-128632026D01*
X85550488Y-128637894D01*
X85547200Y-128640557D01*
X85560577Y-128672491D01*
X85598388Y-128754172D01*
X85657157Y-128878309D01*
X85733407Y-129037612D01*
X85823659Y-129224790D01*
X85924438Y-129432553D01*
X85950158Y-129485396D01*
X86353116Y-130312709D01*
X86045456Y-130927475D01*
X85480475Y-129776537D01*
X84915493Y-128625600D01*
X84659847Y-128625600D01*
X84541463Y-128627406D01*
X84452168Y-128632210D01*
X84406938Y-128639086D01*
X84404200Y-128641392D01*
X84417972Y-128673758D01*
X84457220Y-128756238D01*
X84518846Y-128882666D01*
X84599751Y-129046878D01*
X84696836Y-129242707D01*
X84807003Y-129463990D01*
X84927153Y-129704562D01*
X85054187Y-129958256D01*
X85185006Y-130218908D01*
X85316511Y-130480354D01*
X85445604Y-130736427D01*
X85569186Y-130980963D01*
X85684159Y-131207797D01*
X85787422Y-131410764D01*
X85875878Y-131583699D01*
X85946428Y-131720436D01*
X85995973Y-131814811D01*
X86021414Y-131860658D01*
X86024050Y-131864100D01*
X86042729Y-131837054D01*
X86084729Y-131761765D01*
X86145418Y-131647003D01*
X86220162Y-131501540D01*
X86304326Y-131334147D01*
X86309200Y-131324350D01*
X86393741Y-131156021D01*
X86469107Y-131009163D01*
X86530668Y-130892537D01*
X86573795Y-130814908D01*
X86593856Y-130785039D01*
X86594204Y-130784956D01*
X86612308Y-130812379D01*
X86652622Y-130888422D01*
X86710641Y-131004101D01*
X86781856Y-131150429D01*
X86860981Y-131316768D01*
X86941293Y-131486369D01*
X87013069Y-131636021D01*
X87071695Y-131756258D01*
X87112556Y-131837610D01*
X87130856Y-131870420D01*
X87148431Y-131847090D01*
X87191947Y-131772017D01*
X87258782Y-131650172D01*
X87346313Y-131486525D01*
X87451918Y-131286046D01*
X87572974Y-131053705D01*
X87706857Y-130794472D01*
X87850946Y-130513318D01*
X87960200Y-130298795D01*
X88110344Y-130002887D01*
X88251813Y-129723422D01*
X88381990Y-129465614D01*
X88498259Y-129234679D01*
X88598000Y-129035832D01*
X88678597Y-128874288D01*
X88737432Y-128755263D01*
X88771887Y-128683972D01*
X88780091Y-128665287D01*
X88757570Y-128644774D01*
X88689057Y-128631085D01*
X88591692Y-128624221D01*
X88482614Y-128624181D01*
X88378965Y-128630966D01*
G36*
X78596002Y-128628257D02*
G01*
X78492453Y-128637300D01*
X78414497Y-128650525D01*
X78381019Y-128665287D01*
X78360890Y-128702084D01*
X78316676Y-128789652D01*
X78251585Y-128921428D01*
X78168821Y-129090845D01*
X78071591Y-129291339D01*
X77963101Y-129516345D01*
X77846555Y-129759297D01*
X77834511Y-129784475D01*
X77717750Y-130028025D01*
X77609094Y-130253567D01*
X77511681Y-130454668D01*
X77428650Y-130624895D01*
X77363141Y-130757814D01*
X77318293Y-130846992D01*
X77297246Y-130885996D01*
X77296503Y-130886963D01*
X77278125Y-130864606D01*
X77234771Y-130791152D01*
X77169539Y-130672462D01*
X77085532Y-130514395D01*
X76985847Y-130322811D01*
X76873586Y-130103570D01*
X76751848Y-129862532D01*
X76704414Y-129767776D01*
X76134031Y-128625600D01*
X75885288Y-128625599D01*
X75753127Y-128628539D01*
X75676406Y-128638227D01*
X75647300Y-128655967D01*
X75647148Y-128665287D01*
X75662883Y-128700119D01*
X75703822Y-128784768D01*
X75766876Y-128913079D01*
X75848957Y-129078900D01*
X75946977Y-129276075D01*
X76057847Y-129498452D01*
X76178477Y-129739875D01*
X76305781Y-129994192D01*
X76436668Y-130255248D01*
X76568051Y-130516890D01*
X76696840Y-130772963D01*
X76819948Y-131017314D01*
X76934285Y-131243788D01*
X77036764Y-131446232D01*
X77124295Y-131618492D01*
X77193790Y-131754414D01*
X77242160Y-131847844D01*
X77266317Y-131892628D01*
X77268450Y-131895683D01*
X77283826Y-131868153D01*
X77325276Y-131788979D01*
X77390229Y-131663186D01*
X77476115Y-131495803D01*
X77580363Y-131291857D01*
X77700403Y-131056375D01*
X77833663Y-130794383D01*
X77977574Y-130510909D01*
X78093888Y-130281431D01*
X78244241Y-129984237D01*
X78385650Y-129704033D01*
X78515563Y-129445922D01*
X78631425Y-129215012D01*
X78730684Y-129016407D01*
X78810786Y-128855214D01*
X78869179Y-128736538D01*
X78903309Y-128665485D01*
X78911450Y-128646472D01*
X78882868Y-128632502D01*
X78808944Y-128625229D01*
X78707410Y-128624023D01*
X78596002Y-128628257D01*
G37*
X78596002Y-128628257D02*
X78492453Y-128637300D01*
X78414497Y-128650525D01*
X78381019Y-128665287D01*
X78360890Y-128702084D01*
X78316676Y-128789652D01*
X78251585Y-128921428D01*
X78168821Y-129090845D01*
X78071591Y-129291339D01*
X77963101Y-129516345D01*
X77846555Y-129759297D01*
X77834511Y-129784475D01*
X77717750Y-130028025D01*
X77609094Y-130253567D01*
X77511681Y-130454668D01*
X77428650Y-130624895D01*
X77363141Y-130757814D01*
X77318293Y-130846992D01*
X77297246Y-130885996D01*
X77296503Y-130886963D01*
X77278125Y-130864606D01*
X77234771Y-130791152D01*
X77169539Y-130672462D01*
X77085532Y-130514395D01*
X76985847Y-130322811D01*
X76873586Y-130103570D01*
X76751848Y-129862532D01*
X76704414Y-129767776D01*
X76134031Y-128625600D01*
X75885288Y-128625599D01*
X75753127Y-128628539D01*
X75676406Y-128638227D01*
X75647300Y-128655967D01*
X75647148Y-128665287D01*
X75662883Y-128700119D01*
X75703822Y-128784768D01*
X75766876Y-128913079D01*
X75848957Y-129078900D01*
X75946977Y-129276075D01*
X76057847Y-129498452D01*
X76178477Y-129739875D01*
X76305781Y-129994192D01*
X76436668Y-130255248D01*
X76568051Y-130516890D01*
X76696840Y-130772963D01*
X76819948Y-131017314D01*
X76934285Y-131243788D01*
X77036764Y-131446232D01*
X77124295Y-131618492D01*
X77193790Y-131754414D01*
X77242160Y-131847844D01*
X77266317Y-131892628D01*
X77268450Y-131895683D01*
X77283826Y-131868153D01*
X77325276Y-131788979D01*
X77390229Y-131663186D01*
X77476115Y-131495803D01*
X77580363Y-131291857D01*
X77700403Y-131056375D01*
X77833663Y-130794383D01*
X77977574Y-130510909D01*
X78093888Y-130281431D01*
X78244241Y-129984237D01*
X78385650Y-129704033D01*
X78515563Y-129445922D01*
X78631425Y-129215012D01*
X78730684Y-129016407D01*
X78810786Y-128855214D01*
X78869179Y-128736538D01*
X78903309Y-128665485D01*
X78911450Y-128646472D01*
X78882868Y-128632502D01*
X78808944Y-128625229D01*
X78707410Y-128624023D01*
X78596002Y-128628257D01*
G36*
X103430388Y-128633785D02*
G01*
X103147498Y-128639005D01*
X102920169Y-128645504D01*
X102740463Y-128654542D01*
X102600439Y-128667382D01*
X102492159Y-128685287D01*
X102407685Y-128709519D01*
X102339076Y-128741341D01*
X102278395Y-128782015D01*
X102226228Y-128825273D01*
X102114394Y-128950087D01*
X102049925Y-129093543D01*
X102025984Y-129272126D01*
X102025450Y-129309292D01*
X102034937Y-129456052D01*
X102070015Y-129567841D01*
X102140613Y-129671225D01*
X102175188Y-129709951D01*
X102253667Y-129794177D01*
X102185098Y-129815940D01*
X102088195Y-129868620D01*
X101981819Y-129960018D01*
X101884728Y-130071971D01*
X101827203Y-130162468D01*
X101787618Y-130261769D01*
X101762126Y-130387319D01*
X101747370Y-130556466D01*
X101746112Y-130581575D01*
X101746648Y-130827175D01*
X101776314Y-131026805D01*
X101838762Y-131192657D01*
X101937646Y-131336924D01*
X101988872Y-131391973D01*
X102060146Y-131459533D01*
X102129947Y-131514229D01*
X102205901Y-131557557D01*
X102295634Y-131591014D01*
X102406774Y-131616099D01*
X102546947Y-131634307D01*
X102723779Y-131647137D01*
X102944896Y-131656085D01*
X103217925Y-131662648D01*
X103382763Y-131665613D01*
X104279700Y-131680705D01*
X104279700Y-131165600D01*
X103803450Y-131165600D01*
X103181186Y-131165600D01*
X102956584Y-131164748D01*
X102785884Y-131161730D01*
X102659506Y-131155852D01*
X102567870Y-131146421D01*
X102501396Y-131132744D01*
X102450503Y-131114126D01*
X102446909Y-131112446D01*
X102338950Y-131028659D01*
X102264679Y-130905207D01*
X102224306Y-130756382D01*
X102218042Y-130596479D01*
X102246099Y-130439791D01*
X102308689Y-130300611D01*
X102406023Y-130193234D01*
X102433041Y-130174727D01*
X102476846Y-130150067D01*
X102523963Y-130131518D01*
X102584284Y-130117966D01*
X102667703Y-130108297D01*
X102784111Y-130101396D01*
X102943400Y-130096149D01*
X103155465Y-130091441D01*
X103175963Y-130091035D01*
X103803450Y-130078685D01*
X103803450Y-131165600D01*
X104279700Y-131165600D01*
X104279700Y-129101850D01*
X103803450Y-129101850D01*
X103803450Y-129609850D01*
X103216075Y-129609850D01*
X103007913Y-129609404D01*
X102853770Y-129607450D01*
X102744167Y-129603063D01*
X102669626Y-129595319D01*
X102620669Y-129583292D01*
X102587818Y-129566059D01*
X102565200Y-129546350D01*
X102515774Y-129457581D01*
X102502953Y-129344326D01*
X102529751Y-129235983D01*
X102532780Y-129230102D01*
X102569859Y-129185467D01*
X102632042Y-129151877D01*
X102726980Y-129128025D01*
X102862321Y-129112607D01*
X103045717Y-129104317D01*
X103284313Y-129101850D01*
X103803450Y-129101850D01*
X104279700Y-129101850D01*
X104279700Y-128620223D01*
X103430388Y-128633785D01*
G37*
X103430388Y-128633785D02*
X103147498Y-128639005D01*
X102920169Y-128645504D01*
X102740463Y-128654542D01*
X102600439Y-128667382D01*
X102492159Y-128685287D01*
X102407685Y-128709519D01*
X102339076Y-128741341D01*
X102278395Y-128782015D01*
X102226228Y-128825273D01*
X102114394Y-128950087D01*
X102049925Y-129093543D01*
X102025984Y-129272126D01*
X102025450Y-129309292D01*
X102034937Y-129456052D01*
X102070015Y-129567841D01*
X102140613Y-129671225D01*
X102175188Y-129709951D01*
X102253667Y-129794177D01*
X102185098Y-129815940D01*
X102088195Y-129868620D01*
X101981819Y-129960018D01*
X101884728Y-130071971D01*
X101827203Y-130162468D01*
X101787618Y-130261769D01*
X101762126Y-130387319D01*
X101747370Y-130556466D01*
X101746112Y-130581575D01*
X101746648Y-130827175D01*
X101776314Y-131026805D01*
X101838762Y-131192657D01*
X101937646Y-131336924D01*
X101988872Y-131391973D01*
X102060146Y-131459533D01*
X102129947Y-131514229D01*
X102205901Y-131557557D01*
X102295634Y-131591014D01*
X102406774Y-131616099D01*
X102546947Y-131634307D01*
X102723779Y-131647137D01*
X102944896Y-131656085D01*
X103217925Y-131662648D01*
X103382763Y-131665613D01*
X104279700Y-131680705D01*
X104279700Y-131165600D01*
X103803450Y-131165600D01*
X103181186Y-131165600D01*
X102956584Y-131164748D01*
X102785884Y-131161730D01*
X102659506Y-131155852D01*
X102567870Y-131146421D01*
X102501396Y-131132744D01*
X102450503Y-131114126D01*
X102446909Y-131112446D01*
X102338950Y-131028659D01*
X102264679Y-130905207D01*
X102224306Y-130756382D01*
X102218042Y-130596479D01*
X102246099Y-130439791D01*
X102308689Y-130300611D01*
X102406023Y-130193234D01*
X102433041Y-130174727D01*
X102476846Y-130150067D01*
X102523963Y-130131518D01*
X102584284Y-130117966D01*
X102667703Y-130108297D01*
X102784111Y-130101396D01*
X102943400Y-130096149D01*
X103155465Y-130091441D01*
X103175963Y-130091035D01*
X103803450Y-130078685D01*
X103803450Y-131165600D01*
X104279700Y-131165600D01*
X104279700Y-129101850D01*
X103803450Y-129101850D01*
X103803450Y-129609850D01*
X103216075Y-129609850D01*
X103007913Y-129609404D01*
X102853770Y-129607450D01*
X102744167Y-129603063D01*
X102669626Y-129595319D01*
X102620669Y-129583292D01*
X102587818Y-129566059D01*
X102565200Y-129546350D01*
X102515774Y-129457581D01*
X102502953Y-129344326D01*
X102529751Y-129235983D01*
X102532780Y-129230102D01*
X102569859Y-129185467D01*
X102632042Y-129151877D01*
X102726980Y-129128025D01*
X102862321Y-129112607D01*
X103045717Y-129104317D01*
X103284313Y-129101850D01*
X103803450Y-129101850D01*
X104279700Y-129101850D01*
X104279700Y-128620223D01*
X103430388Y-128633785D01*
G36*
X99473216Y-129580052D02*
G01*
X99332069Y-129854405D01*
X99191039Y-130128580D01*
X99054774Y-130393539D01*
X98927923Y-130640240D01*
X98815135Y-130859644D01*
X98721057Y-131042709D01*
X98650338Y-131180395D01*
X98638074Y-131204288D01*
X98562196Y-131355189D01*
X98499571Y-131485636D01*
X98454789Y-131585579D01*
X98432443Y-131644963D01*
X98431410Y-131656726D01*
X98469015Y-131664687D01*
X98553534Y-131670625D01*
X98668388Y-131673487D01*
X98697252Y-131673600D01*
X98946220Y-131673600D01*
X99064048Y-131435475D01*
X99181875Y-131197350D01*
X100932026Y-131197350D01*
X101049853Y-131435475D01*
X101167681Y-131673600D01*
X101421941Y-131673600D01*
X101555846Y-131670818D01*
X101635978Y-131661401D01*
X101671863Y-131643735D01*
X101676200Y-131630593D01*
X101662405Y-131594916D01*
X101622717Y-131507712D01*
X101559679Y-131374229D01*
X101475837Y-131199717D01*
X101373736Y-130989423D01*
X101255921Y-130748598D01*
X101221382Y-130678427D01*
X100691950Y-130678427D01*
X100661802Y-130681781D01*
X100577764Y-130684718D01*
X100449444Y-130687070D01*
X100286453Y-130688666D01*
X100098400Y-130689339D01*
X100070686Y-130689350D01*
X99857872Y-130689168D01*
X99700555Y-130688035D01*
X99590733Y-130685070D01*
X99520404Y-130679391D01*
X99481564Y-130670117D01*
X99466211Y-130656368D01*
X99466342Y-130637261D01*
X99470402Y-130623247D01*
X99490159Y-130575446D01*
X99533183Y-130480224D01*
X99594964Y-130347266D01*
X99670993Y-130186254D01*
X99756760Y-130006870D01*
X99777196Y-129964434D01*
X100063011Y-129371725D01*
X100377481Y-130019614D01*
X100467647Y-130205841D01*
X100547718Y-130372098D01*
X100613779Y-130510184D01*
X100661914Y-130611898D01*
X100688208Y-130669036D01*
X100691950Y-130678427D01*
X101221382Y-130678427D01*
X101124937Y-130482490D01*
X100983328Y-130196347D01*
X100880511Y-129989484D01*
X100084821Y-128391381D01*
X99473216Y-129580052D01*
G37*
X99473216Y-129580052D02*
X99332069Y-129854405D01*
X99191039Y-130128580D01*
X99054774Y-130393539D01*
X98927923Y-130640240D01*
X98815135Y-130859644D01*
X98721057Y-131042709D01*
X98650338Y-131180395D01*
X98638074Y-131204288D01*
X98562196Y-131355189D01*
X98499571Y-131485636D01*
X98454789Y-131585579D01*
X98432443Y-131644963D01*
X98431410Y-131656726D01*
X98469015Y-131664687D01*
X98553534Y-131670625D01*
X98668388Y-131673487D01*
X98697252Y-131673600D01*
X98946220Y-131673600D01*
X99064048Y-131435475D01*
X99181875Y-131197350D01*
X100932026Y-131197350D01*
X101049853Y-131435475D01*
X101167681Y-131673600D01*
X101421941Y-131673600D01*
X101555846Y-131670818D01*
X101635978Y-131661401D01*
X101671863Y-131643735D01*
X101676200Y-131630593D01*
X101662405Y-131594916D01*
X101622717Y-131507712D01*
X101559679Y-131374229D01*
X101475837Y-131199717D01*
X101373736Y-130989423D01*
X101255921Y-130748598D01*
X101221382Y-130678427D01*
X100691950Y-130678427D01*
X100661802Y-130681781D01*
X100577764Y-130684718D01*
X100449444Y-130687070D01*
X100286453Y-130688666D01*
X100098400Y-130689339D01*
X100070686Y-130689350D01*
X99857872Y-130689168D01*
X99700555Y-130688035D01*
X99590733Y-130685070D01*
X99520404Y-130679391D01*
X99481564Y-130670117D01*
X99466211Y-130656368D01*
X99466342Y-130637261D01*
X99470402Y-130623247D01*
X99490159Y-130575446D01*
X99533183Y-130480224D01*
X99594964Y-130347266D01*
X99670993Y-130186254D01*
X99756760Y-130006870D01*
X99777196Y-129964434D01*
X100063011Y-129371725D01*
X100377481Y-130019614D01*
X100467647Y-130205841D01*
X100547718Y-130372098D01*
X100613779Y-130510184D01*
X100661914Y-130611898D01*
X100688208Y-130669036D01*
X100691950Y-130678427D01*
X101221382Y-130678427D01*
X101124937Y-130482490D01*
X100983328Y-130196347D01*
X100880511Y-129989484D01*
X100084821Y-128391381D01*
X99473216Y-129580052D01*
G36*
X96469200Y-129095682D02*
G01*
X97038418Y-129106703D01*
X97244597Y-129111280D01*
X97397349Y-129116643D01*
X97506743Y-129123964D01*
X97582851Y-129134416D01*
X97635744Y-129149170D01*
X97675493Y-129169400D01*
X97695229Y-129183156D01*
X97784962Y-129286363D01*
X97825456Y-129415312D01*
X97815859Y-129554626D01*
X97755320Y-129688927D01*
X97725390Y-129727937D01*
X97693295Y-129762473D01*
X97658752Y-129786921D01*
X97610194Y-129803665D01*
X97536056Y-129815084D01*
X97424770Y-129823561D01*
X97264769Y-129831475D01*
X97210868Y-129833862D01*
X96960769Y-129849436D01*
X96762883Y-129873721D01*
X96606159Y-129909961D01*
X96479547Y-129961397D01*
X96371994Y-130031274D01*
X96291097Y-130103782D01*
X96165466Y-130267737D01*
X96089449Y-130461439D01*
X96061240Y-130690770D01*
X96065700Y-130837588D01*
X96106483Y-131076152D01*
X96191411Y-131270575D01*
X96323832Y-131425374D01*
X96507093Y-131545068D01*
X96627950Y-131596542D01*
X96708317Y-131615529D01*
X96833317Y-131632274D01*
X96992581Y-131646534D01*
X97175740Y-131658068D01*
X97372424Y-131666631D01*
X97572266Y-131671982D01*
X97764895Y-131673879D01*
X97939943Y-131672077D01*
X98087041Y-131666336D01*
X98195820Y-131656411D01*
X98255910Y-131642062D01*
X98264074Y-131634821D01*
X98272160Y-131579642D01*
X98275003Y-131483480D01*
X98272647Y-131384505D01*
X98263075Y-131181475D01*
X97516950Y-131165600D01*
X97241771Y-131158367D01*
X97026446Y-131149538D01*
X96867345Y-131138861D01*
X96760837Y-131126084D01*
X96703290Y-131110958D01*
X96699717Y-131109096D01*
X96609927Y-131022673D01*
X96552682Y-130890076D01*
X96532700Y-130723177D01*
X96540791Y-130609990D01*
X96571993Y-130528394D01*
X96620013Y-130465915D01*
X96690410Y-130403398D01*
X96779035Y-130359078D01*
X96896904Y-130330341D01*
X97055031Y-130314574D01*
X97264434Y-130309165D01*
X97281000Y-130309107D01*
X97520727Y-130300118D01*
X97710945Y-130272034D01*
X97863721Y-130221273D01*
X97991123Y-130144252D01*
X98069458Y-130075013D01*
X98182592Y-129929679D01*
X98253450Y-129757435D01*
X98285614Y-129547516D01*
X98288211Y-129418029D01*
X98263132Y-129189525D01*
X98193590Y-129004193D01*
X98076485Y-128857025D01*
X97908717Y-128743014D01*
X97854530Y-128717353D01*
X97791160Y-128691928D01*
X97725693Y-128672815D01*
X97647231Y-128658810D01*
X97544875Y-128648711D01*
X97407726Y-128641315D01*
X97224885Y-128635418D01*
X97080388Y-128631911D01*
X96469200Y-128618073D01*
X96469200Y-129095682D01*
G37*
X96469200Y-129095682D02*
X97038418Y-129106703D01*
X97244597Y-129111280D01*
X97397349Y-129116643D01*
X97506743Y-129123964D01*
X97582851Y-129134416D01*
X97635744Y-129149170D01*
X97675493Y-129169400D01*
X97695229Y-129183156D01*
X97784962Y-129286363D01*
X97825456Y-129415312D01*
X97815859Y-129554626D01*
X97755320Y-129688927D01*
X97725390Y-129727937D01*
X97693295Y-129762473D01*
X97658752Y-129786921D01*
X97610194Y-129803665D01*
X97536056Y-129815084D01*
X97424770Y-129823561D01*
X97264769Y-129831475D01*
X97210868Y-129833862D01*
X96960769Y-129849436D01*
X96762883Y-129873721D01*
X96606159Y-129909961D01*
X96479547Y-129961397D01*
X96371994Y-130031274D01*
X96291097Y-130103782D01*
X96165466Y-130267737D01*
X96089449Y-130461439D01*
X96061240Y-130690770D01*
X96065700Y-130837588D01*
X96106483Y-131076152D01*
X96191411Y-131270575D01*
X96323832Y-131425374D01*
X96507093Y-131545068D01*
X96627950Y-131596542D01*
X96708317Y-131615529D01*
X96833317Y-131632274D01*
X96992581Y-131646534D01*
X97175740Y-131658068D01*
X97372424Y-131666631D01*
X97572266Y-131671982D01*
X97764895Y-131673879D01*
X97939943Y-131672077D01*
X98087041Y-131666336D01*
X98195820Y-131656411D01*
X98255910Y-131642062D01*
X98264074Y-131634821D01*
X98272160Y-131579642D01*
X98275003Y-131483480D01*
X98272647Y-131384505D01*
X98263075Y-131181475D01*
X97516950Y-131165600D01*
X97241771Y-131158367D01*
X97026446Y-131149538D01*
X96867345Y-131138861D01*
X96760837Y-131126084D01*
X96703290Y-131110958D01*
X96699717Y-131109096D01*
X96609927Y-131022673D01*
X96552682Y-130890076D01*
X96532700Y-130723177D01*
X96540791Y-130609990D01*
X96571993Y-130528394D01*
X96620013Y-130465915D01*
X96690410Y-130403398D01*
X96779035Y-130359078D01*
X96896904Y-130330341D01*
X97055031Y-130314574D01*
X97264434Y-130309165D01*
X97281000Y-130309107D01*
X97520727Y-130300118D01*
X97710945Y-130272034D01*
X97863721Y-130221273D01*
X97991123Y-130144252D01*
X98069458Y-130075013D01*
X98182592Y-129929679D01*
X98253450Y-129757435D01*
X98285614Y-129547516D01*
X98288211Y-129418029D01*
X98263132Y-129189525D01*
X98193590Y-129004193D01*
X98076485Y-128857025D01*
X97908717Y-128743014D01*
X97854530Y-128717353D01*
X97791160Y-128691928D01*
X97725693Y-128672815D01*
X97647231Y-128658810D01*
X97544875Y-128648711D01*
X97407726Y-128641315D01*
X97224885Y-128635418D01*
X97080388Y-128631911D01*
X96469200Y-128618073D01*
X96469200Y-129095682D01*
G36*
X95508763Y-128632146D02*
G01*
X95278575Y-128641475D01*
X95246825Y-129705997D01*
X94707426Y-129165798D01*
X94168026Y-128625599D01*
X93834301Y-128627262D01*
X93500575Y-128628925D01*
X94278450Y-129390016D01*
X95056325Y-130151108D01*
X94278450Y-130910836D01*
X93500575Y-131670565D01*
X93834301Y-131672082D01*
X94168026Y-131673600D01*
X94707426Y-131133401D01*
X95246825Y-130593202D01*
X95262700Y-131125463D01*
X95278575Y-131657725D01*
X95508763Y-131667053D01*
X95738950Y-131676381D01*
X95738950Y-128622818D01*
X95508763Y-128632146D01*
G37*
X95508763Y-128632146D02*
X95278575Y-128641475D01*
X95246825Y-129705997D01*
X94707426Y-129165798D01*
X94168026Y-128625599D01*
X93834301Y-128627262D01*
X93500575Y-128628925D01*
X94278450Y-129390016D01*
X95056325Y-130151108D01*
X94278450Y-130910836D01*
X93500575Y-131670565D01*
X93834301Y-131672082D01*
X94168026Y-131673600D01*
X94707426Y-131133401D01*
X95246825Y-130593202D01*
X95262700Y-131125463D01*
X95278575Y-131657725D01*
X95508763Y-131667053D01*
X95738950Y-131676381D01*
X95738950Y-128622818D01*
X95508763Y-128632146D01*
G36*
X91579700Y-129101850D02*
G01*
X92722700Y-129101850D01*
X92722700Y-129609850D01*
X91579700Y-129609850D01*
X91579700Y-130086100D01*
X92722700Y-130086100D01*
X92722700Y-131164490D01*
X91936888Y-131172982D01*
X91151075Y-131181475D01*
X91151075Y-131657725D01*
X92153408Y-131666100D01*
X92399642Y-131667492D01*
X92625291Y-131667491D01*
X92822570Y-131666197D01*
X92983697Y-131663711D01*
X93100888Y-131660134D01*
X93166360Y-131655566D01*
X93177346Y-131652871D01*
X93181696Y-131617704D01*
X93185753Y-131525335D01*
X93189428Y-131382061D01*
X93192632Y-131194179D01*
X93195275Y-130967987D01*
X93197269Y-130709782D01*
X93198524Y-130425862D01*
X93198950Y-130128433D01*
X93198950Y-128625600D01*
X91579700Y-128625600D01*
X91579700Y-129101850D01*
G37*
X91579700Y-129101850D02*
X92722700Y-129101850D01*
X92722700Y-129609850D01*
X91579700Y-129609850D01*
X91579700Y-130086100D01*
X92722700Y-130086100D01*
X92722700Y-131164490D01*
X91936888Y-131172982D01*
X91151075Y-131181475D01*
X91151075Y-131657725D01*
X92153408Y-131666100D01*
X92399642Y-131667492D01*
X92625291Y-131667491D01*
X92822570Y-131666197D01*
X92983697Y-131663711D01*
X93100888Y-131660134D01*
X93166360Y-131655566D01*
X93177346Y-131652871D01*
X93181696Y-131617704D01*
X93185753Y-131525335D01*
X93189428Y-131382061D01*
X93192632Y-131194179D01*
X93195275Y-130967987D01*
X93197269Y-130709782D01*
X93198524Y-130425862D01*
X93198950Y-130128433D01*
X93198950Y-128625600D01*
X91579700Y-128625600D01*
X91579700Y-129101850D01*
G36*
X88817450Y-129100006D02*
G01*
X89238138Y-129108865D01*
X89658825Y-129117725D01*
X89667123Y-130395662D01*
X89675421Y-131673600D01*
X89892019Y-131673600D01*
X90003954Y-131670703D01*
X90089353Y-131663107D01*
X90129761Y-131652456D01*
X90129784Y-131652433D01*
X90134418Y-131617059D01*
X90138702Y-131525072D01*
X90142521Y-131383358D01*
X90145764Y-131198802D01*
X90148317Y-130978290D01*
X90150065Y-130728710D01*
X90150897Y-130456946D01*
X90150950Y-130366558D01*
X90150950Y-129101850D01*
X90944700Y-129101850D01*
X90944700Y-128625600D01*
X88817450Y-128625600D01*
X88817450Y-129100006D01*
G37*
X88817450Y-129100006D02*
X89238138Y-129108865D01*
X89658825Y-129117725D01*
X89667123Y-130395662D01*
X89675421Y-131673600D01*
X89892019Y-131673600D01*
X90003954Y-131670703D01*
X90089353Y-131663107D01*
X90129761Y-131652456D01*
X90129784Y-131652433D01*
X90134418Y-131617059D01*
X90138702Y-131525072D01*
X90142521Y-131383358D01*
X90145764Y-131198802D01*
X90148317Y-130978290D01*
X90150065Y-130728710D01*
X90150897Y-130456946D01*
X90150950Y-130366558D01*
X90150950Y-129101850D01*
X90944700Y-129101850D01*
X90944700Y-128625600D01*
X88817450Y-128625600D01*
X88817450Y-129100006D01*
G36*
X83459638Y-128633001D02*
G01*
X82642075Y-128641475D01*
X82623419Y-129101849D01*
X83212185Y-129101849D01*
X83800950Y-129101850D01*
X83800950Y-129608417D01*
X83221513Y-129617071D01*
X82642075Y-129625725D01*
X82632747Y-129855912D01*
X82623419Y-130086100D01*
X83800950Y-130086100D01*
X83800950Y-131165600D01*
X82213450Y-131165600D01*
X82213450Y-131673600D01*
X83224159Y-131673600D01*
X83471431Y-131672958D01*
X83698117Y-131671139D01*
X83896471Y-131668302D01*
X84058747Y-131664606D01*
X84177200Y-131660209D01*
X84244084Y-131655270D01*
X84256034Y-131652433D01*
X84260295Y-131617357D01*
X84264269Y-131525075D01*
X84267869Y-131381881D01*
X84271008Y-131194069D01*
X84273598Y-130967932D01*
X84275551Y-130709764D01*
X84276781Y-130425859D01*
X84277200Y-130127897D01*
X84277200Y-128624527D01*
X83459638Y-128633001D01*
G37*
X83459638Y-128633001D02*
X82642075Y-128641475D01*
X82623419Y-129101849D01*
X83212185Y-129101849D01*
X83800950Y-129101850D01*
X83800950Y-129608417D01*
X83221513Y-129617071D01*
X82642075Y-129625725D01*
X82632747Y-129855912D01*
X82623419Y-130086100D01*
X83800950Y-130086100D01*
X83800950Y-131165600D01*
X82213450Y-131165600D01*
X82213450Y-131673600D01*
X83224159Y-131673600D01*
X83471431Y-131672958D01*
X83698117Y-131671139D01*
X83896471Y-131668302D01*
X84058747Y-131664606D01*
X84177200Y-131660209D01*
X84244084Y-131655270D01*
X84256034Y-131652433D01*
X84260295Y-131617357D01*
X84264269Y-131525075D01*
X84267869Y-131381881D01*
X84271008Y-131194069D01*
X84273598Y-130967932D01*
X84275551Y-130709764D01*
X84276781Y-130425859D01*
X84277200Y-130127897D01*
X84277200Y-128624527D01*
X83459638Y-128633001D01*
G36*
X80498990Y-128439704D02*
G01*
X80456320Y-128520709D01*
X80391159Y-128645783D01*
X80306647Y-128808808D01*
X80205927Y-129003668D01*
X80092137Y-129224248D01*
X79968421Y-129464430D01*
X79837917Y-129718099D01*
X79703768Y-129979137D01*
X79569114Y-130241429D01*
X79437096Y-130498858D01*
X79310855Y-130745308D01*
X79193532Y-130974663D01*
X79088267Y-131180806D01*
X78998203Y-131357620D01*
X78926478Y-131498990D01*
X78876235Y-131598800D01*
X78850615Y-131650932D01*
X78847950Y-131657170D01*
X78877269Y-131664591D01*
X78955511Y-131670269D01*
X79068106Y-131673316D01*
X79118085Y-131673600D01*
X79388220Y-131673600D01*
X79506048Y-131435475D01*
X79623875Y-131197350D01*
X81374026Y-131197350D01*
X81491853Y-131435475D01*
X81609681Y-131673600D01*
X81863941Y-131673600D01*
X81981960Y-131670497D01*
X82070858Y-131662252D01*
X82115619Y-131650458D01*
X82118200Y-131646622D01*
X82104652Y-131613677D01*
X82066035Y-131530710D01*
X82005388Y-131403863D01*
X81925751Y-131239280D01*
X81830165Y-131043104D01*
X81721669Y-130821479D01*
X81656757Y-130689350D01*
X81131871Y-130689350D01*
X79866872Y-130689350D01*
X80138505Y-130125787D01*
X80224546Y-129946197D01*
X80302693Y-129781060D01*
X80368064Y-129640851D01*
X80415780Y-129536044D01*
X80440960Y-129477113D01*
X80441776Y-129474912D01*
X80470604Y-129412666D01*
X80494119Y-129387889D01*
X80506572Y-129400039D01*
X80530543Y-129439329D01*
X80568297Y-129510335D01*
X80622102Y-129617633D01*
X80694225Y-129765797D01*
X80786932Y-129959404D01*
X80902491Y-130203028D01*
X80993426Y-130395662D01*
X81131871Y-130689350D01*
X81656757Y-130689350D01*
X81603304Y-130580547D01*
X81478108Y-130326453D01*
X81349124Y-130065339D01*
X81219389Y-129803350D01*
X81091945Y-129546627D01*
X80969832Y-129301315D01*
X80856088Y-129073556D01*
X80753755Y-128869495D01*
X80665872Y-128695275D01*
X80595480Y-128557038D01*
X80545617Y-128460928D01*
X80519325Y-128413089D01*
X80516028Y-128408883D01*
X80498990Y-128439704D01*
G37*
X80498990Y-128439704D02*
X80456320Y-128520709D01*
X80391159Y-128645783D01*
X80306647Y-128808808D01*
X80205927Y-129003668D01*
X80092137Y-129224248D01*
X79968421Y-129464430D01*
X79837917Y-129718099D01*
X79703768Y-129979137D01*
X79569114Y-130241429D01*
X79437096Y-130498858D01*
X79310855Y-130745308D01*
X79193532Y-130974663D01*
X79088267Y-131180806D01*
X78998203Y-131357620D01*
X78926478Y-131498990D01*
X78876235Y-131598800D01*
X78850615Y-131650932D01*
X78847950Y-131657170D01*
X78877269Y-131664591D01*
X78955511Y-131670269D01*
X79068106Y-131673316D01*
X79118085Y-131673600D01*
X79388220Y-131673600D01*
X79506048Y-131435475D01*
X79623875Y-131197350D01*
X81374026Y-131197350D01*
X81491853Y-131435475D01*
X81609681Y-131673600D01*
X81863941Y-131673600D01*
X81981960Y-131670497D01*
X82070858Y-131662252D01*
X82115619Y-131650458D01*
X82118200Y-131646622D01*
X82104652Y-131613677D01*
X82066035Y-131530710D01*
X82005388Y-131403863D01*
X81925751Y-131239280D01*
X81830165Y-131043104D01*
X81721669Y-130821479D01*
X81656757Y-130689350D01*
X81131871Y-130689350D01*
X79866872Y-130689350D01*
X80138505Y-130125787D01*
X80224546Y-129946197D01*
X80302693Y-129781060D01*
X80368064Y-129640851D01*
X80415780Y-129536044D01*
X80440960Y-129477113D01*
X80441776Y-129474912D01*
X80470604Y-129412666D01*
X80494119Y-129387889D01*
X80506572Y-129400039D01*
X80530543Y-129439329D01*
X80568297Y-129510335D01*
X80622102Y-129617633D01*
X80694225Y-129765797D01*
X80786932Y-129959404D01*
X80902491Y-130203028D01*
X80993426Y-130395662D01*
X81131871Y-130689350D01*
X81656757Y-130689350D01*
X81603304Y-130580547D01*
X81478108Y-130326453D01*
X81349124Y-130065339D01*
X81219389Y-129803350D01*
X81091945Y-129546627D01*
X80969832Y-129301315D01*
X80856088Y-129073556D01*
X80753755Y-128869495D01*
X80665872Y-128695275D01*
X80595480Y-128557038D01*
X80545617Y-128460928D01*
X80519325Y-128413089D01*
X80516028Y-128408883D01*
X80498990Y-128439704D01*
G36*
X74664888Y-128633001D02*
G01*
X73847325Y-128641475D01*
X73838012Y-128870940D01*
X73828698Y-129100406D01*
X74409512Y-129109065D01*
X74990325Y-129117725D01*
X74999586Y-129363066D01*
X75008846Y-129608407D01*
X74428086Y-129617066D01*
X73847325Y-129625725D01*
X73838012Y-129855190D01*
X73828698Y-130084656D01*
X74409512Y-130093315D01*
X74990325Y-130101975D01*
X74999031Y-130633787D01*
X75007736Y-131165600D01*
X73418700Y-131165600D01*
X73418700Y-131673600D01*
X74429409Y-131673600D01*
X74676681Y-131672958D01*
X74903367Y-131671139D01*
X75101721Y-131668302D01*
X75263997Y-131664606D01*
X75382450Y-131660209D01*
X75449334Y-131655270D01*
X75461284Y-131652433D01*
X75465545Y-131617357D01*
X75469519Y-131525075D01*
X75473119Y-131381881D01*
X75476258Y-131194069D01*
X75478848Y-130967932D01*
X75480801Y-130709764D01*
X75482031Y-130425859D01*
X75482450Y-130127897D01*
X75482450Y-128624527D01*
X74664888Y-128633001D01*
G37*
X74664888Y-128633001D02*
X73847325Y-128641475D01*
X73838012Y-128870940D01*
X73828698Y-129100406D01*
X74409512Y-129109065D01*
X74990325Y-129117725D01*
X74999586Y-129363066D01*
X75008846Y-129608407D01*
X74428086Y-129617066D01*
X73847325Y-129625725D01*
X73838012Y-129855190D01*
X73828698Y-130084656D01*
X74409512Y-130093315D01*
X74990325Y-130101975D01*
X74999031Y-130633787D01*
X75007736Y-131165600D01*
X73418700Y-131165600D01*
X73418700Y-131673600D01*
X74429409Y-131673600D01*
X74676681Y-131672958D01*
X74903367Y-131671139D01*
X75101721Y-131668302D01*
X75263997Y-131664606D01*
X75382450Y-131660209D01*
X75449334Y-131655270D01*
X75461284Y-131652433D01*
X75465545Y-131617357D01*
X75469519Y-131525075D01*
X75473119Y-131381881D01*
X75476258Y-131194069D01*
X75478848Y-130967932D01*
X75480801Y-130709764D01*
X75482031Y-130425859D01*
X75482450Y-130127897D01*
X75482450Y-128624527D01*
X74664888Y-128633001D01*
M02*
