M48
; DRILL file {KiCad 5.1.10-88a1d61d58~90~ubuntu21.04.1} date Sat Sep 18 02:20:49 2021
; FORMAT={-:-/ absolute / inch / decimal}
; #@! TF.CreationDate,2021-09-18T02:20:49+02:00
; #@! TF.GenerationSoftware,Kicad,Pcbnew,5.1.10-88a1d61d58~90~ubuntu21.04.1
FMAT,2
INCH
T1C0.0157
T2C0.0236
T3C0.0276
T4C0.0315
T5C0.0354
T6C0.0394
T7C0.0433
T8C0.0579
T9C0.0591
T10C0.0866
T11C0.0689
T12C0.1200
T13C0.1570
%
G90
G05
T1
X1.501Y-4.587
X1.66Y-5.53
X5.8125Y-3.7812
X6.2812Y-4.5625
X6.3125Y-4.5312
X6.3438Y-4.5
X6.375Y-4.4688
X6.4062Y-4.4375
X6.4375Y-4.4062
X6.4688Y-4.375
X6.75Y-3.9062
X7.1562Y-4.1875
X7.7264Y-3.438
X7.7266Y-3.4902
X7.7599Y-3.438
X7.7601Y-3.4902
X7.7934Y-3.438
X7.7936Y-3.4902
X7.8268Y-3.438
X7.827Y-3.4902
X7.8438Y-3.5625
X7.8603Y-3.438
X7.8605Y-3.4902
X7.8937Y-3.438
X7.8939Y-3.4902
X7.9062Y-3.5938
X7.9272Y-3.438
X7.9274Y-3.4902
X7.9609Y-3.438
X7.9609Y-3.4902
X8.45Y-3.735
X8.5312Y-4.1875
X8.5625Y-4.4062
X9.9393Y-3.8193
X10.0Y-3.9375
X10.0625Y-3.8125
X12.8753Y-4.8265
X13.5938Y-3.75
X13.9462Y-5.2299
X14.4475Y-5.24
X14.5Y-3.5745
X14.8575Y-5.59
T2
X7.2812Y-3.6284
X7.2812Y-3.6875
T3
X6.8937Y-3.8125
X7.0938Y-3.8125
X7.125Y-3.2287
X7.125Y-3.4295
X7.375Y-3.2311
X7.375Y-3.4311
X7.4688Y-3.2311
X7.4688Y-3.4311
X8.4375Y-3.2338
X8.4375Y-3.4337
X8.5312Y-3.2338
X8.5312Y-3.4337
X8.575Y-3.685
X8.575Y-3.7887
X8.775Y-3.685
X8.775Y-3.7887
T4
X1.4062Y-3.5625
X1.4062Y-3.8625
X1.5312Y-3.625
X1.5312Y-3.925
X1.6562Y-3.6875
X1.6562Y-3.9875
X1.7812Y-3.75
X1.7812Y-4.05
X1.9688Y-3.5625
X1.9688Y-3.8625
X2.0938Y-3.625
X2.0938Y-3.925
X2.2188Y-3.6875
X2.2188Y-3.9875
X2.3438Y-3.75
X2.3438Y-4.05
X2.5312Y-3.5625
X2.5312Y-3.8625
X2.6562Y-3.625
X2.6562Y-3.925
X2.7812Y-3.6875
X2.7812Y-3.9875
X2.9062Y-3.75
X2.9062Y-4.05
X3.0938Y-3.5625
X3.0938Y-3.8625
X3.2188Y-3.625
X3.2188Y-3.925
X3.3438Y-3.6875
X3.3438Y-3.9875
X3.4688Y-3.75
X3.4688Y-4.05
X3.6562Y-3.5625
X3.6562Y-3.8625
X3.7812Y-3.625
X3.7812Y-3.925
X3.9062Y-3.6875
X3.9062Y-3.9875
X4.0312Y-3.75
X4.0312Y-4.05
X4.2188Y-3.5625
X4.2188Y-3.8625
X4.3438Y-3.625
X4.3438Y-3.925
X4.4688Y-3.6875
X4.4688Y-3.9875
X4.5938Y-3.75
X4.5938Y-4.05
X4.7812Y-3.5625
X4.7812Y-3.8625
X4.9062Y-3.625
X4.9062Y-3.925
X5.0312Y-3.6875
X5.0312Y-3.9875
X5.1562Y-3.75
X5.1562Y-4.05
X5.3438Y-3.5625
X5.3438Y-3.8625
X5.4688Y-3.625
X5.4688Y-3.925
X5.5938Y-3.6875
X5.5938Y-3.9875
X5.7188Y-3.75
X5.7188Y-4.05
X6.895Y-3.9
X6.895Y-4.5
X6.995Y-3.9
X6.995Y-4.5
X7.095Y-3.9
X7.095Y-4.5
X7.195Y-3.9
X7.195Y-4.5
X7.2406Y-4.5938
X7.295Y-3.9
X7.295Y-4.5
X7.395Y-3.9
X7.395Y-4.5
X7.4375Y-4.5938
X7.495Y-3.9
X7.495Y-4.5
X7.5525Y-4.625
X7.5525Y-4.7234
X7.595Y-3.9
X7.595Y-4.5
X7.6031Y-3.8087
X7.695Y-3.9
X7.695Y-4.5
X7.7504Y-4.6587
X7.795Y-3.9
X7.795Y-4.5
X7.8Y-3.8087
X7.895Y-3.9
X7.895Y-4.5
X7.9425Y-4.6587
X7.995Y-3.9
X7.995Y-4.5
X8.0175Y-3.6862
X8.0175Y-3.7887
X8.095Y-3.9
X8.095Y-4.5
X8.1375Y-4.6288
X8.1375Y-4.7272
X8.195Y-3.9
X8.195Y-4.5
X8.295Y-3.9
X8.295Y-4.5
X8.3175Y-3.6862
X8.3175Y-3.7887
X8.395Y-3.9
X8.395Y-4.5
X8.495Y-3.9
X8.495Y-4.5
X8.595Y-3.9
X8.595Y-4.5
X8.695Y-3.9
X8.695Y-4.5
X8.795Y-3.9
X8.795Y-4.5
X9.9688Y-3.75
X9.9688Y-4.05
X10.0938Y-3.6875
X10.0938Y-3.9875
X10.2188Y-3.625
X10.2188Y-3.925
X10.3438Y-3.5625
X10.3438Y-3.8625
X10.5312Y-3.75
X10.5312Y-4.05
X10.6562Y-3.6875
X10.6562Y-3.9875
X10.7812Y-3.625
X10.7812Y-3.925
X10.9062Y-3.5625
X10.9062Y-3.8625
X11.0938Y-3.75
X11.0938Y-4.05
X11.2188Y-3.6875
X11.2188Y-3.9875
X11.3438Y-3.625
X11.3438Y-3.925
X11.4688Y-3.5625
X11.4688Y-3.8625
X11.6562Y-3.75
X11.6562Y-4.05
X11.7812Y-3.6875
X11.7812Y-3.9875
X11.9062Y-3.625
X11.9062Y-3.925
X12.0312Y-3.5625
X12.0312Y-3.8625
X12.2188Y-3.75
X12.2188Y-4.05
X12.3438Y-3.6875
X12.3438Y-3.9875
X12.4688Y-3.625
X12.4688Y-3.925
X12.5938Y-3.5625
X12.5938Y-3.8625
X12.7812Y-3.75
X12.7812Y-4.05
X12.9062Y-3.6875
X12.9062Y-3.9875
X13.0312Y-3.625
X13.0312Y-3.925
X13.1562Y-3.5625
X13.1562Y-3.8625
X13.195Y-4.985
X13.3438Y-3.75
X13.3438Y-4.05
X13.4688Y-3.6875
X13.4688Y-3.9875
X13.495Y-4.985
X13.5938Y-3.625
X13.5938Y-3.925
X13.7188Y-3.5625
X13.7188Y-3.8625
X13.9062Y-3.75
X13.9062Y-4.05
X14.0312Y-3.6875
X14.0312Y-3.9875
X14.1562Y-3.625
X14.1562Y-3.925
X14.2812Y-3.5625
X14.2812Y-3.8625
X14.4689Y-3.7501
X14.4689Y-4.0501
X14.5325Y-4.945
X14.5936Y-3.6874
X14.5936Y-3.9874
X14.7188Y-3.625
X14.7188Y-3.925
X14.72Y-5.6575
X14.8325Y-4.945
X14.8438Y-3.5625
X14.8438Y-3.8625
X14.91Y-6.45
X15.02Y-5.6575
X15.21Y-6.45
T5
X8.1813Y-3.3125
X8.2812Y-3.3125
T6
X1.3711Y-5.768
X1.3711Y-6.3389
X1.4696Y-5.768
X1.568Y-5.768
X1.568Y-6.3389
X1.7451Y-4.267
X1.7451Y-4.8379
X1.8436Y-4.267
X1.942Y-4.267
X1.942Y-4.8379
X6.2737Y-3.2617
X6.2737Y-3.3617
X6.3738Y-3.2617
X6.3738Y-3.3617
X6.4737Y-3.2617
X6.4737Y-3.3617
X14.4951Y-4.266
X14.4951Y-4.8369
X14.5936Y-4.266
X14.692Y-4.266
X14.692Y-4.8369
X14.8711Y-5.768
X14.8711Y-6.3389
X14.9695Y-5.768
X15.068Y-5.768
X15.068Y-6.3389
T7
X8.7188Y-3.25
X8.7188Y-3.4272
X8.9747Y-3.25
X8.9747Y-3.4272
X9.1562Y-3.25
X9.1562Y-3.4272
X9.4122Y-3.25
X9.4122Y-3.4272
T8
X1.3187Y-5.9625
X1.5062Y-5.2125
X1.5687Y-5.8625
X1.6937Y-4.4625
X1.7562Y-5.1125
X1.9437Y-4.3625
X2.2563Y-7.5562
X2.35Y-6.0562
X2.5063Y-7.4562
X2.5375Y-6.0562
X2.5375Y-6.8062
X2.6Y-5.9562
X2.6313Y-4.5562
X2.6313Y-5.3062
X2.7875Y-5.9562
X2.7875Y-6.7062
X2.8813Y-4.4562
X2.8813Y-5.2062
X3.3813Y-4.5562
X3.5688Y-5.3062
X3.5688Y-6.0562
X3.6313Y-4.4562
X3.7563Y-6.8062
X3.8188Y-5.2062
X3.8188Y-5.9562
X4.0062Y-6.7062
X4.1312Y-4.4625
X4.3812Y-4.3625
X4.4353Y-5.2784
X4.4628Y-6.051
X4.4778Y-7.6574
X4.6737Y-6.8626
X4.7006Y-5.2326
X4.7281Y-6.0052
X4.7431Y-7.6115
X4.939Y-6.8168
X4.9581Y-4.6228
X5.1689Y-5.4344
X5.1964Y-6.207
X5.2234Y-4.577
X5.4073Y-7.0185
X5.4343Y-5.3885
X5.4617Y-6.1611
X5.6726Y-6.9727
X5.6917Y-4.7787
X5.8015Y-7.8691
X5.8891Y-7.886
X5.9025Y-5.5903
X5.93Y-6.3629
X5.957Y-4.7329
X6.0669Y-7.8233
X6.1409Y-7.1745
X6.1544Y-7.8402
X6.1679Y-5.5445
X6.1953Y-6.3171
X6.4062Y-7.1286
X6.4253Y-4.9347
X6.6361Y-5.7462
X6.6636Y-6.5188
X6.6906Y-4.8888
X6.8745Y-7.3304
X6.9015Y-5.7004
X6.9289Y-6.473
X6.9937Y-8.1225
X7.0841Y-8.141
X7.1398Y-7.2846
X7.1589Y-5.0906
X7.259Y-8.0767
X7.3494Y-8.0952
X7.4242Y-5.0448
X8.0303Y-5.8835
X8.1588Y-7.3897
X8.2412Y-5.0719
X8.2541Y-5.7337
X8.3697Y-6.5781
X8.3825Y-7.2399
X8.4649Y-4.9221
X8.5934Y-6.4283
X8.7639Y-5.7275
X8.8924Y-7.2338
X8.9566Y-7.9869
X8.9748Y-4.916
X8.9877Y-5.5778
X9.1033Y-6.4222
X9.1161Y-7.084
X9.1804Y-7.8371
X9.1986Y-4.7662
X9.327Y-6.2724
X9.4975Y-5.5716
X9.626Y-7.0778
X9.7084Y-4.76
X9.7213Y-5.4218
X9.8369Y-6.2662
X9.8498Y-6.928
X9.9322Y-4.6102
X10.0606Y-6.1164
X10.2312Y-5.4157
X10.3596Y-6.9219
X10.442Y-4.6041
X10.4549Y-5.2659
X10.5512Y-7.7166
X10.5705Y-6.1103
X10.5834Y-6.7721
X10.6658Y-4.4543
X10.775Y-7.5668
X10.7942Y-5.9605
X11.0687Y-5.275
X11.2562Y-4.4625
X11.2562Y-6.8062
X11.3187Y-5.175
X11.4437Y-6.0562
X11.5062Y-4.3625
X11.5062Y-6.7062
X11.6937Y-5.9562
X11.8187Y-5.3062
X12.0062Y-4.5562
X12.0062Y-6.8062
X12.0687Y-5.2062
X12.1937Y-6.0562
X12.2562Y-4.4562
X12.2562Y-6.7062
X12.3812Y-7.5562
X12.4437Y-5.9562
X12.5687Y-5.3062
X12.6312Y-7.4562
X12.7562Y-4.5562
X12.8187Y-5.2062
X13.0062Y-4.4562
X13.0375Y-6.8062
X13.1312Y-4.5562
X13.2875Y-6.7062
X13.3812Y-4.4562
X13.4125Y-6.0562
X13.5062Y-4.5562
X13.5062Y-5.3062
X13.5062Y-7.7437
X13.6625Y-5.9562
X13.7562Y-4.4562
X13.7562Y-5.2062
X13.7562Y-7.6437
X14.2562Y-6.9937
X14.2562Y-7.7437
X14.4437Y-4.4625
X14.5062Y-6.8937
X14.5062Y-7.6437
X14.6312Y-5.2125
X14.6937Y-4.3625
X14.8187Y-5.9625
X14.8812Y-5.1125
X15.0062Y-7.7437
X15.0687Y-5.8625
X15.2562Y-7.6437
T10
X1.1576Y-3.3137
X1.1576Y-3.9986
X1.625Y-7.4375
X5.0938Y-7.4062
X6.4656Y-3.9986
X7.8438Y-8.3438
X9.2219Y-3.9986
X10.5938Y-7.4062
X15.0Y-7.4062
X15.4674Y-3.3137
X15.4674Y-3.9986
T11
X1.2688Y-6.0625
X1.4563Y-5.3125
X1.6438Y-4.5625
X1.6687Y-6.0625
X1.8562Y-5.3125
X2.0437Y-4.5625
X2.2062Y-7.6562
X2.3Y-6.1562
X2.4875Y-6.1562
X2.4875Y-6.9062
X2.5812Y-4.6562
X2.5812Y-5.4062
X2.6062Y-7.6562
X2.7Y-6.1562
X2.8875Y-6.1562
X2.8875Y-6.9062
X2.9812Y-4.6562
X2.9812Y-5.4062
X3.3312Y-4.6562
X3.5187Y-5.4062
X3.5187Y-6.1562
X3.7062Y-6.9062
X3.7312Y-4.6562
X3.9187Y-5.4062
X3.9187Y-6.1562
X4.0812Y-4.5625
X4.1063Y-6.9062
X4.3656Y-5.3659
X4.3931Y-6.1385
X4.4081Y-7.7448
X4.4813Y-4.5625
X4.604Y-6.95
X4.7569Y-5.449
X4.7843Y-6.2216
X4.7994Y-7.8279
X4.8884Y-4.7102
X4.9952Y-7.0332
X5.0992Y-5.5218
X5.1267Y-6.2944
X5.2796Y-4.7934
X5.3376Y-7.106
X5.4905Y-5.605
X5.518Y-6.3775
X5.622Y-4.8661
X5.7288Y-7.1891
X5.7318Y-7.9565
X5.8194Y-7.9734
X5.8328Y-5.6777
X5.8603Y-6.4503
X6.0132Y-4.9493
X6.0712Y-7.2619
X6.1231Y-8.0397
X6.2106Y-8.0566
X6.2241Y-5.7609
X6.2516Y-6.5335
X6.3556Y-5.0221
X6.4624Y-7.3451
X6.5664Y-5.8337
X6.5939Y-6.6063
X6.7468Y-5.1052
X6.8048Y-7.4178
X6.924Y-8.2099
X6.9577Y-5.9168
X6.9852Y-6.6894
X7.0144Y-8.2284
X7.0892Y-5.178
X7.196Y-7.501
X7.3152Y-8.2931
X7.4056Y-8.3116
X7.4804Y-5.2612
X8.0022Y-5.9917
X8.1307Y-7.4979
X8.2131Y-5.1801
X8.3415Y-6.6863
X8.3935Y-5.9085
X8.5219Y-7.4147
X8.6043Y-5.0969
X8.7328Y-6.6032
X8.7358Y-5.8358
X8.8643Y-7.342
X8.9285Y-8.0951
X8.9467Y-5.0242
X9.0752Y-6.5304
X9.1271Y-5.7526
X9.2555Y-7.2588
X9.3198Y-8.0119
X9.338Y-4.941
X9.4664Y-6.4472
X9.4694Y-5.6798
X9.5979Y-7.186
X9.6803Y-4.8682
X9.8088Y-6.3745
X9.8607Y-5.5967
X9.9892Y-7.1029
X10.0716Y-4.7851
X10.2Y-6.2913
X10.203Y-5.5239
X10.3315Y-7.0301
X10.4139Y-4.7123
X10.5231Y-7.8248
X10.5424Y-6.2185
X10.5943Y-5.4407
X10.7228Y-6.9469
X10.8052Y-4.6291
X10.9144Y-7.7417
X10.9336Y-6.1354
X11.0187Y-5.375
X11.2062Y-4.5625
X11.2062Y-6.9062
X11.3937Y-6.1562
X11.4187Y-5.375
X11.6062Y-4.5625
X11.6062Y-6.9062
X11.7687Y-5.4062
X11.7937Y-6.1562
X11.9562Y-4.6562
X11.9562Y-6.9062
X12.1437Y-6.1562
X12.1687Y-5.4062
X12.3312Y-7.6562
X12.3562Y-4.6562
X12.3562Y-6.9062
X12.5187Y-5.4062
X12.5437Y-6.1562
X12.7062Y-4.6562
X12.7312Y-7.6562
X12.9187Y-5.4062
X12.9875Y-6.9062
X13.0812Y-4.6562
X13.1062Y-4.6562
X13.3625Y-6.1562
X13.3875Y-6.9062
X13.4562Y-4.6562
X13.4562Y-5.4062
X13.4562Y-7.8438
X13.4812Y-4.6562
X13.7625Y-6.1562
X13.8562Y-4.6562
X13.8562Y-5.4062
X13.8562Y-7.8438
X14.2062Y-7.0938
X14.2062Y-7.8438
X14.3937Y-4.5625
X14.5812Y-5.3125
X14.6062Y-7.0938
X14.6062Y-7.8438
X14.7687Y-6.0625
X14.7937Y-4.5625
X14.9562Y-7.8438
X14.9812Y-5.3125
X15.1687Y-6.0625
X15.3562Y-7.8438
T12
X2.2188Y-7.1812
X3.1562Y-7.1812
X5.4118Y-8.1696
X5.4993Y-8.1865
X6.3288Y-8.3646
X6.4163Y-8.3814
X8.7228Y-8.4199
X9.6398Y-8.225
X12.8125Y-4.3812
X13.0938Y-6.4312
X13.75Y-4.3812
X14.0312Y-6.4312
T13
X1.4688Y-6.0625
X1.6562Y-5.3125
X1.8438Y-4.5625
X2.2188Y-6.5812
X2.4062Y-7.6562
X2.5Y-6.1562
X2.6875Y-6.1562
X2.6875Y-6.9062
X2.7812Y-4.6562
X2.7812Y-5.4062
X3.1562Y-6.5812
X3.5312Y-4.6562
X3.7188Y-5.4062
X3.7188Y-6.1562
X3.9062Y-6.9062
X4.2812Y-4.5625
X4.5612Y-5.4074
X4.5887Y-6.18
X4.6037Y-7.7864
X4.7996Y-6.9916
X5.084Y-4.7518
X5.2949Y-5.5634
X5.3223Y-6.336
X5.5332Y-7.1475
X5.5365Y-7.5827
X5.6241Y-7.5996
X5.8176Y-4.9077
X5.9275Y-7.9981
X6.015Y-8.015
X6.0285Y-5.7193
X6.0559Y-6.4919
X6.2668Y-7.3035
X6.4535Y-7.7777
X6.5411Y-7.7946
X6.5512Y-5.0637
X6.7621Y-5.8752
X6.7895Y-6.6478
X7.0004Y-7.4594
X7.1196Y-8.2515
X7.21Y-8.27
X7.2848Y-5.2196
X8.1978Y-5.9501
X8.3263Y-7.4563
X8.4087Y-5.1385
X8.5372Y-6.6447
X8.5981Y-7.833
X8.9314Y-5.7942
X9.0599Y-7.3004
X9.1241Y-8.0535
X9.1423Y-4.9826
X9.2708Y-6.4888
X9.5151Y-7.6381
X9.6651Y-5.6382
X9.7935Y-7.1444
X9.8759Y-4.8267
X10.0044Y-6.3329
X10.3987Y-5.4823
X10.5271Y-6.9885
X10.6095Y-4.6707
X10.7188Y-7.7833
X10.738Y-6.1769
X11.2188Y-5.375
X11.4062Y-4.5625
X11.4062Y-6.9062
X11.5938Y-6.1562
X11.9688Y-5.4062
X12.1562Y-4.6562
X12.1562Y-6.9062
X12.3438Y-6.1562
X12.5312Y-7.6562
X12.7188Y-5.4062
X12.8125Y-4.9813
X12.9062Y-4.6562
X13.0938Y-5.8312
X13.1875Y-6.9062
X13.2812Y-4.6562
X13.5625Y-6.1562
X13.6562Y-4.6562
X13.6562Y-5.4062
X13.6562Y-7.8438
X13.75Y-4.9813
X14.0312Y-5.8312
X14.4062Y-7.0938
X14.4062Y-7.8438
X14.5938Y-4.5625
X14.7812Y-5.3125
X14.9688Y-6.0625
X15.1562Y-7.8438
T2
G00X7.6735Y-3.3343
M15
G01X7.6735Y-3.3028
M16
G05
G00X7.6735Y-3.4811
M15
G01X7.6735Y-3.422
M16
G05
G00X8.014Y-3.3343
M15
G01X8.014Y-3.3028
M16
G05
G00X8.014Y-3.4811
M15
G01X8.014Y-3.422
M16
G05
T9
G00X1.2491Y-6.0377
M15
G01X1.2491Y-6.0889
M16
G05
G00X1.6231Y-4.5367
M15
G01X1.6231Y-4.5879
M16
G05
G00X1.69Y-6.0377
M15
G01X1.69Y-6.0889
M16
G05
G00X2.064Y-4.5367
M15
G01X2.064Y-4.5879
M16
G05
G00X14.3731Y-4.5357
M15
G01X14.3731Y-4.5869
M16
G05
G00X14.7491Y-6.0377
M15
G01X14.7491Y-6.0889
M16
G05
G00X14.814Y-4.5357
M15
G01X14.814Y-4.5869
M16
G05
G00X15.19Y-6.0377
M15
G01X15.19Y-6.0889
M16
G05
T0
M30
