G04 #@! TF.GenerationSoftware,KiCad,Pcbnew,5.1.10-88a1d61d58~90~ubuntu21.04.1*
G04 #@! TF.CreationDate,2021-09-18T02:19:37+02:00*
G04 #@! TF.ProjectId,basketweave,6261736b-6574-4776-9561-76652e6b6963,rev?*
G04 #@! TF.SameCoordinates,Original*
G04 #@! TF.FileFunction,Soldermask,Bot*
G04 #@! TF.FilePolarity,Negative*
%FSLAX46Y46*%
G04 Gerber Fmt 4.6, Leading zero omitted, Abs format (unit mm)*
G04 Created by KiCad (PCBNEW 5.1.10-88a1d61d58~90~ubuntu21.04.1) date 2021-09-18 02:19:37*
%MOMM*%
%LPD*%
G01*
G04 APERTURE LIST*
%ADD10C,0.300000*%
G04 #@! TA.AperFunction,Profile*
%ADD11C,0.050000*%
G04 #@! TD*
%ADD12C,1.852000*%
%ADD13C,2.352000*%
%ADD14C,4.089800*%
%ADD15C,3.150000*%
%ADD16O,1.702000X1.702000*%
%ADD17C,2.102000*%
%ADD18C,4.502000*%
%ADD19C,1.902000*%
%ADD20O,0.752000X1.102000*%
%ADD21O,1.002000X2.502000*%
%ADD22O,1.002000X1.802000*%
%ADD23O,1.802000X1.802000*%
%ADD24C,1.702000*%
%ADD25O,1.502000X1.502000*%
%ADD26C,1.502000*%
%ADD27C,1.602000*%
%ADD28C,1.302000*%
%ADD29C,0.150000*%
G04 APERTURE END LIST*
D10*
X100560557Y-190342057D02*
X100346271Y-190413485D01*
X100274842Y-190484914D01*
X100203414Y-190627771D01*
X100203414Y-190842057D01*
X100274842Y-190984914D01*
X100346271Y-191056342D01*
X100489128Y-191127771D01*
X101060557Y-191127771D01*
X101060557Y-189627771D01*
X100560557Y-189627771D01*
X100417700Y-189699200D01*
X100346271Y-189770628D01*
X100274842Y-189913485D01*
X100274842Y-190056342D01*
X100346271Y-190199200D01*
X100417700Y-190270628D01*
X100560557Y-190342057D01*
X101060557Y-190342057D01*
X98917700Y-191127771D02*
X98917700Y-190342057D01*
X98989128Y-190199200D01*
X99131985Y-190127771D01*
X99417700Y-190127771D01*
X99560557Y-190199200D01*
X98917700Y-191056342D02*
X99060557Y-191127771D01*
X99417700Y-191127771D01*
X99560557Y-191056342D01*
X99631985Y-190913485D01*
X99631985Y-190770628D01*
X99560557Y-190627771D01*
X99417700Y-190556342D01*
X99060557Y-190556342D01*
X98917700Y-190484914D01*
X98274842Y-191056342D02*
X98131985Y-191127771D01*
X97846271Y-191127771D01*
X97703414Y-191056342D01*
X97631985Y-190913485D01*
X97631985Y-190842057D01*
X97703414Y-190699200D01*
X97846271Y-190627771D01*
X98060557Y-190627771D01*
X98203414Y-190556342D01*
X98274842Y-190413485D01*
X98274842Y-190342057D01*
X98203414Y-190199200D01*
X98060557Y-190127771D01*
X97846271Y-190127771D01*
X97703414Y-190199200D01*
X96989128Y-191127771D02*
X96989128Y-189627771D01*
X96846271Y-190556342D02*
X96417700Y-191127771D01*
X96417700Y-190127771D02*
X96989128Y-190699200D01*
X95203414Y-191056342D02*
X95346271Y-191127771D01*
X95631985Y-191127771D01*
X95774842Y-191056342D01*
X95846271Y-190913485D01*
X95846271Y-190342057D01*
X95774842Y-190199200D01*
X95631985Y-190127771D01*
X95346271Y-190127771D01*
X95203414Y-190199200D01*
X95131985Y-190342057D01*
X95131985Y-190484914D01*
X95846271Y-190627771D01*
X94703414Y-190127771D02*
X94131985Y-190127771D01*
X94489128Y-189627771D02*
X94489128Y-190913485D01*
X94417700Y-191056342D01*
X94274842Y-191127771D01*
X94131985Y-191127771D01*
X93774842Y-190127771D02*
X93489128Y-191127771D01*
X93203414Y-190413485D01*
X92917700Y-191127771D01*
X92631985Y-190127771D01*
X91489128Y-191056342D02*
X91631985Y-191127771D01*
X91917700Y-191127771D01*
X92060557Y-191056342D01*
X92131985Y-190913485D01*
X92131985Y-190342057D01*
X92060557Y-190199200D01*
X91917700Y-190127771D01*
X91631985Y-190127771D01*
X91489128Y-190199200D01*
X91417700Y-190342057D01*
X91417700Y-190484914D01*
X92131985Y-190627771D01*
X90131985Y-191127771D02*
X90131985Y-190342057D01*
X90203414Y-190199200D01*
X90346271Y-190127771D01*
X90631985Y-190127771D01*
X90774842Y-190199200D01*
X90131985Y-191056342D02*
X90274842Y-191127771D01*
X90631985Y-191127771D01*
X90774842Y-191056342D01*
X90846271Y-190913485D01*
X90846271Y-190770628D01*
X90774842Y-190627771D01*
X90631985Y-190556342D01*
X90274842Y-190556342D01*
X90131985Y-190484914D01*
X89560557Y-190127771D02*
X89203414Y-191127771D01*
X88846271Y-190127771D01*
X87703414Y-191056342D02*
X87846271Y-191127771D01*
X88131985Y-191127771D01*
X88274842Y-191056342D01*
X88346271Y-190913485D01*
X88346271Y-190342057D01*
X88274842Y-190199200D01*
X88131985Y-190127771D01*
X87846271Y-190127771D01*
X87703414Y-190199200D01*
X87631985Y-190342057D01*
X87631985Y-190484914D01*
X88346271Y-190627771D01*
X86989128Y-190556342D02*
X85846271Y-190556342D01*
X85203414Y-191056342D02*
X84989128Y-191127771D01*
X84631985Y-191127771D01*
X84489128Y-191056342D01*
X84417700Y-190984914D01*
X84346271Y-190842057D01*
X84346271Y-190699200D01*
X84417700Y-190556342D01*
X84489128Y-190484914D01*
X84631985Y-190413485D01*
X84917700Y-190342057D01*
X85060557Y-190270628D01*
X85131985Y-190199200D01*
X85203414Y-190056342D01*
X85203414Y-189913485D01*
X85131985Y-189770628D01*
X85060557Y-189699200D01*
X84917700Y-189627771D01*
X84560557Y-189627771D01*
X84346271Y-189699200D01*
D11*
X25400000Y-83343750D02*
G75*
G02*
X28575000Y-80168750I3175000J0D01*
G01*
X184943750Y-225425000D02*
X213518750Y-225425000D01*
X28575000Y-211137500D02*
G75*
G02*
X25400000Y-207962500I0J3175000D01*
G01*
X396875000Y-207962500D02*
G75*
G02*
X393700000Y-211137500I-3175000J0D01*
G01*
X393700000Y-80168750D02*
G75*
G02*
X396875000Y-83343750I0J-3175000D01*
G01*
X280987500Y-211137500D02*
X213518750Y-225425000D01*
X393700000Y-211137500D02*
X280987500Y-211137500D01*
X117824250Y-211137500D02*
X184943750Y-225425000D01*
X28575000Y-211137500D02*
X117824250Y-211137500D01*
X396875000Y-83343750D02*
X396875000Y-207962500D01*
X28575000Y-80168750D02*
X393700000Y-80168750D01*
X25400000Y-83343750D02*
X25400000Y-207962500D01*
D10*
X100560557Y-190342057D02*
X100346271Y-190413485D01*
X100274842Y-190484914D01*
X100203414Y-190627771D01*
X100203414Y-190842057D01*
X100274842Y-190984914D01*
X100346271Y-191056342D01*
X100489128Y-191127771D01*
X101060557Y-191127771D01*
X101060557Y-189627771D01*
X100560557Y-189627771D01*
X100417700Y-189699200D01*
X100346271Y-189770628D01*
X100274842Y-189913485D01*
X100274842Y-190056342D01*
X100346271Y-190199200D01*
X100417700Y-190270628D01*
X100560557Y-190342057D01*
X101060557Y-190342057D01*
X98917700Y-191127771D02*
X98917700Y-190342057D01*
X98989128Y-190199200D01*
X99131985Y-190127771D01*
X99417700Y-190127771D01*
X99560557Y-190199200D01*
X98917700Y-191056342D02*
X99060557Y-191127771D01*
X99417700Y-191127771D01*
X99560557Y-191056342D01*
X99631985Y-190913485D01*
X99631985Y-190770628D01*
X99560557Y-190627771D01*
X99417700Y-190556342D01*
X99060557Y-190556342D01*
X98917700Y-190484914D01*
X98274842Y-191056342D02*
X98131985Y-191127771D01*
X97846271Y-191127771D01*
X97703414Y-191056342D01*
X97631985Y-190913485D01*
X97631985Y-190842057D01*
X97703414Y-190699200D01*
X97846271Y-190627771D01*
X98060557Y-190627771D01*
X98203414Y-190556342D01*
X98274842Y-190413485D01*
X98274842Y-190342057D01*
X98203414Y-190199200D01*
X98060557Y-190127771D01*
X97846271Y-190127771D01*
X97703414Y-190199200D01*
X96989128Y-191127771D02*
X96989128Y-189627771D01*
X96846271Y-190556342D02*
X96417700Y-191127771D01*
X96417700Y-190127771D02*
X96989128Y-190699200D01*
X95203414Y-191056342D02*
X95346271Y-191127771D01*
X95631985Y-191127771D01*
X95774842Y-191056342D01*
X95846271Y-190913485D01*
X95846271Y-190342057D01*
X95774842Y-190199200D01*
X95631985Y-190127771D01*
X95346271Y-190127771D01*
X95203414Y-190199200D01*
X95131985Y-190342057D01*
X95131985Y-190484914D01*
X95846271Y-190627771D01*
X94703414Y-190127771D02*
X94131985Y-190127771D01*
X94489128Y-189627771D02*
X94489128Y-190913485D01*
X94417700Y-191056342D01*
X94274842Y-191127771D01*
X94131985Y-191127771D01*
X93774842Y-190127771D02*
X93489128Y-191127771D01*
X93203414Y-190413485D01*
X92917700Y-191127771D01*
X92631985Y-190127771D01*
X91489128Y-191056342D02*
X91631985Y-191127771D01*
X91917700Y-191127771D01*
X92060557Y-191056342D01*
X92131985Y-190913485D01*
X92131985Y-190342057D01*
X92060557Y-190199200D01*
X91917700Y-190127771D01*
X91631985Y-190127771D01*
X91489128Y-190199200D01*
X91417700Y-190342057D01*
X91417700Y-190484914D01*
X92131985Y-190627771D01*
X90131985Y-191127771D02*
X90131985Y-190342057D01*
X90203414Y-190199200D01*
X90346271Y-190127771D01*
X90631985Y-190127771D01*
X90774842Y-190199200D01*
X90131985Y-191056342D02*
X90274842Y-191127771D01*
X90631985Y-191127771D01*
X90774842Y-191056342D01*
X90846271Y-190913485D01*
X90846271Y-190770628D01*
X90774842Y-190627771D01*
X90631985Y-190556342D01*
X90274842Y-190556342D01*
X90131985Y-190484914D01*
X89560557Y-190127771D02*
X89203414Y-191127771D01*
X88846271Y-190127771D01*
X87703414Y-191056342D02*
X87846271Y-191127771D01*
X88131985Y-191127771D01*
X88274842Y-191056342D01*
X88346271Y-190913485D01*
X88346271Y-190342057D01*
X88274842Y-190199200D01*
X88131985Y-190127771D01*
X87846271Y-190127771D01*
X87703414Y-190199200D01*
X87631985Y-190342057D01*
X87631985Y-190484914D01*
X88346271Y-190627771D01*
X86989128Y-190556342D02*
X85846271Y-190556342D01*
X85203414Y-191056342D02*
X84989128Y-191127771D01*
X84631985Y-191127771D01*
X84489128Y-191056342D01*
X84417700Y-190984914D01*
X84346271Y-190842057D01*
X84346271Y-190699200D01*
X84417700Y-190556342D01*
X84489128Y-190484914D01*
X84631985Y-190413485D01*
X84917700Y-190342057D01*
X85060557Y-190270628D01*
X85131985Y-190199200D01*
X85203414Y-190056342D01*
X85203414Y-189913485D01*
X85131985Y-189770628D01*
X85060557Y-189699200D01*
X84917700Y-189627771D01*
X84560557Y-189627771D01*
X84346271Y-189699200D01*
D11*
X25400000Y-83343750D02*
G75*
G02*
X28575000Y-80168750I3175000J0D01*
G01*
X184943750Y-225425000D02*
X213518750Y-225425000D01*
X28575000Y-211137500D02*
G75*
G02*
X25400000Y-207962500I0J3175000D01*
G01*
X396875000Y-207962500D02*
G75*
G02*
X393700000Y-211137500I-3175000J0D01*
G01*
X393700000Y-80168750D02*
G75*
G02*
X396875000Y-83343750I0J-3175000D01*
G01*
X280987500Y-211137500D02*
X213518750Y-225425000D01*
X393700000Y-211137500D02*
X280987500Y-211137500D01*
X117824250Y-211137500D02*
X184943750Y-225425000D01*
X28575000Y-211137500D02*
X117824250Y-211137500D01*
X396875000Y-83343750D02*
X396875000Y-207962500D01*
X28575000Y-80168750D02*
X393700000Y-80168750D01*
X25400000Y-83343750D02*
X25400000Y-207962500D01*
D12*
X351948750Y-137318750D03*
X341788750Y-137318750D03*
D13*
X343058750Y-134778750D03*
D14*
X346868750Y-137318750D03*
D13*
X349408750Y-132238750D03*
X349408750Y-113188750D03*
D14*
X346868750Y-118268750D03*
D13*
X343058750Y-115728750D03*
D12*
X341788750Y-118268750D03*
X351948750Y-118268750D03*
D14*
X349250000Y-126523750D03*
X325437500Y-126523750D03*
D15*
X349250000Y-111283750D03*
X325437500Y-111283750D03*
D12*
X342423750Y-118268750D03*
X332263750Y-118268750D03*
D13*
X333533750Y-115728750D03*
D14*
X337343750Y-118268750D03*
D13*
X339883750Y-113188750D03*
X330358750Y-113188750D03*
D14*
X327818750Y-118268750D03*
D13*
X324008750Y-115728750D03*
D12*
X322738750Y-118268750D03*
X332898750Y-118268750D03*
D16*
X342773000Y-126619000D03*
G36*
G01*
X334302000Y-127419000D02*
X334302000Y-125819000D01*
G75*
G02*
X334353000Y-125768000I51000J0D01*
G01*
X335953000Y-125768000D01*
G75*
G02*
X336004000Y-125819000I0J-51000D01*
G01*
X336004000Y-127419000D01*
G75*
G02*
X335953000Y-127470000I-51000J0D01*
G01*
X334353000Y-127470000D01*
G75*
G02*
X334302000Y-127419000I0J51000D01*
G01*
G37*
D12*
X51911250Y-115887500D03*
X41751250Y-115887500D03*
D13*
X43021250Y-113347500D03*
D14*
X46831250Y-115887500D03*
D13*
X49371250Y-110807500D03*
D16*
X370676250Y-101280000D03*
G36*
G01*
X369876250Y-92809000D02*
X371476250Y-92809000D01*
G75*
G02*
X371527250Y-92860000I0J-51000D01*
G01*
X371527250Y-94460000D01*
G75*
G02*
X371476250Y-94511000I-51000J0D01*
G01*
X369876250Y-94511000D01*
G75*
G02*
X369825250Y-94460000I0J51000D01*
G01*
X369825250Y-92860000D01*
G75*
G02*
X369876250Y-92809000I51000J0D01*
G01*
G37*
D17*
X368176800Y-122856400D03*
X373176800Y-122856400D03*
G36*
G01*
X365076800Y-114105400D02*
X365076800Y-114105400D01*
G75*
G02*
X366127800Y-115156400I0J-1051000D01*
G01*
X366127800Y-116556400D01*
G75*
G02*
X365076800Y-117607400I-1051000J0D01*
G01*
X365076800Y-117607400D01*
G75*
G02*
X364025800Y-116556400I0J1051000D01*
G01*
X364025800Y-115156400D01*
G75*
G02*
X365076800Y-114105400I1051000J0D01*
G01*
G37*
G36*
G01*
X375276800Y-114205400D02*
X377276800Y-114205400D01*
G75*
G02*
X377327800Y-114256400I0J-51000D01*
G01*
X377327800Y-117456400D01*
G75*
G02*
X377276800Y-117507400I-51000J0D01*
G01*
X375276800Y-117507400D01*
G75*
G02*
X375225800Y-117456400I0J51000D01*
G01*
X375225800Y-114256400D01*
G75*
G02*
X375276800Y-114205400I51000J0D01*
G01*
G37*
X368176800Y-108356400D03*
X370676800Y-108356400D03*
G36*
G01*
X372176800Y-107305400D02*
X374176800Y-107305400D01*
G75*
G02*
X374227800Y-107356400I0J-51000D01*
G01*
X374227800Y-109356400D01*
G75*
G02*
X374176800Y-109407400I-51000J0D01*
G01*
X372176800Y-109407400D01*
G75*
G02*
X372125800Y-109356400I0J51000D01*
G01*
X372125800Y-107356400D01*
G75*
G02*
X372176800Y-107305400I51000J0D01*
G01*
G37*
X44326800Y-122881800D03*
X49326800Y-122881800D03*
G36*
G01*
X41226800Y-114130800D02*
X41226800Y-114130800D01*
G75*
G02*
X42277800Y-115181800I0J-1051000D01*
G01*
X42277800Y-116581800D01*
G75*
G02*
X41226800Y-117632800I-1051000J0D01*
G01*
X41226800Y-117632800D01*
G75*
G02*
X40175800Y-116581800I0J1051000D01*
G01*
X40175800Y-115181800D01*
G75*
G02*
X41226800Y-114130800I1051000J0D01*
G01*
G37*
G36*
G01*
X51426800Y-114230800D02*
X53426800Y-114230800D01*
G75*
G02*
X53477800Y-114281800I0J-51000D01*
G01*
X53477800Y-117481800D01*
G75*
G02*
X53426800Y-117532800I-51000J0D01*
G01*
X51426800Y-117532800D01*
G75*
G02*
X51375800Y-117481800I0J51000D01*
G01*
X51375800Y-114281800D01*
G75*
G02*
X51426800Y-114230800I51000J0D01*
G01*
G37*
X44326800Y-108381800D03*
X46826800Y-108381800D03*
G36*
G01*
X48326800Y-107330800D02*
X50326800Y-107330800D01*
G75*
G02*
X50377800Y-107381800I0J-51000D01*
G01*
X50377800Y-109381800D01*
G75*
G02*
X50326800Y-109432800I-51000J0D01*
G01*
X48326800Y-109432800D01*
G75*
G02*
X48275800Y-109381800I0J51000D01*
G01*
X48275800Y-107381800D01*
G75*
G02*
X48326800Y-107330800I51000J0D01*
G01*
G37*
X377726250Y-161007500D03*
X382726250Y-161007500D03*
G36*
G01*
X374626250Y-152256500D02*
X374626250Y-152256500D01*
G75*
G02*
X375677250Y-153307500I0J-1051000D01*
G01*
X375677250Y-154707500D01*
G75*
G02*
X374626250Y-155758500I-1051000J0D01*
G01*
X374626250Y-155758500D01*
G75*
G02*
X373575250Y-154707500I0J1051000D01*
G01*
X373575250Y-153307500D01*
G75*
G02*
X374626250Y-152256500I1051000J0D01*
G01*
G37*
G36*
G01*
X384826250Y-152356500D02*
X386826250Y-152356500D01*
G75*
G02*
X386877250Y-152407500I0J-51000D01*
G01*
X386877250Y-155607500D01*
G75*
G02*
X386826250Y-155658500I-51000J0D01*
G01*
X384826250Y-155658500D01*
G75*
G02*
X384775250Y-155607500I0J51000D01*
G01*
X384775250Y-152407500D01*
G75*
G02*
X384826250Y-152356500I51000J0D01*
G01*
G37*
X377726250Y-146507500D03*
X380226250Y-146507500D03*
G36*
G01*
X381726250Y-145456500D02*
X383726250Y-145456500D01*
G75*
G02*
X383777250Y-145507500I0J-51000D01*
G01*
X383777250Y-147507500D01*
G75*
G02*
X383726250Y-147558500I-51000J0D01*
G01*
X381726250Y-147558500D01*
G75*
G02*
X381675250Y-147507500I0J51000D01*
G01*
X381675250Y-145507500D01*
G75*
G02*
X381726250Y-145456500I51000J0D01*
G01*
G37*
X34827200Y-161007200D03*
X39827200Y-161007200D03*
G36*
G01*
X31727200Y-152256200D02*
X31727200Y-152256200D01*
G75*
G02*
X32778200Y-153307200I0J-1051000D01*
G01*
X32778200Y-154707200D01*
G75*
G02*
X31727200Y-155758200I-1051000J0D01*
G01*
X31727200Y-155758200D01*
G75*
G02*
X30676200Y-154707200I0J1051000D01*
G01*
X30676200Y-153307200D01*
G75*
G02*
X31727200Y-152256200I1051000J0D01*
G01*
G37*
G36*
G01*
X41927200Y-152356200D02*
X43927200Y-152356200D01*
G75*
G02*
X43978200Y-152407200I0J-51000D01*
G01*
X43978200Y-155607200D01*
G75*
G02*
X43927200Y-155658200I-51000J0D01*
G01*
X41927200Y-155658200D01*
G75*
G02*
X41876200Y-155607200I0J51000D01*
G01*
X41876200Y-152407200D01*
G75*
G02*
X41927200Y-152356200I51000J0D01*
G01*
G37*
X34827200Y-146507200D03*
X37327200Y-146507200D03*
G36*
G01*
X38827200Y-145456200D02*
X40827200Y-145456200D01*
G75*
G02*
X40878200Y-145507200I0J-51000D01*
G01*
X40878200Y-147507200D01*
G75*
G02*
X40827200Y-147558200I-51000J0D01*
G01*
X38827200Y-147558200D01*
G75*
G02*
X38776200Y-147507200I0J51000D01*
G01*
X38776200Y-145507200D01*
G75*
G02*
X38827200Y-145456200I51000J0D01*
G01*
G37*
D16*
X376745500Y-125603000D03*
G36*
G01*
X368274500Y-126403000D02*
X368274500Y-124803000D01*
G75*
G02*
X368325500Y-124752000I51000J0D01*
G01*
X369925500Y-124752000D01*
G75*
G02*
X369976500Y-124803000I0J-51000D01*
G01*
X369976500Y-126403000D01*
G75*
G02*
X369925500Y-126454000I-51000J0D01*
G01*
X368325500Y-126454000D01*
G75*
G02*
X368274500Y-126403000I0J51000D01*
G01*
G37*
D13*
X39846250Y-148907500D03*
D14*
X37306250Y-153987500D03*
D13*
X33496250Y-151447500D03*
D12*
X32226250Y-153987500D03*
X42386250Y-153987500D03*
D13*
X44608750Y-129857500D03*
D14*
X42068750Y-134937500D03*
D13*
X38258750Y-132397500D03*
D12*
X36988750Y-134937500D03*
X47148750Y-134937500D03*
D13*
X377983750Y-129857500D03*
D14*
X375443750Y-134937500D03*
D13*
X371633750Y-132397500D03*
D12*
X370363750Y-134937500D03*
X380523750Y-134937500D03*
D13*
X373221250Y-110807500D03*
D14*
X370681250Y-115887500D03*
D13*
X366871250Y-113347500D03*
D12*
X365601250Y-115887500D03*
X375761250Y-115887500D03*
D13*
X382746250Y-148907500D03*
D14*
X380206250Y-153987500D03*
D13*
X376396250Y-151447500D03*
D12*
X375126250Y-153987500D03*
X385286250Y-153987500D03*
D16*
X386334000Y-163830000D03*
G36*
G01*
X377863000Y-164630000D02*
X377863000Y-163030000D01*
G75*
G02*
X377914000Y-162979000I51000J0D01*
G01*
X379514000Y-162979000D01*
G75*
G02*
X379565000Y-163030000I0J-51000D01*
G01*
X379565000Y-164630000D01*
G75*
G02*
X379514000Y-164681000I-51000J0D01*
G01*
X377914000Y-164681000D01*
G75*
G02*
X377863000Y-164630000I0J51000D01*
G01*
G37*
X381508000Y-143700500D03*
G36*
G01*
X373037000Y-144500500D02*
X373037000Y-142900500D01*
G75*
G02*
X373088000Y-142849500I51000J0D01*
G01*
X374688000Y-142849500D01*
G75*
G02*
X374739000Y-142900500I0J-51000D01*
G01*
X374739000Y-144500500D01*
G75*
G02*
X374688000Y-144551500I-51000J0D01*
G01*
X373088000Y-144551500D01*
G75*
G02*
X373037000Y-144500500I0J51000D01*
G01*
G37*
D13*
X233181626Y-199061357D03*
D14*
X231753322Y-204558443D03*
D13*
X227498484Y-202866092D03*
D12*
X226784332Y-205614634D03*
X236722312Y-203502252D03*
D15*
X221559515Y-213866253D03*
X244851655Y-208915355D03*
D14*
X218390941Y-198959283D03*
X241683081Y-194008386D03*
D13*
X156321686Y-199140106D03*
D14*
X152781000Y-203581000D03*
D13*
X149582353Y-200304362D03*
D12*
X147812010Y-202524809D03*
X157749990Y-204637191D03*
D15*
X139682667Y-207937912D03*
X162974807Y-212888810D03*
D14*
X142851241Y-193030943D03*
X166143381Y-197981840D03*
D13*
X186674686Y-205617106D03*
D14*
X183134000Y-210058000D03*
D13*
X179935353Y-206781362D03*
D12*
X178165010Y-209001809D03*
X188102990Y-211114191D03*
X277225240Y-196638536D03*
X267287260Y-198750918D03*
D13*
X268001412Y-196002376D03*
D14*
X272256250Y-197694727D03*
D13*
X273684554Y-192197641D03*
D18*
X269081250Y-188118750D03*
D12*
X75723750Y-137318750D03*
X65563750Y-137318750D03*
D13*
X66833750Y-134778750D03*
D14*
X70643750Y-137318750D03*
D13*
X73183750Y-132238750D03*
D12*
X68580000Y-156368750D03*
X58420000Y-156368750D03*
D13*
X59690000Y-153828750D03*
D14*
X63500000Y-156368750D03*
D13*
X66040000Y-151288750D03*
D12*
X73342500Y-156368750D03*
X63182500Y-156368750D03*
D13*
X64452500Y-153828750D03*
D14*
X68262500Y-156368750D03*
D13*
X70802500Y-151288750D03*
X347027500Y-151288750D03*
D14*
X344487500Y-156368750D03*
D13*
X340677500Y-153828750D03*
D12*
X339407500Y-156368750D03*
X349567500Y-156368750D03*
D15*
X332581250Y-163353750D03*
X356393750Y-163353750D03*
D14*
X332581250Y-148113750D03*
X356393750Y-148113750D03*
D13*
X70802500Y-170338750D03*
D14*
X68262500Y-175418750D03*
D13*
X64452500Y-172878750D03*
D12*
X63182500Y-175418750D03*
X73342500Y-175418750D03*
D15*
X56356250Y-182403750D03*
X80168750Y-182403750D03*
D14*
X56356250Y-167163750D03*
X80168750Y-167163750D03*
D12*
X340042500Y-175418750D03*
X329882500Y-175418750D03*
D13*
X331152500Y-172878750D03*
D14*
X334962500Y-175418750D03*
D13*
X337502500Y-170338750D03*
D12*
X66198750Y-194468750D03*
X56038750Y-194468750D03*
D13*
X57308750Y-191928750D03*
D14*
X61118750Y-194468750D03*
D13*
X63658750Y-189388750D03*
D12*
X121904240Y-198829622D03*
X111966260Y-196717240D03*
D13*
X113736603Y-194496793D03*
D14*
X116935250Y-197773431D03*
D13*
X120475936Y-193332537D03*
X154098377Y-198710984D03*
D14*
X150557691Y-203151878D03*
D13*
X147359044Y-199875240D03*
D12*
X145588701Y-202095687D03*
X155526681Y-204208069D03*
D15*
X137459358Y-207508790D03*
X160751498Y-212459688D03*
D14*
X140627932Y-192601821D03*
X163920072Y-197552718D03*
D12*
X185806463Y-210644235D03*
X175868483Y-208531853D03*
D13*
X177638826Y-206311406D03*
D14*
X180837473Y-209588044D03*
D13*
X184378159Y-205147150D03*
D12*
X323373750Y-194468750D03*
X313213750Y-194468750D03*
D13*
X314483750Y-191928750D03*
D14*
X318293750Y-194468750D03*
D13*
X320833750Y-189388750D03*
D12*
X218550227Y-129462495D03*
X208612247Y-131574877D03*
D13*
X209326399Y-128826335D03*
D14*
X213581237Y-130518686D03*
D13*
X215009541Y-125021600D03*
D12*
X171369552Y-129673222D03*
X161431572Y-127560840D03*
D13*
X163201915Y-125340393D03*
D14*
X166400562Y-128617031D03*
D13*
X169941248Y-124176137D03*
D12*
X190003264Y-133633939D03*
X180065284Y-131521557D03*
D13*
X181835627Y-129301110D03*
D14*
X185034274Y-132577748D03*
D13*
X188574960Y-128136854D03*
D12*
X313848750Y-175418750D03*
X303688750Y-175418750D03*
D13*
X304958750Y-172878750D03*
D14*
X308768750Y-175418750D03*
D13*
X311308750Y-170338750D03*
D12*
X328136250Y-137318750D03*
X317976250Y-137318750D03*
D13*
X319246250Y-134778750D03*
D14*
X323056250Y-137318750D03*
D13*
X325596250Y-132238750D03*
D12*
X221813235Y-167720098D03*
X211875255Y-169832480D03*
D13*
X212589407Y-167083938D03*
D14*
X216844245Y-168776289D03*
D13*
X218272549Y-163279203D03*
D12*
X237183939Y-125501777D03*
X227245959Y-127614159D03*
D13*
X227960111Y-124865617D03*
D14*
X232214949Y-126557968D03*
D13*
X233643253Y-121060882D03*
D12*
X294798750Y-115887500D03*
X284638750Y-115887500D03*
D13*
X285908750Y-113347500D03*
D14*
X289718750Y-115887500D03*
D13*
X292258750Y-110807500D03*
D12*
X213194089Y-150076565D03*
X203256109Y-152188947D03*
D13*
X203970261Y-149440405D03*
D14*
X208225099Y-151132756D03*
D13*
X209653403Y-145635670D03*
D12*
X274451362Y-117580342D03*
X264513382Y-119692724D03*
D13*
X265227534Y-116944182D03*
D14*
X269482372Y-118636533D03*
D13*
X270910676Y-113139447D03*
D12*
X290036250Y-136525000D03*
X279876250Y-136525000D03*
D13*
X281146250Y-133985000D03*
D14*
X284956250Y-136525000D03*
D13*
X287496250Y-131445000D03*
D12*
X390048750Y-199231250D03*
X379888750Y-199231250D03*
D13*
X381158750Y-196691250D03*
D14*
X384968750Y-199231250D03*
D13*
X387508750Y-194151250D03*
X132673825Y-116254701D03*
D14*
X129133139Y-120695595D03*
D13*
X125934492Y-117418957D03*
D12*
X124164149Y-119639404D03*
X134102129Y-121751786D03*
D13*
X111283750Y-110807500D03*
D14*
X108743750Y-115887500D03*
D13*
X104933750Y-113347500D03*
D12*
X103663750Y-115887500D03*
X113823750Y-115887500D03*
X104298750Y-175418750D03*
X94138750Y-175418750D03*
D13*
X95408750Y-172878750D03*
D14*
X99218750Y-175418750D03*
D13*
X101758750Y-170338750D03*
X73183750Y-113188750D03*
D14*
X70643750Y-118268750D03*
D13*
X66833750Y-115728750D03*
D12*
X65563750Y-118268750D03*
X75723750Y-118268750D03*
X255817651Y-121541059D03*
X245879671Y-123653441D03*
D13*
X246593823Y-120904899D03*
D14*
X250848661Y-122597250D03*
D13*
X252276965Y-117100164D03*
D12*
X152735840Y-125712504D03*
X142797860Y-123600122D03*
D13*
X144568203Y-121379675D03*
D14*
X147766850Y-124656313D03*
D13*
X151307536Y-120215419D03*
D12*
X370998750Y-199231250D03*
X360838750Y-199231250D03*
D13*
X362108750Y-196691250D03*
D14*
X365918750Y-199231250D03*
D13*
X368458750Y-194151250D03*
D12*
X351948750Y-199231250D03*
X341788750Y-199231250D03*
D13*
X343058750Y-196691250D03*
D14*
X346868750Y-199231250D03*
D13*
X349408750Y-194151250D03*
D12*
X370998750Y-180181250D03*
X360838750Y-180181250D03*
D13*
X362108750Y-177641250D03*
D14*
X365918750Y-180181250D03*
D13*
X368458750Y-175101250D03*
D12*
X294798750Y-175418750D03*
X284638750Y-175418750D03*
D13*
X285908750Y-172878750D03*
D14*
X289718750Y-175418750D03*
D13*
X292258750Y-170338750D03*
D12*
X272358232Y-176452015D03*
X262420252Y-178564397D03*
D13*
X263134404Y-175815855D03*
D14*
X267389242Y-177508206D03*
D13*
X268817546Y-172011120D03*
D12*
X253724520Y-180412733D03*
X243786540Y-182525115D03*
D13*
X244500692Y-179776573D03*
D14*
X248755530Y-181468924D03*
D13*
X250183834Y-175971838D03*
D12*
X235090808Y-184373451D03*
X225152828Y-186485833D03*
D13*
X225866980Y-183737291D03*
D14*
X230121818Y-185429642D03*
D13*
X231550122Y-179932556D03*
D12*
X182779539Y-190525254D03*
X172841559Y-188412872D03*
D13*
X174611902Y-186192425D03*
D14*
X177810549Y-189469063D03*
D13*
X181351235Y-185028169D03*
D12*
X164145827Y-186564536D03*
X154207847Y-184452154D03*
D13*
X155978190Y-182231707D03*
D14*
X159176837Y-185508345D03*
D13*
X162717523Y-181067451D03*
D12*
X145512115Y-182603819D03*
X135574135Y-180491437D03*
D13*
X137344478Y-178270990D03*
D14*
X140543125Y-181547628D03*
D13*
X144083811Y-177106734D03*
D12*
X126878403Y-178643101D03*
X116940423Y-176530719D03*
D13*
X118710766Y-174310272D03*
D14*
X121909413Y-177586910D03*
D13*
X125450099Y-173146016D03*
D12*
X318611250Y-156368750D03*
X308451250Y-156368750D03*
D13*
X309721250Y-153828750D03*
D14*
X313531250Y-156368750D03*
D13*
X316071250Y-151288750D03*
D12*
X299561250Y-156368750D03*
X289401250Y-156368750D03*
D13*
X290671250Y-153828750D03*
D14*
X294481250Y-156368750D03*
D13*
X297021250Y-151288750D03*
D12*
X277714370Y-155837945D03*
X267776390Y-157950327D03*
D13*
X268490542Y-155201785D03*
D14*
X272745380Y-156894136D03*
D13*
X274173684Y-151397050D03*
D12*
X259080658Y-159798662D03*
X249142678Y-161911044D03*
D13*
X249856830Y-159162502D03*
D14*
X254111668Y-160854853D03*
D13*
X255539972Y-155357767D03*
D12*
X240446946Y-163759380D03*
X230508966Y-165871762D03*
D13*
X231223118Y-163123220D03*
D14*
X235477956Y-164815571D03*
D13*
X236906260Y-159318485D03*
D12*
X177423401Y-169911183D03*
X167485421Y-167798801D03*
D13*
X169255764Y-165578354D03*
D14*
X172454411Y-168854992D03*
D13*
X175995097Y-164414098D03*
D12*
X158789689Y-165950466D03*
X148851709Y-163838084D03*
D13*
X150622052Y-161617637D03*
D14*
X153820699Y-164894275D03*
D13*
X157361385Y-160453381D03*
D12*
X140155977Y-161989748D03*
X130217997Y-159877366D03*
D13*
X131988340Y-157656919D03*
D14*
X135186987Y-160933557D03*
D13*
X138727673Y-156492663D03*
D12*
X121522265Y-158029030D03*
X111584285Y-155916648D03*
D13*
X113354628Y-153696201D03*
D14*
X116553275Y-156972839D03*
D13*
X120093961Y-152531945D03*
D12*
X99536250Y-156368750D03*
X89376250Y-156368750D03*
D13*
X90646250Y-153828750D03*
D14*
X94456250Y-156368750D03*
D13*
X96996250Y-151288750D03*
D12*
X309086250Y-137318750D03*
X298926250Y-137318750D03*
D13*
X300196250Y-134778750D03*
D14*
X304006250Y-137318750D03*
D13*
X306546250Y-132238750D03*
D12*
X269095224Y-138194412D03*
X259157244Y-140306794D03*
D13*
X259871396Y-137558252D03*
D14*
X264126234Y-139250603D03*
D13*
X265554538Y-133753517D03*
D12*
X250461512Y-142155130D03*
X240523532Y-144267512D03*
D13*
X241237684Y-141518970D03*
D14*
X245492522Y-143211321D03*
D13*
X246920826Y-137714235D03*
D12*
X231827801Y-146115848D03*
X221889821Y-148228230D03*
D13*
X222603973Y-145479688D03*
D14*
X226858811Y-147172039D03*
D13*
X228287115Y-141674953D03*
D12*
X176725690Y-150287292D03*
X166787710Y-148174910D03*
D13*
X168558053Y-145954463D03*
D14*
X171756700Y-149231101D03*
D13*
X175297386Y-144790207D03*
D12*
X158091979Y-146326574D03*
X148153999Y-144214192D03*
D13*
X149924342Y-141993745D03*
D14*
X153122989Y-145270383D03*
D13*
X156663675Y-140829489D03*
D12*
X139458267Y-142365857D03*
X129520287Y-140253475D03*
D13*
X131290630Y-138033028D03*
D14*
X134489277Y-141309666D03*
D13*
X138029963Y-136868772D03*
D12*
X120824555Y-138405139D03*
X110886575Y-136292757D03*
D13*
X112656918Y-134072310D03*
D14*
X115855565Y-137348948D03*
D13*
X119396251Y-132908054D03*
D12*
X99536250Y-137318750D03*
X89376250Y-137318750D03*
D13*
X90646250Y-134778750D03*
D14*
X94456250Y-137318750D03*
D13*
X96996250Y-132238750D03*
D12*
X313848750Y-118268750D03*
X303688750Y-118268750D03*
D13*
X304958750Y-115728750D03*
D14*
X308768750Y-118268750D03*
D13*
X311308750Y-113188750D03*
X92233750Y-113188750D03*
D14*
X89693750Y-118268750D03*
D13*
X85883750Y-115728750D03*
D12*
X84613750Y-118268750D03*
X94773750Y-118268750D03*
D19*
X207803750Y-84137500D03*
G36*
G01*
X211294750Y-83237500D02*
X211294750Y-85037500D01*
G75*
G02*
X211243750Y-85088500I-51000J0D01*
G01*
X209443750Y-85088500D01*
G75*
G02*
X209392750Y-85037500I0J51000D01*
G01*
X209392750Y-83237500D01*
G75*
G02*
X209443750Y-83186500I51000J0D01*
G01*
X211243750Y-83186500D01*
G75*
G02*
X211294750Y-83237500I0J-51000D01*
G01*
G37*
D20*
X200506250Y-88650000D03*
X202206250Y-88650000D03*
X201356250Y-88650000D03*
X199656250Y-88650000D03*
X198806250Y-88650000D03*
X197956250Y-88650000D03*
X197106250Y-88650000D03*
X196256250Y-88650000D03*
X202206250Y-87325000D03*
X201351250Y-87325000D03*
X200501250Y-87325000D03*
X199651250Y-87325000D03*
X198801250Y-87325000D03*
X197951250Y-87325000D03*
X197101250Y-87325000D03*
X196251250Y-87325000D03*
D21*
X203556250Y-87670000D03*
X194906250Y-87670000D03*
D22*
X203556250Y-84290000D03*
X194906250Y-84290000D03*
D17*
X227956250Y-82550000D03*
X227956250Y-87050000D03*
X221456250Y-82550000D03*
X221456250Y-87050000D03*
X239068750Y-82550000D03*
X239068750Y-87050000D03*
X232568750Y-82550000D03*
X232568750Y-87050000D03*
G36*
G01*
X163583250Y-81946511D02*
X165283250Y-81946511D01*
G75*
G02*
X165334250Y-81997511I0J-51000D01*
G01*
X165334250Y-83697511D01*
G75*
G02*
X165283250Y-83748511I-51000J0D01*
G01*
X163583250Y-83748511D01*
G75*
G02*
X163532250Y-83697511I0J51000D01*
G01*
X163532250Y-81997511D01*
G75*
G02*
X163583250Y-81946511I51000J0D01*
G01*
G37*
D23*
X164433250Y-85387511D03*
X161893250Y-82847511D03*
X161893250Y-85387511D03*
X159353250Y-82847511D03*
X159353250Y-85387511D03*
D18*
X129381250Y-188118750D03*
G36*
G01*
X175933000Y-115151000D02*
X174333000Y-115151000D01*
G75*
G02*
X174282000Y-115100000I0J51000D01*
G01*
X174282000Y-113500000D01*
G75*
G02*
X174333000Y-113449000I51000J0D01*
G01*
X175933000Y-113449000D01*
G75*
G02*
X175984000Y-113500000I0J-51000D01*
G01*
X175984000Y-115100000D01*
G75*
G02*
X175933000Y-115151000I-51000J0D01*
G01*
G37*
D16*
X223393000Y-99060000D03*
X177673000Y-114300000D03*
X220853000Y-99060000D03*
X180213000Y-114300000D03*
X218313000Y-99060000D03*
X182753000Y-114300000D03*
X215773000Y-99060000D03*
X185293000Y-114300000D03*
X213233000Y-99060000D03*
X187833000Y-114300000D03*
X210693000Y-99060000D03*
X190373000Y-114300000D03*
X208153000Y-99060000D03*
X192913000Y-114300000D03*
X205613000Y-99060000D03*
X195453000Y-114300000D03*
X203073000Y-99060000D03*
X197993000Y-114300000D03*
X200533000Y-99060000D03*
X200533000Y-114300000D03*
X197993000Y-99060000D03*
X203073000Y-114300000D03*
X195453000Y-99060000D03*
X205613000Y-114300000D03*
X192913000Y-99060000D03*
X208153000Y-114300000D03*
X190373000Y-99060000D03*
X210693000Y-114300000D03*
X187833000Y-99060000D03*
X213233000Y-114300000D03*
X185293000Y-99060000D03*
X215773000Y-114300000D03*
X182753000Y-99060000D03*
X218313000Y-114300000D03*
X180213000Y-99060000D03*
X220853000Y-114300000D03*
X177673000Y-99060000D03*
X223393000Y-114300000D03*
X175133000Y-99060000D03*
D24*
X193120000Y-96742250D03*
X198120000Y-96742250D03*
D16*
X203644500Y-93630750D03*
G36*
G01*
X212115500Y-92830750D02*
X212115500Y-94430750D01*
G75*
G02*
X212064500Y-94481750I-51000J0D01*
G01*
X210464500Y-94481750D01*
G75*
G02*
X210413500Y-94430750I0J51000D01*
G01*
X210413500Y-92830750D01*
G75*
G02*
X210464500Y-92779750I51000J0D01*
G01*
X212064500Y-92779750D01*
G75*
G02*
X212115500Y-92830750I0J-51000D01*
G01*
G37*
D25*
X187325000Y-87149000D03*
D26*
X187325000Y-82069000D03*
D25*
X189706250Y-87149000D03*
D26*
X189706250Y-82069000D03*
D24*
X206692500Y-120070250D03*
X206692500Y-117570250D03*
D26*
X180975000Y-82010250D03*
X180975000Y-87110250D03*
D25*
X214312500Y-82137250D03*
D26*
X214312500Y-87217250D03*
D25*
X217805000Y-96234250D03*
D26*
X222885000Y-96234250D03*
D25*
X217805000Y-93599000D03*
D26*
X222885000Y-93599000D03*
D16*
X203644500Y-96234250D03*
G36*
G01*
X212115500Y-95434250D02*
X212115500Y-97034250D01*
G75*
G02*
X212064500Y-97085250I-51000J0D01*
G01*
X210464500Y-97085250D01*
G75*
G02*
X210413500Y-97034250I0J51000D01*
G01*
X210413500Y-95434250D01*
G75*
G02*
X210464500Y-95383250I51000J0D01*
G01*
X212064500Y-95383250D01*
G75*
G02*
X212115500Y-95434250I0J-51000D01*
G01*
G37*
D24*
X183912500Y-116681250D03*
X188912500Y-116681250D03*
X191833500Y-117475000D03*
X191833500Y-119975000D03*
D27*
X201739500Y-118332250D03*
X196859500Y-118332250D03*
D18*
X29402500Y-84167500D03*
X164226250Y-101563750D03*
X199231250Y-211931250D03*
X381000000Y-188118750D03*
X392872500Y-84167500D03*
X29402500Y-101563750D03*
X392872500Y-101563750D03*
X234236250Y-101563750D03*
X41275000Y-188912500D03*
D16*
X259556250Y-99695000D03*
G36*
G01*
X258756250Y-91224000D02*
X260356250Y-91224000D01*
G75*
G02*
X260407250Y-91275000I0J-51000D01*
G01*
X260407250Y-92875000D01*
G75*
G02*
X260356250Y-92926000I-51000J0D01*
G01*
X258756250Y-92926000D01*
G75*
G02*
X258705250Y-92875000I0J51000D01*
G01*
X258705250Y-91275000D01*
G75*
G02*
X258756250Y-91224000I51000J0D01*
G01*
G37*
X116681250Y-102870000D03*
G36*
G01*
X115881250Y-94399000D02*
X117481250Y-94399000D01*
G75*
G02*
X117532250Y-94450000I0J-51000D01*
G01*
X117532250Y-96050000D01*
G75*
G02*
X117481250Y-96101000I-51000J0D01*
G01*
X115881250Y-96101000D01*
G75*
G02*
X115830250Y-96050000I0J51000D01*
G01*
X115830250Y-94450000D01*
G75*
G02*
X115881250Y-94399000I51000J0D01*
G01*
G37*
X127793750Y-101282500D03*
G36*
G01*
X126993750Y-92811500D02*
X128593750Y-92811500D01*
G75*
G02*
X128644750Y-92862500I0J-51000D01*
G01*
X128644750Y-94462500D01*
G75*
G02*
X128593750Y-94513500I-51000J0D01*
G01*
X126993750Y-94513500D01*
G75*
G02*
X126942750Y-94462500I0J51000D01*
G01*
X126942750Y-92862500D01*
G75*
G02*
X126993750Y-92811500I51000J0D01*
G01*
G37*
D26*
X216693750Y-82137250D03*
D25*
X216693750Y-87217250D03*
G36*
G01*
X366711250Y-94401500D02*
X368311250Y-94401500D01*
G75*
G02*
X368362250Y-94452500I0J-51000D01*
G01*
X368362250Y-96052500D01*
G75*
G02*
X368311250Y-96103500I-51000J0D01*
G01*
X366711250Y-96103500D01*
G75*
G02*
X366660250Y-96052500I0J51000D01*
G01*
X366660250Y-94452500D01*
G75*
G02*
X366711250Y-94401500I51000J0D01*
G01*
G37*
D16*
X367511250Y-102872500D03*
X373856250Y-99695000D03*
G36*
G01*
X373056250Y-91224000D02*
X374656250Y-91224000D01*
G75*
G02*
X374707250Y-91275000I0J-51000D01*
G01*
X374707250Y-92875000D01*
G75*
G02*
X374656250Y-92926000I-51000J0D01*
G01*
X373056250Y-92926000D01*
G75*
G02*
X373005250Y-92875000I0J51000D01*
G01*
X373005250Y-91275000D01*
G75*
G02*
X373056250Y-91224000I51000J0D01*
G01*
G37*
X359568750Y-99695000D03*
G36*
G01*
X358768750Y-91224000D02*
X360368750Y-91224000D01*
G75*
G02*
X360419750Y-91275000I0J-51000D01*
G01*
X360419750Y-92875000D01*
G75*
G02*
X360368750Y-92926000I-51000J0D01*
G01*
X358768750Y-92926000D01*
G75*
G02*
X358717750Y-92875000I0J51000D01*
G01*
X358717750Y-91275000D01*
G75*
G02*
X358768750Y-91224000I51000J0D01*
G01*
G37*
X356393750Y-101282500D03*
G36*
G01*
X355593750Y-92811500D02*
X357193750Y-92811500D01*
G75*
G02*
X357244750Y-92862500I0J-51000D01*
G01*
X357244750Y-94462500D01*
G75*
G02*
X357193750Y-94513500I-51000J0D01*
G01*
X355593750Y-94513500D01*
G75*
G02*
X355542750Y-94462500I0J51000D01*
G01*
X355542750Y-92862500D01*
G75*
G02*
X355593750Y-92811500I51000J0D01*
G01*
G37*
X353218750Y-102870000D03*
G36*
G01*
X352418750Y-94399000D02*
X354018750Y-94399000D01*
G75*
G02*
X354069750Y-94450000I0J-51000D01*
G01*
X354069750Y-96050000D01*
G75*
G02*
X354018750Y-96101000I-51000J0D01*
G01*
X352418750Y-96101000D01*
G75*
G02*
X352367750Y-96050000I0J51000D01*
G01*
X352367750Y-94450000D01*
G75*
G02*
X352418750Y-94399000I51000J0D01*
G01*
G37*
X56356250Y-101282500D03*
G36*
G01*
X55556250Y-92811500D02*
X57156250Y-92811500D01*
G75*
G02*
X57207250Y-92862500I0J-51000D01*
G01*
X57207250Y-94462500D01*
G75*
G02*
X57156250Y-94513500I-51000J0D01*
G01*
X55556250Y-94513500D01*
G75*
G02*
X55505250Y-94462500I0J51000D01*
G01*
X55505250Y-92862500D01*
G75*
G02*
X55556250Y-92811500I51000J0D01*
G01*
G37*
X53181250Y-99695000D03*
G36*
G01*
X52381250Y-91224000D02*
X53981250Y-91224000D01*
G75*
G02*
X54032250Y-91275000I0J-51000D01*
G01*
X54032250Y-92875000D01*
G75*
G02*
X53981250Y-92926000I-51000J0D01*
G01*
X52381250Y-92926000D01*
G75*
G02*
X52330250Y-92875000I0J51000D01*
G01*
X52330250Y-91275000D01*
G75*
G02*
X52381250Y-91224000I51000J0D01*
G01*
G37*
X50006250Y-98107500D03*
G36*
G01*
X49206250Y-89636500D02*
X50806250Y-89636500D01*
G75*
G02*
X50857250Y-89687500I0J-51000D01*
G01*
X50857250Y-91287500D01*
G75*
G02*
X50806250Y-91338500I-51000J0D01*
G01*
X49206250Y-91338500D01*
G75*
G02*
X49155250Y-91287500I0J51000D01*
G01*
X49155250Y-89687500D01*
G75*
G02*
X49206250Y-89636500I51000J0D01*
G01*
G37*
X42068750Y-101282500D03*
G36*
G01*
X41268750Y-92811500D02*
X42868750Y-92811500D01*
G75*
G02*
X42919750Y-92862500I0J-51000D01*
G01*
X42919750Y-94462500D01*
G75*
G02*
X42868750Y-94513500I-51000J0D01*
G01*
X41268750Y-94513500D01*
G75*
G02*
X41217750Y-94462500I0J51000D01*
G01*
X41217750Y-92862500D01*
G75*
G02*
X41268750Y-92811500I51000J0D01*
G01*
G37*
X377031250Y-98107500D03*
G36*
G01*
X376231250Y-89636500D02*
X377831250Y-89636500D01*
G75*
G02*
X377882250Y-89687500I0J-51000D01*
G01*
X377882250Y-91287500D01*
G75*
G02*
X377831250Y-91338500I-51000J0D01*
G01*
X376231250Y-91338500D01*
G75*
G02*
X376180250Y-91287500I0J51000D01*
G01*
X376180250Y-89687500D01*
G75*
G02*
X376231250Y-89636500I51000J0D01*
G01*
G37*
X342106250Y-101282500D03*
G36*
G01*
X341306250Y-92811500D02*
X342906250Y-92811500D01*
G75*
G02*
X342957250Y-92862500I0J-51000D01*
G01*
X342957250Y-94462500D01*
G75*
G02*
X342906250Y-94513500I-51000J0D01*
G01*
X341306250Y-94513500D01*
G75*
G02*
X341255250Y-94462500I0J51000D01*
G01*
X341255250Y-92862500D01*
G75*
G02*
X341306250Y-92811500I51000J0D01*
G01*
G37*
X330993750Y-99695000D03*
G36*
G01*
X330193750Y-91224000D02*
X331793750Y-91224000D01*
G75*
G02*
X331844750Y-91275000I0J-51000D01*
G01*
X331844750Y-92875000D01*
G75*
G02*
X331793750Y-92926000I-51000J0D01*
G01*
X330193750Y-92926000D01*
G75*
G02*
X330142750Y-92875000I0J51000D01*
G01*
X330142750Y-91275000D01*
G75*
G02*
X330193750Y-91224000I51000J0D01*
G01*
G37*
X316706250Y-99695000D03*
G36*
G01*
X315906250Y-91224000D02*
X317506250Y-91224000D01*
G75*
G02*
X317557250Y-91275000I0J-51000D01*
G01*
X317557250Y-92875000D01*
G75*
G02*
X317506250Y-92926000I-51000J0D01*
G01*
X315906250Y-92926000D01*
G75*
G02*
X315855250Y-92875000I0J51000D01*
G01*
X315855250Y-91275000D01*
G75*
G02*
X315906250Y-91224000I51000J0D01*
G01*
G37*
X302418750Y-99695000D03*
G36*
G01*
X301618750Y-91224000D02*
X303218750Y-91224000D01*
G75*
G02*
X303269750Y-91275000I0J-51000D01*
G01*
X303269750Y-92875000D01*
G75*
G02*
X303218750Y-92926000I-51000J0D01*
G01*
X301618750Y-92926000D01*
G75*
G02*
X301567750Y-92875000I0J51000D01*
G01*
X301567750Y-91275000D01*
G75*
G02*
X301618750Y-91224000I51000J0D01*
G01*
G37*
X288131250Y-99695000D03*
G36*
G01*
X287331250Y-91224000D02*
X288931250Y-91224000D01*
G75*
G02*
X288982250Y-91275000I0J-51000D01*
G01*
X288982250Y-92875000D01*
G75*
G02*
X288931250Y-92926000I-51000J0D01*
G01*
X287331250Y-92926000D01*
G75*
G02*
X287280250Y-92875000I0J51000D01*
G01*
X287280250Y-91275000D01*
G75*
G02*
X287331250Y-91224000I51000J0D01*
G01*
G37*
X273843750Y-99695000D03*
G36*
G01*
X273043750Y-91224000D02*
X274643750Y-91224000D01*
G75*
G02*
X274694750Y-91275000I0J-51000D01*
G01*
X274694750Y-92875000D01*
G75*
G02*
X274643750Y-92926000I-51000J0D01*
G01*
X273043750Y-92926000D01*
G75*
G02*
X272992750Y-92875000I0J51000D01*
G01*
X272992750Y-91275000D01*
G75*
G02*
X273043750Y-91224000I51000J0D01*
G01*
G37*
X142081250Y-101282500D03*
G36*
G01*
X141281250Y-92811500D02*
X142881250Y-92811500D01*
G75*
G02*
X142932250Y-92862500I0J-51000D01*
G01*
X142932250Y-94462500D01*
G75*
G02*
X142881250Y-94513500I-51000J0D01*
G01*
X141281250Y-94513500D01*
G75*
G02*
X141230250Y-94462500I0J51000D01*
G01*
X141230250Y-92862500D01*
G75*
G02*
X141281250Y-92811500I51000J0D01*
G01*
G37*
G36*
G01*
X112706250Y-92811500D02*
X114306250Y-92811500D01*
G75*
G02*
X114357250Y-92862500I0J-51000D01*
G01*
X114357250Y-94462500D01*
G75*
G02*
X114306250Y-94513500I-51000J0D01*
G01*
X112706250Y-94513500D01*
G75*
G02*
X112655250Y-94462500I0J51000D01*
G01*
X112655250Y-92862500D01*
G75*
G02*
X112706250Y-92811500I51000J0D01*
G01*
G37*
X113506250Y-101282500D03*
X99218750Y-101282500D03*
G36*
G01*
X98418750Y-92811500D02*
X100018750Y-92811500D01*
G75*
G02*
X100069750Y-92862500I0J-51000D01*
G01*
X100069750Y-94462500D01*
G75*
G02*
X100018750Y-94513500I-51000J0D01*
G01*
X98418750Y-94513500D01*
G75*
G02*
X98367750Y-94462500I0J51000D01*
G01*
X98367750Y-92862500D01*
G75*
G02*
X98418750Y-92811500I51000J0D01*
G01*
G37*
X84931250Y-101282500D03*
G36*
G01*
X84131250Y-92811500D02*
X85731250Y-92811500D01*
G75*
G02*
X85782250Y-92862500I0J-51000D01*
G01*
X85782250Y-94462500D01*
G75*
G02*
X85731250Y-94513500I-51000J0D01*
G01*
X84131250Y-94513500D01*
G75*
G02*
X84080250Y-94462500I0J51000D01*
G01*
X84080250Y-92862500D01*
G75*
G02*
X84131250Y-92811500I51000J0D01*
G01*
G37*
X70643750Y-101282500D03*
G36*
G01*
X69843750Y-92811500D02*
X71443750Y-92811500D01*
G75*
G02*
X71494750Y-92862500I0J-51000D01*
G01*
X71494750Y-94462500D01*
G75*
G02*
X71443750Y-94513500I-51000J0D01*
G01*
X69843750Y-94513500D01*
G75*
G02*
X69792750Y-94462500I0J51000D01*
G01*
X69792750Y-92862500D01*
G75*
G02*
X69843750Y-92811500I51000J0D01*
G01*
G37*
X345281250Y-99695000D03*
G36*
G01*
X344481250Y-91224000D02*
X346081250Y-91224000D01*
G75*
G02*
X346132250Y-91275000I0J-51000D01*
G01*
X346132250Y-92875000D01*
G75*
G02*
X346081250Y-92926000I-51000J0D01*
G01*
X344481250Y-92926000D01*
G75*
G02*
X344430250Y-92875000I0J51000D01*
G01*
X344430250Y-91275000D01*
G75*
G02*
X344481250Y-91224000I51000J0D01*
G01*
G37*
X334168750Y-98107500D03*
G36*
G01*
X333368750Y-89636500D02*
X334968750Y-89636500D01*
G75*
G02*
X335019750Y-89687500I0J-51000D01*
G01*
X335019750Y-91287500D01*
G75*
G02*
X334968750Y-91338500I-51000J0D01*
G01*
X333368750Y-91338500D01*
G75*
G02*
X333317750Y-91287500I0J51000D01*
G01*
X333317750Y-89687500D01*
G75*
G02*
X333368750Y-89636500I51000J0D01*
G01*
G37*
X319881250Y-98107500D03*
G36*
G01*
X319081250Y-89636500D02*
X320681250Y-89636500D01*
G75*
G02*
X320732250Y-89687500I0J-51000D01*
G01*
X320732250Y-91287500D01*
G75*
G02*
X320681250Y-91338500I-51000J0D01*
G01*
X319081250Y-91338500D01*
G75*
G02*
X319030250Y-91287500I0J51000D01*
G01*
X319030250Y-89687500D01*
G75*
G02*
X319081250Y-89636500I51000J0D01*
G01*
G37*
X305593750Y-98107500D03*
G36*
G01*
X304793750Y-89636500D02*
X306393750Y-89636500D01*
G75*
G02*
X306444750Y-89687500I0J-51000D01*
G01*
X306444750Y-91287500D01*
G75*
G02*
X306393750Y-91338500I-51000J0D01*
G01*
X304793750Y-91338500D01*
G75*
G02*
X304742750Y-91287500I0J51000D01*
G01*
X304742750Y-89687500D01*
G75*
G02*
X304793750Y-89636500I51000J0D01*
G01*
G37*
X291306250Y-98107500D03*
G36*
G01*
X290506250Y-89636500D02*
X292106250Y-89636500D01*
G75*
G02*
X292157250Y-89687500I0J-51000D01*
G01*
X292157250Y-91287500D01*
G75*
G02*
X292106250Y-91338500I-51000J0D01*
G01*
X290506250Y-91338500D01*
G75*
G02*
X290455250Y-91287500I0J51000D01*
G01*
X290455250Y-89687500D01*
G75*
G02*
X290506250Y-89636500I51000J0D01*
G01*
G37*
X277018750Y-98107500D03*
G36*
G01*
X276218750Y-89636500D02*
X277818750Y-89636500D01*
G75*
G02*
X277869750Y-89687500I0J-51000D01*
G01*
X277869750Y-91287500D01*
G75*
G02*
X277818750Y-91338500I-51000J0D01*
G01*
X276218750Y-91338500D01*
G75*
G02*
X276167750Y-91287500I0J51000D01*
G01*
X276167750Y-89687500D01*
G75*
G02*
X276218750Y-89636500I51000J0D01*
G01*
G37*
X262731250Y-98107500D03*
G36*
G01*
X261931250Y-89636500D02*
X263531250Y-89636500D01*
G75*
G02*
X263582250Y-89687500I0J-51000D01*
G01*
X263582250Y-91287500D01*
G75*
G02*
X263531250Y-91338500I-51000J0D01*
G01*
X261931250Y-91338500D01*
G75*
G02*
X261880250Y-91287500I0J51000D01*
G01*
X261880250Y-89687500D01*
G75*
G02*
X261931250Y-89636500I51000J0D01*
G01*
G37*
X138906250Y-99695000D03*
G36*
G01*
X138106250Y-91224000D02*
X139706250Y-91224000D01*
G75*
G02*
X139757250Y-91275000I0J-51000D01*
G01*
X139757250Y-92875000D01*
G75*
G02*
X139706250Y-92926000I-51000J0D01*
G01*
X138106250Y-92926000D01*
G75*
G02*
X138055250Y-92875000I0J51000D01*
G01*
X138055250Y-91275000D01*
G75*
G02*
X138106250Y-91224000I51000J0D01*
G01*
G37*
X124618750Y-99695000D03*
G36*
G01*
X123818750Y-91224000D02*
X125418750Y-91224000D01*
G75*
G02*
X125469750Y-91275000I0J-51000D01*
G01*
X125469750Y-92875000D01*
G75*
G02*
X125418750Y-92926000I-51000J0D01*
G01*
X123818750Y-92926000D01*
G75*
G02*
X123767750Y-92875000I0J51000D01*
G01*
X123767750Y-91275000D01*
G75*
G02*
X123818750Y-91224000I51000J0D01*
G01*
G37*
X110331250Y-99695000D03*
G36*
G01*
X109531250Y-91224000D02*
X111131250Y-91224000D01*
G75*
G02*
X111182250Y-91275000I0J-51000D01*
G01*
X111182250Y-92875000D01*
G75*
G02*
X111131250Y-92926000I-51000J0D01*
G01*
X109531250Y-92926000D01*
G75*
G02*
X109480250Y-92875000I0J51000D01*
G01*
X109480250Y-91275000D01*
G75*
G02*
X109531250Y-91224000I51000J0D01*
G01*
G37*
X96043750Y-99695000D03*
G36*
G01*
X95243750Y-91224000D02*
X96843750Y-91224000D01*
G75*
G02*
X96894750Y-91275000I0J-51000D01*
G01*
X96894750Y-92875000D01*
G75*
G02*
X96843750Y-92926000I-51000J0D01*
G01*
X95243750Y-92926000D01*
G75*
G02*
X95192750Y-92875000I0J51000D01*
G01*
X95192750Y-91275000D01*
G75*
G02*
X95243750Y-91224000I51000J0D01*
G01*
G37*
X81756250Y-99695000D03*
G36*
G01*
X80956250Y-91224000D02*
X82556250Y-91224000D01*
G75*
G02*
X82607250Y-91275000I0J-51000D01*
G01*
X82607250Y-92875000D01*
G75*
G02*
X82556250Y-92926000I-51000J0D01*
G01*
X80956250Y-92926000D01*
G75*
G02*
X80905250Y-92875000I0J51000D01*
G01*
X80905250Y-91275000D01*
G75*
G02*
X80956250Y-91224000I51000J0D01*
G01*
G37*
X67468750Y-99695000D03*
G36*
G01*
X66668750Y-91224000D02*
X68268750Y-91224000D01*
G75*
G02*
X68319750Y-91275000I0J-51000D01*
G01*
X68319750Y-92875000D01*
G75*
G02*
X68268750Y-92926000I-51000J0D01*
G01*
X66668750Y-92926000D01*
G75*
G02*
X66617750Y-92875000I0J51000D01*
G01*
X66617750Y-91275000D01*
G75*
G02*
X66668750Y-91224000I51000J0D01*
G01*
G37*
X38893750Y-99695000D03*
G36*
G01*
X38093750Y-91224000D02*
X39693750Y-91224000D01*
G75*
G02*
X39744750Y-91275000I0J-51000D01*
G01*
X39744750Y-92875000D01*
G75*
G02*
X39693750Y-92926000I-51000J0D01*
G01*
X38093750Y-92926000D01*
G75*
G02*
X38042750Y-92875000I0J51000D01*
G01*
X38042750Y-91275000D01*
G75*
G02*
X38093750Y-91224000I51000J0D01*
G01*
G37*
X362743750Y-98107500D03*
G36*
G01*
X361943750Y-89636500D02*
X363543750Y-89636500D01*
G75*
G02*
X363594750Y-89687500I0J-51000D01*
G01*
X363594750Y-91287500D01*
G75*
G02*
X363543750Y-91338500I-51000J0D01*
G01*
X361943750Y-91338500D01*
G75*
G02*
X361892750Y-91287500I0J51000D01*
G01*
X361892750Y-89687500D01*
G75*
G02*
X361943750Y-89636500I51000J0D01*
G01*
G37*
X338931250Y-102870000D03*
G36*
G01*
X338131250Y-94399000D02*
X339731250Y-94399000D01*
G75*
G02*
X339782250Y-94450000I0J-51000D01*
G01*
X339782250Y-96050000D01*
G75*
G02*
X339731250Y-96101000I-51000J0D01*
G01*
X338131250Y-96101000D01*
G75*
G02*
X338080250Y-96050000I0J51000D01*
G01*
X338080250Y-94450000D01*
G75*
G02*
X338131250Y-94399000I51000J0D01*
G01*
G37*
X327818750Y-101282500D03*
G36*
G01*
X327018750Y-92811500D02*
X328618750Y-92811500D01*
G75*
G02*
X328669750Y-92862500I0J-51000D01*
G01*
X328669750Y-94462500D01*
G75*
G02*
X328618750Y-94513500I-51000J0D01*
G01*
X327018750Y-94513500D01*
G75*
G02*
X326967750Y-94462500I0J51000D01*
G01*
X326967750Y-92862500D01*
G75*
G02*
X327018750Y-92811500I51000J0D01*
G01*
G37*
X313531250Y-101282500D03*
G36*
G01*
X312731250Y-92811500D02*
X314331250Y-92811500D01*
G75*
G02*
X314382250Y-92862500I0J-51000D01*
G01*
X314382250Y-94462500D01*
G75*
G02*
X314331250Y-94513500I-51000J0D01*
G01*
X312731250Y-94513500D01*
G75*
G02*
X312680250Y-94462500I0J51000D01*
G01*
X312680250Y-92862500D01*
G75*
G02*
X312731250Y-92811500I51000J0D01*
G01*
G37*
X299243750Y-101282500D03*
G36*
G01*
X298443750Y-92811500D02*
X300043750Y-92811500D01*
G75*
G02*
X300094750Y-92862500I0J-51000D01*
G01*
X300094750Y-94462500D01*
G75*
G02*
X300043750Y-94513500I-51000J0D01*
G01*
X298443750Y-94513500D01*
G75*
G02*
X298392750Y-94462500I0J51000D01*
G01*
X298392750Y-92862500D01*
G75*
G02*
X298443750Y-92811500I51000J0D01*
G01*
G37*
X284956250Y-101282500D03*
G36*
G01*
X284156250Y-92811500D02*
X285756250Y-92811500D01*
G75*
G02*
X285807250Y-92862500I0J-51000D01*
G01*
X285807250Y-94462500D01*
G75*
G02*
X285756250Y-94513500I-51000J0D01*
G01*
X284156250Y-94513500D01*
G75*
G02*
X284105250Y-94462500I0J51000D01*
G01*
X284105250Y-92862500D01*
G75*
G02*
X284156250Y-92811500I51000J0D01*
G01*
G37*
X270668750Y-101282500D03*
G36*
G01*
X269868750Y-92811500D02*
X271468750Y-92811500D01*
G75*
G02*
X271519750Y-92862500I0J-51000D01*
G01*
X271519750Y-94462500D01*
G75*
G02*
X271468750Y-94513500I-51000J0D01*
G01*
X269868750Y-94513500D01*
G75*
G02*
X269817750Y-94462500I0J51000D01*
G01*
X269817750Y-92862500D01*
G75*
G02*
X269868750Y-92811500I51000J0D01*
G01*
G37*
X256381250Y-101282500D03*
G36*
G01*
X255581250Y-92811500D02*
X257181250Y-92811500D01*
G75*
G02*
X257232250Y-92862500I0J-51000D01*
G01*
X257232250Y-94462500D01*
G75*
G02*
X257181250Y-94513500I-51000J0D01*
G01*
X255581250Y-94513500D01*
G75*
G02*
X255530250Y-94462500I0J51000D01*
G01*
X255530250Y-92862500D01*
G75*
G02*
X255581250Y-92811500I51000J0D01*
G01*
G37*
X135731250Y-98107500D03*
G36*
G01*
X134931250Y-89636500D02*
X136531250Y-89636500D01*
G75*
G02*
X136582250Y-89687500I0J-51000D01*
G01*
X136582250Y-91287500D01*
G75*
G02*
X136531250Y-91338500I-51000J0D01*
G01*
X134931250Y-91338500D01*
G75*
G02*
X134880250Y-91287500I0J51000D01*
G01*
X134880250Y-89687500D01*
G75*
G02*
X134931250Y-89636500I51000J0D01*
G01*
G37*
X121443750Y-98107500D03*
G36*
G01*
X120643750Y-89636500D02*
X122243750Y-89636500D01*
G75*
G02*
X122294750Y-89687500I0J-51000D01*
G01*
X122294750Y-91287500D01*
G75*
G02*
X122243750Y-91338500I-51000J0D01*
G01*
X120643750Y-91338500D01*
G75*
G02*
X120592750Y-91287500I0J51000D01*
G01*
X120592750Y-89687500D01*
G75*
G02*
X120643750Y-89636500I51000J0D01*
G01*
G37*
X107156250Y-98107500D03*
G36*
G01*
X106356250Y-89636500D02*
X107956250Y-89636500D01*
G75*
G02*
X108007250Y-89687500I0J-51000D01*
G01*
X108007250Y-91287500D01*
G75*
G02*
X107956250Y-91338500I-51000J0D01*
G01*
X106356250Y-91338500D01*
G75*
G02*
X106305250Y-91287500I0J51000D01*
G01*
X106305250Y-89687500D01*
G75*
G02*
X106356250Y-89636500I51000J0D01*
G01*
G37*
X92868750Y-98107500D03*
G36*
G01*
X92068750Y-89636500D02*
X93668750Y-89636500D01*
G75*
G02*
X93719750Y-89687500I0J-51000D01*
G01*
X93719750Y-91287500D01*
G75*
G02*
X93668750Y-91338500I-51000J0D01*
G01*
X92068750Y-91338500D01*
G75*
G02*
X92017750Y-91287500I0J51000D01*
G01*
X92017750Y-89687500D01*
G75*
G02*
X92068750Y-89636500I51000J0D01*
G01*
G37*
X78581250Y-98107500D03*
G36*
G01*
X77781250Y-89636500D02*
X79381250Y-89636500D01*
G75*
G02*
X79432250Y-89687500I0J-51000D01*
G01*
X79432250Y-91287500D01*
G75*
G02*
X79381250Y-91338500I-51000J0D01*
G01*
X77781250Y-91338500D01*
G75*
G02*
X77730250Y-91287500I0J51000D01*
G01*
X77730250Y-89687500D01*
G75*
G02*
X77781250Y-89636500I51000J0D01*
G01*
G37*
G36*
G01*
X63493750Y-89636500D02*
X65093750Y-89636500D01*
G75*
G02*
X65144750Y-89687500I0J-51000D01*
G01*
X65144750Y-91287500D01*
G75*
G02*
X65093750Y-91338500I-51000J0D01*
G01*
X63493750Y-91338500D01*
G75*
G02*
X63442750Y-91287500I0J51000D01*
G01*
X63442750Y-89687500D01*
G75*
G02*
X63493750Y-89636500I51000J0D01*
G01*
G37*
X64293750Y-98107500D03*
G36*
G01*
X34918750Y-89636500D02*
X36518750Y-89636500D01*
G75*
G02*
X36569750Y-89687500I0J-51000D01*
G01*
X36569750Y-91287500D01*
G75*
G02*
X36518750Y-91338500I-51000J0D01*
G01*
X34918750Y-91338500D01*
G75*
G02*
X34867750Y-91287500I0J51000D01*
G01*
X34867750Y-89687500D01*
G75*
G02*
X34918750Y-89636500I51000J0D01*
G01*
G37*
X35718750Y-98107500D03*
X348456250Y-98107500D03*
G36*
G01*
X347656250Y-89636500D02*
X349256250Y-89636500D01*
G75*
G02*
X349307250Y-89687500I0J-51000D01*
G01*
X349307250Y-91287500D01*
G75*
G02*
X349256250Y-91338500I-51000J0D01*
G01*
X347656250Y-91338500D01*
G75*
G02*
X347605250Y-91287500I0J51000D01*
G01*
X347605250Y-89687500D01*
G75*
G02*
X347656250Y-89636500I51000J0D01*
G01*
G37*
X324643750Y-102870000D03*
G36*
G01*
X323843750Y-94399000D02*
X325443750Y-94399000D01*
G75*
G02*
X325494750Y-94450000I0J-51000D01*
G01*
X325494750Y-96050000D01*
G75*
G02*
X325443750Y-96101000I-51000J0D01*
G01*
X323843750Y-96101000D01*
G75*
G02*
X323792750Y-96050000I0J51000D01*
G01*
X323792750Y-94450000D01*
G75*
G02*
X323843750Y-94399000I51000J0D01*
G01*
G37*
X310356250Y-102870000D03*
G36*
G01*
X309556250Y-94399000D02*
X311156250Y-94399000D01*
G75*
G02*
X311207250Y-94450000I0J-51000D01*
G01*
X311207250Y-96050000D01*
G75*
G02*
X311156250Y-96101000I-51000J0D01*
G01*
X309556250Y-96101000D01*
G75*
G02*
X309505250Y-96050000I0J51000D01*
G01*
X309505250Y-94450000D01*
G75*
G02*
X309556250Y-94399000I51000J0D01*
G01*
G37*
X296068750Y-102870000D03*
G36*
G01*
X295268750Y-94399000D02*
X296868750Y-94399000D01*
G75*
G02*
X296919750Y-94450000I0J-51000D01*
G01*
X296919750Y-96050000D01*
G75*
G02*
X296868750Y-96101000I-51000J0D01*
G01*
X295268750Y-96101000D01*
G75*
G02*
X295217750Y-96050000I0J51000D01*
G01*
X295217750Y-94450000D01*
G75*
G02*
X295268750Y-94399000I51000J0D01*
G01*
G37*
X281781250Y-102870000D03*
G36*
G01*
X280981250Y-94399000D02*
X282581250Y-94399000D01*
G75*
G02*
X282632250Y-94450000I0J-51000D01*
G01*
X282632250Y-96050000D01*
G75*
G02*
X282581250Y-96101000I-51000J0D01*
G01*
X280981250Y-96101000D01*
G75*
G02*
X280930250Y-96050000I0J51000D01*
G01*
X280930250Y-94450000D01*
G75*
G02*
X280981250Y-94399000I51000J0D01*
G01*
G37*
X267493750Y-102870000D03*
G36*
G01*
X266693750Y-94399000D02*
X268293750Y-94399000D01*
G75*
G02*
X268344750Y-94450000I0J-51000D01*
G01*
X268344750Y-96050000D01*
G75*
G02*
X268293750Y-96101000I-51000J0D01*
G01*
X266693750Y-96101000D01*
G75*
G02*
X266642750Y-96050000I0J51000D01*
G01*
X266642750Y-94450000D01*
G75*
G02*
X266693750Y-94399000I51000J0D01*
G01*
G37*
X253206250Y-102870000D03*
G36*
G01*
X252406250Y-94399000D02*
X254006250Y-94399000D01*
G75*
G02*
X254057250Y-94450000I0J-51000D01*
G01*
X254057250Y-96050000D01*
G75*
G02*
X254006250Y-96101000I-51000J0D01*
G01*
X252406250Y-96101000D01*
G75*
G02*
X252355250Y-96050000I0J51000D01*
G01*
X252355250Y-94450000D01*
G75*
G02*
X252406250Y-94399000I51000J0D01*
G01*
G37*
X145256250Y-102870000D03*
G36*
G01*
X144456250Y-94399000D02*
X146056250Y-94399000D01*
G75*
G02*
X146107250Y-94450000I0J-51000D01*
G01*
X146107250Y-96050000D01*
G75*
G02*
X146056250Y-96101000I-51000J0D01*
G01*
X144456250Y-96101000D01*
G75*
G02*
X144405250Y-96050000I0J51000D01*
G01*
X144405250Y-94450000D01*
G75*
G02*
X144456250Y-94399000I51000J0D01*
G01*
G37*
X130968750Y-102870000D03*
G36*
G01*
X130168750Y-94399000D02*
X131768750Y-94399000D01*
G75*
G02*
X131819750Y-94450000I0J-51000D01*
G01*
X131819750Y-96050000D01*
G75*
G02*
X131768750Y-96101000I-51000J0D01*
G01*
X130168750Y-96101000D01*
G75*
G02*
X130117750Y-96050000I0J51000D01*
G01*
X130117750Y-94450000D01*
G75*
G02*
X130168750Y-94399000I51000J0D01*
G01*
G37*
X102393750Y-102870000D03*
G36*
G01*
X101593750Y-94399000D02*
X103193750Y-94399000D01*
G75*
G02*
X103244750Y-94450000I0J-51000D01*
G01*
X103244750Y-96050000D01*
G75*
G02*
X103193750Y-96101000I-51000J0D01*
G01*
X101593750Y-96101000D01*
G75*
G02*
X101542750Y-96050000I0J51000D01*
G01*
X101542750Y-94450000D01*
G75*
G02*
X101593750Y-94399000I51000J0D01*
G01*
G37*
X88106250Y-102870000D03*
G36*
G01*
X87306250Y-94399000D02*
X88906250Y-94399000D01*
G75*
G02*
X88957250Y-94450000I0J-51000D01*
G01*
X88957250Y-96050000D01*
G75*
G02*
X88906250Y-96101000I-51000J0D01*
G01*
X87306250Y-96101000D01*
G75*
G02*
X87255250Y-96050000I0J51000D01*
G01*
X87255250Y-94450000D01*
G75*
G02*
X87306250Y-94399000I51000J0D01*
G01*
G37*
X73818750Y-102870000D03*
G36*
G01*
X73018750Y-94399000D02*
X74618750Y-94399000D01*
G75*
G02*
X74669750Y-94450000I0J-51000D01*
G01*
X74669750Y-96050000D01*
G75*
G02*
X74618750Y-96101000I-51000J0D01*
G01*
X73018750Y-96101000D01*
G75*
G02*
X72967750Y-96050000I0J51000D01*
G01*
X72967750Y-94450000D01*
G75*
G02*
X73018750Y-94399000I51000J0D01*
G01*
G37*
X59531250Y-102870000D03*
G36*
G01*
X58731250Y-94399000D02*
X60331250Y-94399000D01*
G75*
G02*
X60382250Y-94450000I0J-51000D01*
G01*
X60382250Y-96050000D01*
G75*
G02*
X60331250Y-96101000I-51000J0D01*
G01*
X58731250Y-96101000D01*
G75*
G02*
X58680250Y-96050000I0J51000D01*
G01*
X58680250Y-94450000D01*
G75*
G02*
X58731250Y-94399000I51000J0D01*
G01*
G37*
X45243750Y-102870000D03*
G36*
G01*
X44443750Y-94399000D02*
X46043750Y-94399000D01*
G75*
G02*
X46094750Y-94450000I0J-51000D01*
G01*
X46094750Y-96050000D01*
G75*
G02*
X46043750Y-96101000I-51000J0D01*
G01*
X44443750Y-96101000D01*
G75*
G02*
X44392750Y-96050000I0J51000D01*
G01*
X44392750Y-94450000D01*
G75*
G02*
X44443750Y-94399000I51000J0D01*
G01*
G37*
D26*
X180181250Y-96837500D03*
D25*
X175101250Y-96837500D03*
D12*
X216457096Y-188334168D03*
X206519116Y-190446550D03*
D13*
X207233268Y-187698008D03*
D14*
X211488106Y-189390359D03*
D13*
X212916410Y-183893273D03*
D28*
X184943750Y-92162500D03*
G36*
G01*
X185543751Y-94313500D02*
X184343749Y-94313500D01*
G75*
G02*
X184292750Y-94262501I0J50999D01*
G01*
X184292750Y-93062499D01*
G75*
G02*
X184343749Y-93011500I50999J0D01*
G01*
X185543751Y-93011500D01*
G75*
G02*
X185594750Y-93062499I0J-50999D01*
G01*
X185594750Y-94262501D01*
G75*
G02*
X185543751Y-94313500I-50999J0D01*
G01*
G37*
D29*
G36*
X184953295Y-210987381D02*
G01*
X184991577Y-211079801D01*
X185045681Y-211160774D01*
X185045812Y-211162770D01*
X185044149Y-211163881D01*
X185042472Y-211163154D01*
X185030949Y-211149113D01*
X185012312Y-211133818D01*
X184991049Y-211122452D01*
X184967974Y-211115452D01*
X184943983Y-211113089D01*
X184919992Y-211115452D01*
X184896917Y-211122452D01*
X184875653Y-211133817D01*
X184857016Y-211149112D01*
X184845490Y-211163156D01*
X184843618Y-211163860D01*
X184842072Y-211162591D01*
X184842281Y-211160776D01*
X184935668Y-211021012D01*
X184949599Y-210987381D01*
X184951186Y-210986163D01*
X184953295Y-210987381D01*
G37*
G36*
X185154143Y-209772402D02*
G01*
X185159415Y-209789783D01*
X185170780Y-209811046D01*
X185186075Y-209829683D01*
X185204712Y-209844979D01*
X185225976Y-209856344D01*
X185249051Y-209863344D01*
X185273042Y-209865707D01*
X185297033Y-209863344D01*
X185320108Y-209856344D01*
X185336125Y-209847783D01*
X185338124Y-209847849D01*
X185339067Y-209849612D01*
X185338179Y-209851210D01*
X185220289Y-209929981D01*
X185170467Y-209979803D01*
X185168535Y-209980321D01*
X185167053Y-209978389D01*
X185167053Y-209857764D01*
X185150267Y-209773373D01*
X185150910Y-209771479D01*
X185152872Y-209771089D01*
X185154143Y-209772402D01*
G37*
G36*
X178804420Y-209667655D02*
G01*
X178804420Y-209788280D01*
X178821206Y-209872671D01*
X178820563Y-209874565D01*
X178818601Y-209874955D01*
X178817330Y-209873642D01*
X178812058Y-209856261D01*
X178800693Y-209834998D01*
X178785398Y-209816361D01*
X178766761Y-209801065D01*
X178745497Y-209789700D01*
X178722422Y-209782700D01*
X178698431Y-209780337D01*
X178674440Y-209782700D01*
X178651365Y-209789700D01*
X178635348Y-209798261D01*
X178633349Y-209798195D01*
X178632406Y-209796432D01*
X178633294Y-209794834D01*
X178751184Y-209716063D01*
X178801006Y-209666241D01*
X178802938Y-209665723D01*
X178804420Y-209667655D01*
G37*
G36*
X178929001Y-208482890D02*
G01*
X178940524Y-208496931D01*
X178959161Y-208512226D01*
X178980424Y-208523592D01*
X179003499Y-208530592D01*
X179027490Y-208532955D01*
X179051481Y-208530592D01*
X179074556Y-208523592D01*
X179095820Y-208512227D01*
X179114457Y-208496932D01*
X179125983Y-208482888D01*
X179127855Y-208482184D01*
X179129401Y-208483453D01*
X179129192Y-208485268D01*
X179035805Y-208625032D01*
X179021874Y-208658663D01*
X179020287Y-208659881D01*
X179018178Y-208658663D01*
X178979896Y-208566243D01*
X178925792Y-208485270D01*
X178925661Y-208483274D01*
X178927324Y-208482163D01*
X178929001Y-208482890D01*
G37*
G36*
X179594560Y-207904800D02*
G01*
X179668938Y-207919595D01*
X179670442Y-207920914D01*
X179669659Y-207923220D01*
X179541476Y-208008869D01*
X179501176Y-208049169D01*
X179499244Y-208049687D01*
X179497830Y-208048273D01*
X179498216Y-208046486D01*
X179509737Y-208032448D01*
X179521102Y-208011184D01*
X179528102Y-207988109D01*
X179530465Y-207964118D01*
X179528102Y-207940127D01*
X179521102Y-207917052D01*
X179509737Y-207895788D01*
X179494442Y-207877151D01*
X179475805Y-207861857D01*
X179459780Y-207853292D01*
X179458724Y-207851594D01*
X179459667Y-207849830D01*
X179461488Y-207849680D01*
X179594560Y-207904800D01*
G37*
G36*
X180953858Y-207365413D02*
G01*
X180953828Y-207367241D01*
X180945263Y-207383265D01*
X180938263Y-207406340D01*
X180935900Y-207430331D01*
X180938263Y-207454322D01*
X180945263Y-207477397D01*
X180956628Y-207498661D01*
X180971923Y-207517298D01*
X180990560Y-207532593D01*
X181011824Y-207543958D01*
X181034989Y-207550985D01*
X181035211Y-207551029D01*
X181036715Y-207552348D01*
X181036325Y-207554309D01*
X181034821Y-207554991D01*
X180818831Y-207554991D01*
X180817099Y-207553991D01*
X180817417Y-207551577D01*
X180842859Y-207526135D01*
X180950401Y-207365187D01*
X180952195Y-207364302D01*
X180953858Y-207365413D01*
G37*
G36*
X178778839Y-206033484D02*
G01*
X178784112Y-206050867D01*
X178795477Y-206072131D01*
X178810773Y-206090768D01*
X178829410Y-206106063D01*
X178850673Y-206117428D01*
X178873748Y-206124428D01*
X178897739Y-206126791D01*
X178921730Y-206124428D01*
X178944805Y-206117428D01*
X178966069Y-206106063D01*
X178984706Y-206090767D01*
X178996231Y-206076723D01*
X178998103Y-206076019D01*
X178999649Y-206077287D01*
X178999440Y-206079103D01*
X178899987Y-206227946D01*
X178811915Y-206440569D01*
X178767016Y-206666293D01*
X178767016Y-206896431D01*
X178799216Y-207058313D01*
X178798573Y-207060207D01*
X178796611Y-207060597D01*
X178795340Y-207059284D01*
X178790067Y-207041901D01*
X178778702Y-207020637D01*
X178763406Y-207002000D01*
X178744769Y-206986705D01*
X178723506Y-206975340D01*
X178700431Y-206968340D01*
X178676440Y-206965977D01*
X178652449Y-206968340D01*
X178629374Y-206975340D01*
X178608110Y-206986705D01*
X178589473Y-207002001D01*
X178577948Y-207016045D01*
X178576076Y-207016749D01*
X178574530Y-207015481D01*
X178574739Y-207013665D01*
X178674192Y-206864822D01*
X178762264Y-206652199D01*
X178807163Y-206426475D01*
X178807163Y-206196337D01*
X178774963Y-206034455D01*
X178775606Y-206032561D01*
X178777568Y-206032171D01*
X178778839Y-206033484D01*
G37*
G36*
X185518172Y-204869228D02*
G01*
X185523445Y-204886611D01*
X185534810Y-204907875D01*
X185550106Y-204926512D01*
X185568743Y-204941807D01*
X185590006Y-204953172D01*
X185613081Y-204960172D01*
X185637072Y-204962535D01*
X185661063Y-204960172D01*
X185684138Y-204953172D01*
X185705402Y-204941807D01*
X185724039Y-204926511D01*
X185735564Y-204912467D01*
X185737436Y-204911763D01*
X185738982Y-204913031D01*
X185738773Y-204914847D01*
X185639320Y-205063690D01*
X185551248Y-205276313D01*
X185506349Y-205502037D01*
X185506349Y-205732175D01*
X185538549Y-205894057D01*
X185537906Y-205895951D01*
X185535944Y-205896341D01*
X185534673Y-205895028D01*
X185529400Y-205877645D01*
X185518035Y-205856381D01*
X185502739Y-205837744D01*
X185484102Y-205822449D01*
X185462839Y-205811084D01*
X185439764Y-205804084D01*
X185415773Y-205801721D01*
X185391782Y-205804084D01*
X185368707Y-205811084D01*
X185347443Y-205822449D01*
X185328806Y-205837745D01*
X185317281Y-205851789D01*
X185315409Y-205852493D01*
X185313863Y-205851225D01*
X185314072Y-205849409D01*
X185413525Y-205700566D01*
X185501597Y-205487943D01*
X185546496Y-205262219D01*
X185546496Y-205032081D01*
X185514296Y-204870199D01*
X185514939Y-204868305D01*
X185516901Y-204867915D01*
X185518172Y-204869228D01*
G37*
G36*
X154633461Y-204430960D02*
G01*
X154642478Y-204476291D01*
X154711795Y-204643635D01*
X154715646Y-204649398D01*
X154715777Y-204651393D01*
X154714114Y-204652505D01*
X154712437Y-204651778D01*
X154700916Y-204637740D01*
X154682279Y-204622445D01*
X154661016Y-204611079D01*
X154637941Y-204604079D01*
X154613950Y-204601716D01*
X154589959Y-204604079D01*
X154566884Y-204611079D01*
X154545620Y-204622444D01*
X154526983Y-204637739D01*
X154515461Y-204651778D01*
X154513589Y-204652482D01*
X154512043Y-204651213D01*
X154512252Y-204649398D01*
X154582668Y-204544012D01*
X154629651Y-204430585D01*
X154631238Y-204429367D01*
X154633461Y-204430960D01*
G37*
G36*
X154816902Y-203374628D02*
G01*
X154822174Y-203392009D01*
X154833539Y-203413273D01*
X154848834Y-203431909D01*
X154867471Y-203447205D01*
X154888735Y-203458570D01*
X154911810Y-203465570D01*
X154935801Y-203467933D01*
X154959792Y-203465570D01*
X154982867Y-203458570D01*
X154998892Y-203450004D01*
X155000891Y-203450070D01*
X155001834Y-203451833D01*
X155000946Y-203453431D01*
X154940507Y-203493815D01*
X154817467Y-203616855D01*
X154815535Y-203617373D01*
X154814053Y-203615441D01*
X154814053Y-203380764D01*
X154813026Y-203375599D01*
X154813669Y-203373705D01*
X154815631Y-203373315D01*
X154816902Y-203374628D01*
G37*
G36*
X148524638Y-203117437D02*
G01*
X148524638Y-203352114D01*
X148525665Y-203357279D01*
X148525022Y-203359173D01*
X148523060Y-203359563D01*
X148521789Y-203358250D01*
X148516517Y-203340869D01*
X148505152Y-203319605D01*
X148489857Y-203300969D01*
X148471220Y-203285673D01*
X148449956Y-203274308D01*
X148426881Y-203267308D01*
X148402890Y-203264945D01*
X148378899Y-203267308D01*
X148355824Y-203274308D01*
X148339799Y-203282874D01*
X148337800Y-203282808D01*
X148336857Y-203281045D01*
X148337745Y-203279447D01*
X148398184Y-203239063D01*
X148521224Y-203116023D01*
X148523156Y-203115505D01*
X148524638Y-203117437D01*
G37*
G36*
X148626254Y-202081100D02*
G01*
X148637775Y-202095138D01*
X148656412Y-202110433D01*
X148677675Y-202121799D01*
X148700750Y-202128799D01*
X148724741Y-202131162D01*
X148748732Y-202128799D01*
X148771807Y-202121799D01*
X148793071Y-202110434D01*
X148811708Y-202095139D01*
X148823230Y-202081100D01*
X148825102Y-202080396D01*
X148826648Y-202081665D01*
X148826439Y-202083480D01*
X148756023Y-202188866D01*
X148709040Y-202302293D01*
X148707453Y-202303511D01*
X148705230Y-202301918D01*
X148696213Y-202256587D01*
X148626896Y-202089243D01*
X148623045Y-202083480D01*
X148622914Y-202081485D01*
X148624577Y-202080373D01*
X148626254Y-202081100D01*
G37*
G36*
X149241560Y-201427800D02*
G01*
X149419453Y-201463185D01*
X149420957Y-201464504D01*
X149420174Y-201466810D01*
X149261694Y-201572703D01*
X149228823Y-201605574D01*
X149226891Y-201606092D01*
X149225477Y-201604678D01*
X149225863Y-201602891D01*
X149237384Y-201588853D01*
X149248749Y-201567589D01*
X149255749Y-201544514D01*
X149258112Y-201520523D01*
X149255749Y-201496532D01*
X149248749Y-201473457D01*
X149237384Y-201452193D01*
X149222089Y-201433556D01*
X149203452Y-201418261D01*
X149187433Y-201409699D01*
X149186377Y-201408000D01*
X149187320Y-201406237D01*
X149189141Y-201406087D01*
X149241560Y-201427800D01*
G37*
G36*
X150574733Y-200927512D02*
G01*
X150574703Y-200929340D01*
X150566139Y-200945362D01*
X150559139Y-200968437D01*
X150556776Y-200992428D01*
X150559139Y-201016419D01*
X150566139Y-201039494D01*
X150577504Y-201060757D01*
X150592799Y-201079394D01*
X150611436Y-201094690D01*
X150632700Y-201106055D01*
X150655775Y-201113055D01*
X150673850Y-201114835D01*
X150675476Y-201116000D01*
X150675280Y-201117990D01*
X150673654Y-201118825D01*
X150424997Y-201118825D01*
X150423265Y-201117825D01*
X150423583Y-201115411D01*
X150489859Y-201049135D01*
X150571276Y-200927286D01*
X150573070Y-200926401D01*
X150574733Y-200927512D01*
G37*
G36*
X148413603Y-200390161D02*
G01*
X148414016Y-200391379D01*
X148414016Y-200419431D01*
X148458915Y-200645155D01*
X148465259Y-200660471D01*
X148464998Y-200662454D01*
X148463150Y-200663219D01*
X148461647Y-200662179D01*
X148453086Y-200646162D01*
X148437791Y-200627525D01*
X148419154Y-200612229D01*
X148397890Y-200600864D01*
X148374816Y-200593864D01*
X148350824Y-200591501D01*
X148326833Y-200593864D01*
X148303758Y-200600864D01*
X148282495Y-200612229D01*
X148268455Y-200623751D01*
X148266481Y-200624077D01*
X148265213Y-200622531D01*
X148265772Y-200620791D01*
X148266550Y-200620013D01*
X148394410Y-200428656D01*
X148410168Y-200390614D01*
X148411755Y-200389396D01*
X148413603Y-200390161D01*
G37*
G36*
X148479750Y-199517423D02*
G01*
X148488311Y-199533440D01*
X148503606Y-199552077D01*
X148522243Y-199567373D01*
X148543507Y-199578738D01*
X148566581Y-199585738D01*
X148590573Y-199588101D01*
X148614564Y-199585738D01*
X148637639Y-199578738D01*
X148658902Y-199567373D01*
X148672942Y-199555851D01*
X148674916Y-199555525D01*
X148676184Y-199557071D01*
X148675625Y-199558811D01*
X148674847Y-199559589D01*
X148546987Y-199750946D01*
X148531229Y-199788988D01*
X148529642Y-199790206D01*
X148527794Y-199789441D01*
X148527381Y-199788223D01*
X148527381Y-199760171D01*
X148482482Y-199534447D01*
X148476138Y-199519131D01*
X148476399Y-199517148D01*
X148478247Y-199516383D01*
X148479750Y-199517423D01*
G37*
G36*
X155152936Y-199225905D02*
G01*
X155153349Y-199227123D01*
X155153349Y-199255175D01*
X155198248Y-199480899D01*
X155204592Y-199496215D01*
X155204331Y-199498198D01*
X155202483Y-199498963D01*
X155200980Y-199497923D01*
X155192419Y-199481906D01*
X155177124Y-199463269D01*
X155158487Y-199447973D01*
X155137223Y-199436608D01*
X155114149Y-199429608D01*
X155090157Y-199427245D01*
X155066166Y-199429608D01*
X155043091Y-199436608D01*
X155021828Y-199447973D01*
X155007788Y-199459495D01*
X155005814Y-199459821D01*
X155004546Y-199458275D01*
X155005105Y-199456535D01*
X155005883Y-199455757D01*
X155133743Y-199264400D01*
X155149501Y-199226358D01*
X155151088Y-199225140D01*
X155152936Y-199225905D01*
G37*
G36*
X155219083Y-198353167D02*
G01*
X155227644Y-198369184D01*
X155242939Y-198387821D01*
X155261576Y-198403117D01*
X155282840Y-198414482D01*
X155305914Y-198421482D01*
X155329906Y-198423845D01*
X155353897Y-198421482D01*
X155376972Y-198414482D01*
X155398235Y-198403117D01*
X155412275Y-198391595D01*
X155414249Y-198391269D01*
X155415517Y-198392815D01*
X155414958Y-198394555D01*
X155414180Y-198395333D01*
X155286320Y-198586690D01*
X155270562Y-198624732D01*
X155268975Y-198625950D01*
X155267127Y-198625185D01*
X155266714Y-198623967D01*
X155266714Y-198595915D01*
X155221815Y-198370191D01*
X155215471Y-198354875D01*
X155215732Y-198352892D01*
X155217580Y-198352127D01*
X155219083Y-198353167D01*
G37*
G36*
X383176285Y-147557500D02*
G01*
X383176285Y-147559500D01*
X383174749Y-147560490D01*
X383150562Y-147562872D01*
X383127487Y-147569872D01*
X383106223Y-147581237D01*
X383087586Y-147596532D01*
X383072291Y-147615169D01*
X383060926Y-147636433D01*
X383053926Y-147659508D01*
X383051563Y-147683499D01*
X383053926Y-147707490D01*
X383060926Y-147730565D01*
X383072291Y-147751829D01*
X383087586Y-147770466D01*
X383106223Y-147785761D01*
X383122240Y-147794321D01*
X383123296Y-147796019D01*
X383122353Y-147797783D01*
X383120532Y-147797933D01*
X383087043Y-147784062D01*
X382861319Y-147739163D01*
X382631181Y-147739163D01*
X382405457Y-147784062D01*
X382371969Y-147797933D01*
X382369986Y-147797672D01*
X382369221Y-147795824D01*
X382370261Y-147794321D01*
X382386276Y-147785761D01*
X382404913Y-147770466D01*
X382420209Y-147751829D01*
X382431574Y-147730566D01*
X382438574Y-147707491D01*
X382440937Y-147683499D01*
X382438574Y-147659508D01*
X382431574Y-147636433D01*
X382420209Y-147615170D01*
X382404914Y-147596533D01*
X382386277Y-147581237D01*
X382365014Y-147569872D01*
X382341939Y-147562872D01*
X382317751Y-147560490D01*
X382316125Y-147559325D01*
X382316321Y-147557335D01*
X382317947Y-147556500D01*
X383174553Y-147556500D01*
X383176285Y-147557500D01*
G37*
G36*
X40275561Y-147557200D02*
G01*
X40275561Y-147559200D01*
X40274025Y-147560190D01*
X40249838Y-147562572D01*
X40226763Y-147569572D01*
X40205499Y-147580937D01*
X40186862Y-147596232D01*
X40171567Y-147614869D01*
X40160202Y-147636133D01*
X40153202Y-147659208D01*
X40150839Y-147683199D01*
X40153202Y-147707190D01*
X40160202Y-147730265D01*
X40171567Y-147751529D01*
X40186862Y-147770166D01*
X40205499Y-147785461D01*
X40221517Y-147794022D01*
X40222573Y-147795721D01*
X40221630Y-147797484D01*
X40219809Y-147797634D01*
X40187043Y-147784062D01*
X39961319Y-147739163D01*
X39731181Y-147739163D01*
X39505457Y-147784062D01*
X39472690Y-147797634D01*
X39470707Y-147797373D01*
X39469942Y-147795525D01*
X39470982Y-147794022D01*
X39487000Y-147785461D01*
X39505637Y-147770166D01*
X39520933Y-147751529D01*
X39532298Y-147730265D01*
X39539298Y-147707191D01*
X39541661Y-147683199D01*
X39539298Y-147659208D01*
X39532298Y-147636133D01*
X39520933Y-147614870D01*
X39505638Y-147596233D01*
X39487001Y-147580937D01*
X39465737Y-147569572D01*
X39442663Y-147562572D01*
X39418475Y-147560190D01*
X39416849Y-147559025D01*
X39417045Y-147557035D01*
X39418671Y-147556200D01*
X40273829Y-147556200D01*
X40275561Y-147557200D01*
G37*
G36*
X49726898Y-109431800D02*
G01*
X49726898Y-109433800D01*
X49725362Y-109434790D01*
X49701175Y-109437172D01*
X49678100Y-109444172D01*
X49656836Y-109455537D01*
X49638199Y-109470832D01*
X49622904Y-109489469D01*
X49611539Y-109510733D01*
X49604539Y-109533808D01*
X49602176Y-109557799D01*
X49604539Y-109581790D01*
X49611539Y-109604865D01*
X49622904Y-109626129D01*
X49638199Y-109644766D01*
X49656836Y-109660061D01*
X49678100Y-109671426D01*
X49695481Y-109676698D01*
X49696848Y-109678158D01*
X49696267Y-109680072D01*
X49694510Y-109680574D01*
X49486319Y-109639163D01*
X49256181Y-109639163D01*
X49047990Y-109680574D01*
X49046096Y-109679931D01*
X49045706Y-109677969D01*
X49047019Y-109676698D01*
X49064400Y-109671426D01*
X49085664Y-109660061D01*
X49104301Y-109644766D01*
X49119596Y-109626129D01*
X49130961Y-109604865D01*
X49137961Y-109581790D01*
X49140324Y-109557799D01*
X49137961Y-109533808D01*
X49130961Y-109510733D01*
X49119596Y-109489469D01*
X49104301Y-109470832D01*
X49085664Y-109455537D01*
X49064400Y-109444172D01*
X49041325Y-109437172D01*
X49017138Y-109434790D01*
X49015512Y-109433625D01*
X49015708Y-109431635D01*
X49017334Y-109430800D01*
X49725166Y-109430800D01*
X49726898Y-109431800D01*
G37*
G36*
X373449204Y-109406400D02*
G01*
X373449204Y-109408400D01*
X373447668Y-109409390D01*
X373423481Y-109411772D01*
X373400406Y-109418772D01*
X373379142Y-109430137D01*
X373360505Y-109445432D01*
X373345210Y-109464069D01*
X373333845Y-109485333D01*
X373326845Y-109508408D01*
X373324482Y-109532399D01*
X373326845Y-109556390D01*
X373333845Y-109579465D01*
X373345210Y-109600729D01*
X373360505Y-109619366D01*
X373379142Y-109634661D01*
X373400406Y-109646026D01*
X373417790Y-109651299D01*
X373419157Y-109652759D01*
X373418576Y-109654673D01*
X373416819Y-109655175D01*
X373336319Y-109639163D01*
X373106181Y-109639163D01*
X373025681Y-109655175D01*
X373023787Y-109654532D01*
X373023397Y-109652570D01*
X373024710Y-109651299D01*
X373042094Y-109646026D01*
X373063358Y-109634661D01*
X373081995Y-109619366D01*
X373097290Y-109600729D01*
X373108655Y-109579465D01*
X373115655Y-109556390D01*
X373118018Y-109532399D01*
X373115655Y-109508408D01*
X373108655Y-109485333D01*
X373097290Y-109464069D01*
X373081995Y-109445432D01*
X373063358Y-109430137D01*
X373042094Y-109418772D01*
X373019019Y-109411772D01*
X372994832Y-109409390D01*
X372993206Y-109408225D01*
X372993402Y-109406235D01*
X372995028Y-109405400D01*
X373447472Y-109405400D01*
X373449204Y-109406400D01*
G37*
G36*
X185161845Y-92772324D02*
G01*
X185162610Y-92774172D01*
X185161570Y-92775675D01*
X185145546Y-92784239D01*
X185126909Y-92799535D01*
X185111614Y-92818172D01*
X185100249Y-92839435D01*
X185093249Y-92862510D01*
X185090886Y-92886501D01*
X185093249Y-92910492D01*
X185100249Y-92933567D01*
X185111614Y-92954831D01*
X185126910Y-92973468D01*
X185145547Y-92988763D01*
X185166810Y-93000128D01*
X185189885Y-93007128D01*
X185214072Y-93009510D01*
X185215698Y-93010675D01*
X185215502Y-93012665D01*
X185213876Y-93013500D01*
X184673624Y-93013500D01*
X184671892Y-93012500D01*
X184671892Y-93010500D01*
X184673428Y-93009510D01*
X184697615Y-93007128D01*
X184720690Y-93000128D01*
X184741954Y-92988763D01*
X184760591Y-92973468D01*
X184775886Y-92954831D01*
X184787251Y-92933567D01*
X184794251Y-92910492D01*
X184796614Y-92886501D01*
X184794251Y-92862510D01*
X184787251Y-92839435D01*
X184775886Y-92818171D01*
X184760591Y-92799534D01*
X184741954Y-92784239D01*
X184725930Y-92775675D01*
X184724874Y-92773976D01*
X184725817Y-92772213D01*
X184727638Y-92772063D01*
X184755357Y-92783544D01*
X184880140Y-92808365D01*
X185007360Y-92808365D01*
X185132143Y-92783544D01*
X185159862Y-92772063D01*
X185161845Y-92772324D01*
G37*
G36*
X199126088Y-88275363D02*
G01*
X199136183Y-88290470D01*
X199153231Y-88307516D01*
X199173279Y-88320910D01*
X199195553Y-88330135D01*
X199219203Y-88334839D01*
X199243309Y-88334838D01*
X199266959Y-88330132D01*
X199289233Y-88320905D01*
X199309280Y-88307509D01*
X199326326Y-88290461D01*
X199336411Y-88275367D01*
X199338205Y-88274482D01*
X199339868Y-88275593D01*
X199339838Y-88277421D01*
X199310729Y-88331880D01*
X199289445Y-88402041D01*
X199282250Y-88475094D01*
X199282250Y-88824906D01*
X199289445Y-88897958D01*
X199310728Y-88968119D01*
X199339838Y-89022580D01*
X199339772Y-89024579D01*
X199338009Y-89025522D01*
X199336411Y-89024634D01*
X199326322Y-89009535D01*
X199309275Y-88992488D01*
X199289228Y-88979093D01*
X199266954Y-88969867D01*
X199243304Y-88965162D01*
X199219198Y-88965162D01*
X199195547Y-88969866D01*
X199173274Y-88979092D01*
X199153226Y-88992487D01*
X199136179Y-89009534D01*
X199126089Y-89024634D01*
X199124295Y-89025519D01*
X199122632Y-89024408D01*
X199122662Y-89022580D01*
X199151772Y-88968120D01*
X199173055Y-88897959D01*
X199180250Y-88824906D01*
X199180250Y-88475094D01*
X199173055Y-88402041D01*
X199151772Y-88331880D01*
X199122661Y-88277417D01*
X199122727Y-88275418D01*
X199124490Y-88274475D01*
X199126088Y-88275363D01*
G37*
G36*
X196576088Y-88275363D02*
G01*
X196586183Y-88290470D01*
X196603231Y-88307516D01*
X196623279Y-88320910D01*
X196645553Y-88330135D01*
X196669203Y-88334839D01*
X196693309Y-88334838D01*
X196716959Y-88330132D01*
X196739233Y-88320905D01*
X196759280Y-88307509D01*
X196776326Y-88290461D01*
X196786411Y-88275367D01*
X196788205Y-88274482D01*
X196789868Y-88275593D01*
X196789838Y-88277421D01*
X196760729Y-88331880D01*
X196739445Y-88402041D01*
X196732250Y-88475094D01*
X196732250Y-88824906D01*
X196739445Y-88897958D01*
X196760728Y-88968119D01*
X196789838Y-89022580D01*
X196789772Y-89024579D01*
X196788009Y-89025522D01*
X196786411Y-89024634D01*
X196776322Y-89009535D01*
X196759275Y-88992488D01*
X196739228Y-88979093D01*
X196716954Y-88969867D01*
X196693304Y-88965162D01*
X196669198Y-88965162D01*
X196645547Y-88969866D01*
X196623274Y-88979092D01*
X196603226Y-88992487D01*
X196586179Y-89009534D01*
X196576089Y-89024634D01*
X196574295Y-89025519D01*
X196572632Y-89024408D01*
X196572662Y-89022580D01*
X196601772Y-88968120D01*
X196623055Y-88897959D01*
X196630250Y-88824906D01*
X196630250Y-88475094D01*
X196623055Y-88402041D01*
X196601772Y-88331880D01*
X196572661Y-88277417D01*
X196572727Y-88275418D01*
X196574490Y-88274475D01*
X196576088Y-88275363D01*
G37*
G36*
X198276088Y-88275363D02*
G01*
X198286183Y-88290470D01*
X198303231Y-88307516D01*
X198323279Y-88320910D01*
X198345553Y-88330135D01*
X198369203Y-88334839D01*
X198393309Y-88334838D01*
X198416959Y-88330132D01*
X198439233Y-88320905D01*
X198459280Y-88307509D01*
X198476326Y-88290461D01*
X198486411Y-88275367D01*
X198488205Y-88274482D01*
X198489868Y-88275593D01*
X198489838Y-88277421D01*
X198460729Y-88331880D01*
X198439445Y-88402041D01*
X198432250Y-88475094D01*
X198432250Y-88824906D01*
X198439445Y-88897958D01*
X198460728Y-88968119D01*
X198489838Y-89022580D01*
X198489772Y-89024579D01*
X198488009Y-89025522D01*
X198486411Y-89024634D01*
X198476322Y-89009535D01*
X198459275Y-88992488D01*
X198439228Y-88979093D01*
X198416954Y-88969867D01*
X198393304Y-88965162D01*
X198369198Y-88965162D01*
X198345547Y-88969866D01*
X198323274Y-88979092D01*
X198303226Y-88992487D01*
X198286179Y-89009534D01*
X198276089Y-89024634D01*
X198274295Y-89025519D01*
X198272632Y-89024408D01*
X198272662Y-89022580D01*
X198301772Y-88968120D01*
X198323055Y-88897959D01*
X198330250Y-88824906D01*
X198330250Y-88475094D01*
X198323055Y-88402041D01*
X198301772Y-88331880D01*
X198272661Y-88277417D01*
X198272727Y-88275418D01*
X198274490Y-88274475D01*
X198276088Y-88275363D01*
G37*
G36*
X200826088Y-88275363D02*
G01*
X200836183Y-88290470D01*
X200853231Y-88307516D01*
X200873279Y-88320910D01*
X200895553Y-88330135D01*
X200919203Y-88334839D01*
X200943309Y-88334838D01*
X200966959Y-88330132D01*
X200989233Y-88320905D01*
X201009280Y-88307509D01*
X201026326Y-88290461D01*
X201036411Y-88275367D01*
X201038205Y-88274482D01*
X201039868Y-88275593D01*
X201039838Y-88277421D01*
X201010729Y-88331880D01*
X200989445Y-88402041D01*
X200982250Y-88475094D01*
X200982250Y-88824906D01*
X200989445Y-88897958D01*
X201010728Y-88968119D01*
X201039838Y-89022580D01*
X201039772Y-89024579D01*
X201038009Y-89025522D01*
X201036411Y-89024634D01*
X201026322Y-89009535D01*
X201009275Y-88992488D01*
X200989228Y-88979093D01*
X200966954Y-88969867D01*
X200943304Y-88965162D01*
X200919198Y-88965162D01*
X200895547Y-88969866D01*
X200873274Y-88979092D01*
X200853226Y-88992487D01*
X200836179Y-89009534D01*
X200826089Y-89024634D01*
X200824295Y-89025519D01*
X200822632Y-89024408D01*
X200822662Y-89022580D01*
X200851772Y-88968120D01*
X200873055Y-88897959D01*
X200880250Y-88824906D01*
X200880250Y-88475094D01*
X200873055Y-88402041D01*
X200851772Y-88331880D01*
X200822661Y-88277417D01*
X200822727Y-88275418D01*
X200824490Y-88274475D01*
X200826088Y-88275363D01*
G37*
G36*
X201676088Y-88275363D02*
G01*
X201686183Y-88290470D01*
X201703231Y-88307516D01*
X201723279Y-88320910D01*
X201745553Y-88330135D01*
X201769203Y-88334839D01*
X201793309Y-88334838D01*
X201816959Y-88330132D01*
X201839233Y-88320905D01*
X201859280Y-88307509D01*
X201876326Y-88290461D01*
X201886411Y-88275367D01*
X201888205Y-88274482D01*
X201889868Y-88275593D01*
X201889838Y-88277421D01*
X201860729Y-88331880D01*
X201839445Y-88402041D01*
X201832250Y-88475094D01*
X201832250Y-88824906D01*
X201839445Y-88897958D01*
X201860728Y-88968119D01*
X201889838Y-89022580D01*
X201889772Y-89024579D01*
X201888009Y-89025522D01*
X201886411Y-89024634D01*
X201876322Y-89009535D01*
X201859275Y-88992488D01*
X201839228Y-88979093D01*
X201816954Y-88969867D01*
X201793304Y-88965162D01*
X201769198Y-88965162D01*
X201745547Y-88969866D01*
X201723274Y-88979092D01*
X201703226Y-88992487D01*
X201686179Y-89009534D01*
X201676089Y-89024634D01*
X201674295Y-89025519D01*
X201672632Y-89024408D01*
X201672662Y-89022580D01*
X201701772Y-88968120D01*
X201723055Y-88897959D01*
X201730250Y-88824906D01*
X201730250Y-88475094D01*
X201723055Y-88402041D01*
X201701772Y-88331880D01*
X201672661Y-88277417D01*
X201672727Y-88275418D01*
X201674490Y-88274475D01*
X201676088Y-88275363D01*
G37*
G36*
X199976088Y-88275363D02*
G01*
X199986183Y-88290470D01*
X200003231Y-88307516D01*
X200023279Y-88320910D01*
X200045553Y-88330135D01*
X200069203Y-88334839D01*
X200093309Y-88334838D01*
X200116959Y-88330132D01*
X200139233Y-88320905D01*
X200159280Y-88307509D01*
X200176326Y-88290461D01*
X200186411Y-88275367D01*
X200188205Y-88274482D01*
X200189868Y-88275593D01*
X200189838Y-88277421D01*
X200160729Y-88331880D01*
X200139445Y-88402041D01*
X200132250Y-88475094D01*
X200132250Y-88824906D01*
X200139445Y-88897958D01*
X200160728Y-88968119D01*
X200189838Y-89022580D01*
X200189772Y-89024579D01*
X200188009Y-89025522D01*
X200186411Y-89024634D01*
X200176322Y-89009535D01*
X200159275Y-88992488D01*
X200139228Y-88979093D01*
X200116954Y-88969867D01*
X200093304Y-88965162D01*
X200069198Y-88965162D01*
X200045547Y-88969866D01*
X200023274Y-88979092D01*
X200003226Y-88992487D01*
X199986179Y-89009534D01*
X199976089Y-89024634D01*
X199974295Y-89025519D01*
X199972632Y-89024408D01*
X199972662Y-89022580D01*
X200001772Y-88968120D01*
X200023055Y-88897959D01*
X200030250Y-88824906D01*
X200030250Y-88475094D01*
X200023055Y-88402041D01*
X200001772Y-88331880D01*
X199972661Y-88277417D01*
X199972727Y-88275418D01*
X199974490Y-88274475D01*
X199976088Y-88275363D01*
G37*
G36*
X197426088Y-88275363D02*
G01*
X197436183Y-88290470D01*
X197453231Y-88307516D01*
X197473279Y-88320910D01*
X197495553Y-88330135D01*
X197519203Y-88334839D01*
X197543309Y-88334838D01*
X197566959Y-88330132D01*
X197589233Y-88320905D01*
X197609280Y-88307509D01*
X197626326Y-88290461D01*
X197636411Y-88275367D01*
X197638205Y-88274482D01*
X197639868Y-88275593D01*
X197639838Y-88277421D01*
X197610729Y-88331880D01*
X197589445Y-88402041D01*
X197582250Y-88475094D01*
X197582250Y-88824906D01*
X197589445Y-88897958D01*
X197610728Y-88968119D01*
X197639838Y-89022580D01*
X197639772Y-89024579D01*
X197638009Y-89025522D01*
X197636411Y-89024634D01*
X197626322Y-89009535D01*
X197609275Y-88992488D01*
X197589228Y-88979093D01*
X197566954Y-88969867D01*
X197543304Y-88965162D01*
X197519198Y-88965162D01*
X197495547Y-88969866D01*
X197473274Y-88979092D01*
X197453226Y-88992487D01*
X197436179Y-89009534D01*
X197426089Y-89024634D01*
X197424295Y-89025519D01*
X197422632Y-89024408D01*
X197422662Y-89022580D01*
X197451772Y-88968120D01*
X197473055Y-88897959D01*
X197480250Y-88824906D01*
X197480250Y-88475094D01*
X197473055Y-88402041D01*
X197451772Y-88331880D01*
X197422661Y-88277417D01*
X197422727Y-88275418D01*
X197424490Y-88274475D01*
X197426088Y-88275363D01*
G37*
G36*
X198271088Y-86950363D02*
G01*
X198281183Y-86965470D01*
X198298231Y-86982516D01*
X198318279Y-86995910D01*
X198340553Y-87005135D01*
X198364203Y-87009839D01*
X198388309Y-87009838D01*
X198411959Y-87005132D01*
X198434233Y-86995905D01*
X198454280Y-86982509D01*
X198471326Y-86965461D01*
X198481411Y-86950367D01*
X198483205Y-86949482D01*
X198484868Y-86950593D01*
X198484838Y-86952421D01*
X198455729Y-87006880D01*
X198434445Y-87077041D01*
X198427250Y-87150094D01*
X198427250Y-87499906D01*
X198434445Y-87572958D01*
X198455728Y-87643119D01*
X198484838Y-87697580D01*
X198484772Y-87699579D01*
X198483009Y-87700522D01*
X198481411Y-87699634D01*
X198471322Y-87684535D01*
X198454275Y-87667488D01*
X198434228Y-87654093D01*
X198411954Y-87644867D01*
X198388304Y-87640162D01*
X198364198Y-87640162D01*
X198340547Y-87644866D01*
X198318274Y-87654092D01*
X198298226Y-87667487D01*
X198281179Y-87684534D01*
X198271089Y-87699634D01*
X198269295Y-87700519D01*
X198267632Y-87699408D01*
X198267662Y-87697580D01*
X198296772Y-87643120D01*
X198318055Y-87572959D01*
X198325250Y-87499906D01*
X198325250Y-87150094D01*
X198318055Y-87077041D01*
X198296772Y-87006880D01*
X198267661Y-86952417D01*
X198267727Y-86950418D01*
X198269490Y-86949475D01*
X198271088Y-86950363D01*
G37*
G36*
X196571088Y-86950363D02*
G01*
X196581183Y-86965470D01*
X196598231Y-86982516D01*
X196618279Y-86995910D01*
X196640553Y-87005135D01*
X196664203Y-87009839D01*
X196688309Y-87009838D01*
X196711959Y-87005132D01*
X196734233Y-86995905D01*
X196754280Y-86982509D01*
X196771326Y-86965461D01*
X196781411Y-86950367D01*
X196783205Y-86949482D01*
X196784868Y-86950593D01*
X196784838Y-86952421D01*
X196755729Y-87006880D01*
X196734445Y-87077041D01*
X196727250Y-87150094D01*
X196727250Y-87499906D01*
X196734445Y-87572958D01*
X196755728Y-87643119D01*
X196784838Y-87697580D01*
X196784772Y-87699579D01*
X196783009Y-87700522D01*
X196781411Y-87699634D01*
X196771322Y-87684535D01*
X196754275Y-87667488D01*
X196734228Y-87654093D01*
X196711954Y-87644867D01*
X196688304Y-87640162D01*
X196664198Y-87640162D01*
X196640547Y-87644866D01*
X196618274Y-87654092D01*
X196598226Y-87667487D01*
X196581179Y-87684534D01*
X196571089Y-87699634D01*
X196569295Y-87700519D01*
X196567632Y-87699408D01*
X196567662Y-87697580D01*
X196596772Y-87643120D01*
X196618055Y-87572959D01*
X196625250Y-87499906D01*
X196625250Y-87150094D01*
X196618055Y-87077041D01*
X196596772Y-87006880D01*
X196567661Y-86952417D01*
X196567727Y-86950418D01*
X196569490Y-86949475D01*
X196571088Y-86950363D01*
G37*
G36*
X200821088Y-86950363D02*
G01*
X200831183Y-86965470D01*
X200848231Y-86982516D01*
X200868279Y-86995910D01*
X200890553Y-87005135D01*
X200914203Y-87009839D01*
X200938309Y-87009838D01*
X200961959Y-87005132D01*
X200984233Y-86995905D01*
X201004280Y-86982509D01*
X201021326Y-86965461D01*
X201031411Y-86950367D01*
X201033205Y-86949482D01*
X201034868Y-86950593D01*
X201034838Y-86952421D01*
X201005729Y-87006880D01*
X200984445Y-87077041D01*
X200977250Y-87150094D01*
X200977250Y-87499906D01*
X200984445Y-87572958D01*
X201005728Y-87643119D01*
X201034838Y-87697580D01*
X201034772Y-87699579D01*
X201033009Y-87700522D01*
X201031411Y-87699634D01*
X201021322Y-87684535D01*
X201004275Y-87667488D01*
X200984228Y-87654093D01*
X200961954Y-87644867D01*
X200938304Y-87640162D01*
X200914198Y-87640162D01*
X200890547Y-87644866D01*
X200868274Y-87654092D01*
X200848226Y-87667487D01*
X200831179Y-87684534D01*
X200821089Y-87699634D01*
X200819295Y-87700519D01*
X200817632Y-87699408D01*
X200817662Y-87697580D01*
X200846772Y-87643120D01*
X200868055Y-87572959D01*
X200875250Y-87499906D01*
X200875250Y-87150094D01*
X200868055Y-87077041D01*
X200846772Y-87006880D01*
X200817661Y-86952417D01*
X200817727Y-86950418D01*
X200819490Y-86949475D01*
X200821088Y-86950363D01*
G37*
G36*
X199121088Y-86950363D02*
G01*
X199131183Y-86965470D01*
X199148231Y-86982516D01*
X199168279Y-86995910D01*
X199190553Y-87005135D01*
X199214203Y-87009839D01*
X199238309Y-87009838D01*
X199261959Y-87005132D01*
X199284233Y-86995905D01*
X199304280Y-86982509D01*
X199321326Y-86965461D01*
X199331411Y-86950367D01*
X199333205Y-86949482D01*
X199334868Y-86950593D01*
X199334838Y-86952421D01*
X199305729Y-87006880D01*
X199284445Y-87077041D01*
X199277250Y-87150094D01*
X199277250Y-87499906D01*
X199284445Y-87572958D01*
X199305728Y-87643119D01*
X199334838Y-87697580D01*
X199334772Y-87699579D01*
X199333009Y-87700522D01*
X199331411Y-87699634D01*
X199321322Y-87684535D01*
X199304275Y-87667488D01*
X199284228Y-87654093D01*
X199261954Y-87644867D01*
X199238304Y-87640162D01*
X199214198Y-87640162D01*
X199190547Y-87644866D01*
X199168274Y-87654092D01*
X199148226Y-87667487D01*
X199131179Y-87684534D01*
X199121089Y-87699634D01*
X199119295Y-87700519D01*
X199117632Y-87699408D01*
X199117662Y-87697580D01*
X199146772Y-87643120D01*
X199168055Y-87572959D01*
X199175250Y-87499906D01*
X199175250Y-87150094D01*
X199168055Y-87077041D01*
X199146772Y-87006880D01*
X199117661Y-86952417D01*
X199117727Y-86950418D01*
X199119490Y-86949475D01*
X199121088Y-86950363D01*
G37*
G36*
X199971088Y-86950363D02*
G01*
X199981183Y-86965470D01*
X199998231Y-86982516D01*
X200018279Y-86995910D01*
X200040553Y-87005135D01*
X200064203Y-87009839D01*
X200088309Y-87009838D01*
X200111959Y-87005132D01*
X200134233Y-86995905D01*
X200154280Y-86982509D01*
X200171326Y-86965461D01*
X200181411Y-86950367D01*
X200183205Y-86949482D01*
X200184868Y-86950593D01*
X200184838Y-86952421D01*
X200155729Y-87006880D01*
X200134445Y-87077041D01*
X200127250Y-87150094D01*
X200127250Y-87499906D01*
X200134445Y-87572958D01*
X200155728Y-87643119D01*
X200184838Y-87697580D01*
X200184772Y-87699579D01*
X200183009Y-87700522D01*
X200181411Y-87699634D01*
X200171322Y-87684535D01*
X200154275Y-87667488D01*
X200134228Y-87654093D01*
X200111954Y-87644867D01*
X200088304Y-87640162D01*
X200064198Y-87640162D01*
X200040547Y-87644866D01*
X200018274Y-87654092D01*
X199998226Y-87667487D01*
X199981179Y-87684534D01*
X199971089Y-87699634D01*
X199969295Y-87700519D01*
X199967632Y-87699408D01*
X199967662Y-87697580D01*
X199996772Y-87643120D01*
X200018055Y-87572959D01*
X200025250Y-87499906D01*
X200025250Y-87150094D01*
X200018055Y-87077041D01*
X199996772Y-87006880D01*
X199967661Y-86952417D01*
X199967727Y-86950418D01*
X199969490Y-86949475D01*
X199971088Y-86950363D01*
G37*
G36*
X197421088Y-86950363D02*
G01*
X197431183Y-86965470D01*
X197448231Y-86982516D01*
X197468279Y-86995910D01*
X197490553Y-87005135D01*
X197514203Y-87009839D01*
X197538309Y-87009838D01*
X197561959Y-87005132D01*
X197584233Y-86995905D01*
X197604280Y-86982509D01*
X197621326Y-86965461D01*
X197631411Y-86950367D01*
X197633205Y-86949482D01*
X197634868Y-86950593D01*
X197634838Y-86952421D01*
X197605729Y-87006880D01*
X197584445Y-87077041D01*
X197577250Y-87150094D01*
X197577250Y-87499906D01*
X197584445Y-87572958D01*
X197605728Y-87643119D01*
X197634838Y-87697580D01*
X197634772Y-87699579D01*
X197633009Y-87700522D01*
X197631411Y-87699634D01*
X197621322Y-87684535D01*
X197604275Y-87667488D01*
X197584228Y-87654093D01*
X197561954Y-87644867D01*
X197538304Y-87640162D01*
X197514198Y-87640162D01*
X197490547Y-87644866D01*
X197468274Y-87654092D01*
X197448226Y-87667487D01*
X197431179Y-87684534D01*
X197421089Y-87699634D01*
X197419295Y-87700519D01*
X197417632Y-87699408D01*
X197417662Y-87697580D01*
X197446772Y-87643120D01*
X197468055Y-87572959D01*
X197475250Y-87499906D01*
X197475250Y-87150094D01*
X197468055Y-87077041D01*
X197446772Y-87006880D01*
X197417661Y-86952417D01*
X197417727Y-86950418D01*
X197419490Y-86949475D01*
X197421088Y-86950363D01*
G37*
G36*
X201673587Y-86955039D02*
G01*
X201683681Y-86970145D01*
X201700728Y-86987192D01*
X201720776Y-87000586D01*
X201743050Y-87009812D01*
X201766700Y-87014516D01*
X201790806Y-87014516D01*
X201814456Y-87009811D01*
X201836730Y-87000584D01*
X201856777Y-86987189D01*
X201873824Y-86970142D01*
X201883908Y-86955050D01*
X201885702Y-86954165D01*
X201887365Y-86955276D01*
X201887335Y-86957104D01*
X201860729Y-87006880D01*
X201839445Y-87077041D01*
X201832250Y-87150094D01*
X201832250Y-87499906D01*
X201839445Y-87572958D01*
X201860728Y-87643119D01*
X201887339Y-87692906D01*
X201887273Y-87694905D01*
X201885510Y-87695848D01*
X201883912Y-87694960D01*
X201873822Y-87679858D01*
X201856775Y-87662811D01*
X201836727Y-87649416D01*
X201814453Y-87640189D01*
X201790803Y-87635485D01*
X201766697Y-87635485D01*
X201743047Y-87640189D01*
X201720773Y-87649416D01*
X201700726Y-87662810D01*
X201683679Y-87679857D01*
X201673588Y-87694960D01*
X201671794Y-87695845D01*
X201670131Y-87694734D01*
X201670161Y-87692906D01*
X201696772Y-87643120D01*
X201718055Y-87572959D01*
X201725250Y-87499906D01*
X201725250Y-87150094D01*
X201718055Y-87077041D01*
X201696772Y-87006880D01*
X201670160Y-86957093D01*
X201670226Y-86955094D01*
X201671989Y-86954151D01*
X201673587Y-86955039D01*
G37*
M02*
