  0
SECTION
  2
HEADER
  9
$ACADVER
  1
AC1009
  0
ENDSEC
  0
SECTION
  2
ENTITIES
  0
POLYLINE
  5
90
  8
Layer_0
  62
0
  70
1
  66
1
  10
0
  20
0
  30
0
  0
VERTEX
  5
90
  8
Layer_0
  10
450.189
  20
458.69693
  0
VERTEX
  5
91
  8
Layer_0
  10
450.16666
  20
458.91864
  0
VERTEX
  5
92
  8
Layer_0
  10
450.10254
  20
459.12512
  0
VERTEX
  5
93
  8
Layer_0
  10
450.00116
  20
459.31195
  0
VERTEX
  5
94
  8
Layer_0
  10
449.86682
  20
459.47476
  0
VERTEX
  5
95
  8
Layer_0
  10
449.70404
  20
459.60907
  0
VERTEX
  5
96
  8
Layer_0
  10
449.51715
  20
459.71051
  0
VERTEX
  5
97
  8
Layer_0
  10
449.31067
  20
459.7746
  0
VERTEX
  5
98
  8
Layer_0
  10
449.08899
  20
459.79694
  0
VERTEX
  5
99
  8
Layer_0
  10
448.86731
  20
459.7746
  0
VERTEX
  5
9a
  8
Layer_0
  10
448.66083
  20
459.71051
  0
VERTEX
  5
9b
  8
Layer_0
  10
448.47394
  20
459.60907
  0
VERTEX
  5
9c
  8
Layer_0
  10
448.31116
  20
459.47476
  0
VERTEX
  5
9d
  8
Layer_0
  10
448.17682
  20
459.31195
  0
VERTEX
  5
9e
  8
Layer_0
  10
448.07544
  20
459.12512
  0
VERTEX
  5
9f
  8
Layer_0
  10
448.01132
  20
458.91864
  0
VERTEX
  5
a0
  8
Layer_0
  10
447.98898
  20
458.69693
  0
VERTEX
  5
a1
  8
Layer_0
  10
448.01132
  20
458.47525
  0
VERTEX
  5
a2
  8
Layer_0
  10
448.07544
  20
458.26877
  0
VERTEX
  5
a3
  8
Layer_0
  10
448.17682
  20
458.08191
  0
VERTEX
  5
a4
  8
Layer_0
  10
448.31116
  20
457.91913
  0
VERTEX
  5
a5
  8
Layer_0
  10
448.47394
  20
457.78479
  0
VERTEX
  5
a6
  8
Layer_0
  10
448.66083
  20
457.68338
  0
VERTEX
  5
a7
  8
Layer_0
  10
448.86731
  20
457.61929
  0
VERTEX
  5
a8
  8
Layer_0
  10
449.08899
  20
457.59692
  0
VERTEX
  5
a9
  8
Layer_0
  10
449.31067
  20
457.61929
  0
VERTEX
  5
aa
  8
Layer_0
  10
449.51715
  20
457.68338
  0
VERTEX
  5
ab
  8
Layer_0
  10
449.70404
  20
457.78479
  0
VERTEX
  5
ac
  8
Layer_0
  10
449.86682
  20
457.91913
  0
VERTEX
  5
ad
  8
Layer_0
  10
450.00116
  20
458.08191
  0
VERTEX
  5
ae
  8
Layer_0
  10
450.10254
  20
458.26877
  0
VERTEX
  5
af
  8
Layer_0
  10
450.16666
  20
458.47525
  0
VERTEX
  5
b0
  8
Layer_0
  10
450.189
  20
458.69693
  0
SEQEND
  0
POLYLINE
  5
b2
  8
Layer_0
  62
0
  70
1
  66
1
  10
0
  20
0
  30
0
  0
VERTEX
  5
b2
  8
Layer_0
  10
678.83496
  20
476.09335
  0
VERTEX
  5
b3
  8
Layer_0
  10
678.81262
  20
476.31503
  0
VERTEX
  5
b4
  8
Layer_0
  10
678.74854
  20
476.52151
  0
VERTEX
  5
b5
  8
Layer_0
  10
678.64709
  20
476.70837
  0
VERTEX
  5
b6
  8
Layer_0
  10
678.51282
  20
476.87115
  0
VERTEX
  5
b7
  8
Layer_0
  10
678.34998
  20
477.00549
  0
VERTEX
  5
b8
  8
Layer_0
  10
678.16315
  20
477.1069
  0
VERTEX
  5
b9
  8
Layer_0
  10
677.95667
  20
477.17099
  0
VERTEX
  5
ba
  8
Layer_0
  10
677.73499
  20
477.19333
  0
VERTEX
  5
bb
  8
Layer_0
  10
677.51331
  20
477.17099
  0
VERTEX
  5
bc
  8
Layer_0
  10
677.30682
  20
477.1069
  0
VERTEX
  5
bd
  8
Layer_0
  10
677.12
  20
477.00549
  0
VERTEX
  5
be
  8
Layer_0
  10
676.95715
  20
476.87115
  0
VERTEX
  5
bf
  8
Layer_0
  10
676.82288
  20
476.70837
  0
VERTEX
  5
c0
  8
Layer_0
  10
676.72144
  20
476.52151
  0
VERTEX
  5
c1
  8
Layer_0
  10
676.65735
  20
476.31503
  0
VERTEX
  5
c2
  8
Layer_0
  10
676.63501
  20
476.09335
  0
VERTEX
  5
c3
  8
Layer_0
  10
676.65735
  20
475.87164
  0
VERTEX
  5
c4
  8
Layer_0
  10
676.72144
  20
475.66516
  0
VERTEX
  5
c5
  8
Layer_0
  10
676.82288
  20
475.47833
  0
VERTEX
  5
c6
  8
Layer_0
  10
676.95715
  20
475.31552
  0
VERTEX
  5
c7
  8
Layer_0
  10
677.12
  20
475.18121
  0
VERTEX
  5
c8
  8
Layer_0
  10
677.30682
  20
475.07977
  0
VERTEX
  5
c9
  8
Layer_0
  10
677.51331
  20
475.01569
  0
VERTEX
  5
ca
  8
Layer_0
  10
677.73499
  20
474.99335
  0
VERTEX
  5
cb
  8
Layer_0
  10
677.95667
  20
475.01569
  0
VERTEX
  5
cc
  8
Layer_0
  10
678.16315
  20
475.07977
  0
VERTEX
  5
cd
  8
Layer_0
  10
678.34998
  20
475.18121
  0
VERTEX
  5
ce
  8
Layer_0
  10
678.51282
  20
475.31552
  0
VERTEX
  5
cf
  8
Layer_0
  10
678.64709
  20
475.47833
  0
VERTEX
  5
d0
  8
Layer_0
  10
678.74854
  20
475.66516
  0
VERTEX
  5
d1
  8
Layer_0
  10
678.81262
  20
475.87164
  0
VERTEX
  5
d2
  8
Layer_0
  10
678.83496
  20
476.09335
  0
SEQEND
  0
POLYLINE
  5
d4
  8
Layer_0
  62
0
  66
1
  10
0
  20
0
  30
0
  0
VERTEX
  5
d4
  8
Layer_0
  10
681.73572
  20
476.91718
  0
VERTEX
  5
d5
  8
Layer_0
  10
681.73572
  20
457.85953
  0
VERTEX
  5
d6
  8
Layer_0
  10
681.7193
  20
457.53488
  0
VERTEX
  5
d7
  8
Layer_0
  10
681.6712
  20
457.21954
  0
VERTEX
  5
d8
  8
Layer_0
  10
681.59296
  20
456.91516
  0
VERTEX
  5
d9
  8
Layer_0
  10
681.48621
  20
456.62329
  0
VERTEX
  5
da
  8
Layer_0
  10
681.35254
  20
456.34555
  0
VERTEX
  5
db
  8
Layer_0
  10
681.19348
  20
456.08356
  0
VERTEX
  5
dc
  8
Layer_0
  10
681.01068
  20
455.83893
  0
VERTEX
  5
dd
  8
Layer_0
  10
680.80579
  20
455.61322
  0
VERTEX
  5
de
  8
Layer_0
  10
680.58032
  20
455.40805
  0
VERTEX
  5
df
  8
Layer_0
  10
680.33588
  20
455.22504
  0
VERTEX
  5
e0
  8
Layer_0
  10
680.0741
  20
455.0658
  0
VERTEX
  5
e1
  8
Layer_0
  10
679.79657
  20
454.93192
  0
VERTEX
  5
e2
  8
Layer_0
  10
679.50488
  20
454.82498
  0
VERTEX
  5
e3
  8
Layer_0
  10
679.20062
  20
454.74661
  0
VERTEX
  5
e4
  8
Layer_0
  10
678.88538
  20
454.69843
  0
VERTEX
  5
e5
  8
Layer_0
  10
678.56073
  20
454.68201
  0
VERTEX
  5
e6
  8
Layer_0
  10
565.05066
  20
454.68201
  0
VERTEX
  5
e7
  8
Layer_0
  10
487.09299
  20
437.90784
  0
VERTEX
  5
e8
  8
Layer_0
  10
481.09351
  20
437.90784
  0
VERTEX
  5
e9
  8
Layer_0
  10
403.12567
  20
454.68454
  0
VERTEX
  5
ea
  8
Layer_0
  10
313.43573
  20
454.68454
  0
VERTEX
  5
eb
  8
Layer_0
  10
313.11115
  20
454.70093
  0
VERTEX
  5
ec
  8
Layer_0
  10
312.79608
  20
454.74905
  0
VERTEX
  5
ed
  8
Layer_0
  10
312.49207
  20
454.82727
  0
VERTEX
  5
ee
  8
Layer_0
  10
312.20068
  20
454.93405
  0
VERTEX
  5
ef
  8
Layer_0
  10
311.92352
  20
455.06775
  0
VERTEX
  5
f0
  8
Layer_0
  10
311.66217
  20
455.22678
  0
VERTEX
  5
f1
  8
Layer_0
  10
311.41821
  20
455.40955
  0
VERTEX
  5
f2
  8
Layer_0
  10
311.19324
  20
455.61447
  0
VERTEX
  5
f3
  8
Layer_0
  10
310.9888
  20
455.83994
  0
VERTEX
  5
f4
  8
Layer_0
  10
310.80646
  20
456.08438
  0
VERTEX
  5
f5
  8
Layer_0
  10
310.64783
  20
456.34613
  0
VERTEX
  5
f6
  8
Layer_0
  10
310.51453
  20
456.62369
  0
VERTEX
  5
f7
  8
Layer_0
  10
310.40808
  20
456.91541
  0
VERTEX
  5
f8
  8
Layer_0
  10
310.33008
  20
457.21967
  0
VERTEX
  5
f9
  8
Layer_0
  10
310.28214
  20
457.53491
  0
VERTEX
  5
fa
  8
Layer_0
  10
310.26581
  20
457.85953
  0
VERTEX
  5
fb
  8
Layer_0
  10
310.26581
  20
476.91718
  0
VERTEX
  5
fc
  8
Layer_0
  10
310.2822
  20
477.24179
  0
VERTEX
  5
fd
  8
Layer_0
  10
310.33032
  20
477.55704
  0
VERTEX
  5
fe
  8
Layer_0
  10
310.40857
  20
477.8613
  0
VERTEX
  5
ff
  8
Layer_0
  10
310.51532
  20
478.15302
  0
VERTEX
  5
100
  8
Layer_0
  10
310.64899
  20
478.43054
  0
VERTEX
  5
101
  8
Layer_0
  10
310.80804
  20
478.69232
  0
VERTEX
  5
102
  8
Layer_0
  10
310.99081
  20
478.93677
  0
VERTEX
  5
103
  8
Layer_0
  10
311.19574
  20
479.16223
  0
VERTEX
  5
104
  8
Layer_0
  10
311.4212
  20
479.36716
  0
VERTEX
  5
105
  8
Layer_0
  10
311.66562
  20
479.54993
  0
VERTEX
  5
106
  8
Layer_0
  10
311.9274
  20
479.70895
  0
VERTEX
  5
107
  8
Layer_0
  10
312.20496
  20
479.84265
  0
VERTEX
  5
108
  8
Layer_0
  10
312.49664
  20
479.94943
  0
VERTEX
  5
109
  8
Layer_0
  10
312.8009
  20
480.02765
  0
VERTEX
  5
10a
  8
Layer_0
  10
313.11615
  20
480.07578
  0
VERTEX
  5
10b
  8
Layer_0
  10
313.4408
  20
480.09216
  0
VERTEX
  5
10c
  8
Layer_0
  10
678.56073
  20
480.082
  0
VERTEX
  5
10d
  8
Layer_0
  10
678.88538
  20
480.06558
  0
VERTEX
  5
10e
  8
Layer_0
  10
679.20068
  20
480.01746
  0
VERTEX
  5
10f
  8
Layer_0
  10
679.50513
  20
479.93915
  0
VERTEX
  5
110
  8
Layer_0
  10
679.797
  20
479.83234
  0
VERTEX
  5
111
  8
Layer_0
  10
680.07471
  20
479.69855
  0
VERTEX
  5
112
  8
Layer_0
  10
680.33673
  20
479.53943
  0
VERTEX
  5
113
  8
Layer_0
  10
680.58136
  20
479.35657
  0
VERTEX
  5
114
  8
Layer_0
  10
680.80707
  20
479.15155
  0
VERTEX
  5
115
  8
Layer_0
  10
681.01221
  20
478.92596
  0
VERTEX
  5
116
  8
Layer_0
  10
681.19525
  20
478.68146
  0
VERTEX
  5
117
  8
Layer_0
  10
681.35449
  20
478.41959
  0
VERTEX
  5
118
  8
Layer_0
  10
681.4884
  20
478.14197
  0
VERTEX
  5
119
  8
Layer_0
  10
681.59534
  20
477.85019
  0
VERTEX
  5
11a
  8
Layer_0
  10
681.67365
  20
477.54587
  0
VERTEX
  5
11b
  8
Layer_0
  10
681.72186
  20
477.23059
  0
VERTEX
  5
11c
  8
Layer_0
  10
681.73828
  20
476.90594
  0
SEQEND
  0
POLYLINE
  5
11e
  8
Layer_0
  62
0
  70
1
  66
1
  10
0
  20
0
  30
0
  0
VERTEX
  5
11e
  8
Layer_0
  10
520.19897
  20
458.69693
  0
VERTEX
  5
11f
  8
Layer_0
  10
520.17664
  20
458.91864
  0
VERTEX
  5
120
  8
Layer_0
  10
520.11255
  20
459.12512
  0
VERTEX
  5
121
  8
Layer_0
  10
520.01111
  20
459.31195
  0
VERTEX
  5
122
  8
Layer_0
  10
519.87683
  20
459.47476
  0
VERTEX
  5
123
  8
Layer_0
  10
519.71399
  20
459.60907
  0
VERTEX
  5
124
  8
Layer_0
  10
519.52716
  20
459.71051
  0
VERTEX
  5
125
  8
Layer_0
  10
519.32068
  20
459.7746
  0
VERTEX
  5
126
  8
Layer_0
  10
519.099
  20
459.79694
  0
VERTEX
  5
127
  8
Layer_0
  10
518.87732
  20
459.7746
  0
VERTEX
  5
128
  8
Layer_0
  10
518.67084
  20
459.71051
  0
VERTEX
  5
129
  8
Layer_0
  10
518.48395
  20
459.60907
  0
VERTEX
  5
12a
  8
Layer_0
  10
518.32117
  20
459.47476
  0
VERTEX
  5
12b
  8
Layer_0
  10
518.18683
  20
459.31195
  0
VERTEX
  5
12c
  8
Layer_0
  10
518.08545
  20
459.12512
  0
VERTEX
  5
12d
  8
Layer_0
  10
518.02136
  20
458.91864
  0
VERTEX
  5
12e
  8
Layer_0
  10
517.99896
  20
458.69693
  0
VERTEX
  5
12f
  8
Layer_0
  10
518.02136
  20
458.47525
  0
VERTEX
  5
130
  8
Layer_0
  10
518.08545
  20
458.26877
  0
VERTEX
  5
131
  8
Layer_0
  10
518.18683
  20
458.08191
  0
VERTEX
  5
132
  8
Layer_0
  10
518.32117
  20
457.91913
  0
VERTEX
  5
133
  8
Layer_0
  10
518.48395
  20
457.78479
  0
VERTEX
  5
134
  8
Layer_0
  10
518.67084
  20
457.68338
  0
VERTEX
  5
135
  8
Layer_0
  10
518.87732
  20
457.61929
  0
VERTEX
  5
136
  8
Layer_0
  10
519.099
  20
457.59692
  0
VERTEX
  5
137
  8
Layer_0
  10
519.32068
  20
457.61929
  0
VERTEX
  5
138
  8
Layer_0
  10
519.52716
  20
457.68338
  0
VERTEX
  5
139
  8
Layer_0
  10
519.71399
  20
457.78479
  0
VERTEX
  5
13a
  8
Layer_0
  10
519.87683
  20
457.91913
  0
VERTEX
  5
13b
  8
Layer_0
  10
520.01111
  20
458.08191
  0
VERTEX
  5
13c
  8
Layer_0
  10
520.11255
  20
458.26877
  0
VERTEX
  5
13d
  8
Layer_0
  10
520.17664
  20
458.47525
  0
VERTEX
  5
13e
  8
Layer_0
  10
520.19897
  20
458.69693
  0
SEQEND
  0
POLYLINE
  5
140
  8
Layer_0
  62
0
  70
1
  66
1
  10
0
  20
0
  30
0
  0
VERTEX
  5
140
  8
Layer_0
  10
315.36481
  20
458.69693
  0
VERTEX
  5
141
  8
Layer_0
  10
315.34247
  20
458.91864
  0
VERTEX
  5
142
  8
Layer_0
  10
315.27838
  20
459.12512
  0
VERTEX
  5
143
  8
Layer_0
  10
315.17694
  20
459.31195
  0
VERTEX
  5
144
  8
Layer_0
  10
315.04263
  20
459.47476
  0
VERTEX
  5
145
  8
Layer_0
  10
314.87982
  20
459.60907
  0
VERTEX
  5
146
  8
Layer_0
  10
314.69299
  20
459.71051
  0
VERTEX
  5
147
  8
Layer_0
  10
314.48651
  20
459.7746
  0
VERTEX
  5
148
  8
Layer_0
  10
314.2648
  20
459.79694
  0
VERTEX
  5
149
  8
Layer_0
  10
314.04309
  20
459.7746
  0
VERTEX
  5
14a
  8
Layer_0
  10
313.83661
  20
459.71051
  0
VERTEX
  5
14b
  8
Layer_0
  10
313.64978
  20
459.60907
  0
VERTEX
  5
14c
  8
Layer_0
  10
313.48697
  20
459.47476
  0
VERTEX
  5
14d
  8
Layer_0
  10
313.35266
  20
459.31195
  0
VERTEX
  5
14e
  8
Layer_0
  10
313.25122
  20
459.12512
  0
VERTEX
  5
14f
  8
Layer_0
  10
313.18713
  20
458.91864
  0
VERTEX
  5
150
  8
Layer_0
  10
313.16479
  20
458.69693
  0
VERTEX
  5
151
  8
Layer_0
  10
313.18713
  20
458.47525
  0
VERTEX
  5
152
  8
Layer_0
  10
313.25122
  20
458.26877
  0
VERTEX
  5
153
  8
Layer_0
  10
313.35266
  20
458.08191
  0
VERTEX
  5
154
  8
Layer_0
  10
313.48697
  20
457.91913
  0
VERTEX
  5
155
  8
Layer_0
  10
313.64978
  20
457.78479
  0
VERTEX
  5
156
  8
Layer_0
  10
313.83661
  20
457.68338
  0
VERTEX
  5
157
  8
Layer_0
  10
314.04309
  20
457.61929
  0
VERTEX
  5
158
  8
Layer_0
  10
314.2648
  20
457.59692
  0
VERTEX
  5
159
  8
Layer_0
  10
314.48651
  20
457.61929
  0
VERTEX
  5
15a
  8
Layer_0
  10
314.69299
  20
457.68338
  0
VERTEX
  5
15b
  8
Layer_0
  10
314.87982
  20
457.78479
  0
VERTEX
  5
15c
  8
Layer_0
  10
315.04263
  20
457.91913
  0
VERTEX
  5
15d
  8
Layer_0
  10
315.17694
  20
458.08191
  0
VERTEX
  5
15e
  8
Layer_0
  10
315.27838
  20
458.26877
  0
VERTEX
  5
15f
  8
Layer_0
  10
315.34247
  20
458.47525
  0
VERTEX
  5
160
  8
Layer_0
  10
315.36481
  20
458.69693
  0
SEQEND
  0
POLYLINE
  5
162
  8
Layer_0
  62
0
  70
1
  66
1
  10
0
  20
0
  30
0
  0
VERTEX
  5
162
  8
Layer_0
  10
678.83496
  20
458.69693
  0
VERTEX
  5
163
  8
Layer_0
  10
678.81262
  20
458.91864
  0
VERTEX
  5
164
  8
Layer_0
  10
678.74854
  20
459.12512
  0
VERTEX
  5
165
  8
Layer_0
  10
678.64709
  20
459.31195
  0
VERTEX
  5
166
  8
Layer_0
  10
678.51282
  20
459.47476
  0
VERTEX
  5
167
  8
Layer_0
  10
678.34998
  20
459.60907
  0
VERTEX
  5
168
  8
Layer_0
  10
678.16315
  20
459.71051
  0
VERTEX
  5
169
  8
Layer_0
  10
677.95667
  20
459.7746
  0
VERTEX
  5
16a
  8
Layer_0
  10
677.73499
  20
459.79694
  0
VERTEX
  5
16b
  8
Layer_0
  10
677.51331
  20
459.7746
  0
VERTEX
  5
16c
  8
Layer_0
  10
677.30682
  20
459.71051
  0
VERTEX
  5
16d
  8
Layer_0
  10
677.12
  20
459.60907
  0
VERTEX
  5
16e
  8
Layer_0
  10
676.95715
  20
459.47476
  0
VERTEX
  5
16f
  8
Layer_0
  10
676.82288
  20
459.31195
  0
VERTEX
  5
170
  8
Layer_0
  10
676.72144
  20
459.12512
  0
VERTEX
  5
171
  8
Layer_0
  10
676.65735
  20
458.91864
  0
VERTEX
  5
172
  8
Layer_0
  10
676.63501
  20
458.69693
  0
VERTEX
  5
173
  8
Layer_0
  10
676.65735
  20
458.47525
  0
VERTEX
  5
174
  8
Layer_0
  10
676.72144
  20
458.26877
  0
VERTEX
  5
175
  8
Layer_0
  10
676.82288
  20
458.08191
  0
VERTEX
  5
176
  8
Layer_0
  10
676.95715
  20
457.91913
  0
VERTEX
  5
177
  8
Layer_0
  10
677.12
  20
457.78479
  0
VERTEX
  5
178
  8
Layer_0
  10
677.30682
  20
457.68338
  0
VERTEX
  5
179
  8
Layer_0
  10
677.51331
  20
457.61929
  0
VERTEX
  5
17a
  8
Layer_0
  10
677.73499
  20
457.59692
  0
VERTEX
  5
17b
  8
Layer_0
  10
677.95667
  20
457.61929
  0
VERTEX
  5
17c
  8
Layer_0
  10
678.16315
  20
457.68338
  0
VERTEX
  5
17d
  8
Layer_0
  10
678.34998
  20
457.78479
  0
VERTEX
  5
17e
  8
Layer_0
  10
678.51282
  20
457.91913
  0
VERTEX
  5
17f
  8
Layer_0
  10
678.64709
  20
458.08191
  0
VERTEX
  5
180
  8
Layer_0
  10
678.74854
  20
458.26877
  0
VERTEX
  5
181
  8
Layer_0
  10
678.81262
  20
458.47525
  0
VERTEX
  5
182
  8
Layer_0
  10
678.83496
  20
458.69693
  0
SEQEND
  0
POLYLINE
  5
184
  8
Layer_0
  62
0
  70
1
  66
1
  10
0
  20
0
  30
0
  0
VERTEX
  5
184
  8
Layer_0
  10
315.36481
  20
476.09335
  0
VERTEX
  5
185
  8
Layer_0
  10
315.34247
  20
476.31503
  0
VERTEX
  5
186
  8
Layer_0
  10
315.27838
  20
476.52151
  0
VERTEX
  5
187
  8
Layer_0
  10
315.17694
  20
476.70837
  0
VERTEX
  5
188
  8
Layer_0
  10
315.04263
  20
476.87115
  0
VERTEX
  5
189
  8
Layer_0
  10
314.87982
  20
477.00549
  0
VERTEX
  5
18a
  8
Layer_0
  10
314.69299
  20
477.1069
  0
VERTEX
  5
18b
  8
Layer_0
  10
314.48651
  20
477.17099
  0
VERTEX
  5
18c
  8
Layer_0
  10
314.2648
  20
477.19333
  0
VERTEX
  5
18d
  8
Layer_0
  10
314.04309
  20
477.17099
  0
VERTEX
  5
18e
  8
Layer_0
  10
313.83661
  20
477.1069
  0
VERTEX
  5
18f
  8
Layer_0
  10
313.64978
  20
477.00549
  0
VERTEX
  5
190
  8
Layer_0
  10
313.48697
  20
476.87115
  0
VERTEX
  5
191
  8
Layer_0
  10
313.35266
  20
476.70837
  0
VERTEX
  5
192
  8
Layer_0
  10
313.25122
  20
476.52151
  0
VERTEX
  5
193
  8
Layer_0
  10
313.18713
  20
476.31503
  0
VERTEX
  5
194
  8
Layer_0
  10
313.16479
  20
476.09335
  0
VERTEX
  5
195
  8
Layer_0
  10
313.18713
  20
475.87164
  0
VERTEX
  5
196
  8
Layer_0
  10
313.25122
  20
475.66516
  0
VERTEX
  5
197
  8
Layer_0
  10
313.35266
  20
475.47833
  0
VERTEX
  5
198
  8
Layer_0
  10
313.48697
  20
475.31552
  0
VERTEX
  5
199
  8
Layer_0
  10
313.64978
  20
475.18121
  0
VERTEX
  5
19a
  8
Layer_0
  10
313.83661
  20
475.07977
  0
VERTEX
  5
19b
  8
Layer_0
  10
314.04309
  20
475.01569
  0
VERTEX
  5
19c
  8
Layer_0
  10
314.2648
  20
474.99335
  0
VERTEX
  5
19d
  8
Layer_0
  10
314.48651
  20
475.01569
  0
VERTEX
  5
19e
  8
Layer_0
  10
314.69299
  20
475.07977
  0
VERTEX
  5
19f
  8
Layer_0
  10
314.87982
  20
475.18121
  0
VERTEX
  5
1a0
  8
Layer_0
  10
315.04263
  20
475.31552
  0
VERTEX
  5
1a1
  8
Layer_0
  10
315.17694
  20
475.47833
  0
VERTEX
  5
1a2
  8
Layer_0
  10
315.27838
  20
475.66516
  0
VERTEX
  5
1a3
  8
Layer_0
  10
315.34247
  20
475.87164
  0
VERTEX
  5
1a4
  8
Layer_0
  10
315.36481
  20
476.09335
  0
SEQEND
  0
ENDSEC
  0
EOF
